<?xml version="1.0" encoding="UTF-8" standalone="no"?>
<!-- Created with Inkscape (http://www.inkscape.org/) -->

<svg
   xmlns:dc="http://purl.org/dc/elements/1.1/"
   xmlns:cc="http://creativecommons.org/ns#"
   xmlns:rdf="http://www.w3.org/1999/02/22-rdf-syntax-ns#"
   xmlns:svg="http://www.w3.org/2000/svg"
   xmlns="http://www.w3.org/2000/svg"
   xmlns:sodipodi="http://sodipodi.sourceforge.net/DTD/sodipodi-0.dtd"
   xmlns:inkscape="http://www.inkscape.org/namespaces/inkscape"
   width="297mm"
   height="210mm"
   viewBox="0 0 297 210"
   version="1.1"
   id="svg8"
   inkscape:version="0.92.2 5c3e80d, 2017-08-06"
   sodipodi:docname="about.svg">
  <defs
     id="defs2">
    <clipPath
       clipPathUnits="userSpaceOnUse"
       id="clipPath830">
      <rect
         style="opacity:0.38100011;fill:#e6e6e6;stroke:#e6e6e6;stroke-width:0.2;stroke-miterlimit:4;stroke-dasharray:none;stroke-opacity:1"
         id="rect832"
         width="44.79018"
         height="42.711311"
         x="174.625"
         y="107.44494"
         ry="5.6696506" />
    </clipPath>
  </defs>
  <sodipodi:namedview
     id="base"
     pagecolor="#ffffff"
     bordercolor="#666666"
     borderopacity="1.0"
     inkscape:pageopacity="0.0"
     inkscape:pageshadow="2"
     inkscape:zoom="0.98994949"
     inkscape:cx="555.11235"
     inkscape:cy="393.82189"
     inkscape:document-units="mm"
     inkscape:current-layer="layer3"
     showgrid="false"
     inkscape:window-width="1680"
     inkscape:window-height="1005"
     inkscape:window-x="0"
     inkscape:window-y="1"
     inkscape:window-maximized="1" />
  <metadata
     id="metadata5">
    <rdf:RDF>
      <cc:Work
         rdf:about="">
        <dc:format>image/svg+xml</dc:format>
        <dc:type
           rdf:resource="http://purl.org/dc/dcmitype/StillImage" />
        <dc:title />
      </cc:Work>
    </rdf:RDF>
  </metadata>
  <g
     inkscape:groupmode="layer"
     id="layer2"
     inkscape:label="Tracing"
     transform="translate(0,-87)"
     style="display:inline" />
  <g
     inkscape:groupmode="layer"
     id="layer3"
     inkscape:label="udsnit"
     style="display:inline">
    <path
       id="path899"
       style="display:inline;fill:#000000;stroke-width:0.38842261"
       d="m 227.0682,4.2199564 c 0.0669,0.1003059 0.14525,0.1970524 0.20938,0.2982034 l 2.45708,-0.2982034 z M 136.33721,6.2558938 C 71.453882,6.036474 33.63896,53.407305 59.224982,86.163803 c 13.086119,23.192237 38.562597,51.892497 7.925523,73.866587 -9.994988,8.63244 -29.725524,11.0065 -45.209987,15.26632 0.758652,1.20998 1.657673,2.36574 2.68494,3.45832 C 36.8,175.41538 49.576064,171.54555 60.930786,168.03256 100.35735,152.48203 89.834087,119.64858 73.114671,98.070497 61.295174,81.907393 49.354946,55.099642 68.665411,36.031225 91.77821,1.4979061 188.25232,-1.3552568 214.95585,31.699825 c 5.26829,2.247696 9.26848,2.611082 13.67596,4.833341 C 212.56721,19.091309 184.35922,9.3542794 149.66345,6.9509881 145.10804,6.4949051 140.66278,6.2705224 136.33721,6.2558938 Z m 85.61287,25.7336902 c 8.78194,9.374457 30.30356,29.121356 33.81907,36.819851 9.72336,18.898282 0.5378,34.878125 -3.08309,54.117105 17.69896,-26.35027 25.77059,-62.446295 -30.73598,-90.936956 z m 30.73598,90.936956 c -4.94895,7.36802 -10.32887,14.72639 -14.83497,22.11644 -9.52921,22.84744 -49.34642,38.30837 -89.44699,31.97646 -37.27511,-5.55995 -79.22898,-10.46599 -113.334433,2.62375 -5.913786,9.89451 44.12063,-10.78402 58.979595,-4.6082 43.292288,4.55913 100.284538,16.2912 131.682608,-9.16064 15.84039,-13.26463 24.11765,-27.87625 26.95419,-42.94781 z M 152.58547,7.4637268 c 0.16291,-0.033174 0.40709,0.03286 0.73283,0.2982046 -0.97714,0.7960311 -1.22141,-0.1987058 -0.73283,-0.2982046 z m 62.46204,1.8600206 v 0.386163 c 0.0407,-0.0044 0.0847,-0.02001 0.12626,-0.02575 -0.0428,-0.119928 -0.076,-0.241227 -0.12626,-0.360419 z m -2.12149,1.6626466 c -0.0582,0.04735 -0.15434,0.102909 -0.22168,0.15232 0.3513,0.09669 0.7017,0.195072 1.05304,0.291767 0.0724,-0.0069 0.10343,-0.01718 0.18781,-0.0236 0.0707,0.04174 0.13635,0.08837 0.2063,0.130866 0.0925,0.02545 0.1846,0.05176 0.27711,0.07724 -0.0681,-0.123943 -0.12743,-0.247709 -0.18474,-0.37329 -0.44589,-0.08395 -0.52818,-0.08996 -1.31784,-0.255297 z m 1.22547,0.551355 c -0.13113,-0.03611 -0.26296,-0.07115 -0.39411,-0.107278 -1.2154,0.116631 -0.86215,0.339278 -1.15158,1.115583 l 0.5604,0.05577 1.56108,-0.489138 c -0.0669,-0.112668 -0.13771,-0.223567 -0.20322,-0.336822 -0.12476,-0.07903 -0.24586,-0.161141 -0.37257,-0.238134 z m 0.89602,-0.04291 v 0.289622 c 0.12946,0.0356 0.25859,0.07159 0.38795,0.107265 l 0.0955,-0.03003 c 9.4e-4,-0.03886 -0.006,-0.07704 -0.003,-0.115846 -0.15417,-0.08216 -0.29328,-0.158928 -0.48032,-0.251005 z m -27.68392,41.355943 c -20.16607,0.393312 -12.80228,26.94768 0.18165,3.724336 28.03071,8.02644 -13.41235,23.624509 5.29292,35.799472 6.48313,-0.250866 0.9017,-3.925097 2.66955,-4.932158 0.61072,-2.098542 23.63227,-20.913224 2.24773,-32.937583 -4.06853,-1.233064 -7.511,-1.710251 -10.39185,-1.654067 z m 8.14412,34.59165 c -0.092,0.31574 0.31168,0.262017 1.46257,-0.259591 -0.7307,5.72e-4 -1.1817,0.09963 -1.46257,0.259591 z M 128.75655,70.219546 c -1.97559,0.08809 -2.43269,3.120491 -11.56191,5.734521 7.56808,-15.499607 -34.366093,9.05969 -4.57243,6.064914 13.30803,16.076631 -33.212817,8.729438 3.47629,16.32612 4.54348,22.033339 11.06827,-19.7832 16.59002,8.748749 2.559,-1.19501 17.52618,-19.492523 8.39046,-15.444382 -22.63854,0.483775 9.2176,-20.185841 -2.2631,-16.019347 -5.89481,-3.680092 -8.21766,-5.182676 -9.64057,-5.38697 -0.14812,-0.0213 -0.28706,-0.02944 -0.41876,-0.02361 z m -4.20293,9.506056 c 3.30546,-0.182415 6.36243,2.885592 5.30526,12.644706 -18.82547,-0.101606 -11.61566,-12.296464 -5.30526,-12.644706 z m 69.95956,6.330929 c 0.22029,-7.58e-4 0.50173,0.02493 0.85598,0.08799 -0.91519,1.213742 -2.39798,-0.08272 -0.85598,-0.08799 z M 192.80737,101.074 c -9.34059,0.15281 -16.87306,5.41835 -3.51321,12.42802 10.6035,-2.75873 13.02518,0.52461 19.60752,-1.92224 -0.47162,-7.65084 -8.82939,-10.62468 -16.09431,-10.50578 z m -0.50805,4.3808 c 3.43825,0.12368 6.30301,1.39418 0.6928,4.25638 -10.48157,-2.67932 -5.11338,-4.41541 -0.6928,-4.25638 z m -63.7121,31.32429 c -7.00808,0.19445 -14.14835,4.28763 -4.20911,10.9606 6.17972,1.94797 8.75185,-1.6667 12.22391,-3.71576 2.80769,-5.1881 -2.5641,-7.3961 -8.0148,-7.24484 z m 23.29317,0.54276 c -4.61716,-0.1373 -8.76339,2.03277 -6.37677,8.83885 l 2.44479,1.06838 2.8974,-0.75087 c 17.73461,-2.28585 8.72978,-8.92754 1.03458,-9.15636 z m 34.78116,1.44597 c -5.63906,-0.0835 -10.27769,1.74956 -2.98668,7.23413 21.60693,-2.8959 11.22841,-7.1121 2.98668,-7.23413 z m -58.9919,2.20971 c 0.4749,0.0537 1.18405,0.4547 2.18923,1.41379 -1.8917,4.61811 -4.2474,-1.64642 -2.18923,-1.41379 z"
       inkscape:connector-curvature="0"
       sodipodi:nodetypes="ccccsccccccccccsccccccccccccccccccccccccccccccccccccccccccccccccccccccccccccccscsccccccccccccccccccccccccc" />
  </g>
</svg>
