<?xml version="1.0" encoding="UTF-8" standalone="no"?>
<!-- Created with Inkscape (http://www.inkscape.org/) -->

<svg
  xmlns:dc="http://purl.org/dc/elements/1.1/"
  xmlns:cc="http://creativecommons.org/ns#"
  xmlns:rdf="http://www.w3.org/1999/02/22-rdf-syntax-ns#"
  xmlns:svg="http://www.w3.org/2000/svg"
  xmlns="http://www.w3.org/2000/svg"
  xmlns:sodipodi="http://sodipodi.sourceforge.net/DTD/sodipodi-0.dtd"
  xmlns:inkscape="http://www.inkscape.org/namespaces/inkscape"
  width="210mm"
  height="297mm"
  viewBox="0 0 210 297"
  version="1.1"
  id="svg8"
  inkscape:version="0.92.2 5c3e80d, 2017-08-06"
  sodipodi:docname="exterminator.svg">
  <defs id="defs2">
    <clipPath clipPathUnits="userSpaceOnUse" id="clipPath966">
      <rect style="display:inline;opacity:0.38100011;fill:#e6e6e6;stroke:#e6e6e6;stroke-width:0.26458332;stroke-opacity:1" id="rect968" width="703.45337" height="1131.0846" x="-222.36824" y="-440.66388" ry="5.6696506" transform="rotate(-90)"/>
    </clipPath>
  </defs>
  <sodipodi:namedview
    id="base"
    pagecolor="#ffffff"
    bordercolor="#666666"
    borderopacity="1.0"
    inkscape:pageopacity="0.0"
    inkscape:pageshadow="2"
    inkscape:zoom="0.49497476"
    inkscape:cx="433.54566"
    inkscape:cy="540.89261"
    inkscape:document-units="mm"
    inkscape:current-layer="layer2"
    showgrid="false"
    inkscape:window-width="1680"
    inkscape:window-height="1005"
    inkscape:window-x="0"
    inkscape:window-y="1"
    inkscape:window-maximized="1"/>
  <metadata id="metadata5">
    <rdf:RDF>
      <cc:Work rdf:about="">
        <dc:format>image/svg+xml</dc:format>
        <dc:type rdf:resource="http://purl.org/dc/dcmitype/StillImage"/>
        <dc:title/>
      </cc:Work>
    </rdf:RDF>
  </metadata>
  <g inkscape:groupmode="layer" id="layer2" inkscape:label="Trace" style="display:inline">
    <path
      id="path953"
      style="fill:#000000;stroke-width:0.09904312"
      d="m 127.04241,6.3956772 c -8.43404,0.018 -13.99939,9.7677598 -17.13835,17.5090198 -7.77207,14.45469 -14.03491,30.18099 -17.27598,46.70962 -5.72958,-9.99492 -13.0932,-17.82968 -18.60501,-27.98333 -1.48426,-5.16122 -5.68767,-3.13802 -9.5904,-1.87241 -15.17759,7.1017 -28.44794,19.0555 -37.57162,33.97464 C 16.4035,91.377737 14.3688,112.30251 11.9388,131.82624 c 0.5974,4.97066 -0.81202,17.30422 3.04993,19.47543 0.56458,-3.68974 3.8991,-4.60182 4.55426,-8.45199 4.46433,-12.19561 10.16378,-23.04218 17.58236,-33.0837 5.33464,-7.49168 10.93048,-15.093483 17.98794,-20.903853 6.64677,-7.41915 16.3973,-10.61501 24.32389,-16.23875 2.46626,-1.23433 6.4635,-3.91355 7.27036,-3.27348 3.63593,3.31856 0.14256,3.74402 4.55287,7.39419 4.31471,7.58909 9.06818,13.96268 13.40231,21.5745 6.70416,14.311653 16.26505,27.041343 24.22873,40.122093 1.3476,7.39646 5.98265,14.62208 9.40194,21.72478 6.95185,8.84368 11.87925,19.17268 15.84627,29.95079 2.12816,5.02206 4.31702,16.68628 -3.42644,16.241 -6.60011,-4.88913 -10.43263,-13.54344 -16.36554,-19.40064 -2.38607,-2.32796 -6.54126,-8.60647 -7.90834,-9.10264 5.6466,8.11909 12.33634,15.02543 18.00415,23.28099 2.0083,4.27789 8.3732,10.04666 11.46833,3.84023 3.27696,-11.20772 -4.60061,-21.54503 -8.22911,-31.46478 -5.7991,-9.12775 -12.00578,-18.28931 -16.17618,-28.6044 -3.23158,-7.85524 2.73047,2.04363 3.51819,4.32396 3.28217,2.3039 6.66308,10.20589 8.1085,13.51517 2.50594,3.1692 4.09715,7.9523 7.24404,11.35566 -0.1445,5.09151 5.23656,4.95795 4.31736,10.87299 3.30275,-1.06616 3.82977,7.80272 4.87907,7.54563 3.76633,4.75891 6.29558,10.86247 9.14234,16.25242 -0.30149,-1.99818 2.56712,4.39093 5.62475,9.5304 1.73419,1.88892 4.21974,9.87724 6.39007,9.85708 -0.14682,-0.28081 -0.39536,-0.88196 -0.78787,-1.9607 -0.33913,-2.96078 0.84068,0.95913 0.95276,1.9434 0.41295,-0.0837 0.81335,-0.47486 1.1936,-1.27335 -5.10322,-10.88963 -11.47956,-21.24845 -17.38296,-31.20314 -1.29399,-2.3477 -7.23987,-11.5657 -5.27156,-7.86099 2.6826,4.59136 5.33475,11.22328 0.9553,3.02375 -1.90385,-3.95301 -6.79115,-12.29795 -3.46993,-8.12834 -2.20071,-3.83706 -4.65944,-9.29679 -6.68947,-10.67313 -3.46654,-5.59791 3.072,3.16289 -1.58455,-4.00183 -1.62688,-4.38275 -7.31603,-11.05396 -6.17399,-13.64401 -3.60763,-4.09041 -5.4278,-9.38026 -8.57766,-14.10571 -0.0506,-0.13385 -0.0685,-0.18247 -0.11156,-0.29655 1.3699,3.72958 5.20587,14.58661 -0.67707,2.86017 -2.27206,-3.85297 -3.53026,-5.89021 -6.21777,-9.76813 3.04681,-0.67804 -6.67724,-5.28026 -2.02566,-5.76946 -6.06716,-2.40865 -1.19386,-6.5176 -5.57601,-5.82614 -1.3274,-2.84163 -5.14175,-6.55088 -5.15059,-8.84727 4.75329,1.41903 -5.04296,-3.34227 -4.86592,-8.07138 6.55635,6.67118 3.50583,-0.21781 -0.92377,-1.30095 -4.15662,-6.304513 6.33813,2.35753 -1.90106,-4.737613 -6.21629,-6.49926 4.42314,2.541853 -0.37903,-2.87095 -6.95277,-4.06926 1.4871,-3.62752 -6.4606,-7.8088 -1.98874,-3.38974 -1.49793,-5.84864 -4.53387,-9.34214 -2.10495,-4.55732 4.06563,3.78534 5.2599,5.66192 -0.73166,-3.35332 -4.51478,-8.30594 -6.84121,-12.09067 1.70276,-12.4547 6.59331,-23.79183 10.86513,-35.32241 4.58472,-7.13042 6.97801,-15.65053 11.83415,-22.49058 3.66042,-5.4252398 10.53412,-9.3474498 16.31095,-4.4850298 8.97601,8.0035198 14.32292,20.6312098 15.52463,33.1442698 -5.51461,6.24864 -8.62731,14.22399 -13.60626,20.86643 -6.9801,13.57707 -13.30723,27.34545 -20.88917,40.454443 -2.86248,-2.67848 -4.59265,-7.857573 -7.20559,-10.736503 8.1633,15.612273 18.36889,30.371123 26.86996,45.936623 -4.77628,-10.98121 -12.73545,-22.29637 -19.03876,-33.22107 1.75024,-4.6529 4.98224,-9.931253 7.40751,-14.812323 1.70734,5.5182 3.14954,17.957013 11.35805,17.416953 3.80545,-1.1335 5.24799,-11.066983 7.14117,-2.3892 2.92894,0.70665 4.64384,10.9689 4.88843,6.40615 5.1587,11.16306 4.63058,24.07699 7.48903,35.9866 0.22934,11.00627 3.19971,17.47097 1.04169,2.78276 -3.24872,-13.84067 -3.39342,-28.52907 -8.52063,-41.82298 1.79681,-12.711953 1.87063,-25.580393 3.86074,-38.275333 0.30639,-11.61823 2.61237,-23.90703 -0.55074,-35.10141 -0.77257,-4.42571 -2.12953,-7.38309 -3.20445,-10.43796 -4.35577,-6.96 -7.28792,-15.83401 -15.05288,-19.1871798 -1.02737,-0.26364 -2.01744,-0.38592 -2.97085,-0.38388 z m 6.74055,133.5830428 c -0.47629,-1.29672 -0.63584,-1.68618 0,0 z m 47.11278,88.1633 c -0.0548,0.0111 -0.1097,0.0168 -0.16489,0.0173 0.15229,0.2913 0.19338,0.23293 0.16489,-0.0173 z M 254.83822,24.747767 c -0.35362,0.3876 0.34901,0.56464 0,0 z M 67.25898,41.609417 c 0.23851,0.002 0.41203,0.159 -0.12364,0.52103 -0.50043,-0.32532 -0.14666,-0.52302 0.12364,-0.52103 z m -0.80965,0.38114 c -2.29457,1.51333 -5.3244,2.35847 -7.76573,3.99273 0.94593,-2.40003 5.55958,-3.0829 7.76573,-3.99273 z m 4.29085,0.1676 c 0.70474,-0.015 1.37086,0.15189 1.97824,0.58685 4.65703,7.91421 11.39906,14.86522 14.84605,23.45341 -3.12567,1.41173 -6.67281,3.65464 -9.8971,4.97025 -8.4062,4.65519 -16.55854,10.39184 -24.41765,16.35147 -13.15699,11.9559 -23.4644,27.346773 -31.11546,44.005983 -0.48493,-1.37456 -2.93262,9.72341 -4.16574,6.1543 0.0782,-21.75314 2.92645,-44.593283 13.98662,-63.259103 6.61245,-13.07244 18.19077,-22.04586 29.91875,-28.91051 2.74207,-0.43738 6.10153,-3.29385 8.86629,-3.35265 z m 77.13578,3.12376 c -1.10389,15.55405 -4.04179,30.9639 -6.59161,46.27884 -2.54053,5.59165 -3.53348,14.438153 -9.84864,16.111913 -6.23017,-2.23109 -7.05382,-10.521033 -8.71681,-16.355723 -0.15871,-3.53317 2.71504,-6.71549 4.06749,-9.98522 1.1378,0.19276 10.45115,-5.7457 2.68721,-4.64694 0.13189,-2.631 3.04747,-5.97161 4.08738,-8.99456 4.62757,-7.55587 8.92057,-15.73979 14.31498,-22.40831 z m -89.63504,0.693 c -5.36039,4.13207 -11.42573,7.96838 -16.36753,12.88879 3.92268,-4.91883 10.31996,-10.01333 16.36753,-12.88879 z m 90.1326,6.68886 c 0.17774,-0.0281 -0.90727,10.99252 -1.32976,16.9004 -0.63504,8.53694 -1.66859,14.02215 -4.33466,20.76525 0.90455,-9.56012 3.84806,-19.45944 4.45862,-29.26093 0.78341,-6.09632 1.12502,-8.39191 1.2058,-8.40472 z m -107.63721,6.97704 c 0.10195,0.003 0.0809,0.19611 -0.22602,0.75119 -1.27809,0.69424 -0.0559,-0.75824 0.22602,-0.75119 z m 107.68373,-0.13267 c 0.1024,-0.0268 0.2675,1.15441 -0.0583,0.75362 -0.0124,-0.54762 0.0182,-0.74312 0.0583,-0.75362 z m -108.80721,1.70765 c -2.088,1.60957 -4.28715,7.48516 -5.98,6.60121 1.07683,-2.52514 4.34514,-5.48356 5.98,-6.60121 z m 108.68791,0.46921 c 0.0727,-0.0178 0.25967,0.35181 0.0529,0.44265 -0.0976,-0.31762 -0.091,-0.43331 -0.0529,-0.44265 z m 0.033,2.16101 c 0.0928,-0.006 0.22535,0.10062 0.0288,0.25115 -0.14923,-0.17353 -0.10107,-0.24643 -0.0288,-0.25115 z m -0.34593,2.54738 c 0.0374,0.0356 0.15586,1.31846 -0.004,0.34046 -0.0101,-0.26261 -0.006,-0.35043 0.004,-0.34046 z m -58.75245,0.81462 c 0.0149,-9.6e-4 0.0299,-8.9e-4 0.0449,3e-4 0.16051,0.0145 0.32733,0.16871 0.47156,0.5389 3.99605,4.71317 1.89439,8.05328 -0.96473,1.05875 -0.39999,-0.41174 -0.014,-1.56564 0.44825,-1.59802 z m -56.38706,2.27444 c 0.9681,0.002 1.27296,1.29876 -1.98858,2.31917 0.3533,-1.71508 1.32621,-2.32034 1.98858,-2.31917 z m -2.13356,3.7567 c -0.4754,0.75527 -1.12499,5.55673 -4.45927,5.77736 0.53756,-2.43688 2.21946,-4.87715 4.45927,-5.77736 z m 62.58201,0.4061 c 0.77947,-0.0503 3.02789,3.98311 -0.1063,1.49836 -0.23325,-1.08491 -0.13231,-1.48297 0.1063,-1.49836 z m 48.39671,1.37287 c -2.32965,0.21971 -7.48801,0.32838 -6.52421,3.83699 -0.29326,1.47461 0.4029,1.88341 1.43652,1.20326 2.41579,-0.51327 8.43152,-2.73135 5.08769,-5.04025 z m -48.75818,1.35362 c 0.14358,-0.0145 0.70343,0.37017 0.20104,0.34343 -0.24564,-0.24773 -0.26631,-0.33682 -0.20104,-0.34343 z m 0.40084,1.75205 c 5.01564,4.11445 2.13648,4.73926 0,0 z m 3.79789,0.86968 c 0.075,-0.005 0.18569,0.094 0.10691,0.30948 -0.22122,-0.19696 -0.18191,-0.30484 -0.10691,-0.30948 z m -69.60127,0.44108 c 0.0968,2.31305 -1.74306,5.48697 -4.34672,6.13875 -0.29691,-2.68764 2.03488,-4.98855 4.34672,-6.13875 z m 61.75174,1.83066 c -0.0303,5.8e-4 -0.0616,0.002 -0.094,0.005 -0.2729,3.48141 2.00075,-0.0464 0.094,-0.005 z m 0.33305,2.39093 c -1.87699,5.34436 -3.85952,14.56092 -4.61391,21.605263 0.16992,12.34169 0.71856,24.68662 1.77656,36.97515 0.73906,20.43717 3.99036,40.30571 5.75587,60.44521 0.7179,9.30076 2.06701,15.5065 0.47195,19.27238 0.14442,2.41909 0.8203,21.59868 1.78128,18.90929 1.9577,11.52499 1.73771,4.96032 0.64217,-3.73763 0.44629,-11.5497 -1.1963,-23.11382 -2.51023,-34.4299 -0.15762,-5.71619 -1.08575,-13.99468 -1.99709,-20.0263 -2.75888,-22.83783 -4.02961,-46.08481 -5.26174,-68.99271 -1.0238,-10.30462 2.26167,-20.056843 3.95514,-30.020753 z M 93.008,221.95415 c -0.0202,-0.3381 -0.0302,-0.35335 -0.0289,0.0689 0.01,-0.0228 0.0193,-0.046 0.0289,-0.0689 z m 8.36374,-136.632063 c -0.0827,-0.002 -0.16066,0.022 -0.23324,0.0754 0.89303,2.31549 2.5576,4.65622 4.01158,6.57994 -1.17471,-2.92444 -2.80391,-6.6284 -3.77834,-6.65531 z m 3.77834,6.65531 c 1.27762,3.18065 2.01763,5.43913 0.79296,1.04081 -0.25218,-0.32952 -0.51923,-0.67863 -0.79296,-1.04081 z m -80.49232,-5.9818 c 0.0941,-9.6e-4 0.1878,0.005 0.28095,0.0196 -2.78811,9.17184 -5.5288,18.856033 -6.70669,28.631223 -1.18281,5.33863 0.76859,14.68817 -4.87478,16.00398 -0.86949,-3.88217 1.04403,-5.59917 2.08986,-8.60845 -1.93949,2.48719 -1.7023,-3.9883 0.39671,-5.49615 -1.06613,-0.18032 -1.99149,-2.12786 -0.22451,-5.22626 1.37049,-4.02466 2.67696,-3.73274 1.3901,-6.62218 -0.66076,-2.36923 4.82243,-5.787083 1.94988,-4.947053 -1.47737,-1.97262 1.04618,-6.53165 3.31749,-7.88996 -3.80186,1.56803 -0.53668,-5.82406 2.38099,-5.86472 z m -8.81395,30.550163 c 0.31028,0.0524 0.63247,-0.0443 0.9037,-0.30649 -0.33187,-6.3e-4 -0.63307,0.11209 -0.9037,0.30649 z M 145.97108,85.595087 c 0.27658,0.0247 0.41312,4.98166 -0.53802,6.09107 l -0.13639,-0.72491 0.27935,-0.85063 c 0.0915,-3.36332 0.25998,-4.5276 0.39506,-4.51553 z m -44.62726,4.73372 c 0.25811,0.005 1.07964,0.76978 0.20911,0.62217 -0.32729,-0.46924 -0.32642,-0.62429 -0.20911,-0.62217 z m 0.78507,0.73504 c 0.13474,0.01 0.64372,0.31544 0.17518,0.23577 -0.22029,-0.18276 -0.23644,-0.23994 -0.17518,-0.23577 z m 40.39858,0.23519 c 0.13978,0.006 0.15522,0.6139 -0.074,2.24874 -3.03323,1.51827 3.08582,11.503073 1.99621,4.93341 -2.31045,-7.35269 1.81901,-6.74885 0.67102,0.92881 0.1092,10.646953 -2.62388,0.30456 -4.08914,-3.39794 -0.0302,-0.8013 1.13877,-4.72675 1.49596,-4.71302 z m -10.1093,0.92751 c -1.64477,0.009 -3.9112,1.95895 -5.67672,1.92872 -0.42239,2.0788 1.37546,1.88749 2.46681,2.54767 -2.29945,4.891323 5.5102,4.521673 8.21952,3.03026 -4.75721,-1.1866 0.55522,-3.05539 -3.02664,-4.99673 -0.33327,-1.90905 -1.06028,-2.51493 -1.98297,-2.50992 z m 7.84849,6.24194 c 1.22611,0.0197 -1.67443,3.965383 2.37257,6.335603 4.58475,7.08895 -2.8308,-0.58692 -3.16218,-4.16905 l -0.20172,-0.702843 0.46594,-1.3377 c 0.22742,-0.0881 0.39854,-0.12805 0.52539,-0.12601 z m 90.90154,7.054553 c -0.5929,0.51447 0.65076,0.037 0,0 z m -135.58623,1.87688 c -3.46729,-8.9e-4 -6.45907,4.65574 -6.15282,8.80404 l 0.18671,3.22594 0.13962,1.04195 c 4.78917,18.15707 16.5542,32.54752 27.36792,46.57862 2.64088,2.80136 6.13542,8.93817 8.9467,10.20619 -9.79552,-13.24366 -20.62992,-24.84293 -28.50044,-39.70838 -4.1823,-7.95855 -11.59326,-20.56451 -3.9991,-28.57916 7.40438,-1.10174 12.0943,7.83484 17.39123,12.3278 -3.23623,-4.30654 -7.32825,-9.09301 -11.85853,-12.15225 -1.15688,-1.22664 -2.36553,-1.74444 -3.52129,-1.74475 z m 21.82641,9.11915 c -0.10068,9.6e-4 -0.20393,0.008 -0.30975,0.0183 l -0.0949,0.53835 0.59308,0.98404 c 3.55981,2.8363 2.93265,-1.582 -0.18847,-1.54063 z m -6.0524,4.51878 c 4.39292,6.36093 4.45782,3.19624 0,0 z m 4.23113,4.31871 c 2.91441,4.41905 6.74426,8.85383 9.93029,13.29462 -2.1385,-3.69811 -6.80028,-10.46807 -9.93029,-13.29462 z m -99.0886,4.42969 c 3.01983,0.0499 -3.723,15.14546 -3.51306,5.5508 -0.59936,-2.39212 1.43554,-3.46697 2.5248,-5.21516 0.40631,-0.23606 0.73234,-0.33988 0.98826,-0.33564 z m -0.44568,8.25722 c 1.24285,-0.0364 -1.46065,8.3521 -2.67117,3.6336 -0.81298,-1.11131 0.62734,-1.42703 1.11337,-1.9978 0.77397,-1.17036 1.27098,-1.6274 1.5578,-1.6358 z m 110.75513,2.08979 c 0.23157,2.00688 0.82998,0.57365 0,0 z m -110.47463,2.43435 c 0.88057,-0.004 -1.6851,7.11229 -2.30805,3.58258 -0.25095,-0.76452 0.2962,-1.81533 0.98066,-2.06753 0.69684,-1.09381 1.11366,-1.51414 1.32739,-1.51505 z m 120.49656,5.92335 0.49734,0.10904 c 3.79487,2.85909 1.42846,6.0429 -0.44721,0.39784 z m 3.55782,5.75092 c 0.45611,-0.007 1.082,0.27126 0.91247,0.82788 4.29207,7.6625 2.53134,6.37415 -0.80599,0.0575 -0.84892,-0.58562 -0.56258,-0.87832 -0.10648,-0.88543 z m 55.0548,4.81342 c -0.60608,1.13805 1.21625,0.15335 0,0 z m -50.47474,3.25572 c 0.31245,-0.0416 4.57349,8.32322 0.26285,0.91615 -0.2518,-0.64615 -0.31731,-0.9089 -0.26285,-0.91615 z m 2.34256,4.27359 c 0.13732,-0.0314 0.76504,0.66487 0.26834,0.63066 -0.29187,-0.45183 -0.33077,-0.61641 -0.26834,-0.63066 z m 0.69145,0.88041 c 0.14382,-0.007 0.26445,0.12649 0.0317,0.49939 -0.43985,-0.25304 -0.21657,-0.49122 -0.0317,-0.49939 z m 3.48775,6.7114 c 0.54951,0.0798 2.32052,4.63281 0,0 z m -61.59915,1.05625 c 0.0755,-9.5e-4 0.15602,0.1347 0.0156,0.40868 -0.16128,-0.27085 -0.091,-0.40789 -0.0156,-0.40868 z m 63.47473,2.13649 c 0.24939,-0.0511 1.48252,2.74931 0.004,0.4713 -0.066,-0.32719 -0.0567,-0.46068 -0.004,-0.4713 z m 0.72888,1.39677 c 0.20178,-0.0503 2.06569,2.92789 0.13798,0.49806 -0.15007,-0.34679 -0.17985,-0.48762 -0.13798,-0.49806 z m 3.57043,5.62755 c -0.0777,1.37203 1.43677,1.61967 0,0 z m -65.98587,5.13593 c 0.0864,-6.4e-4 0.17332,0.10014 0.002,0.30337 -0.17378,-0.20135 -0.0878,-0.3029 -0.002,-0.30337 z m 72.81565,8.9526 c 1.22159,-0.0436 5.07785,8.52774 0,0 z m 3.86676,5.55639 c 0.72579,0.0623 3.14736,5.20411 4.17218,6.87212 -1.02124,-1.24954 -3.77295,-3.0195 -4.36622,-6.00829 -0.0497,-0.62476 0.0275,-0.87813 0.19404,-0.86383 z m -6.25985,4.93261 c -0.16105,-0.006 -0.34822,0.27941 -0.56431,0.95302 0.32129,13.97103 2.60421,27.83852 4.51971,41.64044 -2.95172,-10.58714 4.15898,24.3174 2.31411,10.45253 -2.0747,-14.02528 -4.17946,-28.27351 -5.71295,-42.6291 0.43094,2.08352 0.49505,-10.37771 -0.55656,-10.41689 z m 11.20079,5.39794 c 2.84767,0.36313 2.81301,6.24803 0,0 z m 3.123,4.78771 c 0.41489,-0.002 0.9967,0.14809 0.8461,0.31852 3.01769,5.23524 0.75851,4.72984 -1.08825,0.0234 -0.3023,-0.24709 -0.0805,-0.34042 0.24215,-0.34191 z m 66.41584,1.58595 c -0.0949,9.6e-4 -0.2269,0.0218 -0.40461,0.0707 -0.0767,0.88851 1.0693,-0.0775 0.40461,-0.0707 z m -147.99633,4.47965 c 0.0957,0.004 0.23079,0.14759 0.0262,0.30339 -0.15132,-0.22541 -0.10066,-0.30657 -0.0262,-0.30339 z m 1.51145,23.98111 c -0.13497,4.50253 1.00401,1.69284 0,0 z m -110.15599,2.48181 c -0.10082,-9.6e-4 -0.24479,0.0149 -0.44294,0.0552 -0.26001,0.79814 1.14866,-0.0474 0.44294,-0.0552 z m 110.28755,0.078 c -0.82744,2.65494 1.76398,0.24476 0,0 z m 0.46003,1.72044 c -0.54315,0.89563 1.10691,0.34174 0,0 z m 0.80381,7.81432 c -0.0697,4.51889 3.53704,5.87705 6.88903,6.72623 11.82347,0.92493 23.03761,-3.6334 34.46734,-3.86894 5.6062,1.473 13.53374,0.45678 20.23656,2.21471 0.72473,0.11332 7.30781,1.24031 6.96957,-0.76962 -3.81161,0.68459 -9.42452,-1.34006 -13.81964,-1.41612 -6.10018,-0.04 -14.04726,-1.47654 -19.34097,-0.9215 -8.70315,1.10948 -16.99168,3.32936 -25.60141,3.45477 -4.02982,0.20492 -8.0052,-2.89518 -9.80048,-5.41953 z m 61.59293,5.072 c -0.13209,-0.0207 -0.13284,-0.0181 0.20681,0.0546 -0.0688,-0.0187 -0.13781,-0.0365 -0.20681,-0.0546 z m 71.29769,-5.09461 c -0.2393,0.46687 0.86099,0.15157 0,0 z m 29.00595,9.37515 c -0.34542,0.12726 0.33826,0.25381 0,0 z m -112.65921,1.80703 c -0.41299,6.86098 7.32042,10.44508 10.88941,14.86733 3.40358,1.73528 6.34581,7.85935 10.17456,6.83723 1.04151,-4.05574 -3.52469,-8.26626 -5.89317,-11.39798 -2.85686,-2.5568 -4.64625,-9.60445 -6.93046,-10.108 1.65858,7.80096 10.6378,12.73711 11.60359,20.13694 -5.57394,-3.40836 -10.24901,-8.4349 -15.26698,-13.38075 -1.98836,-1.76596 -3.47093,-5.80893 -4.57695,-6.95477 z m -18.33668,3.81795 c -0.13033,0.008 -0.25702,0.0886 -0.37813,0.25169 0.78852,3.11827 2.31787,6.56698 3.24956,9.96686 -0.39943,-5.0706 -1.76517,-10.28377 -2.87143,-10.21855 z m 2.87143,10.21855 c 0.2228,2.8284 0.14526,5.61251 -0.44648,7.41131 -3.56608,-0.542 -5.22841,-4.88354 -7.75193,-7.84321 -2.02469,-2.49891 -4.06774,-9.52057 -5.91292,-8.94209 -0.29204,1.1166 0.35815,1.88855 0.7497,2.77296 4.0946,5.2805 6.74674,13.95474 13.17982,15.96906 1.42381,-2.84953 1.0812,-6.08605 0.18181,-9.36803 z m 106.62215,-0.3141 c -0.37867,0.52787 0.61427,1.50215 0,0 z m 0.19052,1.17225 c -0.34929,0.26759 0.3411,0.39662 0,0 z m 0.0666,0.44666 c -0.18194,0.0459 0.13761,0.45365 0,0 z m 0.32102,0.32866 c -0.32394,0.24367 0.1817,0.29756 0,0 z m 8.4526,4.83652 c -0.0332,0.005 -0.0835,0.0331 -0.15594,0.0946 -0.22004,0.98952 0.38849,-0.12847 0.15594,-0.0946 z m 12.7949,7.17551 c -0.33829,0.26669 0.3407,0.26298 0,0 z m -0.87745,4.97931 c -0.341,0.25441 0.43028,0.36232 0,0 z m -0.32935,0.15835 c -0.33595,0.25749 0.34656,0.12348 0,0 z m -3.02153,1.51944 c -0.33829,0.26669 0.3407,0.26297 0,0 z m -9.92223,11.87937 c -0.40782,0.0484 0.25272,0.14826 0,0 z m 11.55207,5.61482 c 0.0127,0.006 0.0276,0.007 0.0432,0.007 -0.0148,-0.003 -0.0289,-0.005 -0.0432,-0.007 z m 0.43773,0.16843 c -0.0118,0.0257 -0.0213,0.0502 -0.0296,0.0743 0.0241,0.007 0.0482,0.0135 0.0723,0.0203 -0.0127,-0.0301 -0.0257,-0.0604 -0.0427,-0.0945 z m -21.26106,7.00911 c -0.33828,0.26669 0.3407,0.26299 0,0 z m 8.816,2.59608 c -0.0464,0.0709 -0.0928,0.14164 -0.13904,0.21258 0.14612,0.11888 0.32771,-0.0645 0.13904,-0.21258 z m 0.19018,0.8792 c -0.33828,0.26668 0.3407,0.26296 0,0 z m -1.4025,2.49544 c -0.32395,0.24368 0.18169,0.29757 0,0 z m -0.58605,0.99018 c -0.40247,0.3579 0.81414,0.0458 0,0 z m -2.71114,4.99252 c -0.40126,0.25288 0.51865,0.28348 0,0 z m 2.9645,7.03266 c -0.0602,0.0994 -0.0993,0.16316 -0.15658,0.25763 0.0288,-0.019 0.0655,-0.055 0.10421,-0.0979 0.0174,-0.0533 0.0352,-0.10637 0.0524,-0.15973 z m 15.11254,0.66976 c -0.003,9.4e-4 -0.011,0.01 -0.0265,0.0289 -0.0675,0.0834 -0.13933,0.198 -0.21283,0.32702 8e-5,0.0113 1.1e-4,0.0225 1.5e-4,0.0337 0.1121,-0.17607 0.25355,-0.39386 0.2393,-0.38956 z m -18.22714,4.34243 c -0.0243,0.0435 -0.0512,0.0917 -0.0772,0.13799 0.0361,-0.0268 0.0685,-0.0834 0.0772,-0.13799 z m -0.0371,0.48761 c -0.0346,0.002 -0.0865,0.0366 -0.1587,0.12857 0.18428,0.27787 0.28214,-0.13516 0.1587,-0.12857 z m 0.25736,0.50317 c -0.0264,0.0238 -0.033,0.0393 -0.0234,0.0469 0.008,-0.0157 0.0157,-0.0312 0.0234,-0.0469 z m -8.6093,1.51881 c -0.34931,0.26759 0.34109,0.39662 0,0 z m -19.78771,2.87033 c -0.13544,0.003 -0.29308,0.12701 -0.47301,0.42319 0.004,0.0168 0.007,0.0302 0.0113,0.0469 0.33899,-0.11771 0.58266,-0.15963 0.45045,0.01 -0.0354,0.0453 -0.0674,0.0858 -0.102,0.13007 0.12357,-0.0456 0.24729,-0.0898 0.37149,-0.13003 0.0534,-0.0646 0.0908,-0.10848 0.10452,-0.12204 -0.0944,-0.21947 -0.21529,-0.36104 -0.36276,-0.35805 z m -0.11325,0.61011 c -0.0961,0.0354 -0.19206,0.0717 -0.28813,0.10771 0.0159,0.0653 0.0322,0.13542 0.0477,0.19699 0.0803,-0.10179 0.15582,-0.19657 0.24037,-0.3047 z m 0.0893,0.20298 c -0.26695,0.33824 -0.0991,0.12557 -0.2674,0.33871 8.4e-4,0.003 0.002,0.005 0.003,0.008 0.094,-0.11745 0.19373,-0.24303 0.27652,-0.34574 -0.004,2e-5 -0.007,-9.5e-4 -0.0113,-6.3e-4 z m -57.57836,0.88961 c -0.0893,-0.005 -0.27738,0.18977 -0.60771,0.76526 0.34593,0.78344 0.85451,-0.75224 0.60771,-0.76526 z m 61.90206,9.12301 c -0.18193,0.0459 0.13763,0.45364 0,0 z m 15.95525,5.78908 c -0.34541,0.12726 0.33829,0.25381 0,0 z m -0.0379,0.88136 c -0.80883,0.18945 0.67908,0.30591 0,0 z m 0.17006,0.63075 c -0.0242,-0.002 -0.0624,0.009 -0.11891,0.0385 -0.23144,0.62942 0.2881,-0.0237 0.11891,-0.0385 z m 11.83039,2.73647 c -0.0314,0.0329 -0.069,0.07 -0.11318,0.111 0.0267,0.0243 0.0487,0.0434 0.0813,0.0745 0.045,-0.049 0.0945,-0.10284 0.14194,-0.15445 -0.0367,-0.0106 -0.0734,-0.0208 -0.11006,-0.031 z m -14.92915,0.54718 c -0.56492,0.3497 0.66341,0.43381 0,0 z m -15.41177,0.22837 c -0.30885,0.27851 0.33352,0.11804 0,0 z m 34.50609,0.16758 c -0.003,9.6e-4 -0.005,0.002 -0.008,0.004 -0.0713,0.096 -0.14523,0.18773 -0.22405,0.26847 -0.003,0.0634 -0.004,0.12698 -0.006,0.19075 0.0541,-0.0224 0.12406,-0.0508 0.18112,-0.0744 0.0221,-0.13414 0.0412,-0.2644 0.0565,-0.38841 z m -19.11743,0.224 c -0.0177,1.1e-4 -0.0373,0.002 -0.0587,0.005 -0.57291,1.24718 0.60835,-0.008 0.0587,-0.005 z m -1.04918,0.56663 c -0.27167,0.25356 0.52095,0.59488 0,0 z m 0.66294,0.55396 c -0.0235,-0.002 -0.0568,0.003 -0.10237,0.0176 -0.0504,0.35194 0.2667,-0.003 0.10237,-0.0176 z m -13.24219,1.79523 c -0.6504,0.0442 0.59755,0.50798 0,0 z m 0.41188,0.34213 c -0.0851,6.5e-4 -0.19068,0.008 -0.31984,0.0232 0.0618,0.59279 1.14303,-0.0267 0.31984,-0.0232 z m -0.40859,0.38352 c -0.33829,0.26668 0.34071,0.26296 0,0 z m 42.54849,-0.11441 c -0.0336,0.10231 -0.0674,0.20436 -0.10119,0.30652 0.0684,-0.0292 0.13484,-0.0606 0.19975,-0.0937 -0.0326,-0.0699 -0.0674,-0.14782 -0.0986,-0.21281 z m -23.02898,0.24154 c 0.005,0.0407 0.0148,0.0831 0.029,0.1274 0.12186,0.0436 0.24424,0.0857 0.3678,0.12645 0.0988,0.005 0.19849,0.01 0.29783,0.0151 -0.20427,-0.0775 -0.43377,-0.16611 -0.69463,-0.26893 z m -19.60723,0.33646 c -0.30519,0.29887 0.45178,0.20567 0,0 z m 41.26595,0.0151 c -0.0108,9.6e-4 -0.024,0.005 -0.0383,0.0103 0.0218,-0.002 0.0436,-0.003 0.0652,-0.005 -0.007,-0.004 -0.0159,-0.007 -0.0268,-0.006 z"
      inkscape:connector-curvature="0"/>
  </g>
</svg>
