<?xml version="1.0" encoding="UTF-8"?>
<!DOCTYPE svg PUBLIC "-//W3C//DTD SVG 1.1//EN" "http://www.w3.org/Graphics/SVG/1.1/DTD/svg11.dtd">
<svg version="1.1" xmlns="http://www.w3.org/2000/svg" xmlns:xlink="http://www.w3.org/1999/xlink" x="0" y="0" width="334.92" height="226.939" viewBox="0, 0, 334.92, 226.939">
  <g id="Layer_1">
    <path d="M189.92,226.7 C175.82,224 163.92,217.4 152.52,206.1 C144.32,197.9 143.52,197.4 142.32,199.1 C129.52,217.4 116.42,225.3 98.82,225.3 C84.12,225.3 70.22,218.6 61.32,207.2 C53.52,197.4 51.12,185.9 54.42,174.9 C56.12,169.4 55.52,168.3 51.12,168.3 C49.82,168.3 46.22,167.6 43.12,166.7 C25.12,161.5 9.62,148.4 4.02,133.7 C2.72,130.4 1.42,127.1 1.02,126.3 C-0.48,123.4 -0.28,103.9 1.32,97.3 C5.12,81 15.12,65.9 29.92,54 C37.42,48.1 52.32,41.5 63.42,39.2 C71.32,37.5 75.72,37.2 84.42,37.6 C90.52,37.9 96.22,38.4 97.22,38.8 C98.32,39.3 98.92,39.1 98.92,38.2 C98.92,35.6 104.62,24.8 108.72,19.7 C113.92,13.1 126.02,5 134.72,2.2 C139.72,0.6 144.02,0.1 151.92,0 C161.42,0 163.22,0.3 170.72,3.3 C180.52,7 189.82,15 193.92,23 C195.32,25.6 196.52,28 196.62,28.2 C196.72,28.4 199.92,26.3 203.62,23.5 C212.62,16.9 222.32,11.9 232.82,8.5 C240.52,6.1 242.92,5.8 255.92,5.8 C268.92,5.8 271.32,6.1 278.92,8.5 C294.32,13.4 311.02,25.6 320.42,38.8 C330.12,52.4 334.92,66.2 334.92,80.3 C334.92,95.1 330.52,107.5 320.92,120.5 C311.12,133.6 289.72,146.3 277.32,146.3 C273.02,146.3 272.62,147.2 274.42,152.4 C279.52,166.6 275.52,183.7 263.92,198 C254.32,209.8 242.32,217.8 225.92,223.4 C217.72,226.2 214.82,226.6 204.42,226.9 C197.82,227 191.32,226.9 189.92,226.7 z M219.92,215.2 C228.12,213 239.42,207.4 243.42,203.7 C244.82,202.4 246.32,201.3 246.72,201.3 C247.92,201.3 256.92,191.9 256.92,190.6 C256.92,190 257.52,189 258.32,188.6 C259.12,188.2 261.22,184.9 263.02,181.3 C265.92,175.8 266.42,173.6 266.72,166.8 C266.92,160.3 266.52,157.8 264.72,153.3 L262.42,147.8 L256.92,147 C224.02,142.2 206.72,129.9 204.32,109.2 C202.42,92.8 213.52,72.2 228.42,64.5 C234.52,61.4 246.02,60.4 254.12,62.3 C265.22,64.9 275.32,72.5 279.12,81.1 C282.12,87.8 282.12,98.4 279.12,104 C276.22,109.5 269.02,114.5 264.62,114.1 C261.72,113.8 261.42,113.5 261.12,110.1 C260.82,106.8 261.12,106.3 264.42,104.7 C269.52,102.3 271.92,98.8 271.92,93.8 C271.92,77.7 250.62,65.8 234.72,73 C214.92,82 207.32,108.8 220.92,122.2 C229.72,130.9 244.82,136.2 263.02,137 C273.22,137.5 275.62,137.2 282.42,135.2 C300.72,129.8 317.62,113.4 323.42,95.3 C326.02,87.5 325.72,74 322.92,64.8 C317.42,47.1 301.82,29.2 285.42,21.8 C263.92,12 245.22,12.2 224.22,22.4 C215.12,26.8 206.62,32.9 207.42,34.4 C207.72,34.9 207.42,35 206.72,34.8 C205.92,34.5 203.62,36.1 201.42,38.3 C198.82,40.9 196.62,42.3 194.92,42.3 C192.12,42.3 189.92,40.7 189.92,38.6 C189.92,35.5 184.52,26 180.12,21.4 C161.02,1.5 123.62,8.8 110.82,34.9 C109.12,38.3 107.82,41.6 108.02,42.1 C108.22,42.6 110.42,44.6 112.92,46.5 C125.22,55.8 130.42,70.6 127.82,89.4 C126.92,95.6 120.22,109.5 115.02,116.1 C110.52,121.8 100.42,128.8 92.82,131.6 C72.32,139.3 43.82,127.5 39.82,109.8 C35.62,91.1 54.22,72.1 75.22,73.5 C83.72,74.1 88.82,77.4 92.42,84.7 C94.12,88.1 94.92,91.3 94.72,93.5 C94.42,96.3 94.02,96.8 91.52,97.1 C88.02,97.5 86.92,96.5 84.92,91.1 C82.92,85.7 78.12,82.3 72.42,82.3 C66.62,82.3 56.52,88.5 52.22,94.8 C46.82,102.6 47.92,109.6 55.52,116.3 C64.22,123.9 77.32,126.2 88.92,122.1 C92.52,120.8 95.32,119.2 95.22,118.6 C95.02,117.9 95.62,117.6 96.42,117.9 C98.92,118.9 111.62,105.2 115.02,97.8 C127.32,71.5 110.92,46.2 81.42,46.3 C55.52,46.4 26.42,63.7 15.72,85.4 C10.72,95.6 9.62,100.3 9.62,110.8 C9.62,125.5 14.62,137.1 24.52,146.2 C33.62,154.6 45.52,159 60.82,159.8 C66.12,160.1 69.62,160.8 70.12,161.5 C71.52,163.9 70.92,167 68.42,169.9 C56.82,183.3 63.62,203.2 82.72,212.1 C87.62,214.4 89.72,214.8 97.92,214.8 C106.62,214.8 108.02,214.5 114.02,211.6 C121.02,208.1 128.92,201.1 133.92,193.8 C135.52,191.4 136.92,189.1 136.92,188.8 C136.92,188.4 137.82,186.8 139.02,185.1 C141.92,181.1 145.52,181.6 148.72,186.3 C153.92,194.1 163.82,203.9 170.62,207.9 C177.32,211.9 186.82,215.8 191.92,216.6 C199.62,217.8 212.92,217.2 219.92,215.2 z" fill="#343434"/>
  </g>
</svg>
