<?xml version="1.0" encoding="UTF-8" standalone="no"?>
<!-- Created with Inkscape (http://www.inkscape.org/) -->

<svg
  xmlns:dc="http://purl.org/dc/elements/1.1/"
  xmlns:cc="http://creativecommons.org/ns#"
  xmlns:rdf="http://www.w3.org/1999/02/22-rdf-syntax-ns#"
  xmlns:svg="http://www.w3.org/2000/svg"
  xmlns="http://www.w3.org/2000/svg"
  xmlns:sodipodi="http://sodipodi.sourceforge.net/DTD/sodipodi-0.dtd"
  xmlns:inkscape="http://www.inkscape.org/namespaces/inkscape"
  width="210mm"
  height="297mm"
  viewBox="0 0 210 297"
  version="1.1"
  id="svg8"
  inkscape:version="0.92.2 5c3e80d, 2017-08-06"
  sodipodi:docname="service.svg">
  <defs id="defs2"/>
  <sodipodi:namedview
    id="base"
    pagecolor="#ffffff"
    bordercolor="#666666"
    borderopacity="1.0"
    inkscape:pageopacity="0.0"
    inkscape:pageshadow="2"
    inkscape:zoom="0.24748737"
    inkscape:cx="-128.57143"
    inkscape:cy="75.126779"
    inkscape:document-units="mm"
    inkscape:current-layer="layer2"
    showgrid="false"
    inkscape:window-width="1680"
    inkscape:window-height="1005"
    inkscape:window-x="0"
    inkscape:window-y="1"
    inkscape:window-maximized="1"/>
  <metadata id="metadata5">
    <rdf:RDF>
      <cc:Work rdf:about="">
        <dc:format>image/svg+xml</dc:format>
        <dc:type rdf:resource="http://purl.org/dc/dcmitype/StillImage"/>
        <dc:title></dc:title>
      </cc:Work>
    </rdf:RDF>
  </metadata>
  <g inkscape:groupmode="layer" id="layer2" inkscape:label="Trace" style="display:inline">
    <path
      id="path926"
      style="fill:#000000;stroke-width:0.07535031"
      d="m 141.72527,10.530788 c -2.50176,0.0056 -5.03609,1.167096 -5.07131,4.386654 -3.37071,3.759958 -3.66287,10.870699 -0.61882,14.529403 2.12178,3.832375 1.4064,12.063424 0.4446,16.081838 -3.11083,0.399351 -6.69127,-0.621632 -9.79809,0.541055 -1.86322,-0.421046 -7.5343,2.351383 -7.06502,-0.885968 -0.72606,-4.609499 -1.06034,-8.486151 -0.4638,-13.160331 2.18366,-3.592393 4.40711,-9.663061 1.55482,-13.572934 -1.95248,-3.932493 -6.77579,-4.986766 -9.74847,-1.593464 -5.20056,3.611802 -5.4435,14.32835 0.34782,17.105754 1.02641,4.079909 1.01102,9.267567 1.2088,13.748259 -2.27755,0.755927 -4.3671,0.353763 -6.64594,1.512988 -3.50518,-1.776922 -2.08404,5.136728 -0.18673,2.510362 2.22208,0.274557 5.70484,-2.698103 7.62038,-0.456815 4.48055,-2.152487 9.5084,-1.665941 14.2571,-2.85856 3.24988,-0.203847 7.74701,-1.227666 10.27931,1.129235 1.926,-2.565676 4.66256,-1.250201 7.21022,-1.231507 2.78223,-0.92358 5.81401,-0.33423 8.81034,-0.665483 3.20497,-1.996887 4.48801,-0.138572 4.94893,1.078093 1.45915,6.886353 2.23533,14.029823 1.89125,21.151881 -1.13737,9.808155 -0.32541,20.134926 0.58757,29.65539 -2.40265,0.764022 -4.29403,0.387984 -6.88118,0.299005 -2.09275,-1.111285 -5.06625,-1.134221 -7.53173,-0.517434 -2.86759,-0.596356 -5.34913,1.224131 -7.80409,0.404941 -4.78906,0.52436 -10.34915,0.46115 -15.60129,0.78139 -6.50146,-0.801384 -12.82763,-0.31608 -19.39276,-0.669866 -3.47949,1.629206 -5.493994,-3.183609 -5.583544,2.817296 4.248144,1.11643 8.950214,-0.7321 12.975084,0.002 2.74898,-0.99285 5.08155,-0.10599 7.98731,-0.19286 3.22242,-0.61449 2.94904,4.53696 2.21144,6.41623 0.39917,1.92624 1.44138,4.8584 -0.0201,7.68365 1.88718,3.92822 -3.3266,2.66076 -5.03829,3.47353 -3.30466,2.19117 -6.93269,2.12951 -10.49806,3.32414 -3.75333,3.83023 1.83509,2.6718 4.11709,1.14896 2.12067,0.83078 5.43685,-2.27889 6.4233,-1.24429 -1.56401,2.81015 -0.19145,7.56227 -3.3677,5.47609 1.05554,2.96578 2.71586,1.62542 2.38036,6.36569 -0.27679,2.99797 1.56836,11.36989 0.84734,11.23302 -3.6805,-1.95426 -4.41433,-6.48872 -7.27764,-9.75474 -2.01665,-0.66605 -1.79051,-5.80343 -3.75966,-5.01768 0.26301,3.51042 2.66251,6.09243 4.47662,8.49875 2.07637,2.09252 1.35344,4.48407 -0.51082,1.68796 -2.52716,-0.72652 2.09466,4.08306 3.399,4.58899 2.41657,0.91647 4.54742,2.8077 5.3433,5.5064 1.86275,0.17623 3.00627,-0.34161 4.55176,2.13878 -0.54924,1.61098 -3.76142,-0.9638 -5.61116,-0.65624 -2.80865,-1.76981 -3.59775,2.53717 -1.04247,3.26558 3.66147,3.23462 7.1073,6.09315 9.70433,10.82236 -1.81886,0.006 -3.41683,-3.79174 -4.96575,-4.48625 -1.25387,4.69096 3.99022,5.96165 5.60616,9.50612 2.26705,1.6316 4.72665,9.34223 0.22195,6.17784 -3.001,-0.85745 -2.16209,-6.05429 -5.06941,-7.28186 -0.60501,-0.95906 -1.65851,-3.06183 -2.7546,-4.0471 -0.75097,-2.67688 -2.69656,-5.1325 -3.93777,-6.38165 -3.77603,-5.6432 -7.63608,-12.30852 -10.05056,-19.15262 -0.63296,-3.32217 -1.15141,-7.44171 -3.57543,-8.22166 0.74568,-4.01984 -0.52935,-7.97626 0.11039,-11.70212 -2.086764,1.75102 -1.789774,7.41079 -1.380604,10.62988 0.362114,2.90527 1.080474,9.62872 -2.1339,6.69393 -3.451613,-0.32972 -7.196861,0.79156 -10.80125,-0.45777 -3.881484,-0.24497 -3.054404,-6.5243 -5.739945,-9.38559 3.558404,0.028 7.183318,-0.0785 10.656561,-0.20673 2.035042,-0.0781 8.747778,-0.85598 4.361947,-3.7941 -6.389618,1.76965 -12.427972,1.28099 -18.892632,1.06179 -8.618363,0.28192 -17.154672,-0.65052 -25.511651,1.46562 -6.942961,0.6874 -14.13868,1.5625 -21.109682,1.56462 -2.350572,1.3255 -7.001658,-1.91845 -6.348651,2.90665 3.946299,-0.27013 2.435662,0.74196 4.234266,2.63199 2.525423,-1.61269 3.918426,6.39581 1.299957,3.40778 -2.79695,2.71201 -6.446643,0.93859 -9.603185,0.84715 -4.233238,-1.82134 -9.364226,1.30061 -13.2260203,-1.8024 -2.3992823,0.20544 -3.6779253,-3.75914 -1.4330391,-5.57993 4.0644941,-2.20633 7.3684664,4.74893 11.6516094,2.46642 2.890211,1.58178 9.896325,-4.21623 3.773061,-4.30788 -2.356414,2.51523 -5.219792,2.22577 -8.218664,1.45005 -2.581145,-2.61306 -7.3019079,-5.1554 -9.3709288,-0.24205 0.353415,2.60705 -1.3475912,6.90442 1.41323,8.06241 1.9959025,2.64957 6.4262018,0.37616 6.9527338,3.9906 1.566288,3.35131 5.930505,0.52873 7.326985,2.17738 1.477101,0.0587 4.607311,2.44775 7.233425,1.7694 2.670428,2.74427 6.552867,-5.31123 2.275089,-2.32154 -4.371947,0.82656 -8.821206,-2.1638 -13.080048,-2.25918 -4.756473,-1.63497 2.515877,-2.06908 3.947279,-0.87795 2.763067,1.10273 5.037105,2.51695 7.93188,1.63487 1.880228,0.15427 4.667513,-5.1733 4.254982,-0.38145 1.150078,8.42907 1.12592,17.99851 2.034625,26.24419 1.031798,5.93706 -1.056064,12.87347 -0.248864,18.35052 4.940559,-0.0611 10.26986,-0.89015 15.02772,-1.13287 2.52621,-0.53354 5.39187,-1.06081 7.86323,0.33858 3.147952,1.01072 6.760895,1.02286 8.422606,-1.86107 0.09008,-5.09171 -1.391127,-12.47612 4.715566,-10.4408 2.049176,-0.9636 8.73774,0.56468 5.842619,-3.89393 -0.287847,-3.75669 -1.446825,-7.41614 -1.589142,-11.22304 -1.097282,-5.05422 -1.128751,-10.76005 -1.677793,-15.93233 2.929268,-2.54387 4.935516,3.0079 8.030039,1.45686 3.075467,0.0995 3.312957,-5.48413 6.612019,-3.64385 4.436606,2.25879 9.557785,-1.66582 13.59949,1.74139 0.19807,4.42653 0.27115,8.96237 1.30994,13.26089 0.86545,13.17321 3.15247,26.26788 2.39507,39.52102 -2.34058,6.01339 2.15788,17.17272 1.95738,5.12995 0.48745,-10.2637 -0.15674,-21.26881 -1.33737,-31.00572 0.054,-7.44183 -1.10111,-14.88463 -2.61081,-21.82404 0.3109,-2.73254 -0.3514,-7.09184 -0.13519,-9.23487 0.78219,4.51016 2.90626,8.86201 4.78402,12.96504 3.17698,6.06883 7.59414,10.61774 10.46273,16.64992 1.77151,2.86898 -3.01339,-0.35724 -4.04304,-0.24193 -2.00474,-0.58253 -3.28544,-2.63626 -3.93436,0.50198 2.4581,5.42627 6.0207,10.8313 9.91347,15.20354 5.87335,6.0892 11.07108,13.6448 13.83054,22.49989 -6.18499,0.49651 -12.18155,-0.46565 -18.40112,0.5122 -2.95753,1.85605 -6.94492,-0.54896 -7.54183,0.7831 0.60141,2.83985 -3.44519,4.26827 -1.74534,6.87631 0.0873,4.53895 -2.68142,8.40987 -3.42893,12.93741 -3.819804,8.86771 -4.758474,20.79799 0.20883,29.1198 2.40778,1.04323 2.20453,5.49949 4.93552,5.3072 2.4046,0.2395 6.27316,-0.0531 9.12126,-1.49862 3.33333,-0.40388 2.09946,-3.61582 2.40627,-5.02816 1.23105,-2.03123 1.30643,-6.17693 2.24166,-8.81287 -0.51874,-5.69351 4.25092,-1.11326 6.69497,-2.27807 3.9154,1.48686 8.33834,-0.5204 12.16574,-0.54714 3.5713,-0.50976 7.29658,-1.34076 10.2525,-1.7476 2.80471,-0.72949 5.01836,-1.17098 6.81405,-2.17872 0.63994,2.58931 0.62411,5.9099 1.31906,8.77563 1.48474,3.97551 2.36597,5.63745 5.65629,7.6481 2.83163,0.99471 6.46516,2.0153 9.805,3.43687 3.13924,1.18157 4.22949,-2.68533 4.42609,-5.67574 2.6544,-3.71564 5.53763,-7.36268 5.59525,-12.34424 -0.54438,-4.88968 2.17905,-10.25228 -0.37174,-14.71933 -0.51331,-2.32877 -0.99702,-4.76571 -1.2295,-7.29769 -0.33417,-1.5463 -0.81877,-3.17659 -1.48088,-4.66182 0.10813,0.0774 0.26716,0.0479 -0.0369,-0.21707 -0.0171,0.0221 -0.0271,0.0433 -0.0321,0.0637 -1.43798,-3.14491 -3.68806,-5.59353 -7.01627,-5.12201 -3.26124,3.91862 -2.88421,-2.6919 -3.40813,-5.06919 -1.55673,-4.34668 0.67463,-8.40819 0.1508,-12.89503 -1.00205,-5.62947 -0.75323,-12.0302 -1.59585,-17.30719 -0.0174,-9.14357 -1.91161,-18.3458 -0.86627,-27.19933 -0.65747,-3.87074 -0.0108,-7.17149 0.10048,-10.80384 3.42416,-0.60471 7.29382,1.16425 10.99818,1.03062 4.82497,-1.91473 9.33099,4.02183 13.72826,0.28366 3.53472,4.07076 10.59993,4.10678 12.91123,-1.73834 0.59056,-4.5399 2.56474,-8.05274 -0.0464,-12.21506 -8.5e-4,-4.03568 -2.17736,-7.29012 -3.21679,-10.89565 -2.70141,-3.06133 1.9374,-4.13612 -0.55216,-6.92929 -0.35466,-1.41264 -0.79198,-2.72643 -1.22851,-4.01155 -0.005,0.0217 -0.0275,0.0441 -0.0775,0.0632 -0.17302,-0.19841 0.002,-0.1782 0.0609,-0.11225 -0.7185,-2.114204 -1.43215,-4.153311 -1.76875,-6.429009 -0.86223,-1.879755 -2.40991,-8.294558 -4.63551,-5.425068 -0.0953,-0.09288 -0.18921,-0.188556 -0.28189,-0.286349 -0.004,-0.02576 -0.0108,-0.06027 -0.0227,-0.105404 -0.0226,0.0059 -0.0339,0.02127 -0.0387,0.0397 -1.3179,-1.413127 -2.38916,-3.28171 -3.77317,-4.736809 -2.16228,-3.599338 -3.78846,-3.063577 -6.17224,-2.523633 2.93711,-1.518258 2.70398,-6.151531 3.55543,-9.373165 -1.26894,-3.212146 -2.15388,-8.138445 -3.79928,-11.674375 -0.0454,-3.096084 -1.67321,-5.632762 -2.11478,-7.989226 -1.49849,-3.985479 0.99939,-8.394568 -0.44019,-12.181954 -2.30942,-0.558446 -4.17759,3.515937 -5.70782,5.561177 -1.81362,5.507884 1.90348,10.726678 2.87658,16.012813 0.3994,3.609099 1.97171,12.613813 -2.28289,7.510019 -1.57923,-3.45292 -3.66782,0.568327 -4.35084,2.795755 -3.30053,4.754545 -0.37228,10.17357 2.78941,13.250664 1.35789,2.530262 3.69963,2.756347 4.26359,5.902073 0.53603,2.782312 3.0532,3.802811 4.23817,5.138705 3.30255,5.920036 3.62001,14.205776 6.29972,20.585256 0.10657,2.89399 4.79783,8.60421 1.30074,10.1862 -2.10926,-2.02039 -4.94664,-0.90586 -7.22281,-1.44407 -4.00425,-1.60452 -8.80753,-0.16653 -12.5515,-1.79861 -0.43221,-2.43297 -2.47957,-3.25079 -4.02833,-4.28109 -3.04305,-0.41721 -6.67436,-1.11956 -9.76728,-0.62617 -4.1916,0.86167 -8.05954,-0.69888 -12.30463,-0.74182 -1.523,0.58802 -4.4201,1.1728 -1.91275,-0.89572 -1.63837,-3.92826 -0.57536,-8.52437 -1.77265,-12.73066 -1.32049,-4.20807 1.54978,-3.73185 4.57338,-4.16275 2.85502,-0.11321 6.18062,-0.8822 8.70138,0.34918 3.16725,0.0675 7.32568,1.76644 9.965,-0.75912 -1.35126,-4.94835 -1.27122,-10.194137 -1.51778,-15.351957 -1.30661,-5.015372 0.31376,-10.453267 0.0505,-15.702583 0.91432,-6.513955 -0.96319,-13.284365 -1.55582,-19.70549 -1.39276,-1.69319 0.97212,-3.98731 1.63947,-5.312806 -2.84271,-0.506716 -6.22538,-0.214812 -9.23913,0.481524 -2.70594,-0.68068 -5.99359,0.334266 -8.04536,0.270279 -1.48294,-4.118478 -1.65463,-9.707734 -1.00225,-14.372337 4.56099,-1.84296 8.17732,-8.13653 6.72849,-13.864403 -1.70348,-3.295937 -3.458,-4.305677 -5.97349,-6.298981 -0.91139,-0.443699 -2.12541,-0.716658 -3.34719,-0.713943 z m 58.64778,91.404202 c 0.006,0.0164 0.0108,0.0326 0.0166,0.049 0.005,-0.0174 -0.004,-0.0343 -0.0166,-0.049 z M 142.48406,13.482253 c 1.04381,0.02265 2.73413,0.986296 3.59275,1.751739 3.04081,1.372068 4.06164,5.654836 2.28969,9.004143 -0.54123,-2.770359 -2.80104,-4.873501 -5.34879,-3.9906 -4.00238,0.569511 -4.20325,7.085391 -1.51009,9.179342 -3.0482,0.580071 -5.47889,-3.114452 -5.45215,-6.640732 -0.64983,-3.607663 2.86809,-7.624175 5.75085,-7.407514 -0.50139,-1.428361 -0.084,-1.912906 0.67774,-1.896378 z m -24.77107,4.190635 c 0.16318,0.0041 0.52996,0.680952 0.006,0.550311 -0.11266,-0.415127 -0.0807,-0.552191 -0.006,-0.550311 z m -3.24462,0.52316 c 2.03969,-0.05339 3.82346,4.789199 2.56837,6.845516 -1.21039,-3.37758 -5.67573,-2.961159 -6.08436,1.045345 1.80322,5.157218 -0.71831,5.385862 -2.10898,1.323423 0.0551,-2.396412 1.03104,-8.906749 4.06145,-8.091871 0.50708,-0.77708 1.04359,-1.108804 1.56352,-1.122413 z m 4.31021,0.956224 c 0.27526,0.02773 0.84627,1.08048 1.26933,3.312696 0.43629,1.986896 -1.90202,9.070969 -2.63672,4.70089 0.93554,-0.50125 1.9958,-3.006504 2.02912,-4.803646 -0.91255,-2.107397 -0.95474,-3.239457 -0.66173,-3.20994 z m 25.5777,7.249726 c 0.0361,0.0041 0.0575,0.04949 0.0148,0.172763 -0.20893,-0.01661 -0.10597,-0.159262 -0.0311,-0.172153 0.006,-9.78e-4 0.0108,-0.0012 0.0163,-6.4e-4 z m -0.38555,0.30681 c 0.19547,0.0048 0.52242,0.23835 0.001,0.320447 -0.18895,-0.243879 -0.11899,-0.323337 -0.001,-0.320447 z m -29.84498,0.37913 c 0.53753,0.05126 0.9748,3.187385 -0.50373,1.278132 0.13421,-0.969574 0.32455,-1.295218 0.50373,-1.278132 z m 26.73314,4.844189 c 0.0233,-2.49e-4 0.0462,2e-6 0.0687,8.69e-4 2.20435,0.08302 0.96889,5.380106 1.3779,7.846054 2.88617,6.855554 -4.14049,7.628933 -3.48217,1.345217 0.5084,-2.68274 0.18893,-6.018562 0.72357,-8.77793 0.53176,-0.282095 0.96292,-0.41044 1.31195,-0.414193 z m -25.20594,2.47445 c 1.36832,-0.0237 2.30282,1.797631 1.62515,5.076243 -0.57221,3.712195 2.43569,9.56401 -2.3121,7.998367 -0.90486,-3.351498 -1.22815,-7.303981 -1.18278,-10.982703 l -0.0383,-0.319591 0.0315,-0.726362 c 0.64373,-0.697023 1.29879,-1.035952 1.87653,-1.045954 z m -82.976682,0.442438 c -0.249748,0.100523 0.243356,0.204981 0,0 z m 96.626282,4.956932 c -0.36572,0.28738 0.36572,0.28738 0,0 z m 49.67442,5.107047 c 0.34747,-0.01962 0.61277,0.291821 0.70397,1.076262 -0.34848,7.522638 2.09258,14.943985 4.11699,22.130384 3.41723,4.160245 -4.33826,5.588284 0.37323,4.838348 1.01045,1.795758 1.0857,4.534474 -0.73517,7.148302 -1.74637,1.401346 -5.113,2.380452 -5.76957,6.327231 -2.5438,-1.613157 -4.63858,-5.083009 -5.50259,-8.485366 0.18343,-1.782937 1.19338,-3.661115 1.99951,-5.390357 1.89842,0.156344 3.78958,3.602894 5.95689,3.0703 1.13036,-3.310625 -0.20025,-7.959153 -0.20084,-11.466062 -0.94058,-4.190602 -1.37651,-8.376961 -3.27283,-12.282749 -1.66004,-1.715134 0.96735,-6.889249 2.33041,-6.966293 z m -16.44552,0.470192 c -0.0386,1.3e-4 -0.11864,0.116629 -0.0225,0.165219 0.0538,-0.123424 0.0455,-0.165302 0.0225,-0.165219 z m -62.46879,5.926308 c -0.471274,0.02411 -0.992244,0.959963 -1.391204,3.357619 0.15665,0.468525 -0.30314,2.051976 0.46451,2.025199 1.102124,3.262189 0.56509,7.644597 0.887574,11.355377 -0.401824,6.788583 0.44776,14.066312 0.2964,21.043511 0.62955,2.610827 -1.964574,7.729078 0.47351,8.649987 2.49188,-0.714805 0.22277,-5.168235 1.39661,-8.248213 -0.0578,-4.046972 -0.11973,-6.203524 -0.33823,-10.041331 -1.13051,-4.060927 0.10908,-9.088305 -0.0992,-13.018966 -0.59145,-2.85693 -0.66921,-5.886853 -0.69287,-9.27991 0.58321,-2.689903 -0.0907,-5.779901 -0.95171,-5.842789 -0.0151,-8.86e-4 -0.0302,-0.0012 -0.0455,-4.61e-4 z m 68.34081,7.725894 c -0.2418,0.347678 0.33796,0.298214 0,0 z m -59.31581,6.15081 c -1.1133,0.02351 -2.28398,0.862855 -2.52234,2.659381 -0.0379,0.985676 0.50364,2.070586 1.27433,2.404084 1.04679,2.948283 6.30855,2.57956 2.23334,5.423231 -1.18133,3.362937 1.96036,5.79466 4.06316,7.299519 2.61522,0.173348 3.24865,4.310031 5.56874,2.504158 1.85735,1.53674 4.10441,0.916774 5.82901,1.993047 4.10831,-0.08685 8.46233,0.90413 12.37707,-1.006378 3.4169,0.806986 5.86662,-2.608664 8.85889,-3.606972 2.43501,0.293924 4.67017,-2.469252 2.07595,-5.234521 -2.09517,-3.604407 4.1349,-5.542578 1.66359,-9.111288 -1.38634,-6.522038 -5.27243,3.862705 -5.30076,1.656051 -0.54771,-3.946141 -2.91677,-3.685398 -3.91746,-0.370743 -2.51231,2.649703 -3.95385,2.080229 -7.46818,3.193027 -2.31715,-2.037973 -4.35009,2.01317 -6.56958,-0.582945 -1.90035,-0.600386 -4.84117,-0.1221 -5.53843,-3.059087 -1.37852,1.984941 -2.21945,1.1642 -4.14599,-1.251843 -1.42905,-2.828014 -3.66538,-0.560824 -3.46566,1.962868 -1.49423,-0.03025 -4.01001,1.08068 -3.10974,-1.214822 0.86197,-2.368021 -0.47457,-3.686875 -1.90594,-3.656767 z m 7.08333,5.392437 c 1.67889,0.0012 4.36161,3.158369 3.60214,4.901768 -0.62451,4.420894 -3.83199,-2.160309 -4.71328,-3.437369 l -0.0685,-0.245453 c 0.1719,-0.869684 0.61995,-1.219548 1.17957,-1.218946 z m 26.68972,1.123138 c 0.0183,-4.37e-4 0.0364,-2.48e-4 0.0546,4.49e-4 1.19383,0.04963 2.37437,2.66803 2.24745,4.371678 -1.94618,2.033105 -5.02533,3.904358 -5.07511,-0.716495 -0.42287,-0.744536 0.62374,-1.637227 1.21979,-1.483884 0.42495,-1.556769 0.98836,-2.157746 1.55323,-2.171772 z m 4.27118,0.396173 c 0.89396,-0.01182 -0.25376,3.347728 -0.72397,0.414441 0.32285,-0.294657 0.55843,-0.412326 0.72397,-0.414441 z m 39.99161,1.876771 c -0.0386,1.3e-4 -0.11864,0.116511 -0.0223,0.165101 0.0538,-0.123424 0.0455,-0.165183 0.0223,-0.165101 z m -63.70559,0.71724 c 0.92622,-0.0156 1.73274,0.897135 1.61766,3.109 0.38931,3.894491 -2.03529,2.677944 -4.00262,1.514453 -0.60849,0.0024 0.20838,-0.754533 -0.0814,-1.163314 0.0563,-2.07061 1.34848,-3.441398 2.46632,-3.460139 z m 12.43553,0.911291 c 1.22928,0.01702 2.46157,0.477718 2.39796,1.687329 2.49025,3.978471 -7.81827,5.748434 -4.75271,-0.905571 0.18767,-0.466292 1.27007,-0.796742 2.35475,-0.781758 z m -6.53088,0.100322 c 0.0488,-3.07e-4 0.0964,1.89e-4 0.1432,0.0012 2.02084,0.05105 2.26199,1.513484 2.11718,4.803761 2.04389,0.954669 -5.42695,2.249914 -4.62872,-0.348434 0.29211,-1.276587 -0.49454,-4.616505 1.19688,-4.341121 0.442,-0.07409 0.83054,-0.113202 1.17146,-0.115565 z m -15.89076,0.29318 c 0.84535,0.731455 4.63315,3.213457 4.69665,5.351032 -1.48661,0.702469 -4.61456,-1.646468 -5.42263,-4.032733 -0.0536,-0.498646 0.61454,-0.742787 0.72598,-1.318299 z m 32.90428,2.251391 c 0.42167,-0.02092 0.7528,0.391529 0.94832,1.608324 -2.0186,0.165798 -4.34466,4.027002 -5.28916,1.220908 l -0.0707,-0.09631 0.48962,-0.21987 c 1.41647,0.01725 2.92317,-2.463404 3.92186,-2.513057 z m -26.05152,3.671856 c 0.81799,0.0059 2.3883,1.551499 3.12805,1.033911 3.44758,2.136334 -2.41813,-0.214505 -3.62237,-0.501493 0.0639,-0.390891 0.24393,-0.533895 0.49432,-0.532418 z m 18.69732,0.0071 c 0.48349,-0.0095 0.85125,0.158826 1.00385,0.61739 2.12292,1.974944 -5.3987,2.525984 -5.79558,1.302855 0.84904,-0.251668 3.34122,-1.890432 4.79173,-1.920245 z m 23.34924,1.793005 c -0.24507,0.212366 0.24506,0.212355 0,0 z m -34.68985,0.09217 c 0.95706,0.01453 2.44963,0.508181 2.40517,0.20478 4.75487,0.815222 -1.46725,0.953819 -3.10183,0.562124 -0.25902,-0.611812 0.12242,-0.775625 0.69666,-0.766904 z m 53.44208,1.32891 c 0.0533,0.0012 0.10454,0.0083 0.15311,0.02103 1.94098,0.09571 5.72778,-0.01926 4.79683,3.390611 0.76296,3.442012 -3.33395,7.114334 -5.10403,3.793129 -1.23673,-1.984693 3.14847,-5.169507 -1.30526,-5.143085 -0.59655,-0.850542 0.65998,-2.081009 1.45935,-2.061713 z m 7.66751,2.887546 c 1.50859,-0.0169 4.543,4.351236 3.87443,5.741486 3.29973,9.265666 7.92953,18.130706 10.728,27.868216 2.13291,6.1333 -1.17875,-0.43061 -3.65439,0.48066 -1.82892,2.65073 -3.21479,1.16111 -5.85411,2.60083 -2.35383,-5.36019 -3.96681,-10.95902 -5.71744,-16.59818 -0.75392,-4.28058 -1.57621,-7.72829 -3.18298,-11.68667 1.24887,-2.110082 2.68136,-3.775575 3.00017,-6.655097 -0.0299,-1.252753 0.30347,-1.74562 0.80632,-1.751245 z m 7.18719,6.840888 c 0.93458,-0.06334 1.38585,8.326364 -0.48952,0.816818 0.17074,-0.569758 0.3366,-0.806455 0.48952,-0.816818 z m -46.90821,4.172854 c 0.12227,-0.0024 0.21296,0.107412 -0.0949,0.339441 -0.18127,-0.220473 -0.0274,-0.336535 0.0949,-0.339441 z m -12.97899,3.10987 c 2.0684,-0.0431 -0.32937,6.33442 2.40549,2.50001 2.47413,4.86839 -4.34204,1.68147 -6.56159,3.08722 -2.53587,-0.441 -6.70658,1.44973 -8.08068,-1.36275 0.37403,-1.31695 0.3857,-2.50192 -0.01,-3.71923 3.86875,8.9e-4 7.59202,-0.41783 11.45026,-0.26736 0.32019,-0.1603 0.58195,-0.23343 0.79593,-0.23789 z m -1.55661,0.0312 c 0.0894,0 0.17863,0.0421 0,0.12662 -0.17862,-0.0844 -0.0894,-0.12662 0,-0.12662 z m 2.55867,7.53025 c 2.06453,0.004 3.53369,0.79289 2.58329,4.70344 -2.89321,0.0404 -5.89331,0.44846 -8.52337,1.23187 -3.10898,0.47149 -8.97318,2.12058 -7.12935,-4.39907 l -0.0995,-0.51768 c 1.93413,-0.72472 5.35781,0.0612 7.84834,-0.73866 1.49053,0.25328 3.60994,-0.28295 5.32057,-0.2799 z m -0.19553,7.28345 c 1.07239,0.004 2.13635,0.15758 3.18118,0.54885 -0.62444,6.45035 4.46472,4.11913 8.10649,4.24677 5.12996,1.30987 10.49864,-0.53156 15.49852,0.50453 -1.8765,0.0318 2.97238,12.0114 -0.38515,8.61808 -3.49269,-1.93064 -7.52049,-1.75519 -11.3324,-1.2186 -3.85093,3.35361 2.91311,2.55895 4.72729,2.18468 3.72964,-0.66114 -2.5635,3.72012 -1.86392,5.24061 0.96026,1.81369 6.19805,0.27275 6.27149,2.90665 -2.8331,2.03183 -4.3556,6.3369 -7.26343,7.77922 -1.3399,-3.19399 -2.50323,-7.04242 -2.59451,-10.03037 -1.70193,-4.71746 -0.28206,-9.96812 -1.47055,-14.40778 -2.45226,-1.63958 -4.845,4.42757 -7.519,5.89721 -1.82967,2.52292 -3.16221,1.79358 -4.40919,-0.30584 -3.17591,-0.83258 -4.33142,5.6691 -7.45986,5.98304 -3.63753,-3.57464 -7.15457,-8.02554 -10.32084,-12.47195 0.90041,0.009 4.65374,-1.3794 4.47032,-3.86033 3.81994,0.666 8.15654,-1.62945 12.36356,-1.61477 z m 12.8565,2.9265 c 0.0516,-0.002 0.086,0.0279 -0.0204,0.11757 -0.14047,-0.0565 -0.0459,-0.11438 0.0204,-0.11757 z m -8.55829,0.0382 c 0.0456,0.006 0.0783,0.0653 -0.0391,0.16242 -0.0651,-0.11971 -0.007,-0.16809 0.0391,-0.16242 z m 21.37235,2.15716 c -0.1178,0.28846 0.31893,0.13716 0,0 z m 4.51565,1.49667 c 0.12222,-0.0177 0.36735,1.35231 -0.0502,0.17764 0.01,-0.12346 0.0276,-0.17434 0.0502,-0.17764 z m 31.98128,0.70299 c 0.024,0.001 0.0499,0.0118 0.0778,0.031 3.67853,1.00447 3.26242,3.58756 -0.006,0.61521 -0.35155,0.0496 -0.30437,-0.66444 -0.0722,-0.64613 z m -80.52566,0.46009 c 1.74234,1.59427 3.18753,4.33089 4.74428,5.60002 0.77178,1.97501 6.192,5.16256 2.95093,5.80042 4.95776,-0.20153 2.31135,3.84208 0.12518,6.31761 -1.77137,2.0164 -4.78629,7.52004 -7.09452,5.15367 -0.94035,-6.10413 -1.89964,-11.89779 -1.66519,-18.35722 -0.30668,-1.57473 0.58351,-3.05267 0.93932,-4.5145 z m 85.42886,0.22793 c 0.0232,0 0.0314,0.0417 -0.0223,0.16509 -0.0962,-0.0486 -0.0161,-0.16495 0.0223,-0.16509 z m 0.22905,0.1752 c 0.01,-0.002 0.0186,-8.9e-4 0.028,4.5e-4 0.0958,0.0145 0.17815,0.16123 -0.0898,0.28088 -0.059,-0.19563 -0.004,-0.27264 0.0619,-0.28124 z m -184.37887,0.28088 c -0.294896,0.10871 0.280059,0.53588 0,0 z m 128.09883,1.26043 c 0.98671,6.53255 1.72585,13.97141 3.5272,20.59243 0.2262,1.96508 -2.87166,-2.31344 -5.60456,-3.07162 -1.99331,-0.55567 -4.52342,-3.47661 -6.23967,-5.69522 0.48709,-1.10686 0.29873,-2.5712 0.51164,-3.88602 2.60387,-2.48398 4.71718,-5.88554 7.80539,-7.93957 z m 48.53599,0.16729 c 1.4192,-0.004 2.9856,0.77895 4.12539,1.89382 3.65136,0.59037 4.52503,6.75957 0.88377,8.75772 -3.56258,2.23967 -7.60549,-0.43495 -8.69087,-4.90762 -0.19401,-0.90995 0.21046,-1.67686 0.34202,-2.52011 0.48497,-2.32764 1.82892,-3.22056 3.33969,-3.22381 z m -28.25115,0.24885 v 0 c 0.0338,-8.9e-4 0.0681,-8.9e-4 0.10251,0 0.57773,0.0132 1.23723,0.23972 1.85039,0.6258 6.53423,0.90717 13.05508,1.02447 19.33584,2.74838 2.01132,0.11002 2.89205,7.35907 -0.82975,5.76207 -5.07976,-2.68456 -10.84866,-1.21445 -16.25652,-2.60387 -2.52138,-0.0248 -5.59362,-0.0944 -5.62246,-3.90318 -0.37315,-1.84298 0.37045,-2.60635 1.42003,-2.62931 z m -95.960648,2.14109 c 2.831108,1.56504 -1.049647,5.69699 0.1489,8.37604 2.896448,4.84238 -4.888085,1.02587 -4.655243,3.72433 -1.203661,5.98804 -0.470678,-0.32677 -1.094307,-3.94786 1.172288,-3.02306 0.608898,-8.68843 -3.147856,-6.95059 1.353864,-2.2944 6.029716,-0.43473 8.748506,-1.20192 z m -11.649398,0.0747 c 0.694524,-0.004 1.391904,0.0436 2.089857,0.16121 -2.170442,6.3329 -2.074433,5.21079 2.732183,3.17914 0.02127,8.01345 -0.04779,16.20056 -1.063184,24.16554 -0.48566,6.71268 -0.404179,13.20978 -0.947318,20.11371 1.369036,5.75616 -1.085693,6.363 -3.378811,8.86645 -4.325783,-1.82598 -8.517994,-2.04449 -12.82067,-1.43446 -3.539408,-0.23755 -10.925938,3.20064 -12.049373,-1.04291 1.505524,-12.03098 -0.494788,-23.98489 -0.875562,-35.95424 -1.287855,-4.61103 0.242161,-10.76632 -2.656533,-14.61025 l -0.0902,-0.35258 c 6.807968,-0.2014 13.651992,-0.76681 20.370797,-1.79825 2.722565,-0.31042 5.679132,-1.27776 8.688781,-1.29324 z m 15.73376,0.17789 c 2.849566,0.09 4.785314,3.43172 5.813707,6.41135 1.144414,5.6559 -5.036878,-0.70541 -5.384128,1.68478 -0.38326,3.57582 2.305985,4.07222 4.530465,3.35701 -2.746365,2.95723 -6.470907,-1.31931 -7.036699,-4.86221 -0.771142,-2.95134 2.988669,-3.9685 2.076655,-6.59093 z m 83.664526,2.58316 c 0.80126,-0.016 1.80912,0.46881 2.761,1.05716 3.36585,1.0194 2.61463,5.46449 1.09192,8.09053 -2.12335,4.95051 -4.7356,9.5137 -7.81241,13.69785 -0.005,-0.005 -0.007,-0.008 -0.0125,-0.0123 -0.0373,0.0486 -0.0559,0.0863 -0.064,0.11627 -0.76442,1.03537 -1.55698,2.04792 -2.37815,3.0368 -1.30318,3.46362 -5.45501,4.37136 -5.87553,8.20462 0.57212,1.52603 -4.60317,2.08943 -6.87689,0.72611 -0.36599,-0.66462 0.98918,-0.91319 0.6164,-1.73579 1.96531,-2.46466 4.30472,-5.8222 5.89595,-8.27023 1.0596,-2.41114 4.69633,-0.22183 3.90555,-3.96869 3.12992,-1.8688 5.78896,-5.02763 7.76717,-8.38979 1.59509,-1.79821 5.65011,-4.20424 3.45966,-6.94486 -0.99932,-2.14187 -5.64363,-0.045 -4.02403,-3.04703 -0.005,-1.88163 0.63781,-2.54266 1.54591,-2.56066 z m -22.79499,0.0929 c 0.42033,0.0181 0.66207,0.83118 0.5921,3.12884 -0.75647,2.43763 -0.3169,4.77274 -1.59644,7.24707 -0.33465,1.58858 -0.88529,1.79104 -1.43544,1.2881 0.0605,0.0154 0.15786,0.0118 0.0578,-0.0546 -0.0518,0.006 -0.0791,0.0144 -0.0908,0.0224 -1.03626,-1.00024 -2.05566,-4.45544 -1.61125,-5.81927 0.93827,-0.70568 1.3437,-0.8539 1.11022,-2.47165 1.07659,-1.19325 2.27331,-3.37125 2.97384,-3.34107 z m -108.263373,0.35588 c 0.04492,0.004 0.08029,0.0489 0.07861,0.17019 -0.4348,0.18335 -0.213559,-0.18108 -0.07861,-0.17019 z m 112.458733,0.22352 c 0.0361,0.005 0.0575,0.0494 0.0148,0.17264 -0.20894,-0.0167 -0.10597,-0.15914 -0.0311,-0.17202 0.006,-8.9e-4 0.0108,-0.002 0.0163,-4.6e-4 z m 64.67161,1.79971 c -0.0177,-0.002 -0.054,0.009 -0.11768,0.0465 -0.0796,0.247 0.19424,-0.0364 0.11768,-0.0465 z m -0.12558,0.9018 c -0.35578,0.35766 0.14718,0.0948 0,0 z m -48.24169,0.80879 c 0.0779,0.005 0.19067,0.1381 -0.0245,0.18006 -0.0566,-0.13856 -0.0223,-0.18263 0.0245,-0.18006 z m -56.04729,1.53929 c 0.006,0 0.0124,3e-5 0.0186,8.9e-4 0.26085,0.0371 0.75373,0.98605 -0.10478,0.51501 -0.0599,-0.37913 -0.005,-0.51283 0.086,-0.5161 z m 29.52747,1.31976 c -0.21307,3.31605 1.48323,6.97502 4.04655,8.19146 3.00931,0.16468 2.01417,-4.8194 4.19944,-5.27968 2.58513,1.89652 5.62638,4.46303 8.35735,6.16821 2.34654,1.20384 5.13603,1.88634 1.0737,3.46501 -2.68992,3.6818 -4.7155,8.15251 -8.00553,11.39179 -0.64087,-2.12601 0.52878,-5.00042 0.6062,-7.39717 1.97331,-4.36876 -1.26642,-14.88742 -1.19338,-4.29303 -1.40409,9.55594 -2.11861,19.9791 -3.06751,29.80307 0.27062,-2.08365 -0.45312,13.27649 -1.7024,10.39769 -0.2393,-2.91713 -0.43187,-6.75434 -0.85947,-9.59719 -0.82377,-10.23348 -3.48176,-19.94088 -6.17072,-29.56126 -0.93877,-2.81075 -0.46508,-4.43316 -1.50349,-6.66131 h 1.1e-4 c 0.47949,-2.35917 3.35507,-4.09551 4.21915,-6.62759 z m -0.0906,2.11919 c -0.24334,0.20498 0.24975,0.10055 0,0 z m -21.17643,1.37832 c 0.0613,0 0.12254,0.0531 0,0.15925 -0.12252,-0.10623 -0.0613,-0.15925 0,-0.15925 z m -40.590296,0.84069 c 1.690696,-0.0167 0.491264,2.01345 -0.909386,0.14975 0.367334,-0.10328 0.667858,-0.14738 0.909386,-0.14975 z m 42.660056,0.11533 c 0.0516,-0.002 0.086,0.0279 -0.0204,0.11757 -0.14049,-0.0565 -0.0459,-0.11438 0.0204,-0.11757 z m 53.0079,1.2119 c 0.15067,-0.007 0.29914,0.0682 0.4455,0.24289 -0.0286,13.75355 1.13365,27.47052 2.02072,41.07602 1.39545,7.07195 -0.59824,14.57422 0.46539,21.48706 -3.62767,-0.32813 -7.33239,0.66995 -11.06242,0.66157 -4.04264,-0.54991 -8.89422,-0.1917 -12.68107,-1.36102 1.01375,-4.40184 1.92819,-9.3508 3.19308,-13.43232 0.0416,-0.0152 0.068,-0.0485 0.0283,-0.0908 0.0196,-0.0627 0.0391,-0.12582 0.0587,-0.1881 1.86229,-3.77758 2.89615,-7.5955 4.79953,-11.32044 1.73099,-5.05623 5.28973,-8.28696 7.70073,-12.40352 3.53256,-6.43567 -3.75315,-7.22479 -7.53082,-5.83986 1.21146,-1.83851 2.99849,-3.37346 3.93897,-5.27885 1.40586,-2.0965 3.37176,-3.96816 4.47763,-6.88982 1.54683,-1.14169 2.91893,-6.60855 4.14581,-6.6629 z m -96.625083,0.68449 c 1.347113,0.0199 2.727918,0.95723 2.094265,2.63869 -4.249833,-2.56685 -2.652076,5.45933 0.543462,1.4213 0.559842,4.16222 1.344186,8.61106 1.502776,12.98695 1.492285,3.06593 -0.07061,11.6178 -0.03059,7.88769 0.872433,-3.78027 -1.981805,-4.63966 -5.027272,-2.894 -2.763689,-0.66599 -1.372501,-4.19256 -1.889344,-6.96556 0.54192,-3.42282 1.342238,-7.72388 1.089814,-11.81023 -1.113028,-2.26754 0.282806,-3.28602 1.716825,-3.26484 z m 50.769453,0.0913 c -0.24976,0.10056 0.24334,0.20499 0,0 z m 7.55113,0.10493 c 0.0375,-0.005 0.0336,0.0774 -0.0942,0.33385 -0.2,-0.007 0.0226,-0.32619 0.0942,-0.33385 z m -10.70249,0.5715 c 0.0787,0.005 0.21172,0.099 0.0699,0.19625 -0.15952,-0.14795 -0.13114,-0.19951 -0.0699,-0.19625 z m 8.39218,2.72805 c 1.72889,0.005 2.44321,4.81956 2.92881,6.83066 2.7273,9.24396 4.77565,19.01088 5.60876,28.74215 1.15749,1.2401 -0.64618,6.39263 -1.11653,3.5462 -2.54186,-1.5276 -4.19131,-4.63473 -5.66749,-7.42857 -3.13658,-3.0761 0.90404,-1.23067 2.33801,0.51962 2.77399,0.0694 4.08863,-3.39255 2.06686,-5.97037 -0.23933,-0.22424 -0.44429,-0.44691 -0.62021,-0.66828 -0.0126,0.0106 -0.0289,0.0213 -0.0542,0.0311 -0.097,-0.11119 -0.0841,-0.15378 -0.0438,-0.15815 -1.89272,-2.53565 -0.0566,-4.91715 -1.90875,-7.71151 -2.83779,-4.70579 -6.54044,-7.80946 -10.13161,-11.16668 l -0.16661,-0.51634 c 2.14497,0.0694 4.11969,0.68773 6.10279,1.15578 6.8875,2.9716 -3.2635,-5.17962 -0.1414,-6.8907 0.29069,-0.21791 0.55844,-0.31547 0.80543,-0.31483 z m 5.44015,25.44429 c 0.0315,0.0423 0.0644,0.0847 0.0981,0.12712 0.071,-0.0614 -0.0405,-0.13335 -0.0981,-0.12712 z M 98.114856,149.09103 c 0.0135,0.14498 0.0141,0.29083 2e-4,0.43573 0.01,0.015 0.0177,0.0306 0.0252,0.0468 0.0235,-0.15827 0.013,-0.32123 -0.0253,-0.48249 z m 20.408324,2.9981 c -0.0516,-0.002 -0.0861,0.028 0.0203,0.11758 0.14049,-0.0565 0.046,-0.11439 -0.0203,-0.11758 z m -50.073301,1.31953 c -0.918501,0.0247 -1.782941,0.71363 -1.420327,2.63296 -0.07001,1.04335 1.421976,0.1093 1.660493,-0.0496 2.757106,-1.04426 1.192706,-2.62197 -0.240166,-2.58341 z m 54.752651,1.11595 c 0.0534,-0.0106 0.16408,0.3385 -0.0213,0.16364 -0.007,-0.1164 0.004,-0.16003 0.0213,-0.16364 z m 0.32962,0.39947 c 0.0381,0.005 0.0485,0.0495 -0.0703,0.15011 -0.0742,-0.0951 0.0211,-0.15599 0.0703,-0.15011 z m -54.979404,3.39706 c -1.133148,0.004 -2.419198,0.44945 -2.64302,1.49802 -0.357513,1.97008 1.869751,2.07432 2.837463,0.81792 2.791204,-1.38212 1.461713,-2.32125 -0.194443,-2.31594 z m 1.617267,2.92126 c -1.414246,-0.0286 -3.546062,1.14822 -3.364593,2.56674 0.521012,2.40211 2.988084,-0.0516 4.288997,-0.50648 0.674918,-1.45682 0.04325,-2.04067 -0.924404,-2.06026 z m 70.344717,1.81872 c 0.0407,0.005 0.0542,0.0463 -0.0434,0.15827 -0.16832,-0.0645 -0.0246,-0.16488 0.0434,-0.15827 z m 15.55056,2.95328 c 0.87388,-0.002 1.6519,0.033 2.1531,0.0724 0.23387,3.69135 -3.6331,6.24442 -5.07441,9.31035 -2.23991,4.37242 -6.60239,7.63488 -10.82817,7.57382 -0.0141,-0.83918 0.79696,-1.11978 1.16135,-1.83709 2.07414,-2.04963 4.47825,-3.37599 5.99162,-5.72333 1.09015,-2.31529 3.35042,-5.20042 1.02606,-7.40558 -0.53586,-1.62924 2.94881,-1.98249 5.57045,-1.99061 z m -85.597883,2.94988 c 0.647559,-8.9e-4 1.511975,0.59754 -0.407764,0.65758 -0.211158,-0.4925 0.06858,-0.6572 0.407764,-0.65758 z m -4.849376,0.25105 c 0.243057,0.005 0.516484,1.23585 -0.209629,0.73562 0.02413,-0.55124 0.114576,-0.73737 0.209629,-0.73562 z m 82.238899,0.0199 c 3.12135,0.0409 1.67492,4.16306 -0.15131,5.91011 -1.47529,2.50076 -6.14386,3.66307 -7.46347,7.48141 0.27402,3.48325 2.90753,3.45014 -1.44704,5.66406 0.23804,-5.93484 0.6781,-12.40336 1.2468,-18.29757 2.15685,-0.35361 4.74703,0.30742 7.12857,-0.7098 0.24994,-0.0354 0.47836,-0.0509 0.68645,-0.0482 z m -79.462785,0.50806 c 0.06009,0.001 0.109437,0.0597 0.0084,0.20844 -0.18166,-0.11686 -0.08626,-0.20994 -0.0084,-0.20844 z m 76.790725,0.12528 c -0.24333,0.20498 0.24976,0.10056 0,0 z m -76.953222,0.14683 c 0.02115,0.005 0.04229,0.0455 0.05508,0.1528 -0.179712,0.15139 -0.118279,-0.16586 -0.05508,-0.1528 z m -2.713175,0.88208 c 0.05998,0.005 0.05687,0.0715 -0.121086,0.25944 -0.448134,0.0243 -0.01075,-0.26914 0.121086,-0.25944 z m 48.693897,0.47167 v 0 c 1.79045,0.0456 4.02504,1.60897 5.51679,2.86806 1.10132,1.60431 2.41406,2.65234 2.70937,4.31944 2.49281,2.27039 -0.89794,1.29602 1.33887,4.20987 2.2526,2.45584 -2.4818,-0.32985 -2.93432,-1.99888 -2.63186,-2.80937 0.50489,0.27572 0.32483,-1.7963 -1.04983,-2.85962 -2.80054,1.37662 -3.3535,-3.24343 -1.39337,2.59213 -2.89947,-1.74474 -4.25757,-3.86483 l -0.0624,-0.42003 c 0.17556,-0.044 0.35805,-0.0677 0.54606,-0.0736 0.0569,-0.001 0.1141,-0.001 0.17181,-4.5e-4 z m 7.72254,4.31067 c 0.0822,0.0118 0.25774,0.17253 0.0548,0.20174 -0.11977,-0.16161 -0.10418,-0.20862 -0.0548,-0.20174 z m 1.79546,1.62828 c 0.51839,0.0234 1.35575,2.29922 -0.29869,0.64576 0.0335,-0.4823 0.15355,-0.65229 0.29869,-0.64576 z m 20.42985,0.58113 c -0.24976,0.10055 0.24333,0.20496 0,0 z m -22.55884,0.8934 c 0.23026,4.62261 1.64272,0.39131 0,0 z m 3.59485,0.0269 c 0.0247,-0.002 0.0473,0.0106 0.0546,0.0507 -0.22457,0.0893 -0.12898,-0.0453 -0.0546,-0.0507 z m -1.41272,1.32999 c 0.067,-0.005 0.16233,0.0817 0.0201,0.20151 -0.10717,-0.13979 -0.0722,-0.19804 -0.0201,-0.20151 z m -1.02746,1.62842 c 0.42368,1.4892 0.60492,0.0659 0,0 z m 19.19563,1.00942 c 0.0778,0.008 0.18402,0.28925 -0.0534,0.21757 -0.0119,-0.16826 0.018,-0.22116 0.0534,-0.21757 z m 6.84606,1.37638 v 0 c -0.17087,2.60974 -2.14719,4.60565 -2.52545,7.1784 -2.44739,4.70078 -2.79176,10.77429 -4.82716,15.62563 -3.33315,-0.22123 -5.45289,0.35407 -4.70016,-4.42561 v -4.6e-4 l -0.18521,-0.76873 -0.01,-0.68569 c 2.97902,-0.0449 -0.82561,-6.16341 2.87128,-6.3041 -1.11319,-2.63321 0.53349,-4.63381 2.25567,-6.3786 2.86975,-0.44626 4.36952,-3.36725 7.12045,-4.24092 z m -5.24682,1.17563 c 0.005,-4.5e-4 0.0107,-4.5e-4 0.0174,0 0.0627,0.006 0.1505,0.0691 0.0153,0.12321 -0.0857,-0.085 -0.0706,-0.11901 -0.0327,-0.12321 z m -0.75579,0.0476 c 0.22152,-0.0189 0.49446,0.49224 -0.17673,0.45558 -0.014,-0.3289 0.076,-0.44698 0.17673,-0.45558 z m -0.71257,0.16265 c 0.0563,-0.005 0.13628,0.0782 0.0171,0.19528 -0.0901,-0.13494 -0.0607,-0.19163 -0.0171,-0.19528 z m 0.71145,0.12078 c -0.24333,0.20498 0.24976,0.10056 0,0 z m -88.991482,0.14148 c 0.03931,-0.004 0.07825,0.006 0.100119,0.0408 -0.33768,0.0923 -0.21798,-0.0314 -0.100119,-0.0408 z m 70.463702,0.11805 c 0.18211,0.002 1.18941,1.65152 -0.0186,0.1145 -0.0165,-0.0812 -0.007,-0.11462 0.0186,-0.1145 z m 1.03507,1.08065 c 0.51078,0.0106 1.33084,0.42489 1.22029,0.89365 3.78052,2.45349 0.65867,3.42386 -1.43723,-0.23997 -0.33721,-0.48046 -0.13254,-0.66132 0.21694,-0.65368 z m 6.83617,2.85211 c 1.67903,5.59818 -0.43402,6.21353 -2.80073,1.37639 0.93198,-0.2994 2.17644,-0.5348 2.80073,-1.37639 z m -13.75219,10.04643 c -0.13151,0.036 0.0978,0.36433 0,0 z m -103.401595,3.17402 c -0.245077,0.21234 0.245052,0.21236 0,0 z m 110.404575,6.1015 c 1.18522,-0.007 2.36743,0.0461 3.5214,0.21185 0.37477,6.60964 -0.0913,13.57136 1.34998,20.11079 1.80221,5.03003 -2.14231,4.59146 -4.77131,4.44327 -2.56811,-0.8691 -6.02569,-1.5824 -7.90986,-0.39947 -2.83821,0.89762 -4.03989,5.45496 -3.31067,8.54783 0.45216,2.88308 6.56073,-0.6406 3.93407,3.41411 -0.25842,3.0515 -1.50321,5.36629 -1.70041,8.01139 -2.48679,0.65128 -0.6612,-4.83177 -2.50583,-5.19106 -1.85488,-7.74629 -0.68096,-15.97813 1.30235,-23.39036 1.6013,-5.00725 -0.3428,9.16967 3.27023,6.20767 1.45052,-2.57302 -0.55724,-5.23963 0.18732,-8.21277 -1.24662,-2.75024 1.64769,-9.53728 -2.7567,-6.44642 -4.06493,8.92128 -5.52103,19.43369 -4.78543,29.61496 -2.19701,-1.46723 -4.638,2.14272 -6.286,0.0474 -0.99673,2.77818 -0.23808,8.10018 3.12384,7.72515 2.59415,-1.44974 4.97208,-1.46239 6.14292,1.86425 2.81126,3.74569 -5.48125,2.82123 -7.35891,2.60788 -3.24506,0.72588 0.6621,-6.7639 -2.61941,-4.13014 -2.11982,-1.98605 -2.91272,-5.7513 -3.18108,-9.08181 -0.34819,-2.99906 0.39182,-5.83039 0.33482,-8.79741 2.19501,-5.0658 2.89363,-11.43955 5.52671,-15.97081 1.16826,-4.54427 3.51874,-0.64239 5.97379,-0.75947 2.65853,-1.98649 2.43608,-5.51528 -0.95291,-6.5163 -3.74518,1.7378 -6.35654,1.76828 -3.07492,-2.02106 2.51264,-0.11887 5.21866,-1.58242 7.82101,-1.52881 2.6475,0.0687 5.6961,-0.34263 8.725,-0.36063 z m 6.20275,0.16473 c 3.55045,1.10589 8.68612,-2.19812 10.27901,3.35153 0.75315,3.60806 0.004,7.28408 -3.24812,7.25448 -0.58069,-2.67065 2.11399,-4.09413 1.53749,-6.63124 -0.71364,-4.42226 -5.90157,-3.0916 -3.12033,-0.22572 0.0944,2.68372 -7.5027,0.81905 -3.75735,5.00538 2.21898,-0.79319 4.92567,-0.66113 3.24482,3.16745 -2.38206,0.046 -6.49411,2.64169 -2.53195,3.88103 4.08308,-3.45435 3.05581,6.4557 -0.99475,3.44894 -1.8974,-3.26022 -1.23828,-8.1073 -1.88193,-12.00554 0.0107,-2.37656 -0.18958,-4.99165 0.47311,-7.24631 z m 12.84788,0.73002 c 1.15129,-0.0106 2.70312,0.31622 3.69052,0.45765 3.38845,0.16194 5.73464,0.58175 8.93032,0.28283 1.63684,0.47263 4.32513,0.085 5.67911,-0.50989 -2.72442,3.11336 -6.60652,6.73484 -5.71833,12.11801 2.18975,2.8565 -0.0971,7.35988 0.22454,11.03348 0.84963,5.08337 -4.99839,4.26884 -7.61046,5.42056 -0.0327,-3.02655 6.27506,0.25043 4.67976,-3.92462 2.01867,-1.48611 1.38458,-4.43436 -0.88789,-4.33271 -1.71128,0.50954 -3.72397,-1.87894 -5.89565,-1.39903 -1.60528,-0.23988 -4.21918,2.24139 -5.01228,0.56066 -0.24079,-1.46394 0.10072,-3.01829 0.4449,-4.42439 -0.0133,-5.14074 2.51433,-10.38733 0.24446,-15.00935 0.26715,-0.19368 0.7077,-0.2683 1.231,-0.2732 z m 29.74622,2.62079 c 3.58512,-0.0825 6.53846,5.4043 6.10509,9.71698 1.61139,2.0324 -0.64926,4.48912 -0.79732,2.12369 -0.98907,-4.52167 -3.36697,6.03653 -4.57399,4.39091 -2.40328,-0.52038 -4.40816,-2.37561 -5.26144,-4.95851 -0.0809,-2.21763 1.5134,-3.5407 2.11709,-5.60794 1.8371,-1.4403 0.56677,-4.74341 2.41057,-5.66513 z m 6.86619,0.31289 c -0.17057,0.62995 0.76607,0.0579 0,0 z m -11.59858,0.72856 c 0.53731,0.0191 0.84812,0.6735 0.52264,2.49879 -1.76792,4.89074 -3.33237,10.17631 -4.00231,15.69978 -0.32322,3.93462 0.44828,6.73202 -3.81368,6.24822 -2.9934,2.19093 -3.42546,-1.93054 -3.01018,-4.50328 0.0274,-2.84333 0.44145,-2.18905 1.48338,-0.5205 4.22307,2.53739 6.37973,-4.88217 0.78431,-2.87074 -0.68508,-4.63213 -2.40018,3.94273 -1.80108,-1.37456 0.57146,-3.46944 0.84134,-7.64033 1.21369,-10.44894 0.97818,-2.71402 3.39604,-4.81099 3.2094,-0.96938 1.24707,3.51701 4.22495,1.43111 2.88619,-1.44639 0.4733,-1.01241 1.74235,-2.34105 2.52764,-2.313 z m -5.10993,0.96815 v 0 c 0.0478,0.006 0.0638,0.13634 -0.0268,0.50781 -0.30445,0.0128 -0.0884,-0.48767 0.0169,-0.50745 0.004,-4.5e-4 0.007,-8.8e-4 0.01,-4.5e-4 z m 11.46117,2.86977 c -0.75403,-0.0334 -1.76598,2.78379 -1.54149,6.17176 0.77699,2.21086 1.93244,-1.66506 2.29739,-2.54033 0.056,-2.56498 -0.30347,-3.61138 -0.7559,-3.63143 z m 2.48163,0.70993 c -0.0165,0.001 -0.0403,0.013 -0.0736,0.0391 -0.0626,0.44314 0.18863,-0.0489 0.0736,-0.0391 z m -37.95757,3.87298 c 0.76009,0.004 1.14962,0.77423 0.24045,2.4898 -1.2123,0.47909 -2.39199,4.11572 -2.20444,0.22267 -0.39675,-0.81556 0.0975,-0.57833 0.0689,-1.56131 0.58853,-0.74694 1.34047,-1.15346 1.89514,-1.15116 z m 22.50198,0.43745 c -0.032,-4.5e-4 -0.0639,-4.5e-4 -0.0956,4.6e-4 -0.8551,0.0213 -1.54789,0.52347 -1.54352,1.7963 -0.27626,2.04001 1.99252,2.96193 3.24231,2.29815 3.21088,-1.47402 0.41663,-4.06236 -1.60324,-4.09482 z m -52.01796,2.99335 c -1.85142,0.21985 -5.44162,-0.26548 -5.73374,2.25797 -0.33568,0.71782 0.21185,1.60856 0.83074,1.5343 1.78971,0.0514 5.09719,-1.34462 4.903,-3.79227 z m 68.57807,0.18189 v 0 c 0.0497,0.0134 0.0274,0.57166 -0.1422,0.69764 0.0582,-0.50399 0.10789,-0.6848 0.13721,-0.69714 0.001,-8.9e-4 0.004,-8.9e-4 0.005,-4.6e-4 z m -10.18445,2.3191 c 0.28637,-0.006 0.63715,0.27145 1.0669,0.93175 2.18893,1.53838 0.42032,4.41871 -1.0754,6.36265 -1.05124,1.49982 0.30587,3.79567 1.59253,2.71503 -0.9242,1.74614 0.82896,5.3662 1.92917,2.03542 0.005,-1.82849 1.99757,-6.08404 1.42503,-1.93278 -0.0361,1.67778 -0.075,4.5174 0.53915,6.56987 -0.19066,0.19211 -0.018,0.18627 0.0336,0.11013 0.44522,1.41218 1.21447,2.42386 2.53105,2.37218 1.98093,-2.3299 -2.31087,-5.37239 -0.91139,-9.37378 2.22329,1.10954 3.66986,-0.06 5.38941,-1.47268 0.3653,5.37668 -1.01745,12.88929 -5.78358,14.57408 -2.53119,1.01233 -3.04284,-3.10859 -4.4573,-3.55838 -2.14634,-2.80396 -2.74213,-7.10056 -3.56733,-10.92743 0.0422,-1.05262 -0.17087,-8.38089 1.28824,-8.4061 z m 12.06008,0.32555 c 0.5131,0.0106 0.87314,0.71121 0.94631,2.64234 1.48522,6.50125 -3.71247,2.82984 -6.36435,5.4432 0.4279,-0.93928 1.73974,-1.64388 1.49168,-4.13536 1.18353,-1.10548 2.8757,-3.97266 3.92636,-3.95018 z m -1.66089,0.6258 c 0.0361,0.005 0.0575,0.0493 0.0148,0.17264 -0.20893,-0.0167 -0.10598,-0.15914 -0.0311,-0.17204 0.006,-8.8e-4 0.0108,-0.002 0.0162,-4.5e-4 z m -39.8369,0.72441 c 0.0663,0.004 0.16089,0.0611 0.0204,0.11758 -0.10645,-0.0897 -0.072,-0.12014 -0.0204,-0.11758 z m -0.69456,0.9947 c 1.12078,0.009 0.84968,5.67579 -1.71121,3.36858 -0.0584,-0.71814 1.23101,-1.66487 1.05318,-2.85881 0.25401,-0.36124 0.47463,-0.51125 0.65803,-0.50977 z m -20.25662,0.0371 c -0.25302,0.21304 0.24491,0.31951 0,0 z m 29.64535,0.91045 c 0.49745,-9e-4 0.98004,0.12241 1.43624,0.46301 -0.99939,1.55244 -5.0788,1.20753 -7.25524,1.88164 -0.80169,-0.016 -0.22763,-2.12998 0.4504,-1.79861 1.62616,1.04789 3.59195,-0.54253 5.3686,-0.54604 z m -14.06238,0.14842 c 2.04055,-0.004 1.97082,3.33064 -0.94211,1.82368 -0.7883,0.0991 0.12771,-1.43304 -0.0595,-1.59432 0.3755,-0.16045 0.71014,-0.22895 1.00165,-0.22936 z m -28.50521,1.2562 c -1.6869,0.0121 -3.12058,0.43155 -2.9123,2.3975 0.0145,0.4026 -0.0663,1.05672 0.39616,1.15529 1.95278,0.87259 5.50988,-0.71883 6.25839,-3.37747 -0.96493,0.0524 -2.43021,-0.18471 -3.74225,-0.17532 z m 48.79005,0.71359 c 0.051,-4e-5 0.14535,0.0588 0.0631,0.12916 -0.11624,-0.0935 -0.10286,-0.12915 -0.0631,-0.12916 z m -17.72577,0.17836 c 0.0724,-0.006 0.15703,0.0684 0.0361,0.24228 -0.16897,-0.14911 -0.1086,-0.23612 -0.0361,-0.24228 z m -2.16771,3.20701 c 0.48304,-0.0279 0.91412,1.53099 -0.50434,1.14943 0.0872,-0.843 0.30038,-1.13766 0.50434,-1.14943 z m 8.32473,0.36915 c 0.16143,0.004 0.38329,0.25529 -0.0946,0.26845 -0.0578,-0.20419 0.01,-0.27034 0.0946,-0.26845 z m -4.24777,0.0594 c 0.6595,-0.0119 1.26461,0.71642 -0.59428,1.48182 -0.39721,-1.07017 0.11302,-1.47312 0.59428,-1.48182 z m -7.22912,0.18773 c 0.0663,0.004 0.1608,0.061 0.0203,0.11746 -0.10645,-0.0897 -0.0719,-0.12003 -0.0203,-0.11746 z m -1.64717,0.0825 c 2.221,0.0278 -0.85894,2.34207 -1.98311,2.40383 0.34108,-0.89083 0.77389,-2.0844 1.61606,-2.39081 0.13573,-0.0106 0.25781,-0.0144 0.36705,-0.0131 z m 35.94126,0.63809 c 0.35498,0.0224 0.53711,0.79258 0.51383,3.01246 0.74193,2.70915 2.63979,5.61693 -0.90629,6.09236 -2.42448,3.5863 -7.83076,-0.70435 -1.94917,-1.11291 2.15629,0.59357 4.61017,-3.40625 1.5395,-3.73456 -1.82432,0.36707 -5.65611,3.30435 -5.66389,-0.56857 -0.49227,-1.03873 1.34485,-0.20984 1.46435,-0.59584 2.35014,0.99406 4.16091,-3.14628 5.00167,-3.09294 z m -19.32282,0.23266 c 0.3397,8.9e-4 0.6692,0.0937 0.23696,0.3331 -1.12727,-0.18432 -0.67371,-0.33444 -0.23696,-0.3331 z m -26.1968,0.28234 c 0.55366,-0.002 1.23723,0.69247 -0.22504,1.2522 -0.47179,-0.92199 -0.15379,-1.25039 0.22504,-1.2522 z m 17.61229,0.25312 c 0.0652,0.005 0.14296,0.0853 -0.0135,0.16656 -0.0805,-0.12631 -0.0373,-0.16976 0.0135,-0.16656 z m -12.91282,0.89985 c 0.31054,0.0193 0.39055,0.97252 -0.49713,0.75084 0.16716,-0.57535 0.35597,-0.75957 0.49713,-0.75084 z m -21.25558,0.22889 c -0.35146,-0.005 -0.50694,0.60902 -0.54315,2.77797 0.80956,1.94509 3.24203,1.99645 4.94323,0.91423 3.75886,-1.22505 1.72218,-5.37309 -1.3641,-2.64587 -1.59002,0.28504 -2.5223,-1.04013 -3.03598,-1.04633 z m 62.91398,3.06884 c -0.24508,0.21234 0.24505,0.21234 0,0 z m 8.24568,1.75174 c 0.067,-0.005 0.16234,0.0817 0.0201,0.20149 -0.10717,-0.13978 -0.0721,-0.19803 -0.0201,-0.20149 z m -64.20352,3.20202 c 2.99257,0.98534 -3.18494,2.52306 -4.41558,1.87653 0.7264,-1.54234 3.29893,-0.58306 4.41558,-1.87653 z m 57.95594,0.71722 c 0.96465,2.59325 2.46413,2.27148 4.21085,3.87909 1.58403,1.87963 4.76433,0.59095 2.10156,3.64751 -3.76555,-1.42213 -7.88489,-2.10461 -11.45707,-4.20037 l -0.21284,-0.35333 c 0.76905,-1.35169 3.92716,-1.41477 5.3575,-2.9729 z m -0.7685,0.7288 c -0.24976,0.10056 0.24334,0.20499 0,0 z M 3.860464,269.16628 c -0.00717,0.0106 -0.012306,0.021 -0.018518,0.0318 0.04755,0.0428 0.050298,0.0269 0.018518,-0.0318 z m 3.0876177,5.57164 c -0.0497,0.0106 -0.09653,0.0308 -0.142102,0.0559 0.509603,4.7e-4 1.019182,4.7e-4 1.528797,0.002 -0.01482,-0.0201 -0.0282,-0.0385 -0.04241,-0.0579 h -0.04253 c 0.0012,0.006 0.0036,0.0106 0.0048,0.0151 -0.0036,-0.006 -0.0048,-0.009 -0.0072,-0.0151 h -0.949803 z"
      inkscape:connector-curvature="0"/>
  </g>
</svg>
