<?xml version="1.0" encoding="UTF-8"?>
<!-- Generator: Adobe Illustrator 16.0.3, SVG Export Plug-In . SVG Version: 6.00 Build 0)  -->
<!DOCTYPE svg PUBLIC "-//W3C//DTD SVG 1.1//EN" "http://www.w3.org/Graphics/SVG/1.1/DTD/svg11.dtd">
<svg version="1.1" id="Layer_1" xmlns="http://www.w3.org/2000/svg" xmlns:xlink="http://www.w3.org/1999/xlink" x="0px" y="0px" width="512px" height="512px" viewBox="0 0 512 512" enable-background="new 0 0 512 512" xml:space="preserve">
<path fill="#1D1D1B" d="M510.5,177.001c0-49.167-39.453-89.146-87.949-89.146c-2.362,0-4.704,0.104-7.045,0.291  c-22.811-28.854-57.187-45.978-94.382-45.978c-37.176,0-71.571,17.124-94.379,45.979c-2.344-0.188-4.706-0.291-7.09-0.291  c-48.452-0.001-87.905,39.978-87.905,89.145c0,5.146,0.678,10.104,1.479,15.042c-0.535,0.708-1.171,1.354-1.684,2.083  c-5.157-0.75-10.335-1.125-15.577-1.125C55.063,193.001,5.5,243.25,5.5,305c0,61.751,49.563,112,110.469,112  c13.5,0,26.715-2.5,39.166-7.333C183.695,434.917,220.026,449,258,449c38.016,0,74.302-14.083,102.863-39.333  C373.317,414.5,386.529,417,400.031,417c60.904,0,110.469-50.249,110.469-112c0-25.688-8.919-49.083-23.345-67.999  C501.539,221.105,510.5,200.168,510.5,177.001z M400.031,385c-16.892,0-32.466-5.499-45.309-14.666  C331.564,398.625,297.084,417,258,417c-39.083,0-73.565-18.375-96.722-46.666C148.456,379.501,132.861,385,115.969,385  c-43.583,0-78.906-35.812-78.906-80s35.323-79.999,78.906-79.999c10.665,0,20.775,2.188,30.021,6.062  c0.555-1.062,1.233-2,1.788-3.021c5.548-10.271,12.391-19.688,20.383-28.042c22.769-23.916,54.414-39,89.839-39  c49.031,0,91.07,28.666,111.989,70.062c5.57-2.312,11.51-3.813,17.63-4.812l12.412-1.25c12.164,0,23.548,3.042,33.842,8  c11.159,5.416,20.733,13.374,28.255,23.188c10.356,13.521,16.81,30.354,16.81,48.812C478.938,349.188,443.616,385,400.031,385z   M464.698,214.625c-18.227-13.458-40.439-21.624-64.667-21.624c-5.238,0-10.418,0.375-15.574,1.125  c-29.469-40.708-75.968-65.125-126.457-65.125c-33.658,0-65.406,11.042-91.667,30.334c7.377-22.854,28.336-39.479,53.323-39.479  c7.644,0,14.854,1.562,21.452,4.332c14.981-29.562,45.001-50.02,80.016-50.02s65.057,20.457,79.976,50.02  c6.636-2.77,13.892-4.332,21.45-4.332c31.152,0,56.387,25.583,56.387,57.146C478.938,191.48,473.45,204.542,464.698,214.625z"/>
</svg>