<!DOCTYPE svg PUBLIC "-//W3C//DTD SVG 20010904//EN" "http://www.w3.org/TR/2001/REC-SVG-20010904/DTD/svg10.dtd">
<svg version="1.0" xmlns="http://www.w3.org/2000/svg" width="1600px" height="1200px" viewBox="0 0 16000 12000" preserveAspectRatio="xMidYMid meet">
<g id="layer101" fill="#333333" stroke="none">
 <path d="M11460 10056 c-51 -19 -140 -74 -178 -110 -44 -40 -59 -71 -68 -133 -6 -50 -6 -51 47 -114 58 -68 128 -111 204 -123 55 -9 106 24 119 77 8 32 7 40 -15 63 -21 23 -29 25 -74 20 -37 -4 -61 0 -92 14 -48 21 -48 21 -29 58 17 32 147 102 189 102 62 0 82 32 53 88 -32 62 -90 83 -156 58z"/>
 <path d="M11763 9998 c-12 -13 -26 -49 -33 -80 -9 -45 -16 -58 -29 -58 -22 0 -45 -25 -36 -40 3 -5 15 -10 25 -10 19 0 19 -2 -2 -62 -11 -35 -24 -71 -29 -80 -18 -36 -10 -87 19 -118 26 -29 31 -31 132 -36 93 -5 113 -3 174 18 46 15 76 32 89 49 17 24 17 29 4 60 -26 63 -35 65 -154 45 -58 -9 -107 -16 -109 -13 -2 2 1 29 7 60 12 60 13 60 82 71 103 17 131 60 87 131 -25 41 -39 46 -95 38 -40 -5 -47 -3 -66 21 -25 32 -39 33 -66 4z"/>
 <path d="M12139 9991 c-45 -25 -65 -56 -74 -113 -8 -55 4 -83 69 -155 51 -56 118 -91 196 -100 70 -8 95 2 135 54 27 35 35 55 35 87 -1 103 -31 154 -103 175 -23 7 -59 24 -80 39 -51 34 -128 40 -178 13z m183 -172 c26 -17 48 -35 48 -40 0 -17 -21 -9 -43 17 -20 23 -25 24 -49 13 -23 -10 -31 -9 -53 5 -14 9 -23 21 -20 26 12 20 69 9 117 -21z"/>
 <path d="M6234 9968 c-121 -29 -165 -54 -185 -105 -5 -14 -14 -20 -23 -17 -8 3 -22 -7 -35 -24 -21 -30 -21 -31 -2 -74 10 -24 50 -76 87 -116 92 -95 161 -125 274 -120 64 3 82 8 110 30 48 38 51 86 7 119 -28 21 -43 24 -117 24 -100 0 -158 18 -166 52 -4 13 -4 29 -1 36 6 16 89 42 182 58 39 6 74 15 80 20 14 13 36 11 101 -10 61 -21 88 -15 64 14 -15 18 -105 65 -125 65 -14 0 -46 16 -87 43 -27 19 -100 21 -164 5z"/>
 <path d="M7083 9971 c-91 -15 -116 -80 -111 -285 3 -123 5 -137 25 -158 27 -29 76 -29 228 -4 103 17 108 18 210 31 55 7 128 36 140 54 6 11 -66 57 -112 72 -49 17 -63 28 -63 49 0 9 -11 34 -25 54 -14 20 -25 39 -25 41 0 3 13 5 28 5 16 0 32 3 35 7 9 8 -22 43 -38 43 -6 0 -21 14 -34 31 -44 59 -134 80 -258 60z"/>
 <path d="M3170 9943 c-11 -8 -24 -12 -29 -9 -15 10 -89 -80 -100 -120 -14 -50 -14 -84 1 -142 30 -122 151 -219 218 -174 38 25 64 38 91 45 71 18 157 138 143 202 -15 69 -88 161 -157 196 -44 23 -136 24 -167 2z m151 -191 c35 -39 36 -54 7 -67 -13 -6 -27 -20 -33 -31 -11 -21 -11 -21 -34 -3 -13 11 -32 19 -42 19 -25 0 -50 40 -42 68 14 56 100 64 144 14z"/>
 <path d="M1955 9930 c-82 -10 -106 -22 -148 -71 -49 -57 -55 -93 -27 -180 39 -121 149 -219 247 -219 21 0 45 -4 53 -10 9 -5 23 -4 40 5 14 7 33 16 43 19 9 3 25 21 34 41 16 34 16 35 -7 60 -16 17 -34 25 -57 25 -42 0 -154 46 -194 80 -42 34 -34 62 25 84 33 13 69 16 160 13 98 -2 119 0 131 13 24 26 18 57 -12 73 -16 8 -41 21 -58 30 -25 13 -86 29 -155 41 -8 2 -42 0 -75 -4z"/>
 <path d="M2418 9923 c-37 -43 -58 -103 -59 -171 -2 -103 10 -252 21 -273 25 -45 99 -31 129 25 45 83 133 142 203 137 23 -1 48 -29 48 -52 0 -11 9 -40 20 -65 19 -40 23 -44 48 -38 32 8 55 34 82 93 23 50 24 89 6 213 -13 92 -39 138 -77 138 -29 0 -64 -68 -62 -122 l2 -47 -42 15 c-43 16 -121 13 -155 -6 -10 -5 -31 -16 -49 -25 l-32 -15 6 78 6 78 -32 27 c-38 32 -43 33 -63 10z"/>
 <path d="M8075 9883 c-22 -3 -44 -9 -49 -14 -6 -5 -20 -9 -31 -9 -29 0 -62 -37 -84 -94 -23 -61 -17 -91 33 -173 47 -77 107 -124 189 -148 58 -17 163 -20 172 -4 4 6 13 8 21 5 7 -3 17 1 21 8 11 17 47 36 71 36 24 0 72 24 83 42 5 7 9 31 9 53 0 54 -60 143 -135 202 -57 45 -198 104 -240 101 -11 -1 -38 -3 -60 -5z m177 -175 c73 -25 118 -58 118 -86 0 -35 -16 -38 -123 -27 -125 13 -200 45 -205 87 -3 21 3 28 25 36 47 17 115 13 185 -10z"/>
 <path d="M7604 9618 c-10 -16 8 -28 41 -28 35 0 53 14 34 25 -16 10 -69 12 -75 3z"/>
 <path d="M9543 9464 c-9 -24 56 -86 87 -82 34 4 39 42 9 74 -17 18 -26 21 -40 14 -12 -7 -20 -7 -24 0 -9 15 -25 12 -32 -6z"/>
 <path d="M2034 9333 l-39 -35 -135 -4 -135 -3 -25 30 -25 31 -115 -27 c-80 -19 -151 -28 -235 -31 -66 -2 -214 -6 -330 -10 -116 -3 -341 -6 -502 -6 -279 0 -293 -1 -310 -20 -17 -19 -17 -21 18 -52 49 -45 148 -61 133 -22 -8 20 27 23 281 24 127 0 284 4 350 8 107 6 118 5 107 -9 -17 -20 -18 -63 -2 -111 14 -42 7 -330 -8 -350 -13 -17 -7 -67 9 -80 15 -12 79 -103 79 -112 0 -23 159 -137 224 -160 22 -9 91 -22 151 -30 79 -10 118 -20 138 -35 16 -12 34 -22 40 -23 7 -1 26 -10 44 -19 44 -23 56 -2 17 31 l-29 24 40 -6 c22 -4 72 -11 112 -18 l72 -11 -4 -33 c-7 -49 17 -62 47 -26 43 51 53 48 77 -28 23 -72 53 -120 114 -182 28 -28 44 -37 58 -33 11 4 41 7 66 7 25 0 63 6 85 14 22 8 70 14 105 14 l65 0 -7 -36 c-3 -20 -18 -61 -33 -92 -22 -46 -36 -62 -74 -82 -26 -14 -84 -60 -130 -102 -46 -43 -85 -79 -88 -81 -3 -1 -35 -22 -72 -46 -59 -38 -71 -51 -98 -107 -16 -35 -30 -71 -30 -79 0 -8 -4 -15 -8 -15 -5 0 -8 28 -8 61 1 48 -3 64 -16 73 -14 8 -22 7 -35 -6 -20 -20 -24 -48 -24 -182 -1 -110 -16 -179 -20 -91 -7 151 -6 149 -30 179 -17 22 -24 24 -40 15 -17 -9 -19 -17 -14 -51 4 -22 9 -85 10 -141 2 -56 7 -129 10 -162 3 -33 6 -87 6 -120 1 -69 15 -92 58 -93 39 -1 57 22 69 88 8 46 10 49 11 20 2 -51 36 -120 59 -120 39 0 67 54 50 100 -8 25 -6 39 10 78 11 26 23 72 27 102 5 30 10 66 12 80 2 14 4 35 4 48 -1 13 7 42 17 65 11 23 25 58 32 77 32 85 89 83 115 -5 8 -29 21 -58 29 -64 11 -10 13 -19 5 -38 -12 -33 3 -53 29 -37 35 22 119 225 109 263 -3 13 5 21 29 30 19 7 38 10 43 7 5 -3 14 1 21 9 17 20 29 19 49 -6 10 -12 32 -23 50 -25 26 -3 33 0 41 20 14 37 27 39 63 12 43 -33 84 -34 96 -3 15 40 26 44 142 62 31 5 39 2 53 -20 11 -17 25 -25 45 -25 18 0 34 -8 42 -21 20 -30 81 -32 93 -3 10 22 10 22 49 -10 21 -17 76 -64 120 -104 45 -40 100 -82 122 -94 36 -19 117 -75 138 -95 92 -90 173 -256 192 -392 2 -18 11 -44 19 -56 22 -33 3 -44 -74 -42 -40 0 -86 -6 -119 -17 -44 -15 -57 -16 -77 -6 -20 11 -35 10 -101 -10 -43 -12 -87 -31 -99 -41 -11 -11 -34 -19 -50 -19 -48 0 -99 -64 -170 -208 -14 -29 -36 -64 -49 -78 -13 -14 -36 -38 -50 -54 -47 -50 -57 -78 -39 -105 16 -25 92 -65 122 -65 35 0 138 -31 197 -60 33 -16 83 -34 110 -41 28 -6 58 -16 68 -21 10 -5 57 -16 105 -24 48 -9 105 -20 127 -24 22 -5 59 -13 83 -18 25 -6 50 -19 58 -31 18 -25 38 -26 79 -5 19 10 48 14 80 12 l50 -3 -4 30 c-4 40 -8 45 -37 45 -17 0 -24 5 -24 19 0 11 4 22 9 25 5 4 12 30 16 59 11 78 32 152 43 150 5 -1 17 6 27 17 16 18 16 20 -8 44 l-25 25 38 78 c51 105 56 134 25 167 -13 14 -35 28 -50 32 -15 4 -37 17 -50 30 -13 13 -36 26 -52 30 -15 4 -37 13 -48 20 -11 8 -27 14 -37 14 -22 0 -23 9 -2 24 14 10 14 16 0 56 -8 25 -17 67 -21 95 -3 27 -13 57 -21 66 -9 10 -14 23 -13 31 4 22 -20 95 -36 108 -8 7 -15 21 -15 32 0 10 -7 21 -15 24 -8 4 -15 11 -15 18 0 6 -13 27 -30 46 -16 19 -29 38 -30 43 -1 16 33 5 51 -17 10 -13 33 -29 50 -36 29 -13 33 -12 50 9 21 26 24 44 9 71 -6 10 -6 21 -1 24 9 6 0 73 -24 161 -30 112 -111 253 -133 230 -12 -12 2 -55 18 -55 6 0 8 -5 5 -10 -4 -6 -2 -16 3 -23 5 -7 12 -25 15 -42 10 -57 49 -190 58 -199 13 -15 11 -42 -5 -55 -11 -9 -17 3 -35 61 -12 40 -28 86 -36 101 -8 16 -15 35 -15 42 0 7 -10 26 -23 42 -38 46 -82 123 -110 193 -14 36 -25 66 -23 67 1 1 22 -5 46 -13 41 -14 45 -14 57 2 7 10 13 21 13 26 0 12 -48 40 -58 34 -5 -3 -18 1 -28 9 -10 8 -31 15 -45 15 -14 0 -33 8 -42 18 -15 16 -12 17 51 14 37 -1 77 -8 88 -13 15 -8 27 -8 42 0 27 14 35 2 51 -78 14 -73 35 -111 61 -111 23 0 36 18 38 53 1 16 8 41 16 55 8 15 18 48 21 74 13 99 105 187 196 188 20 0 47 8 60 18 13 10 37 19 54 20 16 1 34 7 39 12 6 6 18 10 28 10 10 0 55 15 100 34 71 29 93 34 148 31 66 -3 169 9 199 24 57 29 98 41 158 47 37 4 73 11 79 15 6 5 14 6 17 2 9 -9 47 27 47 44 0 8 -9 33 -20 55 -11 23 -20 52 -20 65 0 13 -6 32 -13 43 -10 17 -9 26 6 51 12 22 14 35 7 44 -12 14 -3 25 21 25 37 0 65 90 37 118 -9 9 -7 17 8 34 45 53 50 91 16 130 -20 24 -8 64 22 72 14 3 38 18 55 32 35 29 40 67 16 114 -12 24 -22 30 -47 30 -17 0 -39 -6 -47 -14 -9 -8 -38 -19 -66 -24 -50 -11 -210 -52 -273 -71 -30 -9 -32 -8 -28 12 3 12 10 50 17 85 l12 62 51 0 c28 0 374 1 769 3 394 2 717 2 717 0 0 -3 -28 -44 -62 -93 -35 -48 -75 -107 -90 -131 -15 -24 -33 -53 -40 -64 -7 -11 -30 -41 -50 -66 -21 -26 -38 -50 -38 -54 0 -5 -19 -29 -43 -54 -23 -25 -49 -55 -57 -66 -20 -27 -94 -80 -152 -109 -42 -21 -47 -22 -51 -6 -2 9 0 24 4 33 6 9 5 27 -1 43 -6 15 -8 40 -5 55 7 30 -21 134 -42 160 -7 8 -13 25 -13 35 0 11 -30 58 -68 105 -37 46 -77 100 -89 120 -12 19 -32 44 -43 54 -18 16 -24 17 -41 6 -18 -10 -23 -10 -34 6 -13 17 -15 17 -39 -6 -31 -29 -33 -59 -7 -92 10 -13 16 -29 14 -35 -2 -6 9 -24 24 -40 15 -16 35 -45 44 -64 9 -20 38 -67 65 -104 27 -37 49 -71 50 -74 1 -12 15 -47 25 -62 16 -27 40 -84 60 -144 19 -55 19 -59 3 -77 -16 -18 -16 -20 1 -39 22 -24 62 -25 130 -4 28 8 77 21 110 28 33 8 98 25 145 38 47 14 103 28 124 31 l39 6 -28 -29 c-16 -17 -35 -30 -43 -30 -8 0 -31 -12 -51 -27 -20 -16 -43 -32 -52 -38 -9 -5 -38 -26 -66 -45 -27 -19 -90 -63 -139 -96 -98 -68 -189 -150 -204 -186 -5 -13 -16 -31 -22 -42 -11 -15 -10 -20 6 -30 11 -6 36 -25 55 -43 99 -86 218 -122 338 -102 38 6 77 13 88 14 11 2 40 10 65 19 25 9 53 16 62 16 9 0 32 9 51 20 24 14 48 20 78 18 43 -3 44 -2 44 27 0 22 -5 31 -20 33 -11 2 -27 6 -35 9 -8 3 -18 5 -22 5 -14 -3 -9 48 6 71 8 12 22 58 31 102 9 44 20 85 24 90 4 6 13 30 21 55 27 94 34 115 44 129 6 7 11 19 11 25 0 6 8 28 18 50 9 21 17 43 17 48 0 10 67 147 80 163 22 27 50 88 50 108 0 12 9 33 20 47 11 14 20 33 20 42 0 9 5 20 10 23 13 8 13 96 1 128 -11 28 -56 44 -77 26 -10 -8 -11 -16 -3 -32 25 -46 -1 -161 -73 -317 -14 -30 -32 -69 -39 -86 -12 -30 -14 -31 -35 -18 -20 14 -24 12 -47 -15 -14 -17 -27 -34 -29 -38 -1 -5 -16 -18 -32 -31 -26 -20 -30 -21 -41 -6 -10 14 -23 15 -75 10 -35 -4 -71 -11 -82 -17 -10 -5 -23 -7 -28 -4 -5 3 -11 1 -14 -4 -5 -7 -64 -23 -81 -21 -3 0 -21 -7 -41 -15 -71 -29 -69 -15 9 56 42 39 77 75 77 81 0 5 20 32 44 59 48 53 189 260 205 300 5 13 30 49 55 79 26 30 49 63 52 73 6 18 32 19 732 13 400 -3 801 -9 892 -12 l165 -6 50 -47 c54 -50 130 -111 140 -111 3 0 28 -16 55 -35 28 -19 50 -33 50 -29 0 3 12 -3 28 -14 15 -10 54 -31 87 -46 33 -16 82 -42 109 -59 l48 -30 -22 -17 c-14 -11 -37 -16 -61 -14 -77 5 -149 17 -154 24 -9 14 -56 -3 -71 -25 -14 -22 -13 -27 18 -72 33 -47 183 -345 208 -413 38 -102 126 -268 170 -321 71 -85 75 -95 48 -113 -13 -8 -39 -18 -58 -22 -19 -4 -42 -9 -50 -11 -8 -2 -45 -6 -82 -8 -55 -5 -78 -1 -133 20 -37 14 -85 39 -108 57 -23 18 -44 32 -47 30 -3 -1 -5 8 -6 21 -1 12 -7 33 -14 47 -7 13 -14 40 -16 59 -2 20 -6 52 -10 71 -6 35 -6 35 11 12 9 -13 23 -21 30 -18 7 2 15 -4 18 -15 4 -14 12 -20 28 -17 36 5 36 60 -1 100 l-29 33 -25 -30 -25 -30 -1 36 c0 44 -22 68 -45 49 -8 -7 -15 -28 -15 -48 0 -32 -11 -39 -16 -9 -1 7 -11 47 -22 88 -12 42 -23 86 -26 100 -9 51 -18 85 -26 104 -5 11 -16 54 -24 95 -8 41 -21 107 -30 145 -8 39 -17 102 -19 141 -4 75 -10 94 -33 94 -32 0 -54 -38 -54 -92 0 -60 22 -197 45 -273 8 -28 16 -68 19 -88 3 -21 9 -44 14 -50 5 -7 12 -25 15 -42 9 -48 52 -209 58 -220 4 -5 10 -28 13 -49 4 -22 18 -61 31 -87 21 -44 21 -48 5 -39 -24 13 -37 -5 -14 -18 13 -7 14 -13 5 -30 -14 -27 6 -43 24 -19 14 20 30 23 18 5 -4 -7 -8 -16 -8 -20 0 -9 -13 -11 -37 -4 -10 2 -18 13 -18 24 0 28 -13 34 -36 17 -25 -19 -34 -19 -34 0 0 17 -93 115 -109 115 -5 0 -28 28 -50 63 -23 35 -61 80 -86 100 -25 21 -44 43 -42 50 1 7 -10 13 -25 15 -23 3 -30 -2 -38 -24 -12 -30 -11 -32 67 -116 29 -31 53 -61 53 -66 0 -6 17 -32 38 -59 39 -51 62 -88 62 -99 0 -4 -31 -4 -70 -2 -38 3 -72 3 -76 -1 -3 -3 -22 -11 -42 -16 -21 -6 -37 -17 -37 -25 0 -8 -11 -24 -24 -35 -13 -11 -34 -31 -48 -45 -20 -20 -28 -23 -51 -14 -36 14 -83 -6 -112 -46 -19 -27 -21 -39 -15 -83 3 -29 9 -83 12 -122 2 -38 10 -77 17 -85 7 -8 16 -22 20 -30 7 -15 -16 12 -70 77 -48 60 -161 92 -254 72 -120 -26 -164 -63 -318 -272 -24 -33 -46 -57 -48 -54 -3 3 -1 28 4 56 5 30 6 54 1 57 -5 3 -6 11 -2 17 4 6 8 53 9 105 l2 94 -29 10 c-15 5 -27 13 -26 16 1 4 -2 7 -8 7 -5 0 -8 -7 -6 -15 2 -12 -1 -11 -17 3 -16 14 -21 15 -30 4 -9 -10 -8 -19 3 -34 19 -27 15 -64 -7 -81 -12 -9 -18 -27 -18 -52 0 -21 -4 -41 -9 -44 -5 -4 -7 13 -4 38 2 25 0 47 -6 51 -7 4 -6 16 5 37 10 19 12 34 6 40 -6 6 -4 20 5 40 11 20 12 33 5 40 -13 13 -33 1 -26 -16 6 -16 -30 -28 -44 -14 -16 16 -37 -29 -22 -47 18 -21 -3 -25 -28 -5 -13 11 -18 21 -12 25 13 8 2 28 -14 22 -18 -7 -19 78 -1 93 8 7 15 22 15 34 0 11 9 52 20 91 10 38 17 72 15 75 -2 3 3 14 10 24 14 19 24 19 105 0 15 -3 33 1 45 10 20 16 20 16 -4 36 -13 11 -32 20 -42 20 -38 0 -18 20 54 54 98 47 172 104 209 163 17 26 44 67 59 90 16 24 29 50 31 60 5 28 55 65 95 68 49 5 60 19 32 39 -25 17 -114 22 -123 7 -3 -5 -20 -8 -38 -7 -29 1 -33 5 -33 29 0 37 -18 35 -28 -4 -7 -26 -4 -36 14 -55 26 -27 15 -33 -13 -7 -17 15 -20 15 -34 1 -19 -19 -11 -38 17 -38 16 0 18 -4 10 -18 -6 -11 -6 -24 1 -35 7 -13 3 -25 -16 -48 -14 -17 -26 -35 -26 -40 0 -20 -106 -110 -141 -119 -20 -6 -42 -17 -49 -25 -7 -8 -22 -15 -35 -15 -12 0 -36 -5 -54 -11 -33 -12 -67 3 -55 23 7 12 -16 39 -27 32 -5 -3 -5 -12 0 -22 9 -18 4 -71 -8 -73 -65 -8 -108 -3 -129 15 -18 16 -25 17 -35 7 -9 -10 -7 -16 13 -31 14 -10 26 -17 29 -15 2 2 17 -11 34 -30 23 -26 39 -35 63 -35 28 0 32 -3 30 -23 -1 -13 -6 -28 -10 -35 -19 -31 -66 -233 -66 -284 0 -42 -16 -33 -17 10 -7 236 -14 272 -49 272 -8 0 -19 -12 -24 -27 -12 -31 -28 -69 -41 -95 -5 -10 -9 -28 -9 -41 0 -13 -4 -27 -9 -33 -30 -33 -44 -194 -46 -529 -1 -137 -5 -264 -9 -282 -4 -19 -3 -34 4 -38 5 -3 7 -12 3 -18 -21 -33 -30 -79 -23 -119 5 -24 6 -45 4 -47 -2 -2 1 -10 6 -16 8 -9 6 -14 -5 -19 -17 -6 -20 -61 -5 -100 5 -15 5 -28 0 -31 -9 -5 -7 -72 3 -190 10 -99 13 -110 31 -107 19 3 21 -11 3 -26 -10 -8 -16 -67 -7 -67 1 0 4 -21 6 -46 2 -25 13 -72 24 -104 11 -32 20 -68 20 -79 0 -12 7 -30 16 -41 11 -14 13 -34 8 -75 -5 -46 -2 -62 16 -95 12 -22 31 -48 41 -58 19 -17 20 -52 4 -90 -5 -11 -2 -24 7 -35 9 -9 22 -38 31 -64 13 -39 13 -46 1 -41 -8 3 -14 9 -14 13 0 5 -15 29 -34 53 -56 73 -110 197 -151 342 -10 33 -21 68 -26 78 -6 10 -7 22 -4 27 3 5 -1 22 -9 38 -8 16 -13 32 -10 34 6 7 -26 188 -37 210 -5 9 -9 27 -9 40 1 49 -7 124 -14 140 -4 9 -5 22 -1 28 3 5 3 15 -1 21 -3 6 -8 43 -10 82 -12 230 -22 366 -29 378 -3 4 -7 41 -10 81 -2 40 -7 84 -10 98 -3 14 -16 90 -30 170 -31 187 -35 202 -44 215 -4 5 -6 21 -5 35 1 14 -1 30 -4 35 -4 6 -7 24 -8 40 -1 17 -7 50 -12 75 -7 32 -7 49 1 58 8 10 5 18 -11 34 -18 18 -23 19 -37 8 -32 -27 -34 -55 -14 -182 11 -67 22 -134 24 -148 31 -166 66 -392 70 -445 1 -22 6 -60 10 -84 9 -55 11 -76 20 -181 3 -47 10 -98 15 -115 5 -16 7 -41 6 -55 -2 -14 2 -61 9 -105 7 -44 10 -86 8 -93 -3 -7 0 -34 7 -60 6 -26 14 -60 16 -77 2 -16 6 -41 9 -55 3 -14 10 -56 15 -95 6 -38 13 -78 16 -88 3 -11 7 -29 9 -40 5 -38 17 -82 27 -94 5 -7 7 -17 4 -22 -6 -9 29 -124 44 -146 3 -5 13 -30 20 -55 7 -25 18 -51 24 -59 6 -7 15 -21 21 -31 59 -100 132 -189 165 -202 14 -6 41 -12 60 -13 40 -3 82 -23 162 -76 29 -20 78 -42 108 -49 30 -6 73 -24 95 -38 68 -44 128 -71 162 -72 36 0 49 14 44 48 -1 13 3 22 11 23 76 5 102 9 111 18 18 18 37 13 47 -13 10 -27 55 -42 75 -26 11 9 10 19 -6 53 -27 60 -23 78 6 34 14 -20 31 -38 38 -38 45 -4 83 2 122 21 36 17 49 19 60 10 10 -8 19 -8 34 -1 24 13 31 14 31 2 0 -16 -164 -89 -284 -127 -38 -12 -54 -37 -37 -58 17 -20 75 -21 91 -1 7 8 21 15 32 15 11 0 37 9 57 19 20 10 52 26 71 35 19 9 49 26 65 36 17 11 37 23 45 27 55 29 130 76 130 83 0 4 9 10 21 13 12 3 18 10 14 16 -3 6 2 14 12 18 10 3 26 15 35 27 9 12 21 21 25 21 20 0 197 207 187 218 -3 3 6 31 21 62 14 31 31 84 36 118 6 33 13 65 16 70 9 14 14 54 15 110 0 26 3 49 8 52 4 2 6 53 5 112 -2 80 1 116 12 141 12 25 13 36 4 45 -13 13 -15 73 -2 81 5 3 6 21 2 38 -4 18 -4 94 1 168 4 74 9 182 12 239 5 80 2 122 -13 185 -10 44 -17 101 -16 126 1 25 -2 53 -6 62 -6 10 -5 19 1 23 12 7 13 42 3 48 -5 2 -20 7 -35 11 -23 5 -30 2 -43 -23 -8 -17 -11 -32 -6 -35 5 -3 11 -19 13 -36 3 -22 1 -27 -7 -20 -7 5 -15 7 -18 3 -14 -14 -6 104 10 149 16 44 16 49 0 66 -9 10 -20 34 -23 53 -4 19 -13 41 -21 50 -7 9 -14 34 -15 55 -1 48 -11 62 -52 69 -31 6 -33 11 -70 121 -20 62 -42 116 -47 120 -22 13 -28 -13 -12 -56 27 -77 44 -162 49 -239 4 -67 2 -75 -17 -89 -13 -9 -19 -21 -16 -33 3 -10 -1 -23 -9 -30 -14 -12 -10 -53 8 -76 5 -6 5 -14 0 -17 -5 -3 -10 -22 -11 -43 -12 -184 -12 -205 -1 -218 8 -10 8 -19 0 -35 -6 -11 -9 -24 -7 -28 3 -4 1 -16 -4 -27 -5 -15 -8 -6 -9 30 -2 28 -2 54 -1 59 1 4 -3 14 -9 21 -6 7 -10 48 -10 91 0 44 -2 102 -5 129 -11 110 -13 178 -13 355 1 279 -2 262 43 283 21 11 53 21 70 24 29 5 33 2 38 -23 12 -54 44 -94 76 -94 40 0 59 24 37 48 -21 24 -20 35 2 28 9 -3 57 -8 106 -11 99 -6 106 -8 106 -34 0 -24 25 -45 45 -37 11 4 14 13 9 31 -6 25 4 33 21 16 6 -5 37 -17 70 -27 94 -30 257 -23 282 12 6 9 17 13 23 9 6 -4 17 -1 25 5 8 7 15 9 15 5 0 -4 11 4 25 19 13 14 33 26 43 26 28 0 53 41 40 65 -8 13 -6 33 8 74 14 42 19 50 22 33 4 -28 27 -39 46 -22 10 7 14 28 13 63 -2 29 3 72 10 96 13 44 120 211 135 211 5 0 14 12 21 27 11 25 21 38 62 84 8 9 15 19 15 23 0 4 18 29 40 55 22 26 40 51 40 55 0 4 19 33 43 64 54 71 144 232 172 307 39 105 53 150 48 161 -4 11 7 14 46 14 55 0 98 -28 87 -56 -3 -8 4 -28 16 -44 16 -22 23 -53 31 -127 5 -54 15 -114 22 -133 7 -19 18 -62 25 -95 6 -33 17 -76 24 -95 7 -19 23 -66 35 -105 13 -38 29 -84 37 -102 8 -17 14 -42 14 -55 0 -13 5 -29 10 -34 6 -6 13 -67 17 -135 3 -68 8 -160 12 -204 6 -75 7 -80 30 -83 41 -6 48 17 44 128 -4 99 -4 101 31 163 19 34 49 76 66 92 16 16 30 39 30 51 0 45 -23 38 -82 -25 -34 -36 -58 -55 -58 -45 0 19 -29 127 -76 279 -56 184 -84 301 -103 434 -11 69 -24 139 -30 155 -7 16 -9 31 -7 34 3 2 139 3 303 2 164 -2 402 -2 528 0 127 2 275 3 330 3 55 0 191 -1 303 -2 l203 -1 -3 -72 -3 -72 62 -46 c34 -25 83 -58 108 -75 26 -17 55 -46 65 -65 36 -71 59 -126 66 -155 4 -16 11 -35 16 -42 18 -22 4 -34 -22 -19 -14 7 -52 28 -85 46 -33 18 -67 39 -76 46 -8 8 -21 14 -27 14 -7 0 -12 4 -12 9 0 5 -31 32 -70 62 -66 50 -81 71 -61 83 12 8 2 53 -15 67 -15 12 -34 4 -34 -15 0 -39 -185 -342 -239 -390 -37 -34 -71 -102 -71 -145 0 -43 -6 -35 167 -216 29 -31 43 -56 48 -85 13 -76 85 -91 85 -17 0 60 -44 129 -129 203 -44 38 -83 80 -87 92 -7 25 14 71 68 147 54 76 81 120 99 161 11 23 26 47 34 54 8 7 15 18 15 25 0 7 7 18 15 25 12 10 15 10 15 -4 0 -8 13 -22 30 -31 41 -21 65 -65 36 -65 -8 0 -21 12 -28 28 -19 39 -53 41 -72 3 -20 -38 -20 -56 -1 -85 15 -23 125 -106 141 -106 9 0 97 -75 152 -131 36 -35 47 -41 60 -32 10 6 16 22 15 38 l-2 28 23 -22 c12 -12 24 -20 27 -17 2 2 16 6 31 10 25 6 27 3 33 -36 4 -23 12 -50 18 -59 13 -22 2 -61 -28 -97 -26 -31 -142 -92 -215 -113 -50 -14 -72 -27 -65 -39 6 -9 -44 -30 -126 -54 -67 -19 -152 -73 -157 -100 -7 -34 14 -40 61 -17 25 12 61 23 81 25 19 2 42 9 51 16 8 7 23 9 32 5 17 -6 17 -7 -1 -17 -18 -10 -18 -11 5 -30 21 -17 22 -19 4 -14 -12 3 -38 -3 -60 -14 -22 -11 -43 -16 -49 -11 -6 4 -21 11 -34 14 -18 4 -25 0 -34 -21 -6 -15 -10 -31 -9 -35 1 -5 -3 -6 -9 -2 -8 5 -7 11 1 21 6 8 10 14 8 15 -2 0 -14 2 -26 5 -53 9 -106 63 -156 157 -74 137 -66 132 -142 86 -36 -21 -70 -39 -78 -39 -7 0 -21 -6 -32 -13 -11 -8 -47 -24 -80 -37 -33 -13 -69 -29 -80 -37 -23 -15 -49 -17 -40 -3 4 6 8 25 10 43 2 18 11 70 20 117 8 47 20 109 25 138 5 29 12 58 17 65 4 6 11 35 15 62 8 59 23 134 31 155 3 8 10 49 17 90 13 79 51 213 77 267 12 25 13 36 4 46 -17 21 -52 15 -72 -13 -20 -27 -79 -243 -79 -290 0 -16 -6 -55 -14 -87 -8 -32 -17 -75 -20 -95 l-7 -37 -28 17 c-26 15 -34 15 -92 1 -35 -9 -91 -17 -124 -18 l-60 -2 58 52 c32 29 68 67 80 84 12 18 44 61 70 96 46 62 90 126 133 196 12 19 31 41 43 49 11 8 21 19 21 25 0 14 53 92 72 107 20 14 24 57 7 67 -20 13 -55 -5 -82 -42 -15 -21 -50 -69 -77 -106 -28 -38 -59 -85 -70 -105 -48 -88 -151 -218 -272 -344 -54 -55 -98 -104 -98 -109 0 -24 48 -39 127 -39 45 0 84 -4 88 -9 3 -6 -27 -47 -68 -93 -94 -108 -144 -170 -187 -234 -19 -29 -54 -74 -78 -101 -23 -26 -64 -75 -91 -109 -27 -33 -74 -82 -105 -109 -31 -26 -56 -51 -56 -56 0 -5 11 -16 25 -25 21 -14 28 -14 41 -3 9 7 32 13 52 12 21 0 41 2 47 5 5 3 82 7 169 8 143 3 162 1 186 -16 15 -11 30 -17 33 -14 3 3 25 2 50 -1 l45 -7 0 -72 c0 -108 18 -185 48 -198 20 -9 28 -8 41 5 16 15 16 19 0 52 -11 22 -17 60 -17 101 0 36 -5 74 -11 86 -10 19 -9 20 33 13 23 -3 53 -11 66 -18 28 -13 57 1 57 28 0 17 -45 45 -118 74 -19 7 -26 15 -20 24 4 6 6 19 5 29 -2 9 2 19 8 23 6 3 8 22 5 43 -11 71 26 111 130 139 11 3 36 12 55 21 19 9 39 15 43 14 5 -1 20 4 35 12 15 7 44 21 64 29 37 16 37 16 58 -12 11 -16 20 -33 20 -38 0 -5 5 -14 12 -21 35 -35 46 -135 28 -247 -11 -70 2 -127 36 -154 21 -17 23 -23 15 -71 -5 -32 -15 -56 -25 -62 -12 -7 -14 -13 -7 -21 6 -8 3 -30 -9 -67 -11 -30 -19 -76 -20 -102 0 -26 -4 -49 -9 -52 -4 -3 -6 -17 -3 -31 3 -20 -4 -33 -39 -64 -67 -59 -113 -134 -169 -276 -28 -71 -56 -139 -62 -150 -14 -25 -19 -35 -61 -120 -40 -81 -78 -213 -75 -259 1 -17 -5 -42 -13 -56 -9 -16 -14 -56 -14 -111 0 -73 -3 -91 -20 -109 l-20 -22 23 -15 c12 -9 22 -26 22 -38 0 -13 6 -35 14 -50 8 -15 12 -33 10 -40 -3 -7 0 -16 5 -20 6 -3 9 -11 5 -16 -5 -9 -27 5 -98 64 -42 34 -51 34 -69 -2 -13 -26 -13 -32 0 -51 8 -11 12 -28 9 -37 -9 -22 11 -41 49 -49 19 -3 41 -15 51 -25 9 -10 23 -19 31 -19 7 0 13 -4 13 -9 0 -5 27 -42 60 -81 66 -79 74 -92 84 -133 6 -26 4 -25 -41 18 -25 25 -51 45 -57 45 -6 0 -27 17 -48 37 -33 32 -38 34 -44 18 -10 -25 21 -77 69 -117 69 -57 257 -279 283 -335 17 -35 32 -53 43 -53 20 0 51 30 51 48 0 7 5 12 10 12 6 0 10 -4 10 -9 0 -19 100 -71 138 -71 l37 0 -35 -18 c-28 -13 -34 -22 -32 -42 4 -39 16 -42 60 -19 23 13 48 19 58 15 16 -6 16 -8 -3 -29 -42 -46 -29 -102 15 -65 38 33 95 58 154 68 35 6 76 18 92 26 16 8 39 14 51 14 12 0 30 9 40 20 10 11 26 20 35 20 10 0 23 7 30 15 6 8 15 13 18 12 4 -1 17 8 30 21 15 15 30 21 42 17 12 -4 22 0 29 13 10 18 86 42 139 42 15 0 38 9 52 20 14 11 31 20 39 20 8 0 22 6 30 14 16 13 81 38 81 31 0 -2 -5 -16 -10 -30 -7 -19 -6 -33 2 -48 6 -12 13 -39 14 -60 3 -53 25 -73 95 -86 55 -11 64 -10 100 8 22 12 49 21 60 21 11 0 22 8 26 18 3 9 27 42 52 71 59 71 73 99 66 132 -8 38 -97 119 -130 119 -28 0 -30 3 -14 32 16 29 -7 51 -26 24 -8 -10 -18 -15 -23 -12 -5 3 -38 -9 -73 -28 -168 -88 -236 -123 -263 -135 -26 -11 -28 -10 -17 3 13 15 7 36 -9 36 -5 0 -29 -18 -54 -39 -25 -22 -60 -44 -78 -50 -46 -15 -146 -22 -153 -11 -5 9 137 110 156 110 5 0 12 6 15 14 3 8 21 17 40 21 19 3 37 12 40 19 3 8 19 17 36 20 43 8 58 23 58 57 0 26 27 53 47 47 4 -1 19 4 33 12 14 9 39 22 55 31 26 13 30 20 29 54 -1 39 -2 40 -36 38 -20 -1 -82 -26 -143 -57 -83 -43 -111 -53 -122 -45 -7 6 -13 14 -13 18 0 3 36 31 81 61 115 79 132 88 151 89 10 1 25 12 33 25 20 30 6 66 -26 66 -37 0 -275 -163 -400 -275 -37 -33 -98 -83 -136 -110 -43 -32 -74 -65 -86 -88 -9 -20 -35 -48 -56 -63 -21 -14 -58 -48 -81 -75 -53 -63 -109 -94 -136 -75 -10 7 -35 16 -54 20 -19 4 -66 26 -105 50 -60 37 -71 49 -79 80 -9 33 -7 40 11 54 11 10 23 24 25 32 8 23 -40 107 -105 185 -57 68 -187 185 -205 185 -10 0 -42 92 -42 121 0 16 6 15 46 -12 100 -68 314 -315 314 -362 0 -22 22 -34 50 -27 36 9 36 34 1 89 -17 26 -31 51 -31 55 0 13 -63 100 -107 149 -49 52 -48 64 6 90 39 19 34 43 -9 39 -19 -2 -39 -7 -44 -12 -9 -9 -62 6 -85 24 -7 5 -20 11 -28 12 -19 3 -28 12 -20 21 4 3 45 0 91 -7 78 -12 87 -12 112 5 26 17 27 18 9 31 -10 8 -33 15 -49 16 -49 2 -54 3 -62 11 -4 4 4 7 19 7 60 0 137 51 116 77 -6 7 -27 13 -45 13 -29 0 -34 3 -34 25 0 13 -8 29 -17 34 -18 10 -16 12 22 16 31 3 65 24 65 39 0 17 -32 46 -51 46 -8 0 -57 -14 -109 -30 -97 -32 -138 -33 -172 -3 -14 13 -15 18 -3 48 8 18 12 35 9 38 -16 16 -2 84 31 154 132 279 146 313 141 322 -3 5 1 17 9 27 8 10 15 29 15 40 0 12 7 27 15 34 8 7 15 21 15 32 0 31 92 149 112 144 11 -3 26 7 39 25 29 41 76 64 96 47 13 -11 20 -7 47 25 33 40 45 44 75 25 15 -9 24 -8 45 6 26 16 28 16 62 -5 20 -12 47 -39 61 -60 14 -22 31 -39 38 -39 7 0 16 -11 19 -24 3 -14 22 -45 41 -70 19 -26 35 -51 35 -57 0 -17 82 -151 97 -156 7 -3 13 -11 13 -18 0 -7 22 -34 49 -62 26 -27 54 -60 61 -72 20 -38 91 -111 108 -111 8 0 13 -3 9 -6 -5 -6 34 -64 88 -130 14 -18 25 -37 25 -42 0 -6 6 -15 13 -19 7 -4 19 -22 26 -40 7 -18 19 -38 27 -44 17 -14 54 -95 54 -117 0 -8 11 -30 25 -48 14 -18 25 -37 25 -42 0 -5 7 -15 15 -22 9 -7 14 -19 11 -27 -6 -14 -4 -19 26 -79 9 -18 14 -43 11 -57 -3 -13 0 -28 6 -31 15 -10 32 35 19 51 -5 6 -5 14 0 17 10 6 3 74 -9 82 -5 3 -9 17 -9 32 0 25 -37 109 -60 136 -5 7 -11 21 -13 32 -5 25 -16 54 -29 79 -6 11 -22 41 -36 67 -13 26 -40 65 -58 87 -19 21 -34 44 -34 50 0 5 -8 16 -18 23 -10 7 -38 38 -62 68 -25 30 -65 78 -90 105 -25 28 -58 70 -75 94 -16 24 -37 51 -45 60 -60 68 -98 120 -105 141 -4 14 -15 36 -25 50 -9 14 -23 43 -30 65 -8 22 -22 48 -32 57 -12 10 -23 42 -29 80 -6 34 -15 68 -20 74 -6 7 -6 15 -1 18 5 3 15 -7 23 -22 8 -15 24 -42 36 -60 27 -41 54 -98 84 -180 17 -44 33 -69 52 -80 15 -9 30 -25 33 -37 12 -38 53 -72 80 -67 35 6 41 28 15 56 -11 12 -21 25 -21 29 0 4 -13 29 -30 55 -16 27 -30 55 -30 63 -1 8 -9 32 -20 54 -11 22 -19 48 -20 58 0 34 -49 137 -86 182 -21 26 -57 55 -83 67 -25 11 -53 31 -64 44 -21 27 -49 31 -67 9 -11 -13 -16 -12 -41 8 -29 23 -38 47 -16 47 6 0 39 -7 71 -14 86 -20 160 -15 191 14 13 13 22 26 20 31 -3 4 5 9 17 11 19 2 23 9 21 34 -2 22 5 38 22 54 14 13 25 29 25 35 0 7 9 20 20 30 11 10 34 44 51 74 34 63 40 121 15 169 -22 43 -95 104 -166 139 l-61 30 41 7 c52 8 105 35 155 78 108 93 99 79 98 150 0 35 -6 75 -12 87 -17 31 -41 126 -41 161 0 16 -4 31 -9 34 -4 3 -11 29 -14 57 -4 28 -13 62 -22 75 -8 13 -15 30 -15 39 0 8 -11 37 -25 64 -14 27 -29 66 -32 87 -3 22 -13 47 -21 57 -14 15 -13 19 1 35 24 27 21 44 -13 77 -23 22 -30 38 -30 66 0 45 11 48 125 38 86 -7 468 -3 705 8 253 11 325 9 474 -10 10 -1 23 6 29 15 34 52 -104 84 -308 72 -77 -5 -203 -9 -280 -10 -358 -5 -622 -4 -645 2 -14 3 -521 7 -1128 8 -841 2 -1105 5 -1114 14 -7 7 -16 12 -22 12 -5 0 -17 7 -27 16 -23 21 -48 11 -61 -24 -10 -26 -14 -27 -84 -29 -41 -1 -82 -3 -91 -4 -19 -2 -497 9 -673 16 -58 2 -179 7 -270 10 l-165 5 -25 30 c-14 17 -32 30 -41 30 -23 0 -41 -24 -33 -44 6 -15 -4 -16 -112 -11 -339 15 -1963 23 -2074 10 -30 -4 -63 -6 -72 -5 -31 3 -130 3 -563 1 -231 0 -598 2 -815 6 -217 3 -411 6 -430 5 -48 -1 -829 -11 -961 -12 -59 0 -128 -4 -155 -8 -27 -5 -93 -6 -147 -3 -54 4 -101 4 -103 1 -3 -2 -60 -6 -127 -7 -161 -5 -160 -5 -252 -5 -44 0 -100 0 -124 -1 -35 0 -48 5 -65 24 -12 14 -33 30 -47 36 -24 10 -31 8 -65 -24z m2244 -78 c-1 -1 -120 -5 -263 -7 -196 -4 -265 -8 -282 -18 -18 -12 -58 -12 -249 -1 -125 7 -268 13 -318 13 -74 0 -82 2 -46 8 25 4 260 7 523 8 263 0 480 2 482 4 2 1 38 2 80 0 42 -2 75 -5 73 -7z m290 -9 c7 -7 -26 -40 -62 -61 -16 -10 -42 -97 -52 -179 -3 -22 -12 -52 -20 -68 -18 -35 -21 -87 -5 -116 16 -30 76 -30 108 0 18 17 26 19 35 10 18 -18 43 -14 70 11 16 15 32 21 42 17 16 -5 17 -7 2 -19 -9 -7 -16 -26 -16 -42 0 -16 -5 -29 -11 -29 -25 0 -63 -42 -66 -74 -3 -28 2 -39 32 -65 20 -17 41 -31 47 -31 7 0 7 -4 -1 -14 -7 -9 -8 -22 -3 -37 5 -13 7 -30 4 -38 -2 -7 8 -24 24 -37 35 -28 118 -32 204 -9 30 8 55 13 55 12 5 -7 35 -71 35 -74 0 -1 -10 -3 -22 -3 -13 0 -30 -4 -38 -9 -8 -6 -19 -7 -25 -3 -13 8 -67 3 -80 -8 -5 -4 -24 -11 -41 -14 -29 -6 -33 -4 -42 23 -7 20 -18 31 -30 31 -19 0 -148 -63 -166 -81 -6 -5 -22 -9 -36 -9 -15 0 -35 -9 -45 -20 -10 -11 -25 -20 -32 -20 -8 0 -26 -9 -40 -20 -14 -11 -33 -20 -42 -20 -9 0 -25 -7 -35 -15 -11 -8 -36 -15 -55 -15 -48 0 -120 -23 -131 -40 -5 -8 -12 -11 -16 -7 -4 4 5 21 21 37 36 38 39 67 8 87 -12 8 -23 23 -23 32 0 54 -123 191 -171 191 -10 0 -19 5 -19 10 0 6 49 11 123 12 224 2 256 8 286 48 17 23 19 34 11 55 -12 32 -66 65 -107 65 -29 0 -32 2 -24 22 9 25 -11 72 -37 88 -17 9 -7 11 76 14 34 1 69 49 64 87 -4 25 -13 35 -45 49 l-41 18 38 7 c46 9 75 50 70 97 -2 17 2 38 8 46 18 21 18 69 0 84 -8 7 -27 18 -41 25 -21 10 -1 11 112 9 75 -2 141 -6 145 -10z m-2070 -41 c-1 -38 -18 -61 -18 -25 0 12 -5 30 -10 41 -9 16 -7 19 9 19 17 0 20 -6 19 -35z m6047 20 c262 -8 591 -15 819 -15 192 0 199 -1 183 -18 -22 -24 -21 -39 0 -51 16 -9 16 -14 -6 -80 -13 -39 -32 -82 -42 -95 -11 -13 -19 -27 -19 -31 0 -13 -112 -177 -132 -193 -18 -16 -60 -72 -176 -236 -24 -33 -54 -81 -66 -106 -12 -26 -38 -71 -59 -102 -44 -66 -105 -186 -116 -224 -10 -40 -26 -40 -45 1 -9 19 -21 35 -26 35 -6 0 -10 5 -10 11 0 6 -13 38 -29 72 -15 34 -28 65 -27 68 1 4 -7 16 -16 26 -10 11 -21 35 -24 54 -4 19 -26 75 -49 124 -23 50 -61 129 -83 176 -22 48 -45 90 -51 94 -6 3 -11 15 -11 25 0 16 7 18 62 13 90 -7 124 3 169 48 21 21 39 43 39 47 0 20 -69 82 -113 102 -26 12 -50 26 -53 31 -3 5 -12 9 -21 9 -8 0 -32 14 -53 30 -21 17 -44 30 -51 30 -16 0 -152 91 -192 129 -25 23 -26 26 -10 32 10 4 20 5 23 3 3 -1 87 -5 185 -9z m-7304 -5 c12 0 15 -7 11 -25 -5 -31 -19 -32 -49 -3 -29 27 -29 42 0 34 12 -3 29 -6 38 -6z m723 2 c2 -4 -1 -15 -8 -23 -10 -15 -14 -15 -39 7 l-28 24 35 0 c19 0 37 -3 40 -8z m3608 -264 c25 -41 29 -51 17 -58 -10 -7 -16 -3 -22 13 -4 12 -14 28 -22 37 -7 8 -20 33 -29 54 -16 39 -16 39 4 21 11 -10 34 -40 52 -67z m-554 25 c-10 -2 -28 -2 -40 0 -13 2 -5 4 17 4 22 1 32 -1 23 -4z m-3184 -16 l25 -14 -44 -33 c-25 -19 -45 -37 -45 -42 0 -4 9 -17 19 -27 19 -19 18 -19 -22 -29 -23 -5 -59 -8 -79 -5 -39 5 -39 4 -10 60 7 13 12 31 12 42 0 13 15 24 53 39 64 25 59 25 91 9z m-524 -78 c0 -11 5 -29 10 -40 9 -16 7 -19 -9 -19 -11 0 -23 -4 -26 -10 -15 -23 -35 -9 -35 24 0 50 9 66 36 66 18 0 24 -6 24 -21z m1470 -19 c113 -6 225 -12 249 -15 25 -2 110 -7 190 -11 93 -5 137 -10 123 -15 -12 -5 -22 -12 -22 -17 0 -5 -19 -8 -42 -5 -24 2 -99 7 -168 11 -69 5 -130 11 -135 14 -9 5 -368 22 -435 20 -13 0 -31 -9 -40 -19 -9 -12 -40 -23 -81 -31 -83 -15 -89 -15 -89 1 0 8 -11 24 -24 36 -18 17 -30 20 -52 15 -20 -5 -26 -3 -19 4 20 22 261 27 545 12z m1145 0 c3 -5 -3 -10 -14 -10 -11 0 -23 5 -26 10 -3 6 3 10 14 10 11 0 23 -4 26 -10z m54 -136 c8 -7 -84 -3 -124 6 -29 6 -19 7 40 3 44 -3 82 -7 84 -9z m2417 -127 c-20 -41 -36 -85 -36 -97 0 -12 -8 -34 -19 -48 -10 -15 -24 -45 -30 -67 -7 -22 -16 -49 -20 -60 -16 -41 -33 -91 -45 -135 -21 -72 -57 -150 -71 -150 -7 0 -18 -6 -24 -14 -7 -8 -28 -17 -49 -21 -20 -4 -41 -9 -46 -12 -17 -11 -131 -12 -194 -2 -50 8 -75 18 -118 51 -30 22 -54 45 -54 51 0 16 99 107 189 172 45 33 102 76 126 95 24 19 60 46 80 60 20 14 55 40 77 58 23 19 64 45 90 58 27 14 76 51 110 84 34 33 64 58 66 56 2 -2 -13 -38 -32 -79z m-4937 29 c27 -28 53 -39 135 -56 38 -8 55 -15 48 -22 -12 -12 -178 5 -272 29 -59 14 -100 41 -100 64 0 5 37 9 83 9 75 0 86 -2 106 -24z m988 -12 c6 -17 -56 -50 -105 -56 -40 -6 -64 4 -42 17 5 3 10 16 10 29 0 21 4 22 67 22 40 -1 68 -6 70 -12z m1133 -120 c47 -8 121 -23 165 -31 44 -9 93 -17 108 -19 16 -1 31 -5 34 -8 4 -3 12 -1 20 5 10 9 23 5 53 -15 22 -14 40 -28 40 -31 0 -3 -8 -13 -17 -23 -10 -9 -27 -29 -38 -44 l-20 -27 -70 34 c-38 18 -112 46 -164 60 -52 15 -106 35 -120 44 -14 10 -48 23 -76 29 -27 6 -66 18 -85 26 l-35 15 60 1 c33 0 98 -7 145 -16z m-1706 -10 c9 -8 16 -17 16 -19 0 -8 -41 9 -51 21 -17 20 15 19 35 -2z m8896 -120 c-6 -33 -13 -70 -15 -84 -2 -14 -12 -59 -21 -100 -8 -41 -19 -100 -23 -130 -5 -30 -13 -68 -19 -85 -6 -16 -13 -59 -16 -95 -2 -36 -7 -73 -11 -82 -11 -29 -119 -36 -147 -11 -14 13 -20 13 -33 3 -8 -7 -34 -14 -57 -16 -78 -6 -142 -13 -190 -22 -45 -9 -82 -2 -60 12 23 14 231 299 222 303 -3 2 5 10 18 18 12 9 22 24 22 34 0 10 8 21 18 23 9 3 27 25 39 49 23 45 88 113 150 155 20 13 41 31 47 39 10 14 77 53 84 49 1 -1 -2 -28 -8 -60z m-7647 30 c3 -4 2 -15 -4 -25 -9 -19 -11 -19 -33 -2 l-24 18 21 7 c31 9 33 9 40 2z m-1077 -51 c-11 -11 -19 6 -11 24 8 17 8 17 12 0 3 -10 2 -21 -1 -24z m1305 16 c19 -7 35 -13 37 -14 3 -3 -48 -188 -53 -193 -2 -2 -15 22 -29 52 -14 30 -30 58 -36 61 -6 4 -6 15 0 30 6 14 14 36 20 50 11 28 14 29 61 14z m-726 -21 c-8 -37 -13 -71 -14 -98 -1 -17 -11 -31 -31 -43 l-30 -18 0 84 c0 46 3 87 7 90 3 4 21 7 40 7 30 0 33 -3 28 -22z m444 -98 c1 -61 -8 -90 -25 -83 -10 4 -14 25 -14 78 0 40 3 81 7 91 6 16 9 14 19 -11 7 -17 13 -50 13 -75z m-665 53 c-1 -7 -2 -33 -2 -58 -2 -58 -17 -58 -65 -1 -44 53 -46 63 -9 69 45 7 77 3 76 -10z m1216 -53 c0 -14 -6 -34 -13 -44 -13 -17 -15 -17 -46 -2 -29 16 -32 20 -25 49 9 46 10 46 49 34 28 -8 35 -15 35 -37z m-1387 -102 c-11 -19 -31 -5 -42 30 -7 20 -15 44 -18 52 -3 8 10 -5 30 -30 19 -25 33 -48 30 -52z m1297 15 c0 -5 -5 -15 -10 -23 -8 -12 -10 -11 -10 8 0 12 5 22 10 22 6 0 10 -3 10 -7z m8207 -155 c15 -6 51 -29 80 -51 67 -50 83 -91 57 -150 -9 -23 -28 -52 -42 -64 l-25 -21 -36 20 c-20 12 -48 20 -63 20 -19 0 -28 4 -28 15 0 15 47 58 64 58 18 0 13 46 -7 56 -15 8 -24 6 -41 -10 -34 -32 -38 -25 -11 15 31 46 31 48 -1 71 -25 18 -25 20 -9 36 20 20 25 21 62 5z m-9052 -37 c-4 -21 -15 -32 -36 -40 -33 -11 -40 2 -9 19 11 6 20 16 20 23 0 14 21 39 28 33 2 -3 1 -18 -3 -35z m810 -119 c-8 -8 -26 39 -19 50 5 8 11 1 16 -17 4 -16 6 -31 3 -33z m8091 21 c-11 -11 -17 4 -9 23 7 18 8 18 11 1 2 -10 1 -21 -2 -24z m-3715 -233 c2 -245 18 -512 40 -668 6 -46 13 -113 14 -148 2 -46 9 -71 21 -85 10 -11 19 -28 21 -37 6 -31 5 -273 -1 -279 -12 -12 -15 4 -20 92 -5 96 -22 210 -33 228 -4 6 -6 28 -4 49 1 20 -3 47 -10 60 -8 13 -14 30 -14 38 0 8 -4 20 -8 27 -4 6 -4 18 -1 26 3 8 1 18 -5 22 -6 3 -11 14 -11 23 0 9 -7 30 -15 45 -13 26 -34 90 -41 125 -1 8 -9 21 -17 30 -8 10 -23 37 -34 62 -11 25 -41 76 -68 114 -34 50 -44 71 -36 79 6 6 11 23 11 38 0 15 4 31 10 34 5 3 7 0 5 -8 -5 -11 34 -59 39 -49 0 2 9 0 18 -3 9 -4 26 -2 37 5 16 8 21 20 21 55 0 24 5 47 10 50 6 3 10 16 10 28 0 12 7 30 15 41 21 27 3 56 -36 56 -22 0 -41 -12 -74 -45 -25 -24 -45 -40 -45 -35 0 5 5 12 10 15 14 9 12 62 -2 71 -9 6 -5 10 11 14 14 3 33 24 51 55 23 40 117 131 127 122 1 -2 3 -113 4 -247z m3484 166 c24 -22 43 -32 54 -28 14 5 14 4 1 -12 -12 -16 -12 -20 9 -36 17 -12 20 -19 12 -24 -9 -6 -9 -11 0 -22 6 -7 16 -11 23 -7 6 4 14 8 19 9 4 1 10 2 13 3 4 0 1 8 -6 16 -7 8 -17 12 -23 8 -7 -4 -8 0 -4 12 4 9 2 24 -5 33 -12 13 -11 14 8 2 26 -16 58 -6 50 15 -3 10 0 14 12 12 25 -4 43 -17 37 -27 -9 -15 15 -22 31 -9 8 6 17 9 20 6 9 -9 -6 -27 -22 -27 -12 0 -35 -39 -36 -60 0 -3 -4 -11 -10 -17 -12 -15 -8 -16 45 -13 31 1 37 -2 37 -18 0 -32 -26 -33 -68 -2 -28 20 -43 25 -50 18 -8 -8 -9 -5 -5 10 3 11 12 23 20 26 8 3 11 10 8 16 -9 15 -42 -5 -50 -30 -7 -23 -28 -26 -45 -6 -6 8 -18 12 -27 9 -12 -5 -14 -1 -8 16 8 26 -9 51 -35 51 -19 0 -45 -34 -52 -65 -2 -12 -11 -20 -23 -20 -28 0 -31 35 -6 83 14 28 17 42 9 50 -8 8 -6 18 6 36 9 15 18 26 20 26 2 0 20 -15 41 -34z m355 -105 c-5 -11 -15 -23 -20 -26 -15 -9 -2 -25 21 -25 25 0 24 -19 -5 -54 -20 -23 -27 -26 -42 -17 -18 10 -18 10 -1 11 27 0 40 41 19 60 -20 17 -9 56 18 64 8 2 16 4 18 5 1 0 -2 -8 -8 -18z m-4374 -124 c4 -4 18 -7 32 -7 57 0 107 -37 164 -124 15 -23 41 -59 58 -82 16 -23 30 -44 30 -48 0 -4 21 -39 47 -79 26 -40 56 -94 65 -122 10 -27 22 -59 27 -70 5 -11 17 -42 27 -70 9 -27 21 -54 26 -59 4 -6 8 -23 8 -39 0 -15 4 -36 9 -45 5 -9 12 -43 16 -74 l7 -57 -40 12 c-22 7 -43 15 -47 19 -12 12 -47 -5 -55 -28 -7 -17 -18 -23 -47 -26 -33 -3 -38 -7 -39 -28 -3 -67 -3 -67 -19 -46 -11 14 -12 23 -4 33 6 7 9 19 6 27 -7 18 -69 29 -101 16 -30 -11 -35 -40 -7 -47 22 -6 45 -45 39 -65 -4 -9 -16 -2 -39 23 -19 19 -42 38 -51 41 -18 7 -42 -14 -30 -27 4 -4 -3 -4 -15 -1 -49 15 -35 -43 17 -64 35 -14 38 -25 10 -33 -46 -12 -11 -79 55 -107 49 -21 244 -33 335 -20 30 4 56 6 58 5 2 -1 4 -27 6 -56 2 -41 6 -55 19 -57 10 -2 21 6 26 20 6 13 10 16 10 8 1 -20 -28 -62 -39 -55 -4 2 -18 -4 -31 -14 -29 -22 -90 -55 -104 -57 -5 0 -55 -14 -110 -32 -142 -44 -166 -47 -209 -27 -38 18 -66 15 -66 -9 0 -62 161 -93 248 -47 34 19 64 27 117 35 35 4 88 30 105 51 16 19 46 19 53 0 4 -10 -10 -22 -47 -40 -43 -21 -55 -32 -60 -56 -5 -26 -9 -29 -31 -23 -21 5 -27 2 -32 -15 -6 -22 -18 -27 -27 -12 -8 12 -62 7 -80 -8 -7 -6 -18 -11 -22 -9 -11 3 -77 -20 -112 -38 -41 -21 -48 -18 -44 20 4 36 -23 76 -53 76 -22 0 -45 -54 -45 -107 -1 -27 0 -140 1 -253 1 -299 3 -279 -26 -290 -14 -5 -25 -14 -25 -20 0 -6 -5 -8 -12 -4 -6 4 -35 6 -64 5 -30 -1 -78 5 -109 15 l-56 18 37 18 c21 10 45 18 55 18 28 0 90 30 84 40 -3 6 2 10 12 10 27 0 63 28 63 49 0 10 -7 25 -16 32 -14 11 -21 10 -48 -5 l-31 -18 21 24 c35 40 45 73 28 97 -8 11 -22 21 -30 21 -8 0 -12 5 -9 10 3 6 3 16 -2 22 -4 7 -7 22 -8 33 0 15 -7 20 -30 21 -16 0 -34 -2 -40 -6 -33 -23 -106 -15 -190 20 -16 7 -35 12 -41 11 -7 -1 -14 5 -18 14 -3 8 -16 15 -29 15 -13 0 -32 10 -43 21 -19 22 -19 22 6 14 14 -4 31 -12 37 -17 7 -6 22 -8 33 -5 11 3 23 1 26 -4 3 -5 10 -7 15 -3 5 3 15 1 22 -4 7 -6 30 -13 52 -16 22 -3 63 -10 91 -16 64 -13 100 -1 115 37 13 34 39 64 50 58 4 -3 10 -1 14 5 4 6 11 8 16 4 16 -10 35 13 37 46 2 22 -3 32 -15 36 -10 4 -34 13 -53 22 l-35 17 28 3 c57 7 39 57 -32 88 -60 26 -74 31 -126 42 -95 19 -200 52 -248 77 -27 14 -55 25 -64 25 -8 0 -12 4 -8 9 10 17 -34 34 -51 20 -20 -16 -47 10 -62 60 -17 55 -15 89 8 118 11 14 20 34 20 44 0 10 5 21 10 24 6 3 10 17 10 30 0 13 5 35 11 49 10 21 15 23 30 15 23 -12 24 -32 5 -49 -11 -8 -13 -24 -9 -61 5 -41 3 -49 -9 -44 -8 3 -21 -1 -28 -10 -12 -14 -10 -19 12 -38 17 -14 30 -40 38 -73 7 -30 22 -61 36 -75 23 -22 24 -22 44 -4 25 23 25 50 1 96 l-20 36 57 7 c97 10 124 16 137 26 8 7 24 5 49 -5 39 -17 66 -13 85 9 14 17 -14 77 -40 83 -28 8 -14 21 34 34 23 6 48 16 55 21 17 14 15 47 -3 54 -8 4 -15 14 -15 25 0 10 -14 39 -31 64 -28 41 -35 46 -61 43 -16 -3 -31 -1 -34 4 -3 4 -25 8 -49 8 -27 0 -58 8 -79 21 -34 20 -36 23 -30 62 4 23 10 49 15 58 4 9 5 25 2 37 -3 12 2 40 11 62 9 22 16 53 16 69 0 15 3 31 6 34 4 4 9 28 11 54 2 27 11 58 19 71 8 13 13 31 10 40 -4 11 12 37 47 75 73 81 107 123 107 134 0 20 58 62 98 72 24 5 46 11 48 14 7 7 32 3 40 -6z m-3763 -82 c51 -43 63 -71 25 -59 -52 16 -108 79 -108 121 0 6 28 -15 83 -62z m3159 31 c4 3 11 -4 18 -15 8 -15 8 -27 0 -42 -13 -24 -18 -22 -23 10 -2 12 -8 26 -13 29 -5 4 -16 16 -24 26 -15 19 -14 19 11 3 14 -10 28 -14 31 -11z m4661 -92 c-1 -42 -6 -81 -12 -88 -12 -15 -11 -56 3 -74 9 -13 -6 -31 -25 -32 -7 0 -19 77 -19 118 0 14 -9 36 -21 48 -23 24 -19 64 7 64 7 0 19 8 25 18 6 10 19 18 28 19 14 1 16 -10 14 -73z m-4538 -433 c-2 -11 -6 -41 -10 -68 -4 -26 -12 -64 -18 -83 -6 -19 -11 -46 -11 -59 -1 -13 -6 -26 -13 -28 -16 -6 -25 30 -14 58 5 13 14 49 21 79 11 53 37 120 45 120 2 0 2 -9 0 -19z m1127 -179 c-4 -11 -6 -11 -13 0 -5 7 -9 22 -9 32 0 19 0 19 14 1 8 -11 11 -25 8 -33z m152 -103 c-3 -5 -1 -16 6 -24 7 -9 8 -15 0 -20 -5 -3 -10 -16 -11 -28 0 -21 -1 -21 -8 -2 -10 25 -2 97 10 89 5 -3 7 -10 3 -15z m-1164 -18 c0 -10 -11 -30 -24 -44 -23 -25 -26 -26 -53 -12 -32 17 -39 52 -12 60 10 4 23 4 29 0 5 -3 18 -1 27 4 26 15 33 13 33 -8z m-3223 -67 c32 -9 70 -19 86 -21 15 -3 27 -9 27 -14 0 -13 -34 -11 -48 3 -10 10 -17 10 -33 0 -18 -11 -23 -11 -33 3 -11 15 -14 15 -37 -3 -28 -23 -76 -24 -84 -3 -4 11 -9 10 -25 -4 -17 -15 -23 -16 -33 -6 -7 9 -8 15 -2 18 6 2 28 12 50 22 50 24 61 25 132 5z m-283 -37 c-3 -8 2 -20 11 -27 20 -16 19 -36 -1 -44 -9 -3 -14 -13 -10 -21 3 -8 0 -17 -5 -21 -7 -4 -7 -10 1 -18 8 -8 15 -7 24 7 7 9 18 17 24 17 18 0 -8 -49 -29 -55 -10 -3 -25 -20 -33 -36 l-15 -30 42 -20 c23 -10 55 -30 72 -44 l29 -24 -67 3 c-46 2 -71 -1 -78 -10 -7 -9 -28 -11 -66 -8 -31 2 -58 5 -59 7 -3 2 6 34 58 212 7 22 30 59 53 82 41 43 58 53 49 30z m584 -8 c19 -4 35 -9 36 -11 8 -9 13 -118 6 -123 -4 -3 -11 -21 -15 -41 l-6 -36 -47 7 c-66 9 -101 58 -45 63 59 5 54 38 -9 51 -33 7 -33 7 -12 25 15 12 19 27 18 52 -3 32 -1 35 19 28 12 -4 37 -10 55 -15z m3832 -89 c0 -5 -10 -10 -22 -10 -19 0 -20 2 -8 10 19 13 30 13 30 0z m-1005 -10 c-26 -11 -48 -12 -41 -2 2 4 17 8 33 9 24 1 25 0 8 -7z m1079 -133 l-16 -22 6 25 c3 14 6 32 6 40 1 12 3 11 11 -3 7 -13 6 -23 -7 -40z m143 -30 c6 -74 7 -93 1 -102 -3 -6 -11 -28 -18 -50 -11 -32 -14 -36 -20 -21 -3 11 -3 43 2 72 8 52 15 103 17 133 2 25 16 1 18 -32z m-4092 -60 c-10 -8 -15 -19 -11 -25 4 -7 0 -12 -10 -12 -10 0 -14 3 -11 7 4 3 2 12 -5 20 -8 11 -7 12 5 8 8 -4 18 -2 22 4 3 6 11 11 18 11 6 0 3 -6 -8 -13z m2678 -76 c7 -14 21 -27 32 -29 11 -3 24 -10 28 -18 4 -8 16 -14 25 -14 9 0 26 -14 37 -31 11 -17 36 -38 55 -48 19 -9 44 -22 55 -28 11 -6 36 -18 55 -27 l35 -17 -65 6 c-90 7 -96 9 -120 30 -11 10 -20 15 -20 12 0 -3 -12 5 -26 18 -18 17 -35 23 -56 21 -23 -3 -28 0 -23 12 8 20 -21 62 -43 62 -15 0 -18 8 -16 43 0 23 2 46 3 51 2 13 30 -14 44 -43z m-2704 6 c8 -11 6 -18 -9 -32 -10 -9 -24 -33 -30 -51 -7 -19 -15 -34 -18 -33 -4 0 -54 24 -112 54 l-105 54 53 0 c47 1 53 -1 62 -25 12 -32 50 -30 65 4 5 12 17 22 27 22 9 0 20 5 23 10 9 14 31 12 44 -3z m6849 -69 c7 -7 12 -23 12 -35 0 -13 7 -34 15 -47 15 -23 15 -24 -15 -28 -38 -6 -40 -4 -40 48 0 24 -5 46 -10 49 -13 8 -3 25 14 25 6 0 17 -5 24 -12z m-4230 -101 c9 -10 16 -27 17 -39 2 -19 0 -19 -21 8 -13 16 -24 40 -23 54 0 15 3 19 6 10 3 -8 13 -23 21 -33z m1611 -104 c-11 -73 -15 -88 -22 -85 -4 2 -16 6 -27 9 -16 4 -19 12 -16 46 3 34 9 43 37 58 19 9 34 17 35 18 0 1 -3 -20 -7 -46z m-204 -48 c-29 -32 -30 -38 -10 -55 20 -16 19 -34 0 -26 -10 3 -18 -1 -22 -12 -3 -9 -16 -42 -30 -72 l-24 -54 -15 29 c-8 15 -15 39 -16 52 -2 14 -11 29 -21 35 -18 9 -18 11 -1 29 9 10 20 17 24 14 4 -2 22 8 40 24 24 19 30 30 21 35 -8 6 -1 18 26 41 l38 33 8 -23 c6 -18 2 -29 -18 -50z m-1317 -23 c6 -18 -15 -14 -22 4 -4 10 -1 14 6 12 6 -2 14 -10 16 -16z m897 -32 c-4 -13 -1 -22 9 -26 9 -3 16 -10 16 -14 0 -12 -49 -21 -66 -12 -13 7 -12 11 5 26 11 10 17 24 14 32 -3 9 1 14 12 14 12 0 15 -5 10 -20z m-115 -25 c-12 -15 -30 -12 -30 6 0 5 10 9 21 9 18 0 19 -2 9 -15z m15 -81 c14 -3 25 -11 25 -16 0 -5 -6 -8 -12 -5 -7 2 -23 -5 -35 -16 -24 -22 -44 -17 -25 6 7 8 8 17 2 23 -5 5 -7 20 -3 33 6 24 6 24 14 3 5 -12 20 -24 34 -28z m-856 -16 c5 -13 19 -31 30 -40 22 -18 28 -38 12 -38 -12 0 -71 74 -71 89 0 20 20 12 29 -11z m1510 -84 c-37 -80 -93 -160 -98 -139 -1 10 4 22 13 27 9 5 16 14 16 21 0 7 15 35 33 63 19 28 37 59 40 69 4 10 10 15 13 13 3 -3 -5 -28 -17 -54z m-375 7 c3 -5 -5 -8 -19 -8 -14 0 -22 3 -19 8 3 5 11 9 19 9 8 0 16 -4 19 -9z m-306 -32 c7 -11 19 -18 27 -15 8 3 17 1 20 -4 6 -9 98 -5 115 5 5 3 6 13 3 22 -5 13 -3 15 13 8 10 -4 29 -8 42 -8 16 1 22 -3 18 -13 -3 -7 3 -18 12 -23 14 -9 13 -10 -8 -9 -33 3 -86 -28 -136 -78 -41 -41 -49 -43 -119 -32 -10 1 -16 168 -5 168 3 0 11 -9 18 -21z m4409 -226 c-9 -10 -31 -27 -49 -37 -40 -23 -34 -16 18 24 45 34 54 37 31 13z m-3967 -26 c0 -2 -11 -14 -25 -27 -19 -18 -25 -20 -25 -8 0 8 10 20 23 26 26 13 27 13 27 9z m4602 -92 c0 -5 -12 -19 -26 -29 -21 -16 -29 -17 -39 -7 -9 10 -7 16 13 31 26 20 51 23 52 5z m-677 -75 c30 0 14 -20 -35 -45 -27 -14 -50 -22 -50 -19 0 3 -12 -1 -26 -10 -14 -10 -33 -16 -42 -14 -13 3 -6 14 31 51 54 55 88 72 100 51 4 -8 15 -14 22 -14z m-252 -54 c-15 -12 -39 -29 -53 -36 -28 -15 -70 -22 -70 -12 1 17 29 42 47 42 10 0 23 4 29 9 8 8 23 12 67 20 5 0 -4 -10 -20 -23z"/>
 <path d="M7368 7474 c-3 -3 -27 -8 -53 -12 -32 -5 -51 -13 -59 -27 -6 -10 -21 -36 -33 -57 -13 -21 -23 -49 -23 -63 0 -18 -5 -25 -18 -25 -29 0 -53 -34 -58 -82 -7 -64 15 -81 98 -76 35 3 110 -2 168 -10 125 -17 160 -9 221 47 39 36 45 61 16 61 -16 0 -47 52 -47 78 0 27 -29 82 -44 82 -7 0 -21 10 -32 21 -10 12 -43 32 -73 45 -61 27 -56 26 -63 18z"/>
 <path d="M7290 7101 c-8 -6 -18 -8 -22 -5 -29 18 -81 -73 -57 -102 19 -24 60 -26 83 -5 19 17 24 18 46 6 14 -8 36 -14 49 -15 20 0 22 -2 11 -15 -16 -19 2 -65 25 -65 23 0 30 28 11 49 -15 17 -15 19 5 33 32 20 18 48 -44 91 -54 37 -80 44 -107 28z"/>
 <path d="M8133 9199 c-9 -9 -8 -19 2 -40 24 -45 43 -110 50 -172 7 -65 24 -80 55 -52 25 22 27 89 5 163 -23 78 -82 131 -112 101z"/>
 <path d="M13305 9189 c-16 -5 -48 -25 -70 -44 l-40 -34 29 -11 c16 -6 37 -8 45 -4 9 3 31 10 50 14 l34 9 -8 -87 c-4 -48 -9 -100 -10 -117 -1 -16 -7 -48 -13 -70 -15 -56 -18 -153 -4 -167 18 -18 34 35 39 126 3 44 11 92 18 106 7 14 19 71 26 126 18 145 -5 182 -96 153z"/>
 <path d="M7065 9171 c-7 -12 12 -24 25 -16 11 7 4 25 -10 25 -5 0 -11 -4 -15 -9z"/>
 <path d="M6984 9159 c-6 -8 -14 -23 -18 -34 -7 -19 -8 -19 -25 4 -11 14 -21 19 -25 13 -3 -5 -16 -8 -28 -5 -12 4 -26 0 -32 -8 -6 -8 -20 -19 -31 -25 -15 -8 -19 -20 -17 -43 5 -41 -14 -67 -35 -49 -8 7 -19 23 -24 37 -12 29 -26 18 -31 -23 -3 -25 1 -31 27 -39 17 -5 37 -15 45 -22 27 -22 49 -25 58 -8 15 27 22 -2 7 -30 -7 -15 -10 -29 -5 -32 10 -6 60 19 70 35 4 7 10 -8 14 -33 9 -57 26 -74 50 -48 11 12 14 21 7 26 -17 10 -13 22 9 28 27 7 25 23 -6 52 -15 14 -22 25 -16 25 6 0 14 -5 18 -11 3 -6 16 -8 28 -5 18 4 24 0 32 -27 7 -26 14 -32 39 -33 43 -1 69 14 55 31 -8 10 -8 19 -1 34 6 11 8 27 5 35 -3 9 -1 16 6 16 6 0 9 -4 6 -8 -2 -4 -1 -14 4 -22 5 -9 5 -19 -1 -27 -11 -13 -4 -33 11 -33 13 0 41 70 34 82 -3 5 0 8 7 7 8 -2 32 5 54 15 22 10 57 18 78 18 21 1 40 5 43 10 3 4 9 6 14 3 13 -8 35 24 23 36 -17 17 -84 19 -90 3 -3 -9 -13 -12 -28 -8 -13 3 -33 -1 -48 -11 -19 -12 -26 -13 -30 -3 -2 8 -20 12 -43 12 -33 -1 -39 -5 -37 -22 2 -15 -2 -20 -12 -16 -8 4 -15 12 -15 19 0 6 -9 20 -19 29 -18 16 -21 17 -45 1 -27 -18 -51 -12 -42 11 3 7 -3 23 -12 35 -15 17 -20 19 -28 8z m106 -108 c0 -11 5 -23 10 -26 18 -11 11 -20 -24 -31 -28 -9 -35 -8 -44 7 -13 21 -4 33 14 18 19 -16 32 -3 26 26 -2 15 0 25 7 25 6 0 11 -9 11 -19z"/>
 <path d="M7105 9160 c-4 -6 -3 -16 3 -22 6 -6 12 -6 17 2 4 6 3 16 -3 22 -6 6 -12 6 -17 -2z"/>
 <path d="M12481 9131 c-22 -17 -22 -18 -7 -56 9 -21 31 -62 49 -89 19 -28 42 -73 52 -101 10 -27 23 -57 30 -65 7 -8 23 -35 35 -60 13 -25 36 -63 52 -86 16 -22 36 -54 46 -72 9 -17 43 -65 75 -106 31 -41 57 -77 57 -80 0 -4 -42 -4 -92 -2 -74 3 -97 1 -111 -12 -9 -8 -20 -12 -23 -9 -7 7 -39 114 -60 202 -8 33 -21 83 -29 110 -8 28 -17 70 -20 95 -12 99 -38 193 -60 218 -20 23 -25 25 -49 14 -26 -12 -37 -54 -17 -67 13 -7 42 -109 47 -163 3 -25 7 -48 9 -53 8 -12 55 -198 66 -259 6 -30 13 -59 17 -65 5 -5 21 -53 37 -105 16 -52 37 -103 47 -112 12 -10 15 -19 8 -23 -6 -4 -8 -21 -4 -43 8 -46 22 -74 33 -67 13 7 22 -38 15 -74 -4 -19 0 -43 10 -65 9 -19 13 -41 10 -49 -3 -8 0 -18 6 -22 8 -5 8 -11 0 -20 -7 -9 -6 -16 5 -25 10 -9 13 -24 9 -55 -5 -31 -2 -49 11 -68 11 -17 14 -34 10 -44 -4 -10 -7 -31 -6 -47 2 -18 -1 -26 -8 -22 -6 4 -11 13 -11 20 0 6 -21 51 -47 100 -53 99 -128 183 -191 215 -51 26 -182 61 -226 61 -45 0 -110 -26 -114 -44 -5 -23 44 -39 79 -27 16 5 31 6 34 2 2 -5 27 -11 54 -15 27 -4 83 -22 123 -40 60 -28 81 -45 118 -93 48 -63 138 -238 127 -249 -3 -4 -33 -1 -67 5 -95 19 -159 0 -250 -73 l-45 -36 -31 35 c-17 19 -38 35 -47 35 -16 0 -140 62 -163 81 -7 5 -16 9 -20 7 -5 -1 -27 6 -49 16 -22 10 -44 19 -50 20 -5 2 -18 7 -28 11 -10 4 -23 3 -29 -3 -11 -11 30 -45 97 -82 22 -12 54 -30 70 -40 17 -11 49 -29 71 -40 23 -12 68 -48 100 -81 35 -34 65 -57 73 -54 7 3 20 0 27 -6 23 -19 44 -3 40 30 -2 22 4 36 23 55 48 46 170 87 208 71 10 -5 33 -9 52 -11 19 -2 48 -10 66 -18 21 -10 41 -13 61 -7 26 7 29 12 30 47 l0 39 65 1 c165 3 340 33 393 68 33 21 45 65 22 81 -9 7 -16 17 -16 22 0 5 -9 18 -20 28 -11 10 -20 23 -20 29 0 13 -66 76 -80 76 -5 0 -21 18 -35 39 -13 22 -56 73 -94 113 -39 40 -71 79 -71 87 0 22 -40 60 -56 54 -10 -4 -12 0 -8 12 5 12 -9 32 -47 71 -29 30 -59 54 -66 54 -7 0 -13 7 -13 15 0 8 -13 24 -30 37 -16 12 -30 26 -30 30 0 5 64 7 142 6 129 -3 143 -1 146 15 2 9 -6 29 -18 45 -11 15 -43 61 -69 102 -27 41 -60 86 -75 99 -14 14 -26 28 -26 32 0 4 -26 49 -59 100 -32 52 -61 104 -65 116 -4 11 -13 27 -21 33 -8 7 -15 23 -15 36 0 32 -95 199 -124 217 -20 13 -25 13 -45 -2z m354 -1031 c22 -26 65 -79 96 -117 31 -37 100 -112 152 -165 91 -92 157 -171 157 -189 0 -7 -36 -22 -50 -22 -3 0 -26 -6 -51 -13 -52 -16 -92 -18 -230 -16 l-97 2 -7 48 c-5 26 -10 58 -11 72 -20 154 -25 191 -34 225 -5 22 -17 74 -26 115 -9 41 -23 100 -30 130 -8 30 -14 58 -14 63 0 14 100 -78 145 -133z"/>
 <path d="M7607 9111 c-45 -21 -65 -55 -73 -125 -5 -41 -3 -55 10 -65 13 -11 20 -11 28 -3 7 7 9 12 4 12 -4 0 1 12 12 28 11 15 23 38 27 52 9 31 22 40 58 40 22 0 27 -4 27 -25 0 -15 -6 -25 -14 -25 -7 0 -19 -6 -25 -14 -8 -10 -6 -19 10 -39 11 -15 24 -26 28 -24 5 1 17 -9 28 -22 26 -31 43 -20 42 27 -1 20 4 50 10 65 9 24 8 37 -8 72 -17 39 -23 44 -70 54 -61 13 -48 14 -94 -8z"/>
 <path d="M7435 9010 c-3 -6 -4 -18 -1 -28 3 -9 -1 -29 -8 -44 -11 -20 -11 -29 -3 -37 14 -11 13 -74 -3 -221 -12 -116 -23 -153 -54 -188 -20 -22 -20 -24 -4 -36 10 -7 61 -16 115 -19 55 -4 115 -14 139 -24 48 -20 80 -63 62 -81 -14 -14 7 -42 32 -42 60 0 81 45 48 99 -13 20 -23 41 -23 46 0 6 -4 10 -10 11 -5 0 -32 10 -58 22 -27 12 -59 22 -72 22 -13 0 -27 5 -30 10 -3 6 -26 10 -51 10 -25 0 -43 4 -40 9 5 8 33 232 35 283 0 15 -4 30 -9 33 -7 4 -6 14 1 27 8 15 8 30 0 57 -6 20 -13 45 -14 56 -5 40 -36 61 -52 35z"/>
 <path d="M7856 9013 c-4 -5 -12 -8 -17 -8 -5 0 -8 -4 -6 -10 3 -12 36 -14 44 -2 7 12 -11 30 -21 20z"/>
 <path d="M6645 8961 c-7 -12 12 -24 25 -16 11 7 4 25 -10 25 -5 0 -11 -4 -15 -9z"/>
 <path d="M6786 8931 c-4 -5 -2 -12 4 -16 6 -4 8 -10 5 -15 -3 -5 -1 -11 4 -14 5 -4 12 -2 15 3 4 5 2 12 -4 16 -6 4 -8 10 -5 15 3 5 1 11 -4 14 -5 4 -12 2 -15 -3z"/>
 <path d="M6655 8920 c-10 -16 14 -39 35 -35 11 2 22 0 25 -6 8 -12 42 -12 50 1 3 5 -13 18 -37 30 -47 23 -64 25 -73 10z"/>
 <path d="M7159 8883 c-1 -4 -1 -11 0 -15 0 -5 -5 -7 -11 -5 -7 1 -12 -5 -10 -13 3 -11 -1 -10 -16 3 -13 12 -22 15 -27 8 -4 -7 -13 -8 -23 -3 -34 17 -65 8 -75 -21 -5 -15 -6 -35 -3 -44 6 -14 9 -13 27 5 20 22 56 31 44 12 -18 -30 47 -54 74 -27 8 8 11 8 9 1 -2 -7 1 -12 7 -13 5 0 10 7 10 17 0 12 8 17 29 17 16 0 31 6 33 12 6 18 -24 28 -41 14 -10 -9 -17 -7 -27 5 -11 14 -10 15 7 12 13 -2 19 3 19 16 0 19 -24 36 -26 19z"/>
 <path d="M6868 8855 c-8 -19 -8 -28 2 -40 12 -14 15 -13 36 6 22 21 23 24 7 41 -22 24 -31 23 -45 -7z"/>
 <path d="M7714 8866 c-3 -8 0 -25 7 -38 7 -13 13 -26 14 -30 0 -16 16 -20 30 -8 12 10 13 16 4 27 -9 11 -8 17 6 27 10 7 15 18 11 25 -6 9 -11 9 -21 1 -9 -8 -15 -8 -20 0 -9 14 -25 13 -31 -4z"/>
 <path d="M6743 8842 c-36 -31 -41 -46 -25 -84 14 -34 25 -40 55 -29 21 8 26 6 35 -14 14 -30 0 -40 -28 -23 -19 12 -24 10 -47 -17 -14 -16 -23 -25 -19 -19 3 6 0 19 -7 28 -12 16 -14 16 -26 2 -11 -13 -11 -17 3 -22 12 -5 14 -10 6 -19 -8 -9 -4 -17 15 -29 14 -9 25 -24 25 -32 0 -13 -3 -14 -14 -5 -9 7 -17 8 -20 2 -9 -15 12 -61 28 -61 7 0 17 -7 20 -16 8 -20 26 -9 26 16 0 13 5 17 14 14 8 -3 17 0 21 6 5 8 11 8 21 -1 11 -9 18 -9 29 1 9 7 13 15 10 18 -3 3 0 11 7 19 9 11 8 18 -5 30 -19 20 -47 10 -47 -16 0 -18 -2 -18 -29 -5 -16 8 -35 22 -42 32 -12 15 -12 16 1 6 12 -9 47 -11 80 -5 2 1 -1 6 -8 13 -20 20 -13 32 7 14 19 -17 47 -14 36 4 -12 20 18 20 31 1 9 -12 19 -19 24 -16 5 3 11 1 15 -5 10 -16 45 8 45 30 0 13 5 18 15 14 8 -4 12 -10 9 -15 -3 -5 -2 -14 1 -19 11 -18 45 9 45 35 0 14 6 34 12 45 17 27 -3 50 -26 30 -9 -7 -13 -16 -10 -21 3 -5 2 -9 -3 -8 -4 1 -16 -1 -27 -6 -13 -6 -21 -3 -29 11 -7 10 -12 21 -12 24 0 3 -9 16 -21 28 -19 20 -23 21 -34 7 -7 -8 -22 -15 -34 -15 -25 0 -66 38 -66 62 0 33 -24 37 -57 10z"/>
 <path d="M7835 8839 c-11 -16 5 -31 20 -19 7 6 17 9 23 8 5 -2 12 1 14 6 4 12 -50 17 -57 5z"/>
 <path d="M7556 8832 c-3 -5 1 -20 9 -35 10 -19 10 -27 1 -30 -6 -3 -19 -26 -28 -53 -22 -63 -13 -113 24 -133 24 -14 29 -14 46 2 10 9 33 17 50 17 17 0 33 4 37 10 3 5 12 7 19 4 14 -5 43 23 32 33 -3 3 4 13 15 21 32 22 45 -5 17 -35 -20 -21 -19 -53 1 -53 18 0 23 21 9 38 -12 15 -11 16 5 3 9 -7 17 -10 17 -6 0 4 7 2 15 -5 19 -16 40 -3 24 16 -6 7 -15 12 -19 9 -14 -9 -21 14 -11 33 8 16 3 24 -35 52 -24 19 -54 35 -65 37 -12 2 -38 17 -59 33 -21 17 -45 30 -53 30 -9 0 -19 5 -22 10 -7 12 -22 13 -29 2z m64 -147 c0 -8 -7 -15 -16 -15 -14 0 -14 3 -4 15 7 8 14 15 16 15 2 0 4 -7 4 -15z"/>
 <path d="M7086 8701 c-3 -5 -1 -42 3 -60 1 -2 13 8 28 23 14 14 23 29 19 33 -8 9 -46 12 -50 4z"/>
 <path d="M7835 8661 c-7 -12 12 -24 25 -16 11 7 4 25 -10 25 -5 0 -11 -4 -15 -9z"/>
 <path d="M13297 8654 c-4 -4 -7 -50 -7 -101 0 -52 -4 -102 -10 -112 -9 -18 -14 -85 -26 -381 -5 -132 -4 -158 9 -168 22 -19 30 -1 33 77 2 36 5 119 8 184 3 66 8 132 11 149 6 26 9 74 18 298 2 42 -1 55 -13 58 -9 1 -19 0 -23 -4z"/>
 <path d="M7146 8641 c-3 -5 1 -14 8 -20 16 -13 32 2 21 19 -8 12 -22 13 -29 1z"/>
 <path d="M7035 8626 c-10 -7 -15 -18 -11 -24 10 -16 41 -15 55 2 18 22 -19 40 -44 22z"/>
 <path d="M6557 8583 c-4 -3 -1 -13 6 -21 6 -8 12 -23 12 -33 0 -30 20 -22 21 8 1 39 -21 65 -39 46z"/>
 <path d="M6935 8560 c-9 -15 3 -30 24 -30 25 0 33 11 20 27 -13 15 -35 17 -44 3z"/>
 <path d="M7869 8544 c-1 -5 -1 -13 0 -18 1 -5 -7 -6 -19 -3 -26 7 -36 -9 -13 -22 10 -6 13 -11 8 -11 -6 0 -21 7 -33 16 -20 14 -26 12 -23 -8 2 -15 -17 -8 -23 8 -8 21 -22 10 -28 -21 -4 -18 1 -29 19 -40 19 -13 24 -13 28 -2 4 8 20 12 43 11 45 -2 56 4 42 21 -8 9 -7 14 3 18 8 3 13 14 12 26 -1 21 -14 41 -16 25z"/>
 <path d="M6635 8510 c-4 -6 -1 -18 7 -27 13 -17 13 -20 -4 -40 -5 -7 -7 -17 -3 -23 9 -14 28 -1 21 16 -3 7 -2 15 2 18 5 3 8 17 7 32 0 29 -18 43 -30 24z"/>
 <path d="M8070 8501 c-6 -12 -6 -22 -1 -26 6 -3 15 3 21 14 6 12 6 22 1 26 -6 3 -15 -3 -21 -14z"/>
 <path d="M6855 8500 c-3 -5 -3 -15 1 -21 4 -8 0 -8 -15 0 -28 15 -51 3 -27 -14 14 -11 15 -13 1 -18 -8 -4 -14 -1 -12 6 1 7 -7 12 -18 12 -16 0 -20 -7 -20 -38 0 -28 5 -42 18 -49 15 -8 20 -5 24 11 5 21 14 26 26 14 4 -3 0 -14 -9 -24 -14 -16 -14 -18 5 -29 20 -10 25 -7 22 13 -1 5 3 6 8 3 5 -4 14 1 19 10 7 12 14 14 28 7 23 -11 33 -11 59 4 11 6 23 11 28 12 4 1 7 3 7 6 1 9 -30 65 -36 65 -15 0 -44 -22 -44 -34 0 -17 -41 -29 -55 -15 -6 7 -6 9 0 8 16 -5 56 21 50 32 -4 5 -15 9 -25 9 -13 0 -17 5 -14 14 6 17 -12 31 -21 16z"/>
 <path d="M7994 8497 c-7 -20 3 -37 21 -37 23 0 26 16 5 35 -18 16 -20 16 -26 2z"/>
 <path d="M7694 8489 c-10 -17 13 -36 27 -22 12 12 4 33 -11 33 -5 0 -12 -5 -16 -11z"/>
 <path d="M6599 8486 c-5 -23 -2 -46 5 -48 12 -4 15 41 4 48 -4 3 -8 3 -9 0z"/>
 <path d="M6671 8426 c-9 -10 -9 -16 -1 -21 13 -8 42 14 34 26 -8 13 -20 11 -33 -5z"/>
 <path d="M5595 8395 c-3 -8 -7 -22 -10 -30 -7 -23 -6 -30 4 -30 5 0 13 -3 17 -7 25 -25 66 21 43 48 -22 27 -49 37 -54 19z"/>
 <path d="M6570 8345 c-17 -20 -5 -52 14 -36 14 11 16 35 4 46 -3 3 -11 -1 -18 -10z"/>
 <path d="M7914 8346 c-4 -10 -2 -22 4 -28 8 -8 13 -7 18 6 4 10 2 22 -4 28 -8 8 -13 7 -18 -6z"/>
 <path d="M6745 8340 c-4 -6 -3 -16 3 -22 6 -6 12 -6 17 2 4 6 3 16 -3 22 -6 6 -12 6 -17 -2z"/>
 <path d="M6605 8309 c-4 -5 7 -15 22 -21 15 -7 33 -18 38 -25 8 -10 16 -8 35 7 19 14 22 22 13 31 -14 14 -101 21 -108 8z"/>
 <path d="M6845 8289 c-17 -18 -17 -21 -3 -35 20 -20 38 -10 38 21 0 33 -14 38 -35 14z"/>
 <path d="M6556 8272 c-15 -18 -15 -20 0 -33 14 -11 18 -11 30 6 8 10 14 17 15 14 8 -48 20 -66 38 -55 16 10 13 28 -7 52 -25 32 -55 38 -76 16z"/>
 <path d="M6751 8262 c-10 -18 -9 -23 4 -28 25 -10 37 9 21 31 -13 18 -14 18 -25 -3z"/>
 <path d="M6791 8217 c-6 -8 -8 -17 -5 -20 10 -9 45 13 39 24 -9 13 -21 11 -34 -4z"/>
 <path d="M6365 8211 c-7 -12 12 -24 25 -16 11 7 4 25 -10 25 -5 0 -11 -4 -15 -9z"/>
 <path d="M6435 8190 c-4 -6 -3 -16 3 -22 6 -6 12 -6 17 2 4 6 3 16 -3 22 -6 6 -12 6 -17 -2z"/>
 <path d="M6385 8131 c-3 -6 3 -15 14 -21 21 -11 37 2 26 20 -8 13 -32 13 -40 1z"/>
 <path d="M6876 8099 c-15 -22 -14 -25 23 -64 37 -37 55 -70 96 -170 9 -22 19 -80 21 -130 4 -80 7 -92 32 -117 15 -15 36 -28 48 -28 33 0 56 32 49 69 -5 30 7 42 20 21 10 -16 55 -11 62 7 4 10 -2 24 -18 37 -34 29 -69 81 -69 101 0 22 -59 107 -70 100 -4 -3 -10 5 -14 18 -8 33 -96 167 -109 167 -7 0 -22 3 -33 6 -15 4 -26 -1 -38 -17z"/>
 <path d="M6836 7891 c-9 -15 23 -36 36 -23 5 5 7 15 4 21 -9 13 -33 14 -40 2z"/>
 <path d="M6875 7851 c-7 -12 12 -24 25 -16 11 7 4 25 -10 25 -5 0 -11 -4 -15 -9z"/>
 <path d="M6799 7836 c-3 -13 -6 -22 -14 -39 -4 -11 -3 -23 3 -29 8 -8 13 -7 18 6 4 9 4 20 0 23 -3 3 -1 12 5 19 7 8 7 14 -1 19 -5 3 -11 4 -11 1z"/>
 <path d="M6857 7804 c-4 -4 0 -15 9 -25 15 -16 14 -17 -4 -12 -11 2 -22 0 -26 -5 -6 -11 21 -38 30 -29 3 3 15 -4 26 -15 33 -33 42 -7 16 42 -23 44 -38 56 -51 44z"/>
 <path d="M3755 7751 c-7 -12 12 -24 25 -16 11 7 4 25 -10 25 -5 0 -11 -4 -15 -9z"/>
 <path d="M10890 7602 c-50 -4 -98 -38 -80 -56 13 -13 18 -13 160 -26 58 -5 120 -12 138 -16 37 -7 61 8 59 37 -3 45 -124 72 -277 61z"/>
 <path d="M2861 7516 c-14 -17 -4 -26 62 -54 26 -12 47 -24 47 -27 0 -3 -30 -5 -66 -3 -78 4 -87 -6 -47 -49 28 -29 28 -30 8 -46 -20 -17 -20 -17 4 -37 18 -15 39 -20 90 -21 36 -1 84 -2 105 -3 25 -1 49 6 63 18 20 15 35 17 90 12 70 -7 93 2 93 34 0 10 -12 27 -27 38 -23 17 -25 22 -14 36 11 13 11 19 1 32 -20 23 -79 46 -127 50 -44 3 -80 8 -173 23 -78 13 -96 13 -109 -3z"/>
 <path d="M11438 7082 c-10 -14 -27 -18 -70 -19 -75 0 -90 -14 -86 -72 l3 -46 -50 -16 c-43 -14 -50 -19 -47 -40 1 -13 10 -30 19 -36 14 -11 10 -13 -30 -13 -54 0 -71 -20 -43 -48 13 -13 36 -17 109 -17 51 0 105 -6 120 -13 16 -6 34 -12 42 -12 8 0 16 -4 19 -9 3 -5 33 -8 66 -6 51 2 64 6 91 33 25 24 30 36 25 56 -5 19 0 31 20 49 24 23 25 27 12 53 -7 16 -21 29 -30 29 -22 0 -47 34 -48 63 0 32 -52 82 -84 82 -14 0 -31 -8 -38 -18z"/>
 <path d="M3025 7081 c-43 -9 -97 -40 -92 -54 2 -8 28 -12 68 -13 35 0 72 -2 81 -2 21 -2 42 -63 34 -100 -3 -15 -8 -58 -11 -97 -3 -38 -8 -86 -11 -105 -3 -19 -6 -42 -6 -50 0 -8 -7 -30 -15 -48 -18 -40 -5 -62 37 -62 45 0 48 8 66 185 1 17 3 32 5 35 4 9 5 22 14 113 8 99 -9 167 -48 189 -25 14 -78 18 -122 9z"/>
 <path d="M2358 6864 c-26 -8 -50 -19 -53 -24 -3 -6 -15 -10 -25 -10 -11 0 -49 -28 -85 -61 -52 -49 -63 -56 -56 -35 9 22 7 28 -16 43 -25 17 -26 16 -54 -15 -16 -18 -29 -41 -29 -51 0 -13 -16 -28 -42 -43 -47 -26 -113 -115 -99 -132 23 -28 32 -91 21 -136 -17 -65 -19 -326 -3 -369 7 -19 11 -42 8 -51 -3 -9 3 -25 15 -35 20 -18 21 -18 58 2 44 25 239 74 412 103 69 12 157 30 195 41 39 11 98 27 133 34 77 17 82 20 82 50 0 13 4 26 10 30 10 6 11 15 10 154 -1 122 -13 181 -50 258 -34 69 -163 209 -220 238 -45 23 -150 27 -212 9z m184 -82 c40 -19 98 -94 98 -127 0 -11 9 -28 20 -38 14 -12 20 -29 20 -61 0 -25 5 -57 10 -72 8 -21 7 -31 -5 -44 -11 -12 -12 -19 -3 -28 15 -15 -9 -45 -30 -37 -8 3 -23 -2 -34 -11 -10 -10 -21 -15 -24 -11 -3 3 4 10 15 17 29 15 17 31 -18 24 -35 -7 -51 12 -19 21 13 4 31 15 42 24 10 9 20 15 22 14 2 -2 4 0 4 4 0 4 -6 8 -13 9 -33 3 -37 5 -37 19 0 8 6 15 13 15 8 0 21 8 30 18 15 16 15 21 3 38 -12 16 -27 19 -98 19 l-84 0 -37 41 -37 41 43 13 c23 7 53 16 66 19 30 9 46 33 38 55 -7 18 -81 23 -92 6 -4 -6 -10 -8 -15 -5 -5 3 -12 1 -15 -5 -4 -6 -21 -10 -38 -9 -18 1 -47 -2 -64 -6 -18 -4 -33 -5 -33 -2 0 14 106 58 162 65 35 5 65 10 68 10 3 1 22 -7 42 -16z m-184 -207 c-12 -9 -58 -13 -63 -5 -9 15 -81 12 -94 -3 -6 -8 -14 -28 -17 -46 -4 -17 -9 -29 -12 -26 -3 2 -12 -1 -20 -8 -13 -10 -14 -6 -8 37 10 63 31 96 62 96 13 0 32 4 42 9 9 5 31 13 47 18 28 8 31 6 48 -31 9 -21 16 -40 15 -41z m-140 -144 c18 -11 -7 -31 -53 -41 -29 -7 -35 -5 -35 9 0 25 63 48 88 32z m156 -85 c-3 -8 4 -19 16 -26 12 -6 19 -14 16 -17 -8 -9 -46 27 -46 44 0 7 4 13 10 13 5 0 7 -6 4 -14z m-189 -32 c12 -19 14 -29 5 -39 -13 -16 -6 -35 13 -35 7 0 21 -8 32 -16 20 -16 20 -16 -1 -10 -15 5 -31 -1 -50 -17 -16 -13 -34 -22 -40 -20 -6 2 -17 -3 -24 -12 -10 -12 -10 -18 -1 -29 10 -12 8 -15 -11 -18 -13 -2 -22 -9 -20 -17 1 -7 -3 -11 -10 -9 -7 3 -14 20 -16 39 -3 39 17 147 29 155 5 3 9 14 9 24 0 18 15 26 51 29 9 0 24 -11 34 -25z m496 16 c5 0 18 -18 29 -40 19 -38 20 -40 2 -40 -22 0 -57 36 -67 69 -6 20 -4 23 10 18 9 -4 21 -7 26 -7z m-206 -73 c0 -7 9 -12 20 -13 11 0 28 -4 38 -7 37 -15 47 -16 52 -6 4 5 11 7 16 3 19 -11 -25 -31 -83 -38 -36 -5 -58 -3 -63 3 -3 6 -15 11 -27 11 -18 0 -19 2 -7 16 11 14 10 18 -5 29 -16 12 -15 14 16 17 37 4 43 1 43 -15z m-171 -79 c3 -23 -3 -27 -51 -40 -56 -16 -71 -14 -27 2 22 9 24 13 14 25 -7 8 -10 15 -6 15 14 0 22 2 39 12 15 8 16 12 6 26 -12 16 -12 16 5 1 9 -9 19 -28 20 -41z"/>
 <path d="M11170 6565 c-9 -11 -8 -30 5 -87 23 -96 23 -99 29 -273 9 -233 17 -275 52 -275 14 0 47 54 38 62 -11 12 -22 114 -12 125 5 7 7 17 3 23 -4 6 -8 66 -10 133 -2 67 -8 137 -14 155 -13 44 0 49 124 49 91 1 100 2 103 20 2 11 -3 25 -11 32 -17 13 -194 21 -218 9 -12 -5 -21 -1 -33 17 -19 28 -38 32 -56 10z"/>
 <path d="M12054 6169 c-9 -10 -22 -19 -29 -19 -6 0 -17 -6 -23 -12 -20 -20 -109 -36 -179 -33 -72 3 -88 -9 -50 -37 21 -15 27 -28 27 -58 0 -29 6 -43 23 -56 l22 -16 -27 6 c-16 4 -30 1 -34 -5 -11 -18 27 -41 59 -36 15 2 30 0 33 -5 5 -8 -2 -9 -73 -10 -49 0 -75 -21 -46 -36 10 -5 51 -9 91 -8 39 1 72 -1 72 -5 0 -3 -11 -16 -25 -29 -14 -13 -25 -26 -25 -30 0 -3 -36 -44 -80 -90 -44 -47 -82 -93 -86 -103 -3 -9 -9 -15 -13 -12 -5 2 -21 -14 -37 -38 -34 -50 -56 -114 -43 -123 13 -8 39 15 39 35 0 9 7 25 16 36 31 41 118 135 125 135 14 0 117 105 123 127 4 11 18 24 32 27 14 4 28 14 31 24 12 29 46 51 74 45 29 -5 55 19 43 39 -14 21 -13 38 0 38 7 0 30 11 50 25 20 14 43 25 50 25 20 0 48 36 44 57 -6 31 -57 28 -108 -6 -56 -38 -64 -39 -45 -1 8 16 15 39 15 52 0 13 7 32 15 42 22 29 18 43 -14 59 -27 14 -31 13 -47 -4z"/>
 <path d="M3923 5948 c-22 -29 -54 -116 -68 -188 -20 -97 -83 -271 -110 -300 -8 -9 -15 -22 -15 -28 0 -7 -21 -33 -47 -59 -43 -43 -85 -74 -188 -139 -47 -29 -176 -85 -216 -93 -19 -4 -50 -15 -69 -24 -18 -9 -42 -17 -52 -17 -11 0 -29 -5 -41 -12 -12 -7 -49 -15 -82 -19 -33 -4 -73 -10 -90 -14 -58 -15 -262 -14 -317 0 -29 8 -74 16 -98 18 -69 7 -134 36 -264 120 -81 53 -152 131 -172 189 -8 26 -20 50 -25 54 -6 3 -7 19 -4 34 3 16 2 37 -3 47 -19 38 -43 124 -37 134 4 5 2 15 -3 22 -5 7 -13 28 -17 47 -4 19 -11 53 -16 75 -5 22 -12 51 -15 65 -7 35 -20 46 -37 32 -11 -9 -13 -33 -11 -95 5 -118 4 -116 15 -122 5 -4 6 -11 3 -17 -6 -9 30 -179 63 -296 18 -66 65 -131 141 -195 124 -105 238 -164 342 -178 36 -5 99 -15 140 -23 41 -7 93 -12 115 -10 22 1 82 5 134 8 51 3 99 10 105 14 6 5 39 12 73 15 69 7 329 89 365 115 35 26 66 42 80 42 7 0 33 16 57 35 24 19 49 35 55 35 33 0 211 199 235 262 5 13 21 49 36 81 14 33 24 65 21 73 -3 7 -2 16 3 18 7 5 29 96 30 126 0 25 21 114 31 131 6 12 4 22 -9 33 -21 19 -26 20 -38 4z"/>
 <path d="M11685 5870 c-8 -12 20 -24 35 -15 6 3 8 11 5 16 -8 12 -32 12 -40 -1z"/>
 <path d="M12392 5758 c-7 -7 -12 -18 -12 -24 0 -22 17 -24 34 -5 14 15 14 20 3 29 -10 9 -17 8 -25 0z"/>
 <path d="M12374 5689 c-10 -17 13 -36 27 -22 12 12 4 33 -11 33 -5 0 -12 -5 -16 -11z"/>
 <path d="M11635 5410 c-8 -12 20 -24 35 -15 6 3 8 11 5 16 -8 12 -32 12 -40 -1z"/>
 <path d="M12170 5374 c-9 -10 -10 -18 -3 -25 8 -8 14 -5 22 9 13 25 -2 38 -19 16z"/>
 <path d="M11264 5368 c-16 -26 -6 -127 16 -158 27 -38 41 -30 34 18 -3 20 -9 61 -12 91 -7 54 -23 74 -38 49z"/>
 <path d="M8280 5316 c-86 -23 -180 -122 -180 -188 0 -39 23 -81 54 -97 23 -13 28 -12 45 3 19 17 21 17 50 -3 56 -40 161 -32 135 10 -5 9 0 10 20 5 21 -5 28 -2 37 16 6 13 19 39 30 58 11 20 19 54 19 81 0 42 -4 51 -40 83 -27 24 -50 36 -69 36 -16 0 -35 2 -43 4 -7 3 -33 -1 -58 -8z m53 -163 c4 -3 1 -13 -7 -22 -8 -9 -16 -27 -18 -41 l-3 -24 -18 27 c-22 35 -14 67 17 67 12 0 26 -3 29 -7z"/>
 <path d="M1665 5081 c-64 -23 -92 -39 -132 -75 -38 -34 -41 -55 -13 -81 21 -19 27 -45 11 -45 -16 0 -83 -103 -83 -127 0 -28 21 -56 38 -49 7 3 41 -6 76 -20 73 -28 218 -38 240 -16 6 6 20 12 30 12 23 0 85 39 120 76 30 33 67 109 68 139 0 35 -57 141 -86 162 -66 45 -182 56 -269 24z m179 -175 c-12 -39 -43 -72 -83 -91 -35 -15 -45 -16 -83 -5 -24 7 -62 13 -85 14 -40 0 -41 1 -26 18 13 15 26 17 65 12 46 -6 49 -5 81 29 49 54 146 71 131 23z"/>
 <path d="M12733 5071 c-54 -25 -132 -97 -149 -138 -25 -58 -18 -83 34 -130 50 -47 49 -46 91 -91 35 -38 94 -55 142 -42 71 20 165 164 161 247 -2 49 -43 110 -97 143 -48 30 -131 35 -182 11z m155 -129 c4 -13 -10 -14 -48 -3 -27 8 -74 -13 -120 -52 l-25 -22 20 25 c28 35 54 53 95 66 37 11 71 5 78 -14z m-38 -99 c0 -23 -29 -53 -52 -53 -21 0 -25 39 -6 58 18 18 58 15 58 -5z"/>
 <path d="M13803 5009 c-45 -13 -182 -95 -223 -134 -19 -18 -62 -53 -95 -77 -33 -25 -121 -104 -195 -177 -74 -72 -156 -145 -182 -163 -27 -17 -48 -37 -48 -45 0 -18 -27 -16 -96 8 -50 17 -73 19 -149 13 -49 -3 -128 -8 -175 -10 -98 -4 -121 -7 -138 -18 -6 -4 -12 -5 -12 -1 0 17 -72 -36 -133 -98 -77 -78 -98 -118 -133 -257 -28 -108 -27 -171 6 -365 11 -60 22 -157 24 -215 5 -99 34 -311 57 -410 6 -25 13 -58 16 -75 3 -16 11 -42 19 -57 8 -15 14 -34 14 -42 0 -35 68 -188 117 -263 99 -151 343 -383 451 -429 23 -9 84 -18 160 -21 125 -6 188 4 279 43 17 8 33 14 36 14 2 0 22 7 43 17 22 9 50 17 64 18 29 2 91 21 138 42 30 14 37 14 88 -6 31 -11 63 -21 73 -21 9 0 34 -9 56 -20 21 -11 41 -18 43 -15 2 2 21 -2 41 -10 20 -8 56 -19 81 -25 25 -6 63 -24 85 -39 50 -35 122 -58 222 -72 42 -6 95 -17 118 -24 73 -23 169 -37 248 -36 68 1 94 7 190 45 62 25 147 61 190 80 43 20 83 36 90 36 19 0 141 83 208 142 33 29 89 92 125 140 35 48 79 103 97 121 67 71 87 96 87 111 0 8 9 20 20 26 11 6 20 17 20 25 0 8 14 30 30 48 17 19 30 39 30 45 0 14 38 75 73 117 15 18 27 35 27 39 0 3 20 36 43 73 24 37 49 89 55 115 8 30 12 149 12 327 0 235 -2 282 -15 295 -8 8 -15 19 -15 24 0 21 -41 60 -69 65 -57 12 -271 191 -271 226 0 8 -10 26 -23 40 -41 45 -52 100 -38 191 23 151 -7 233 -130 361 -32 34 -59 64 -59 68 0 4 -22 31 -49 60 l-49 53 -104 -7 c-56 -3 -120 -11 -140 -16 -31 -8 -121 -24 -253 -44 -16 -3 -77 -21 -135 -40 -134 -44 -334 -72 -388 -54 -93 30 -193 91 -292 179 -56 49 -110 90 -119 89 -9 0 -30 -5 -48 -10z m47 -159 c0 -15 70 -79 113 -103 29 -16 47 -37 68 -81 l28 -58 -19 -41 c-11 -22 -20 -52 -20 -67 0 -18 -13 -36 -43 -61 -45 -39 -83 -107 -112 -203 -36 -123 1 -284 84 -371 34 -35 39 -48 45 -105 9 -86 34 -171 57 -194 15 -17 22 -18 43 -8 34 15 41 49 30 154 -10 99 -8 101 59 73 49 -20 60 -19 90 9 21 19 24 29 18 52 -6 23 -16 30 -70 44 -41 12 -74 28 -95 49 -27 26 -31 36 -28 71 4 40 4 40 38 34 65 -12 69 -11 66 16 -1 14 -23 46 -48 71 l-45 46 8 64 c7 57 11 64 31 67 13 2 31 -3 40 -11 9 -8 27 -18 39 -21 64 -20 46 42 -35 124 -62 63 -64 67 -66 119 -2 40 -7 57 -22 68 -17 14 -15 14 23 8 23 -4 47 -4 53 0 6 4 39 9 73 11 161 11 404 49 507 78 30 9 120 29 199 45 158 32 145 34 260 -23 84 -41 167 -160 178 -256 3 -19 8 -39 12 -43 4 -4 4 -32 -2 -62 -14 -83 15 -167 99 -283 38 -53 80 -100 97 -109 17 -9 56 -39 87 -68 30 -29 76 -62 102 -74 32 -14 57 -36 80 -69 l33 -47 0 -190 c-1 -174 -3 -195 -23 -244 -13 -30 -34 -68 -48 -85 -14 -17 -52 -71 -84 -121 -32 -49 -68 -100 -80 -113 -52 -56 -118 -141 -144 -187 -142 -247 -254 -363 -431 -444 -36 -17 -68 -31 -70 -31 -3 0 -30 -12 -62 -26 -32 -14 -71 -32 -88 -39 -60 -27 -112 -34 -210 -31 -143 5 -402 55 -448 88 -15 11 -55 56 -89 101 -129 169 -177 201 -294 195 -65 -3 -77 -7 -140 -49 -88 -59 -94 -62 -113 -63 -17 -2 -41 -12 -131 -53 -30 -14 -79 -32 -109 -40 -30 -7 -75 -23 -100 -34 -60 -28 -220 -28 -262 -1 -297 190 -449 441 -513 847 -9 55 -21 118 -26 140 -5 22 -10 72 -10 110 0 39 -12 147 -26 240 -30 201 -29 297 5 363 46 90 156 213 218 245 15 8 73 18 127 21 54 4 102 8 105 9 3 0 23 -5 43 -13 37 -13 54 -44 46 -81 -2 -10 8 -14 37 -14 39 0 40 0 38 35 l-2 35 60 3 c88 5 134 29 214 113 39 41 113 112 165 159 52 46 131 122 175 169 44 46 102 99 130 117 49 33 85 44 85 24z m85 -2472 c53 -59 80 -96 74 -103 -3 -2 -54 16 -114 40 -61 25 -116 45 -122 45 -24 0 -13 15 30 42 60 39 78 36 132 -24z"/>
 <path d="M13196 3891 c-13 -14 -15 -29 -10 -72 3 -30 8 -57 11 -61 2 -4 -5 -15 -17 -25 -11 -10 -20 -23 -20 -30 0 -7 -5 -13 -11 -13 -6 0 -39 -24 -74 -52 -49 -41 -61 -56 -53 -66 8 -9 6 -20 -10 -41 -31 -43 -23 -121 26 -246 22 -54 105 -154 158 -189 41 -27 44 -31 44 -74 0 -71 23 -137 56 -159 16 -10 24 -11 37 0 14 10 18 29 18 103 0 64 4 91 12 91 87 -2 115 12 123 65 9 52 -21 71 -94 59 -58 -9 -71 -2 -69 39 1 14 -2 53 -6 88 -9 68 -7 69 49 53 24 -7 36 -5 55 10 21 16 22 21 11 39 -7 11 -10 25 -7 30 4 6 -2 13 -11 17 -10 3 -26 15 -35 24 -10 10 -30 21 -44 25 -23 6 -25 10 -25 65 0 32 4 59 10 59 5 0 25 -13 43 -30 19 -16 42 -30 51 -30 27 0 30 29 8 60 -20 27 -20 28 -2 33 17 4 17 8 6 46 -15 53 -30 68 -50 52 -10 -8 -16 -9 -21 -1 -3 5 -20 10 -36 10 -23 0 -32 6 -40 28 -25 62 -51 112 -58 112 -4 0 -15 -8 -25 -19z m-6 -356 c0 -39 -3 -45 -25 -51 -43 -11 -46 0 -16 49 17 26 33 47 36 47 3 0 5 -20 5 -45z m-8 -132 c4 -2 10 -29 13 -61 4 -31 9 -65 11 -74 8 -26 -13 -22 -42 9 -25 27 -58 119 -48 134 5 8 47 3 66 -8z"/>
 <path d="M14641 3784 c-20 -25 -23 -26 -39 -11 -12 11 -22 13 -35 6 -23 -14 -22 -46 4 -59 11 -7 18 -14 15 -17 -3 -3 1 -20 8 -37 21 -51 9 -91 -45 -146 -27 -28 -49 -56 -49 -64 0 -8 -5 -16 -12 -18 -7 -3 -10 -31 -9 -85 1 -52 -2 -89 -11 -102 -10 -16 -10 -23 0 -33 6 -6 12 -20 12 -30 0 -30 61 -149 97 -189 36 -40 35 -36 63 -278 7 -64 14 -89 31 -107 28 -30 40 -30 66 -1 22 24 23 58 8 194 l-8 73 49 -5 c27 -2 58 -7 69 -10 31 -9 59 17 52 47 -9 35 -45 78 -66 78 -10 0 -37 17 -60 38 -31 27 -43 46 -46 74 -5 43 5 48 75 36 56 -10 66 -7 73 29 7 36 -14 69 -50 77 -15 4 -45 14 -65 23 -36 16 -36 17 -40 78 -5 97 -5 96 55 89 80 -11 112 -10 112 3 0 6 3 15 7 18 4 4 1 20 -7 36 -11 21 -28 31 -72 44 -66 19 -103 48 -96 75 3 10 0 21 -6 24 -7 5 -7 13 1 26 9 14 9 22 0 32 -8 11 -9 17 0 26 20 20 -25 92 -57 92 -2 0 -13 -12 -24 -26z m-31 -425 c0 -24 -4 -38 -10 -34 -5 3 -10 22 -10 41 0 19 5 34 10 34 6 0 10 -18 10 -41z"/>
 <path d="M8034 4821 c-51 -13 -88 -46 -118 -105 -40 -78 -38 -113 7 -168 28 -34 47 -48 75 -53 20 -4 44 -12 52 -20 20 -17 89 -28 103 -17 7 5 24 12 38 15 35 9 78 44 91 76 6 14 13 47 15 72 4 41 1 52 -31 96 -62 86 -148 125 -232 104z m76 -155 c0 -7 -11 -18 -25 -24 -30 -14 -34 1 -9 29 17 19 34 17 34 -5z"/>
 <path d="M955 4656 c-68 -32 -171 -140 -180 -190 -9 -44 0 -108 19 -145 23 -43 105 -104 160 -118 54 -14 208 -19 241 -8 67 23 85 36 75 54 -7 14 -4 23 15 41 13 13 32 45 41 72 15 45 15 53 -1 106 -9 31 -22 67 -28 80 -13 28 -101 96 -150 117 -54 22 -133 19 -192 -9z m184 -172 c28 -36 34 -60 21 -84 -13 -25 -65 -25 -65 0 0 12 -14 15 -68 13 -61 -2 -67 -1 -58 15 11 20 48 55 76 70 35 20 72 14 94 -14z"/>
 <path d="M7300 4364 c-91 -15 -172 -39 -205 -60 -11 -7 -56 -22 -100 -33 -88 -23 -119 -34 -310 -114 -233 -97 -237 -100 -372 -225 -138 -128 -178 -184 -214 -307 -29 -95 -58 -186 -69 -210 -22 -46 -59 -164 -70 -219 -7 -32 -21 -84 -32 -115 -31 -89 -25 -241 12 -326 70 -163 139 -284 208 -370 74 -90 106 -135 125 -171 8 -16 34 -50 57 -74 22 -25 62 -76 87 -113 46 -70 234 -267 254 -267 6 0 25 -11 42 -24 44 -33 99 -59 192 -91 44 -15 103 -40 130 -55 28 -16 77 -35 110 -44 125 -33 242 -57 300 -62 83 -8 346 11 430 31 61 15 86 15 195 5 69 -6 159 -18 200 -25 41 -8 111 -17 155 -20 99 -9 108 -10 181 -34 32 -10 75 -22 94 -26 19 -4 58 -18 85 -30 94 -43 296 -82 398 -77 71 4 218 99 243 157 11 26 45 69 161 199 22 25 145 209 220 331 119 192 118 190 224 271 117 88 316 283 341 335 16 35 49 181 56 256 3 32 -3 56 -22 95 -14 28 -26 58 -26 65 0 14 -30 60 -65 102 -62 72 -350 251 -404 251 -7 0 -33 9 -59 19 -73 30 -86 34 -95 33 -9 -2 -183 54 -212 68 -31 15 -134 47 -194 60 -30 7 -66 19 -80 26 -14 8 -36 14 -47 14 -12 0 -41 7 -64 15 -23 8 -53 15 -66 15 -29 0 -58 40 -78 110 -66 237 -133 367 -236 455 -80 68 -122 86 -215 92 -92 6 -145 -5 -201 -44 -122 -83 -171 -94 -210 -47 -13 16 -23 25 -24 20 0 -5 -6 -4 -12 2 -12 9 -69 4 -128 -12 -20 -6 -36 2 -79 34 -30 22 -64 40 -75 40 -10 0 -27 6 -35 14 -20 18 -192 73 -251 80 -100 13 -169 13 -250 0z m74 -143 c3 -4 29 -4 58 0 29 5 64 7 78 5 14 -3 44 -7 68 -11 24 -4 62 -17 85 -30 23 -13 53 -26 67 -30 14 -4 41 -19 61 -32 21 -13 68 -35 105 -47 66 -22 76 -30 88 -69 9 -29 34 -31 142 -13 l103 18 34 -26 c35 -27 48 -28 137 -11 19 3 42 7 50 9 8 1 41 11 74 20 43 13 77 17 128 12 38 -3 73 -8 78 -11 5 -3 32 -79 61 -168 72 -226 119 -318 190 -372 52 -41 128 -73 209 -89 19 -4 55 -14 80 -22 41 -13 98 -22 340 -54 47 -6 94 -15 105 -20 11 -4 38 -13 60 -18 22 -6 69 -21 105 -35 151 -56 231 -114 270 -194 13 -26 27 -56 32 -66 5 -10 6 -21 4 -26 -3 -4 1 -17 9 -27 8 -10 15 -31 15 -46 0 -15 5 -30 10 -33 6 -4 7 -11 4 -17 -4 -6 -8 -38 -9 -72 -2 -33 -10 -77 -18 -96 -18 -42 -131 -172 -158 -182 -10 -4 -19 -11 -19 -16 0 -4 -14 -16 -32 -27 -45 -26 -179 -128 -200 -151 -16 -18 -101 -147 -143 -215 -38 -62 -41 -67 -52 -80 -6 -8 -23 -36 -38 -64 -15 -27 -53 -85 -84 -128 -31 -43 -75 -106 -98 -140 -24 -34 -50 -72 -59 -85 -8 -12 -39 -41 -67 -63 -48 -39 -55 -41 -102 -36 -103 11 -232 39 -303 68 -126 50 -242 79 -382 95 -74 8 -169 21 -210 28 -142 26 -329 27 -460 2 -128 -24 -363 -26 -445 -4 -33 9 -82 19 -108 23 -27 3 -90 26 -140 51 -50 24 -96 44 -104 44 -7 0 -50 18 -95 40 -83 40 -192 125 -236 184 -12 17 -29 34 -37 39 -8 4 -15 14 -15 20 0 7 -12 26 -27 43 -52 57 -117 143 -204 269 -34 49 -70 96 -80 103 -11 7 -19 19 -19 26 0 8 -7 20 -16 27 -9 8 -25 32 -35 55 -9 23 -22 45 -29 49 -6 4 -8 15 -5 24 3 10 -4 30 -16 45 -12 15 -23 44 -25 65 -2 20 -13 63 -24 95 -35 103 -35 137 4 290 20 76 52 179 72 230 20 50 47 127 60 171 33 114 59 169 97 203 156 141 250 208 362 254 191 80 410 161 560 208 69 22 82 23 89 11z m1206 -97 c37 -8 22 -24 -23 -24 -16 0 -36 -4 -45 -9 -9 -4 -36 -11 -60 -14 l-42 -5 24 19 c46 36 85 45 146 33z"/>
 <path d="M6959 3307 c-40 -34 -49 -57 -38 -103 5 -21 21 -109 35 -194 14 -85 29 -182 35 -215 5 -33 11 -112 14 -175 3 -63 7 -141 11 -172 7 -64 0 -69 -46 -43 -32 18 -69 19 -111 1 -33 -14 -69 -60 -69 -89 0 -16 21 -37 42 -41 40 -8 77 -33 134 -91 47 -46 80 -70 120 -84 30 -12 61 -21 68 -21 26 0 186 180 186 209 0 7 9 29 20 50 27 54 37 153 16 170 -24 20 -97 6 -122 -23 l-22 -25 -7 102 c-3 56 -8 131 -10 167 -6 81 -11 121 -35 235 -10 50 -26 145 -36 213 -20 140 -23 143 -109 148 -39 2 -56 -2 -76 -19z"/>
 <path d="M9649 3154 c-16 -8 -31 -29 -39 -55 -13 -37 -12 -43 3 -54 9 -7 17 -14 17 -17 0 -2 -34 -5 -75 -6 -41 -2 -87 -9 -102 -17 -18 -10 -53 -14 -99 -13 -39 1 -76 -2 -82 -6 -7 -4 -59 -7 -117 -8 -116 0 -127 -6 -139 -79 -7 -40 5 -57 82 -115 53 -39 53 -39 25 -44 -68 -13 -22 -65 84 -95 34 -10 70 -27 80 -38 10 -11 12 -17 6 -13 -20 12 -51 16 -168 22 -156 9 -167 10 -195 21 -14 6 -29 12 -35 13 -5 2 -35 11 -65 22 -59 20 -188 23 -245 6 -16 -5 -42 -10 -57 -12 -51 -4 -102 -72 -78 -101 8 -10 9 -15 2 -15 -6 0 -14 5 -17 10 -10 17 -51 11 -69 -9 -10 -11 -15 -25 -11 -30 9 -16 86 -49 153 -66 135 -35 435 -40 586 -11 44 9 81 14 84 12 5 -5 -49 -40 -126 -81 -55 -30 -112 -85 -112 -109 0 -50 78 -74 135 -42 78 44 125 74 161 102 68 53 214 154 223 154 5 0 19 14 31 31 21 28 21 34 9 77 -9 33 -29 63 -67 102 -30 30 -62 67 -73 81 l-19 26 68 7 c37 4 95 9 130 12 35 3 84 9 108 13 24 5 47 5 49 1 3 -5 -12 -22 -34 -39 -21 -17 -42 -42 -45 -55 -8 -33 17 -102 37 -98 8 1 18 -2 21 -7 8 -12 57 12 113 55 23 17 67 46 98 64 31 18 59 40 63 49 3 9 24 47 45 84 34 58 38 73 32 105 -10 56 -41 100 -76 107 -17 4 -47 18 -66 30 -19 13 -40 22 -47 19 -8 -3 -41 2 -74 10 -70 19 -78 19 -113 0z m-865 -635 c36 -17 66 -32 66 -33 0 -9 -222 12 -285 26 l-50 12 70 12 c109 18 128 16 199 -17z"/>
 <path d="M7320 2900 c-28 -28 -25 -40 15 -87 19 -23 35 -49 35 -60 0 -34 37 -79 111 -136 41 -30 116 -96 166 -145 51 -50 109 -103 130 -119 l36 -30 -23 -31 c-19 -26 -22 -36 -14 -64 6 -21 17 -34 29 -35 78 -9 143 -21 160 -30 44 -24 97 -43 118 -43 12 -1 33 -7 47 -14 15 -9 32 -11 45 -6 11 4 24 7 30 6 5 0 22 18 38 42 22 33 26 46 17 56 -7 9 -7 16 -1 20 14 9 2 111 -19 160 -26 61 -65 89 -110 81 -44 -8 -66 -28 -74 -66 l-6 -31 -40 32 c-21 17 -97 86 -167 153 -71 68 -144 133 -163 147 -19 13 -60 47 -91 75 -54 49 -123 82 -135 64 -11 -19 -32 -7 -63 36 -18 25 -36 45 -42 45 -5 0 -18 -9 -29 -20z"/>
 <path d="M2000 4364 c-111 -19 -146 -27 -155 -34 -5 -4 -32 -11 -59 -15 -27 -4 -72 -17 -100 -29 -28 -13 -63 -26 -77 -29 -15 -4 -36 -22 -48 -39 -11 -18 -21 -29 -21 -24 0 4 -11 1 -24 -7 -45 -30 -159 -88 -233 -119 -41 -17 -77 -37 -80 -44 -4 -10 -21 0 -62 34 -74 64 -106 84 -170 110 -63 26 -106 27 -183 7 -51 -13 -245 -84 -286 -104 -9 -4 -48 -23 -86 -40 -39 -18 -92 -54 -123 -84 -30 -28 -81 -70 -113 -92 -33 -22 -86 -62 -119 -90 l-60 -50 0 -175 -1 -175 30 55 c16 30 38 73 49 95 21 43 47 70 96 99 17 10 40 32 53 47 13 16 51 45 84 65 34 19 88 59 121 89 65 59 99 78 231 124 67 24 92 29 102 20 18 -15 45 -4 38 15 -6 14 6 19 96 41 14 3 37 2 52 -4 28 -11 106 -108 127 -159 19 -45 66 -82 104 -82 26 0 42 12 92 65 34 36 68 65 76 65 14 0 52 19 229 112 81 42 205 94 280 117 129 40 180 52 240 57 92 9 131 -5 175 -65 19 -27 35 -53 35 -58 0 -12 45 -45 95 -70 114 -57 236 -55 515 7 47 11 108 22 135 25 55 7 154 34 225 60 50 19 159 24 258 13 48 -6 86 -20 154 -55 134 -71 179 -120 242 -265 25 -57 36 -220 30 -436 l-6 -197 28 -40 c15 -22 41 -60 57 -85 47 -70 77 -99 139 -132 31 -17 77 -51 101 -77 25 -25 70 -70 101 -100 37 -35 56 -61 56 -76 0 -13 5 -36 11 -52 6 -15 12 -95 14 -178 3 -152 -1 -174 -45 -270 -5 -11 -17 -40 -28 -65 -25 -60 -63 -103 -131 -149 -101 -68 -119 -71 -464 -86 -60 -3 -113 -7 -117 -10 -5 -3 -39 -6 -77 -6 -72 -1 -141 -14 -183 -36 -14 -7 -32 -13 -40 -13 -61 -1 -350 -265 -443 -405 -68 -103 -68 -103 -143 -130 -50 -18 -137 -34 -312 -55 -134 -17 -267 -36 -295 -43 -83 -19 -556 -15 -632 5 -33 9 -102 22 -154 28 -51 6 -125 22 -165 36 -39 14 -109 39 -155 56 -47 16 -101 40 -120 52 -20 12 -62 36 -95 52 -32 16 -68 38 -80 50 -21 20 -101 70 -143 89 -12 5 -54 39 -93 74 -40 36 -102 85 -138 109 -60 41 -92 66 -241 190 -23 21 -47 38 -52 40 -5 2 -9 9 -9 16 0 7 -11 23 -25 36 -37 35 -48 90 -49 246 -1 93 -5 146 -13 155 -6 8 -13 37 -16 64 -2 28 -4 -98 -5 -279 l-2 -328 38 -35 c82 -76 191 -165 257 -212 39 -27 91 -71 116 -98 111 -116 416 -302 609 -371 47 -17 108 -40 137 -51 28 -11 96 -28 150 -36 54 -9 112 -21 128 -25 67 -20 319 -50 465 -55 212 -7 417 10 557 46 61 16 123 33 136 38 14 6 52 11 84 12 88 2 161 23 233 64 84 48 82 45 144 134 74 104 114 150 229 261 78 77 110 100 159 119 62 24 109 25 288 6 59 -6 197 -8 206 -3 5 3 31 9 59 13 27 4 58 13 69 21 11 8 32 14 47 14 15 0 32 7 39 15 7 8 21 15 31 15 33 0 173 81 222 128 26 25 47 42 47 37 0 -4 11 2 25 15 14 13 25 30 25 37 0 7 14 40 30 73 17 33 30 64 30 69 0 5 15 43 34 84 56 120 67 178 56 283 -18 157 -34 213 -88 294 -44 66 -207 241 -306 328 -39 34 -75 67 -81 73 -5 6 -20 21 -33 34 -23 23 -23 24 -18 233 5 234 -8 379 -43 457 -40 90 -198 285 -232 285 -5 0 -44 20 -86 44 -74 44 -117 57 -279 85 -119 21 -195 12 -369 -47 -138 -46 -417 -92 -562 -92 -75 0 -87 2 -103 23 -82 98 -104 122 -130 143 -58 49 -236 93 -320 78z"/>
 <path d="M1270 3560 c-11 -11 -52 -27 -92 -36 -40 -9 -80 -24 -88 -34 -9 -9 -21 -15 -27 -13 -6 2 -14 -1 -18 -6 -11 -18 -25 -12 -35 13 -5 14 -21 33 -35 42 -25 16 -27 16 -55 -11 l-29 -28 1 -141 c1 -97 -3 -148 -11 -165 -9 -16 -10 -26 -2 -34 8 -8 2 -18 -19 -36 l-30 -26 -5 -140 c-8 -285 -7 -274 -37 -297 -23 -16 -28 -27 -28 -64 0 -25 6 -60 14 -79 9 -21 12 -49 9 -71 -5 -29 -13 -39 -38 -50 -33 -14 -45 -31 -45 -65 0 -11 -4 -27 -9 -37 -19 -36 -40 -124 -48 -199 -4 -43 -1 -57 19 -83 69 -95 182 -124 296 -76 34 14 68 26 76 26 8 0 43 24 78 54 72 61 93 110 89 206 -4 66 -12 85 -60 128 -51 48 -82 61 -136 60 -25 0 -51 4 -56 9 -12 12 20 42 52 48 36 7 46 24 64 105 19 83 23 307 10 515 -4 79 -3 129 4 148 10 27 11 27 36 11 20 -13 28 -14 40 -4 20 17 19 24 -8 79 -13 25 -26 60 -30 76 -3 17 -9 39 -13 49 -5 13 -4 17 3 13 13 -8 114 14 164 35 19 8 46 20 62 26 29 12 33 23 17 53 -14 25 -54 25 -80 -1z m-258 -244 c7 -34 -19 -116 -36 -116 -9 0 -9 22 -2 90 7 75 11 87 21 73 7 -10 14 -31 17 -47z m63 -1006 c37 -20 51 -73 41 -154 -7 -49 -12 -58 -49 -88 -43 -35 -50 -37 -80 -24 -20 9 -29 7 -115 -29 l-63 -26 -44 21 c-24 12 -45 29 -47 38 -7 28 39 162 64 189 13 14 52 40 88 59 53 27 75 33 120 32 30 -1 69 -10 85 -18z"/>
 <path d="M2170 3559 c-19 -4 -48 -11 -65 -15 -16 -4 -50 -24 -74 -45 -44 -37 -45 -37 -59 -18 -10 14 -18 17 -24 11 -6 -6 -20 -7 -32 -3 -11 4 -34 5 -51 2 -24 -5 -30 -12 -31 -31 0 -14 -4 -32 -9 -39 -16 -27 -23 -94 -12 -118 8 -17 7 -30 -3 -48 -18 -33 -15 -140 4 -187 15 -35 15 -37 -4 -43 -23 -7 -50 -58 -50 -96 0 -15 -4 -30 -9 -33 -5 -3 -7 -15 -4 -26 3 -11 1 -33 -5 -49 -7 -19 -7 -44 -1 -72 10 -44 20 -119 23 -176 1 -19 11 -42 23 -55 22 -21 23 -21 42 -4 16 15 29 17 62 12 52 -8 69 5 63 47 -3 18 2 73 11 122 22 118 33 259 25 307 -6 33 -4 43 15 62 18 18 23 38 28 102 4 43 3 111 -2 149 -5 39 -4 78 0 87 10 18 101 68 124 68 27 0 105 40 105 53 0 16 -32 48 -46 46 -5 -1 -25 -5 -44 -10z"/>
 <path d="M2590 3507 c-20 -10 -27 -23 -33 -67 -4 -30 -8 -73 -8 -95 -1 -22 -6 -46 -12 -54 -9 -10 -7 -16 6 -26 12 -9 15 -15 7 -20 -13 -8 -8 -30 8 -31 7 -1 16 -2 21 -3 12 -1 8 -28 -7 -43 -17 -17 -15 -77 3 -84 17 -7 20 -40 5 -49 -5 -3 -10 1 -10 9 0 8 -9 20 -21 26 -33 18 -67 -10 -73 -62 -8 -67 -5 -151 6 -171 11 -22 18 -338 7 -352 -4 -6 -9 -31 -11 -55 -3 -40 -6 -46 -34 -55 -17 -5 -45 -23 -63 -40 -38 -36 -84 -114 -77 -132 3 -7 0 -15 -6 -19 -13 -8 -2 -126 16 -169 7 -16 18 -41 23 -55 15 -36 93 -73 126 -61 31 12 47 39 47 81 0 20 6 33 18 37 35 13 74 46 99 87 26 39 32 86 24 180 -3 27 -35 69 -65 86 -43 22 -32 83 13 74 59 -12 82 66 75 251 -3 72 -5 135 -5 140 1 16 8 60 10 60 1 0 4 27 7 60 3 32 7 61 9 63 2 3 0 12 -5 22 -5 9 -10 38 -11 64 -2 26 -7 50 -12 53 -18 11 -27 53 -15 72 10 17 14 17 32 5 18 -11 25 -10 53 7 18 11 35 30 39 42 4 12 12 25 18 29 6 4 16 22 22 40 7 23 18 34 35 36 47 6 52 10 35 33 -17 25 -70 59 -91 59 -17 0 -65 -68 -65 -93 0 -23 -29 -34 -41 -16 -5 8 -16 37 -24 65 -20 67 -42 87 -75 71z m-46 -1202 c12 -8 29 -32 35 -53 12 -35 11 -44 -12 -93 -14 -30 -38 -62 -52 -73 -27 -18 -27 -18 -59 13 -23 22 -37 29 -54 25 -20 -6 -22 -3 -22 32 0 48 37 111 82 141 40 26 52 28 82 8z"/>
 <path d="M3209 3500 c-12 -7 -14 -36 -12 -172 1 -90 5 -174 9 -188 6 -21 4 -23 -7 -12 -7 6 -21 12 -30 12 -31 0 -45 -34 -41 -97 14 -258 5 -554 -18 -577 -5 -5 -10 -23 -10 -40 0 -18 -10 -40 -24 -55 -43 -46 -69 -103 -72 -158 -1 -29 -5 -57 -9 -63 -4 -6 -3 -40 0 -75 7 -58 11 -69 47 -105 43 -43 71 -50 99 -24 15 14 19 13 44 -10 42 -39 78 -38 114 2 24 26 24 28 18 177 -8 178 -15 209 -65 263 -24 26 -34 43 -26 46 7 3 15 20 19 38 4 18 15 38 23 44 14 10 16 43 14 239 -1 125 2 233 6 239 8 13 12 68 5 79 -3 4 -20 -1 -38 -12 l-33 -19 -4 29 c-5 33 10 43 34 22 22 -19 66 0 48 22 -6 7 -9 17 -8 21 2 5 -1 9 -7 9 -5 0 -9 -3 -8 -6 1 -4 -6 -9 -17 -12 -18 -4 -17 -3 3 29 16 24 27 32 40 28 10 -3 29 2 42 10 22 14 25 24 25 74 0 57 12 114 29 141 7 11 15 11 42 2 26 -9 36 -9 47 3 21 20 2 48 -51 75 -40 21 -48 22 -73 10 -16 -8 -38 -28 -49 -45 -20 -30 -22 -31 -33 -13 -7 10 -12 25 -12 33 0 20 -43 46 -61 36z m-1 -1188 c31 -24 58 -169 53 -295 -1 -37 -2 -38 -33 -35 -27 2 -32 7 -30 25 2 13 -6 27 -19 37 -20 14 -25 14 -39 1 -47 -43 -75 4 -65 109 9 89 27 129 67 154 41 25 38 25 66 4z"/>
 <path d="M4030 2715 c-8 -9 -7 -31 1 -76 10 -58 13 -128 6 -136 -2 -1 -39 15 -83 37 -43 22 -86 40 -94 40 -9 0 -21 5 -26 10 -6 6 -31 13 -56 15 -57 6 -66 -4 -83 -87 -11 -52 -11 -66 1 -89 8 -16 14 -45 15 -66 0 -21 1 -63 2 -93 l2 -55 -33 -3 c-24 -2 -36 -11 -47 -32 -17 -33 -13 -38 41 -45 22 -3 46 -9 54 -12 8 -3 66 -7 129 -9 63 -2 118 -7 124 -13 5 -5 10 -50 10 -100 0 -75 3 -94 19 -108 15 -13 23 -14 43 -5 14 6 25 17 25 23 0 6 10 24 23 40 12 15 42 55 67 89 76 102 152 195 166 203 25 14 17 80 -12 108 -41 39 -61 80 -74 154 -6 38 -17 76 -23 83 -18 22 -56 33 -77 22 -16 -9 -21 -4 -36 38 -10 26 -21 52 -26 58 -14 18 -46 23 -58 9z m-179 -206 c50 -25 44 -38 -6 -15 -41 20 -51 16 -69 -27 l-14 -32 -1 38 c-1 35 10 48 47 56 1 1 21 -8 43 -20z m129 -314 c0 -11 -12 -15 -46 -15 -40 0 -45 2 -34 15 7 8 28 15 46 15 24 0 34 -5 34 -15z"/>
 <path d="M1797 2452 c-67 -44 -117 -142 -157 -303 l-30 -123 32 -34 c30 -31 36 -33 73 -26 22 4 79 7 127 6 48 -1 90 3 93 8 4 6 14 10 24 10 9 0 35 17 57 38 30 30 43 52 53 94 13 53 13 58 -13 109 -52 105 -99 166 -162 208 -55 36 -60 37 -97 13z m116 -117 c26 -24 47 -49 47 -57 0 -7 9 -26 20 -43 21 -32 27 -80 10 -90 -5 -3 -10 -15 -10 -25 0 -10 -11 -32 -25 -48 -31 -37 -78 -46 -101 -21 -13 14 -21 16 -36 8 -14 -8 -25 -6 -44 5 -22 15 -25 15 -36 -4 -18 -29 -38 -25 -38 8 0 27 42 161 71 227 17 40 59 85 78 85 9 -1 37 -20 64 -45z"/>
 </g>

</svg>