<!DOCTYPE svg PUBLIC "-//W3C//DTD SVG 20010904//EN" "http://www.w3.org/TR/2001/REC-SVG-20010904/DTD/svg10.dtd">
<svg version="1.0" xmlns="http://www.w3.org/2000/svg" width="1000px" height="648px" viewBox="0 0 10000 6480" preserveAspectRatio="xMidYMid meet">
<g id="layer101" fill="#191919" stroke="none">
 <path d="M9987 5433 c2 -577 6 -1055 7 -1063 2 -8 4 463 5 1048 0 584 -3 1062 -7 1062 -5 0 -7 -471 -5 -1047z"/>
 <path d="M2831 6421 c-14 -25 -33 -150 -25 -162 8 -14 34 9 34 30 0 25 12 37 43 45 25 6 27 4 27 -22 0 -31 24 -71 36 -59 4 4 7 33 5 65 -4 97 -15 111 -58 70 l-23 -21 0 20 c0 49 -21 68 -39 34z"/>
 <path d="M3191 6411 c-8 -5 -20 -7 -28 -4 -32 12 -38 -104 -6 -139 22 -24 58 -23 83 4 25 28 25 30 -5 58 -30 28 -23 44 16 36 34 -7 39 12 11 37 -20 19 -49 22 -71 8z m9 -111 c0 -5 -2 -10 -4 -10 -3 0 -8 5 -11 10 -3 6 -1 10 4 10 6 0 11 -4 11 -10z"/>
 <path d="M3326 6398 c-9 -35 -7 -111 4 -128 16 -26 28 2 32 75 2 58 0 70 -13 73 -10 2 -19 -6 -23 -20z"/>
 <path d="M4530 6406 c0 -8 5 -18 10 -21 6 -3 10 1 10 9 0 8 -4 18 -10 21 -5 3 -10 -1 -10 -9z"/>
 <path d="M3400 6392 c-26 -21 -31 -82 -11 -121 19 -35 36 -19 36 35 0 43 3 49 23 52 24 4 29 21 10 40 -17 17 -32 15 -58 -6z"/>
 <path d="M5560 6402 c0 -5 9 -35 20 -67 11 -32 20 -64 20 -70 0 -15 -38 -27 -46 -14 -3 5 -13 9 -23 9 -16 0 -17 4 -8 38 11 43 5 69 -18 78 -29 11 -43 -14 -41 -74 1 -52 3 -58 33 -77 18 -11 32 -26 33 -32 0 -18 12 -16 72 11 68 30 96 59 78 81 -7 9 -21 13 -30 10 -14 -4 -19 2 -24 29 -4 19 -16 46 -27 60 -20 26 -39 34 -39 18z"/>
 <path d="M3020 6381 c-18 -35 -12 -86 14 -110 l24 -22 26 34 c31 41 32 56 5 91 -24 31 -54 34 -69 7z"/>
 <path d="M5312 6368 c-7 -7 -12 -20 -12 -30 0 -22 -13 -23 -29 -4 -17 21 -69 30 -86 16 -8 -6 -15 -26 -17 -43 l-4 -32 -11 25 c-6 14 -20 33 -31 43 -32 30 -36 3 -8 -59 14 -31 26 -60 26 -64 0 -6 -82 -40 -96 -40 -2 0 -1 7 2 15 4 8 15 15 25 15 23 0 26 38 4 46 -8 4 -15 12 -15 20 0 18 -32 34 -69 34 -27 0 -31 -3 -31 -28 0 -16 9 -37 20 -47 26 -24 25 -28 -9 -48 l-28 -17 -18 48 c-21 57 -29 66 -49 59 -14 -6 -14 -12 4 -57 11 -28 20 -55 20 -60 0 -20 -24 -9 -57 25 -39 40 -48 42 -65 15 -16 -25 -28 -26 -28 -2 0 25 -35 58 -45 42 -9 -14 2 -73 21 -118 18 -43 54 -42 68 3 6 17 11 32 13 34 1 2 16 -10 32 -28 36 -38 53 -39 125 -2 31 15 59 24 62 20 10 -17 62 -9 98 16 43 29 49 30 66 10 30 -36 110 2 110 53 0 25 -35 52 -67 52 -30 0 -30 28 0 32 35 5 68 -14 74 -44 3 -15 11 -29 18 -32 8 -3 11 -13 8 -25 -8 -30 21 -37 48 -12 13 12 29 21 36 21 7 0 13 4 13 9 0 13 -28 33 -38 27 -5 -3 -8 5 -8 16 1 13 -8 27 -22 34 -25 13 -15 28 12 18 22 -9 21 25 -1 42 -22 17 -45 18 -61 2z m-287 -108 c-3 -5 -10 -10 -16 -10 -5 0 -9 5 -9 10 0 6 7 10 16 10 8 0 12 -4 9 -10z m222 -47 c-16 -16 -18 -16 -34 0 -16 16 -15 17 17 17 32 0 33 -1 17 -17z"/>
 <path d="M4634 6218 c3 -13 11 -50 19 -82 22 -100 56 -78 37 24 -11 58 -24 80 -47 80 -11 0 -14 -7 -9 -22z"/>
 <path d="M3137 6192 c-3 -4 2 -25 10 -47 20 -51 59 -197 68 -254 l7 -43 -38 6 c-22 4 -235 9 -474 11 -550 5 -687 -7 -888 -80 -174 -63 -289 -168 -378 -346 -25 -49 -25 -50 -7 -82 21 -36 59 -48 69 -22 5 11 -2 24 -20 39 l-28 21 60 90 c67 101 92 127 176 180 117 74 260 117 456 136 146 14 744 18 942 6 l137 -9 5 -29 c3 -16 9 -43 12 -60 l6 -32 -88 7 c-49 4 -240 9 -424 11 -367 5 -404 2 -665 -56 -370 -82 -537 -172 -511 -275 9 -34 30 -25 34 15 3 24 12 38 40 56 87 57 428 155 665 190 158 23 759 23 918 -1 35 -5 37 -8 44 -52 6 -44 107 -357 126 -394 13 -24 -4 -23 -26 2 -23 25 -39 12 -26 -22 13 -35 50 -56 89 -50 56 8 92 91 54 125 -17 16 -21 16 -32 2 -23 -28 -37 -15 -64 63 -28 79 -85 286 -86 311 0 26 298 -1 650 -60 102 -17 187 -33 189 -35 3 -2 -5 -17 -16 -32 -11 -15 -28 -42 -37 -60 -20 -39 -36 -34 -36 12 0 35 -21 62 -40 51 -6 -4 -10 -52 -10 -120 0 -103 2 -115 20 -125 16 -8 29 -2 77 36 32 26 60 48 61 50 11 8 -12 44 -28 44 -18 0 -17 5 11 53 49 83 46 81 136 68 43 -6 94 -13 113 -16 87 -10 211 -39 270 -62 183 -72 280 -141 280 -198 0 -18 6 -38 14 -45 12 -9 16 -6 21 23 9 48 0 72 -49 125 -29 31 -70 59 -137 91 -166 80 -206 92 -413 122 -77 11 -142 21 -144 23 -2 2 22 43 53 90 67 101 57 99 240 61 159 -33 198 -46 340 -115 178 -86 288 -192 316 -305 9 -34 9 -53 1 -70 -13 -28 -67 -64 -135 -89 -48 -18 -65 -36 -52 -55 6 -11 121 28 163 55 70 46 79 142 23 249 -62 119 -235 246 -441 324 -58 23 -232 65 -313 76 -46 7 -47 8 -33 29 40 55 87 150 120 236 40 105 45 143 20 138 -9 -2 -34 -49 -63 -121 -27 -64 -60 -135 -75 -157 -14 -22 -26 -42 -26 -45 0 -3 -10 -19 -22 -35 -20 -28 -27 -30 -82 -30 -34 1 -108 5 -166 10 -259 25 -495 40 -616 40 -72 0 -151 3 -176 6 l-44 6 -13 77 c-28 165 -89 305 -114 263z m388 -403 c139 -2 432 -21 500 -34 16 -3 79 -8 140 -11 60 -4 112 -8 114 -10 5 -5 -93 -156 -105 -161 -6 -2 -74 7 -150 21 -212 39 -413 65 -577 75 -82 5 -150 11 -152 13 -3 2 -7 30 -11 63 l-7 58 49 -6 c27 -4 117 -7 199 -8z m549 -485 c-37 -29 -44 -30 -44 -1 0 20 5 23 36 24 l37 1 -29 -24z"/>
 <path d="M4670 6002 c0 -10 6 -26 13 -37 18 -23 32 -4 23 31 -7 28 -36 33 -36 6z"/>
 <path d="M9449 5644 c-27 -28 -40 -34 -75 -34 -34 0 -47 -5 -63 -26 -49 -62 -4 -147 85 -161 28 -5 40 -1 59 17 28 26 31 48 13 98 -12 31 -10 38 14 82 34 61 16 74 -33 24z m-53 -94 c22 0 24 -3 18 -22 -3 -13 -14 -32 -23 -43 -8 -11 -17 -22 -18 -24 -1 -2 -9 1 -17 8 -24 20 -29 61 -9 90 14 22 18 23 21 9 2 -12 13 -18 28 -18z"/>
 <path d="M2011 5485 c-11 -14 -27 -58 -35 -98 -9 -40 -28 -98 -43 -129 l-26 -57 69 -64 c38 -36 72 -63 77 -60 18 11 3 41 -43 88 l-51 51 20 45 c10 24 24 75 31 112 8 43 21 79 36 96 13 16 21 31 17 35 -13 12 -32 5 -52 -19z"/>
 <path d="M9248 5409 c-19 -10 -25 -54 -9 -63 5 -3 14 1 21 9 7 8 16 15 21 15 18 0 20 -94 5 -212 -26 -205 -20 -318 19 -318 21 0 29 39 15 80 -10 30 -8 63 8 191 24 182 19 250 -23 287 -29 25 -33 26 -57 11z"/>
 <path d="M8214 5320 c3 -16 9 -43 12 -60 3 -17 1 -30 -4 -30 -6 0 -17 -3 -25 -6 -11 -4 -17 3 -22 25 -9 41 -54 89 -65 70 -6 -8 -4 -19 4 -29 7 -8 18 -31 25 -50 9 -28 9 -37 -2 -45 -48 -35 -62 -108 -32 -167 l16 -33 -46 -42 c-26 -23 -44 -46 -41 -52 14 -21 46 -11 87 29 41 39 44 40 77 29 19 -6 58 -9 88 -7 37 3 54 1 54 -7 0 -6 15 -29 34 -51 25 -28 37 -36 46 -28 8 8 6 20 -7 45 -10 19 -21 36 -25 37 -13 6 -9 22 5 22 8 0 23 11 36 23 17 19 31 24 70 22 26 -1 58 -9 72 -18 13 -9 31 -17 41 -17 27 0 31 19 6 29 -24 9 -78 61 -64 61 5 0 3 7 -4 15 -13 16 -11 17 34 19 29 1 57 29 43 43 -4 4 -21 2 -38 -4 l-30 -12 6 32 c4 18 11 36 16 41 10 11 -8 36 -26 36 -13 0 -32 -38 -39 -80 -3 -14 -5 -26 -5 -28 -3 -10 -41 21 -41 33 0 8 -10 21 -23 30 -22 14 -23 18 -13 71 8 45 7 57 -5 65 -25 16 -29 10 -29 -46 l0 -55 -62 7 c-65 6 -78 14 -78 48 0 24 -26 65 -41 65 -6 0 -8 -12 -5 -30z m202 -145 c31 -20 33 -84 5 -124 -45 -63 -230 -84 -273 -31 -29 36 -20 106 18 136 53 43 197 54 250 19z"/>
 <path d="M1526 5314 c-22 -57 4 -229 70 -459 46 -160 53 -182 79 -240 12 -27 26 -61 30 -74 21 -68 132 -230 194 -283 l41 -35 -93 -48 c-157 -83 -202 -105 -213 -105 -6 0 -21 -11 -34 -25 -20 -22 -21 -25 -6 -31 20 -8 96 20 145 53 19 13 45 26 58 29 13 4 23 10 23 14 0 4 12 13 28 19 15 7 47 23 72 36 25 14 51 25 59 25 8 0 49 -16 90 -36 42 -20 90 -42 106 -50 17 -7 59 -21 95 -30 80 -19 192 -54 205 -64 6 -4 24 -10 40 -14 48 -11 165 -67 226 -108 107 -71 172 -170 191 -292 6 -42 9 -78 7 -80 -3 -3 -36 -1 -74 5 -55 8 -113 5 -275 -11 -113 -12 -212 -24 -220 -27 -8 -3 -40 -11 -70 -18 -60 -13 -232 -74 -240 -84 -3 -4 -16 -12 -30 -19 -46 -23 -99 -56 -215 -135 -121 -83 -194 -160 -206 -218 -6 -26 -3 -32 18 -40 32 -12 46 -3 31 20 -9 15 -7 24 11 49 29 41 113 111 176 147 28 16 64 38 80 50 41 30 168 102 197 110 13 4 37 13 53 20 140 61 408 100 656 97 l146 -3 5 52 c3 29 0 74 -7 101 -8 27 -9 50 -4 53 5 4 1 18 -8 33 -55 90 -86 132 -125 168 -50 48 -203 135 -280 159 -29 9 -60 20 -68 24 -8 4 -49 18 -90 30 -175 52 -207 64 -277 96 -40 18 -73 37 -73 42 0 4 18 16 40 25 l40 17 -6 -24 c-7 -29 11 -41 39 -25 29 15 103 109 110 138 7 28 -17 42 -72 42 -55 0 -75 -8 -60 -26 6 -8 19 -14 29 -14 42 0 23 -16 -68 -56 -53 -24 -103 -43 -110 -44 -18 0 -106 84 -146 139 -35 48 -87 147 -130 245 -22 48 -69 206 -117 386 -20 75 -39 198 -39 253 0 42 -4 57 -14 57 -8 0 -17 -7 -20 -16z"/>
 <path d="M9554 5285 c-4 -9 -4 -40 -2 -70 l5 -55 -34 0 c-23 0 -33 -5 -33 -15 0 -12 16 -15 86 -15 64 0 85 3 82 12 -3 7 -18 17 -35 21 -29 9 -31 13 -37 68 -7 59 -21 83 -32 54z"/>
 <path d="M2855 5225 c-16 -9 -46 -31 -65 -49 -29 -28 -48 -35 -110 -45 -48 -8 -104 -26 -156 -51 -108 -53 -140 -53 -188 1 -20 22 -41 51 -46 65 -14 36 -43 32 -38 -6 3 -22 1 -30 -11 -30 -8 0 -25 -10 -38 -22 -19 -17 -33 -21 -72 -19 -40 2 -51 -1 -60 -17 -14 -26 5 -45 31 -31 10 5 34 7 52 3 28 -5 36 -2 45 15 7 12 17 18 26 15 8 -4 15 -1 15 5 0 20 22 11 69 -26 63 -53 114 -51 230 5 71 35 168 60 208 53 3 0 8 -24 9 -53 2 -29 5 -68 9 -85 3 -18 2 -33 -2 -33 -4 -1 -53 -5 -108 -9 -94 -8 -100 -7 -117 13 -27 32 -38 6 -38 -89 0 -44 -3 -91 -7 -104 -6 -24 -7 -24 -38 14 -44 51 -59 41 -51 -35 4 -32 3 -61 -2 -64 -5 -3 -15 -26 -22 -51 -7 -25 -17 -48 -21 -51 -11 -7 -11 -15 0 -33 8 -12 18 -7 56 24 l47 38 -7 -59 c-4 -32 -12 -79 -17 -104 -19 -93 -35 -84 162 -93 334 -14 387 -19 360 -29 -14 -5 -68 -11 -120 -13 -52 -1 -108 -8 -123 -14 -46 -18 -76 -13 -123 21 -42 30 -47 31 -77 19 -78 -31 -106 -35 -141 -16 -37 20 -69 14 -64 -12 2 -10 22 -23 51 -32 40 -12 55 -13 90 -2 83 24 86 24 127 -3 45 -30 85 -33 148 -11 29 10 60 13 95 9 34 -4 82 0 131 10 104 21 123 20 178 -9 55 -29 88 -31 149 -9 24 8 72 16 106 17 35 1 63 5 63 8 0 3 -9 14 -20 24 -22 19 -77 16 -152 -11 -61 -21 -105 -18 -140 11 -25 21 -27 26 -13 31 14 6 15 20 9 122 -6 103 -5 115 9 109 8 -3 31 -9 50 -12 30 -6 36 -12 41 -40 4 -18 13 -39 22 -45 12 -11 19 -9 40 11 21 20 27 21 35 9 6 -8 12 -11 15 -5 15 36 46 75 59 75 16 0 20 27 6 49 -5 8 -16 11 -25 8 -10 -4 -20 1 -26 13 -15 27 -35 25 -59 -6 -24 -31 -41 -24 -41 18 0 26 2 29 15 18 12 -10 18 -8 34 11 16 20 21 21 35 10 14 -12 22 -8 58 23 60 51 62 53 74 49 18 -6 22 30 12 89 -13 71 -6 153 16 177 19 21 14 41 -9 41 -21 0 -48 -58 -49 -105 0 -22 3 -71 7 -108 5 -48 4 -67 -3 -62 -6 3 -29 -8 -53 -25 -38 -28 -43 -29 -54 -14 -11 15 -8 21 20 41 36 27 42 57 12 61 -32 4 -78 -45 -73 -79 3 -21 0 -27 -13 -26 -13 1 -16 8 -12 38 7 51 -12 59 -51 20 -31 -31 -31 -32 -9 -37 19 -5 22 -11 16 -33 -4 -14 -8 -50 -7 -78 0 -51 0 -52 -25 -46 -70 16 -68 14 -60 99 4 43 15 108 24 145 26 106 15 117 -130 121 l-80 3 -5 99 c-3 67 -9 101 -17 104 -7 2 -13 -2 -13 -9 0 -8 -7 -6 -20 6 -24 21 -32 16 -35 -22 -3 -48 -4 -51 -26 -56 -13 -4 -20 -12 -17 -24 2 -13 14 -19 45 -21 31 -2 42 -8 46 -23 4 -16 2 -19 -11 -14 -38 15 -73 17 -86 6 -12 -10 -16 -6 -22 23 -3 20 -3 48 2 63 4 16 7 33 6 39 -1 5 11 23 28 39 35 34 107 45 158 24 17 -8 72 -53 121 -101 83 -83 91 -88 131 -88 24 0 88 16 144 35 110 37 166 47 209 34 34 -10 49 14 24 39 -25 24 -113 17 -214 -17 -49 -17 -112 -33 -141 -37 l-53 -7 -69 71 c-104 106 -130 123 -197 129 -42 3 -66 0 -88 -12z m58 -145 c-6 -22 -18 -26 -28 -10 -8 13 14 42 25 35 5 -3 6 -14 3 -25z m-6 -135 c7 2 13 0 13 -5 0 -6 -15 -10 -32 -10 -18 0 -43 -3 -54 -6 -15 -4 -23 0 -26 14 -5 17 -2 18 41 10 25 -4 51 -6 58 -3z m220 -63 c10 -6 9 -24 -4 -83 -11 -52 -16 -129 -17 -261 l-1 -188 -120 0 c-136 1 -505 16 -510 22 -8 7 24 200 35 214 7 7 9 25 6 39 -4 14 -3 25 2 25 5 0 9 34 10 76 2 119 0 115 104 129 l47 6 -5 -38 c-3 -21 -10 -48 -16 -60 -25 -52 8 -64 160 -56 84 5 102 9 103 22 2 34 -3 126 -6 130 -3 2 -21 -4 -41 -14 -29 -14 -51 -16 -98 -11 -75 8 -99 26 -36 27 25 0 92 6 150 14 123 15 220 18 237 7z m-247 -114 c0 -14 -11 -16 -87 -15 -72 2 -88 5 -91 18 -2 14 10 16 88 15 77 -1 90 -3 90 -18z m-412 -100 c16 -16 15 -23 -4 -42 -24 -24 -30 -19 -26 19 4 37 11 42 30 23z m877 -117 c-3 -6 -11 -11 -17 -11 -6 0 -6 6 2 15 14 17 26 13 15 -4z m-56 -47 c-17 -21 -31 -17 -17 5 7 11 16 17 20 14 5 -2 4 -11 -3 -19z"/>
 <path d="M2925 4698 c-11 -6 -27 -14 -35 -18 -8 -4 -17 -15 -18 -25 -4 -16 1 -17 43 -10 42 6 47 5 41 -10 -3 -9 -6 -25 -6 -36 0 -16 -7 -19 -51 -19 -48 0 -51 1 -46 23 6 27 -4 68 -18 70 -13 3 -24 -115 -12 -130 13 -17 131 -17 145 0 6 7 16 43 23 80 11 58 11 70 -2 78 -18 11 -39 11 -64 -3z"/>
 <path d="M2598 4683 c-41 -5 -49 -24 -27 -65 10 -18 9 -20 -5 -15 -25 10 -33 -23 -11 -39 24 -18 129 -18 143 -1 5 6 12 37 13 67 l4 55 -40 1 c-22 1 -57 -1 -77 -3z m82 -57 c0 -23 -24 -35 -57 -28 -49 10 -23 37 40 41 9 0 17 -5 17 -13z"/>
 <path d="M4616 5228 c-5 -18 -36 -201 -36 -216 0 -26 29 -10 39 21 19 62 33 142 29 171 -3 31 -25 47 -32 24z"/>
 <path d="M9832 5187 c-13 -14 -22 -36 -22 -55 0 -30 -2 -32 -34 -32 -19 0 -37 -4 -40 -9 -10 -16 23 -34 49 -27 18 5 25 2 25 -9 0 -11 -10 -15 -36 -15 -46 0 -41 -24 7 -28 19 -2 43 -12 54 -21 33 -30 58 -39 82 -30 18 6 22 19 28 72 6 53 4 73 -13 110 -18 41 -45 67 -70 67 -5 0 -18 -10 -30 -23z m78 -112 c0 -29 3 -60 6 -69 10 -25 -32 -20 -50 6 -19 27 -22 128 -3 147 22 22 47 -23 47 -84z"/>
 <path d="M1834 5136 c-8 -22 3 -35 26 -29 12 3 20 12 18 22 -4 21 -36 27 -44 7z"/>
 <path d="M4685 5108 c-29 -16 -35 -29 -28 -58 11 -48 60 -79 78 -50 12 20 25 10 25 -19 0 -28 -1 -29 -31 -21 -18 5 -40 17 -50 26 -24 21 -37 11 -44 -34 -3 -20 -10 -59 -16 -85 -8 -35 -8 -52 -1 -59 15 -15 42 8 42 33 0 16 3 17 18 8 12 -8 17 -20 14 -34 -3 -20 0 -22 42 -22 49 -1 56 8 31 41 -17 22 -20 66 -5 66 6 0 10 -4 10 -10 0 -15 26 -12 39 4 10 11 7 18 -11 31 -22 15 -22 16 -4 30 14 10 17 22 13 43 -4 21 -1 31 15 41 26 16 16 25 -47 41 -27 8 -54 19 -60 26 -8 10 -15 10 -30 2z m30 -58 c3 -5 1 -10 -4 -10 -6 0 -11 5 -11 10 0 6 2 10 4 10 3 0 8 -4 11 -10z m-16 -129 c8 -5 11 -16 8 -25 -5 -14 -10 -14 -26 -4 -10 6 -17 18 -14 25 6 15 13 16 32 4z"/>
 <path d="M9672 5099 c-10 -15 -19 -19 -35 -14 -12 3 -65 11 -117 15 -78 8 -97 7 -109 -5 -20 -20 -10 -22 122 -30 59 -4 107 -11 107 -15 0 -5 -14 -8 -30 -8 -17 1 -39 -7 -51 -18 -21 -19 -21 -19 -18 1 3 14 -2 20 -16 21 -11 1 -28 5 -37 9 -33 14 -48 -1 -46 -46 1 -32 6 -43 25 -52 28 -12 31 -51 6 -66 -23 -13 -13 -22 28 -24 27 -2 34 2 38 21 l6 24 19 -21 c11 -12 31 -21 48 -21 15 0 28 -4 28 -10 0 -16 22 -12 36 8 18 24 18 116 0 132 -13 10 -12 18 7 56 13 29 18 47 11 54 -6 6 -14 2 -22 -11z m-178 -95 c8 -21 8 -24 -3 -24 -5 0 -11 9 -14 20 -6 24 8 27 17 4z m140 -13 c20 -21 27 -37 24 -57 -3 -26 -7 -29 -38 -29 -32 0 -35 2 -38 34 -4 39 5 81 16 81 5 0 21 -13 36 -29z"/>
 <path d="M4115 5069 c-147 -7 -203 -13 -249 -29 -71 -24 -109 -25 -126 -5 -7 8 -20 15 -30 15 -10 0 -23 -7 -30 -15 -7 -8 -19 -15 -26 -15 -8 0 -14 -5 -14 -11 0 -8 14 -9 43 -5 33 5 47 3 57 -9 16 -19 60 -19 107 0 57 24 223 49 236 36 14 -14 133 -14 217 0 36 6 90 11 119 11 49 0 58 -3 81 -32 17 -21 31 -29 42 -25 21 8 29 28 17 46 -6 11 -11 11 -21 1 -16 -16 -28 -15 -28 2 0 8 -10 22 -22 30 -25 18 -62 18 -373 5z"/>
 <path d="M4017 5006 c-3 -8 2 -30 12 -50 14 -27 15 -36 6 -40 -8 -3 -16 6 -20 22 -8 33 -24 54 -36 46 -5 -3 -9 0 -9 5 0 6 -9 11 -20 11 -18 0 -19 -6 -18 -106 2 -120 7 -128 81 -122 l42 3 7 -79 c9 -95 37 -158 86 -191 61 -41 73 -32 64 47 l-5 48 43 -23 c23 -12 53 -28 67 -35 34 -19 49 -10 51 30 1 18 5 46 10 62 l8 28 29 -43 c26 -39 30 -41 33 -21 2 13 -10 41 -28 68 -22 33 -28 50 -21 57 6 6 11 23 11 37 0 44 65 90 126 90 32 0 31 -10 -10 -130 -41 -120 -80 -192 -101 -184 -20 8 -21 -39 -2 -55 11 -8 18 -7 29 7 32 36 71 119 110 234 38 110 39 120 25 142 -28 41 -111 42 -173 1 -13 -8 -29 -34 -35 -57 -7 -24 -14 -45 -16 -47 -1 -2 -21 13 -43 33 -43 38 -59 43 -78 24 -31 -31 -5 -79 72 -133 27 -19 28 -24 22 -68 l-7 -47 -32 24 c-18 14 -44 28 -59 31 -41 10 -35 29 7 22 19 -3 35 -2 35 3 0 11 -64 50 -83 50 -16 0 -27 29 -27 73 0 20 13 40 45 70 33 32 45 51 45 72 0 16 7 36 16 46 9 10 13 23 9 28 -8 15 -58 14 -73 -1 -8 -8 -15 -8 -26 1 -12 10 -20 9 -39 -4 -17 -11 -27 -13 -32 -6 -13 22 -36 12 -33 -15 2 -16 -3 -29 -11 -32 -9 -3 -12 0 -9 10 7 17 -17 78 -30 78 -6 0 -12 -6 -15 -14z m-17 -107 c0 -4 -7 -9 -15 -13 -11 -4 -15 2 -15 27 1 30 1 31 15 13 8 -11 15 -23 15 -27z m210 15 c0 -9 -20 -24 -47 -36 -27 -11 -67 -29 -90 -39 -42 -19 -93 -25 -93 -11 0 11 57 42 135 73 82 33 95 34 95 13z m-80 -151 c0 -16 11 -73 25 -127 14 -55 22 -102 19 -105 -3 -3 -16 6 -29 21 -35 40 -55 154 -39 216 9 31 24 28 24 -5z m205 -41 c-7 -7 -45 29 -45 41 0 6 11 0 25 -13 14 -13 23 -26 20 -28z"/>
 <path d="M8480 4984 c0 -24 74 -94 99 -94 31 0 26 22 -16 62 -45 43 -83 58 -83 32z"/>
 <path d="M3569 4983 c-1 -7 -7 -92 -12 -182 -1 -19 3 -36 9 -38 21 -7 53 152 40 201 -6 23 -34 37 -37 19z"/>
 <path d="M8174 4939 c-3 -6 -3 -13 0 -16 9 -9 -24 -43 -41 -43 -23 0 -10 -35 14 -38 23 -3 73 43 73 68 0 20 -37 43 -46 29z"/>
 <path d="M1365 4920 c3 -5 8 -10 11 -10 2 0 4 5 4 10 0 6 -5 10 -11 10 -5 0 -7 -4 -4 -10z"/>
 <path d="M4922 4917 c-5 -6 -24 -75 -41 -152 -34 -155 -73 -247 -153 -365 -111 -162 -143 -196 -226 -237 l-77 -39 -27 32 c-16 17 -36 34 -46 36 -42 11 -89 -30 -63 -55 10 -9 16 -8 27 8 14 19 15 19 37 -4 13 -13 16 -21 8 -19 -8 2 -21 -9 -28 -23 -10 -20 -38 -38 -111 -69 -228 -98 -274 -130 -348 -241 -49 -75 -67 -121 -90 -237 -19 -99 -18 -104 9 -100 14 2 23 11 25 26 3 18 8 22 20 16 9 -4 48 -15 86 -25 38 -11 76 -24 85 -31 9 -7 42 -34 74 -60 32 -27 62 -48 66 -48 4 0 8 -13 8 -30 0 -16 -4 -30 -8 -30 -4 0 -14 -2 -21 -5 -9 -4 -19 4 -26 20 -7 15 -17 23 -23 19 -6 -3 -31 8 -55 26 -48 34 -70 31 -76 -12 -4 -30 -21 -32 -33 -6 -11 25 -57 44 -119 49 l-39 4 -20 -58 c-16 -43 -19 -62 -11 -75 28 -43 118 -39 165 7 29 29 49 25 49 -10 0 -38 34 -45 113 -23 10 3 17 0 17 -9 0 -19 47 -50 61 -41 6 3 9 17 6 31 -3 19 2 27 25 39 16 8 34 26 40 39 6 14 17 25 24 25 22 0 44 -30 44 -61 0 -26 -3 -29 -25 -23 -18 4 -27 1 -31 -11 -11 -27 10 -37 86 -38 80 -2 114 15 65 33 -14 5 -35 10 -46 10 -15 0 -19 7 -19 34 l0 35 63 -26 c113 -46 276 -134 345 -187 75 -58 219 -139 236 -133 16 6 -55 70 -101 92 -48 23 -117 69 -163 111 -39 35 -262 153 -349 183 -113 40 -127 47 -191 88 -36 23 -83 58 -106 78 -36 30 -51 36 -119 45 -43 5 -80 12 -83 15 -9 8 18 117 40 165 65 139 167 220 388 305 95 36 310 148 350 182 89 77 223 282 279 428 20 55 61 239 61 279 0 29 -14 41 -28 23z m-1054 -1612 c24 -8 11 -36 -23 -51 -56 -23 -65 -19 -65 26 l0 41 38 -6 c20 -4 43 -8 50 -10z m152 -11 c0 -2 -7 -4 -15 -4 -8 0 -15 4 -15 10 0 5 7 7 15 4 8 -4 15 -8 15 -10z m34 -10 c9 -3 16 -15 16 -25 0 -16 -7 -19 -47 -17 -38 1 -41 2 -15 5 27 4 32 8 27 24 -7 21 -5 22 19 13z"/>
 <path d="M9577 4813 c3 -21 14 -46 24 -55 11 -9 26 -34 33 -55 7 -22 21 -39 31 -42 13 -2 16 1 11 14 -3 9 -9 34 -12 56 -6 35 -5 39 16 39 26 0 22 23 -6 29 -10 1 -33 14 -51 27 -44 33 -53 31 -46 -13z"/>
 <path d="M4631 4777 c-17 -17 -13 -31 14 -57 32 -30 31 -33 -4 -47 -16 -6 -34 -21 -41 -33 -12 -22 -11 -22 16 -16 64 15 69 14 66 -21 -3 -25 0 -32 11 -27 30 11 49 78 32 116 -5 12 1 25 20 42 24 23 25 25 8 34 -29 15 -110 21 -122 9z"/>
 <path d="M3493 4690 c-42 -25 -62 -65 -56 -115 5 -51 24 -80 62 -93 28 -10 32 -8 52 19 27 38 30 146 5 185 -20 29 -22 29 -63 4z m38 -84 c-7 -13 -10 -33 -6 -45 8 -26 -18 -39 -40 -21 -23 19 -18 54 12 84 32 32 54 21 34 -18z"/>
 <path d="M8235 4670 c-4 -6 -15 -8 -25 -5 -15 5 -21 -1 -29 -32 -6 -21 -12 -54 -13 -73 l-3 -35 53 1 c62 2 82 15 65 43 -7 11 -8 23 -2 32 5 8 9 29 9 47 0 27 -4 32 -24 32 -14 0 -28 -5 -31 -10z m2 -58 c-10 -10 -17 -28 -17 -40 0 -12 -4 -22 -10 -22 -11 0 -13 24 -4 58 4 14 14 22 27 22 19 0 19 -1 4 -18z"/>
 <path d="M8372 4634 c-32 -22 -28 -87 6 -92 18 -3 26 4 38 34 24 57 -1 89 -44 58z m22 -49 c-4 -8 -8 -15 -10 -15 -2 0 -4 7 -4 15 0 8 4 15 10 15 5 0 7 -7 4 -15z"/>
 <path d="M8472 4627 c-42 -45 -17 -117 40 -117 31 0 28 18 -7 39 -31 18 -34 23 -25 41 6 11 17 20 25 20 17 0 20 -16 5 -25 -18 -11 -10 -26 12 -23 29 4 47 50 28 72 -18 23 -53 20 -78 -7z"/>
 <path d="M9845 4640 c-3 -5 1 -26 10 -46 11 -28 12 -40 4 -50 -19 -23 -34 -16 -44 18 -12 37 -35 50 -35 19 0 -23 -10 -27 -26 -11 -5 5 -33 11 -61 14 -28 2 -56 7 -62 10 -21 13 -28 -4 -20 -51 8 -52 7 -54 -33 -71 -19 -8 -29 -8 -34 -1 -3 6 3 13 15 16 16 4 21 13 21 40 0 37 -15 73 -30 73 -6 0 -10 -8 -10 -17 0 -13 -3 -14 -12 -5 -17 17 -39 15 -54 -5 -12 -16 -13 -16 -14 -2 0 21 -24 31 -38 17 -6 -6 -12 -6 -16 1 -10 15 -51 14 -65 -3 -12 -14 -10 -124 3 -145 7 -11 72 -8 85 4 7 8 -14 26 -33 29 -25 4 -20 19 8 22 17 2 26 -3 29 -17 8 -32 34 -22 50 20 23 57 42 65 34 14 -9 -54 14 -88 52 -77 14 4 51 10 81 13 46 5 54 9 52 24 -3 15 0 16 17 5 15 -9 25 -9 46 0 32 15 55 15 55 2 0 -5 -11 -10 -25 -10 -28 0 -32 -12 -11 -30 22 -18 67 8 89 50 10 19 23 34 29 32 6 -2 18 0 26 3 13 5 12 9 -6 28 -12 12 -28 39 -37 60 -15 37 -28 46 -40 27z m-425 -90 c0 -21 -33 -29 -45 -10 -9 15 4 30 26 30 12 0 19 -7 19 -20z m270 -27 c0 -13 -3 -13 -15 -3 -8 7 -12 16 -9 21 8 13 24 1 24 -18z m60 -7 c-13 -13 -35 7 -25 24 5 8 11 8 21 -1 10 -8 12 -15 4 -23z"/>
 <path d="M7995 4620 c-8 -14 3 -30 21 -30 16 0 16 2 8 24 -7 18 -20 21 -29 6z"/>
 <path d="M8670 4616 c0 -7 -9 -25 -20 -39 -11 -14 -20 -32 -20 -41 0 -21 43 -48 64 -40 23 9 20 34 -4 34 -24 0 -25 9 -5 36 19 25 19 64 0 64 -8 0 -15 -6 -15 -14z"/>
 <path d="M4597 4590 c-14 -11 -29 -35 -33 -52 -3 -18 -11 -40 -17 -49 -8 -12 -5 -22 11 -40 29 -30 28 -35 -8 -42 -20 -5 -31 -14 -36 -31 -8 -34 3 -48 34 -44 21 2 28 -2 30 -19 3 -19 0 -21 -37 -16 -33 5 -41 2 -41 -10 0 -18 55 -48 73 -41 7 2 20 23 31 47 10 23 23 51 28 62 8 15 7 22 -5 29 -13 8 -12 12 9 29 32 24 31 60 -1 77 -14 7 -25 17 -25 22 0 9 18 0 56 -27 18 -14 23 -14 33 -1 11 13 -4 29 -68 73 -2 1 2 9 8 17 13 15 7 36 -8 36 -5 0 -20 -9 -34 -20z m23 -140 c0 -5 -2 -10 -4 -10 -3 0 -8 5 -11 10 -3 6 -1 10 4 10 6 0 11 -4 11 -10z"/>
 <path d="M4261 4478 c-39 -21 -63 -63 -69 -118 -4 -49 -3 -52 37 -90 58 -56 162 -80 191 -45 11 13 15 13 21 3 14 -21 10 -30 -10 -23 -23 7 -39 -14 -20 -26 24 -15 65 -10 84 11 10 11 26 22 37 26 24 7 15 18 -33 42 -40 20 -51 57 -20 65 27 7 28 37 2 37 -11 0 -26 3 -35 6 -13 5 -16 -1 -16 -30 0 -89 -102 -114 -177 -44 -34 32 -30 73 12 115 31 31 39 34 71 28 43 -8 71 -19 102 -41 27 -20 29 -5 2 29 -39 49 -134 78 -179 55z"/>
 <path d="M8295 4448 c-24 -19 -31 -20 -59 -10 -44 16 -59 15 -73 -6 -19 -32 -3 -71 45 -108 43 -32 46 -33 64 -18 11 11 18 31 18 52 0 26 8 42 35 66 50 46 24 67 -30 24z m-44 -64 c13 -36 4 -42 -28 -18 -37 28 -40 44 -9 44 19 0 29 -7 37 -26z"/>
 <path d="M8958 4438 c-3 -7 1 -24 9 -38 13 -25 17 -50 8 -50 -2 0 -20 9 -40 20 -46 26 -54 25 -65 -5 -15 -38 -34 -31 -27 10 6 36 -9 58 -24 34 -14 -22 -10 -85 6 -99 16 -13 48 -6 70 17 15 14 20 14 55 -2 52 -24 64 -14 57 47 -8 63 -37 102 -49 66z"/>
 <path d="M8560 4403 l-22 -28 -15 23 c-9 12 -19 22 -24 22 -15 0 -10 -36 9 -61 10 -13 22 -33 26 -44 6 -18 9 -17 28 13 11 17 24 32 30 32 5 0 7 9 3 19 -3 11 -1 22 5 26 15 9 12 25 -4 25 -8 0 -24 -12 -36 -27z"/>
 <path d="M8643 4418 c-13 -17 -26 -98 -15 -98 14 0 32 24 32 43 0 16 5 18 33 12 l32 -7 -29 31 c-33 34 -39 37 -53 19z"/>
 <path d="M8007 4413 c-13 -12 -7 -33 8 -33 8 0 15 9 15 20 0 20 -11 26 -23 13z"/>
 <path d="M8381 4406 c-7 -8 -15 -30 -18 -50 -7 -45 13 -49 28 -6 6 17 15 30 20 30 5 0 12 -13 16 -30 3 -16 9 -30 13 -30 17 0 19 34 4 66 -17 36 -43 44 -63 20z"/>
 <path d="M8754 4385 c-8 -19 2 -45 16 -45 5 0 10 14 10 30 0 31 -16 41 -26 15z"/>
 <path d="M9990 4340 c0 -7 3 -10 7 -7 3 4 3 10 0 14 -4 3 -7 0 -7 -7z"/>
 <path d="M8730 4296 c0 -8 4 -17 9 -20 10 -7 23 19 14 28 -11 11 -23 6 -23 -8z"/>
 <path d="M9990 4300 c0 -7 3 -10 7 -7 3 4 3 10 0 14 -4 3 -7 0 -7 -7z"/>
 <path d="M9000 4258 c0 -13 7 -35 14 -50 13 -25 13 -28 0 -28 -17 0 -33 -37 -26 -62 6 -23 19 -23 27 1 4 13 12 17 25 14 27 -7 27 30 1 90 -23 53 -41 68 -41 35z"/>
 <path d="M8606 4233 c-4 -8 -6 -26 -6 -39 0 -13 -5 -33 -12 -43 -9 -15 -9 -23 2 -36 19 -23 65 -16 66 10 0 11 6 30 13 43 20 38 10 65 -26 73 -23 4 -33 2 -37 -8z m36 -45 c-7 -7 -12 -8 -12 -2 0 14 12 26 19 19 2 -3 -1 -11 -7 -17z"/>
 <path d="M3526 4232 c-3 -6 -3 -13 1 -15 23 -14 138 -37 185 -37 30 0 89 -3 130 -6 l76 -7 -74 -97 c-79 -104 -114 -173 -114 -224 0 -17 -9 -49 -20 -71 -21 -41 -28 -101 -10 -90 24 15 60 106 60 150 0 25 7 60 16 78 19 36 167 225 192 245 9 6 40 12 70 12 38 0 52 4 50 13 -5 12 -18 13 -353 36 -82 5 -162 13 -176 16 -15 4 -29 2 -33 -3z"/>
 <path d="M8914 4215 c-4 -9 -4 -31 -1 -50 3 -19 2 -35 -4 -35 -14 0 -11 -30 4 -34 48 -16 67 -16 67 -1 0 9 -6 18 -14 21 -8 3 -17 27 -21 55 -7 52 -21 71 -31 44z"/>
 <path d="M8517 4197 c-13 -19 -18 -21 -37 -9 -31 19 -36 8 -17 -32 8 -19 13 -43 10 -54 -2 -11 -1 -22 4 -25 10 -6 73 96 73 118 0 24 -17 25 -33 2z"/>
 <path d="M8700 4171 c0 -50 12 -67 24 -35 11 27 6 61 -9 74 -13 11 -15 6 -15 -39z"/>
 <path d="M8754 4196 c-8 -21 15 -98 27 -90 6 3 9 18 7 32 -2 22 2 28 20 30 25 4 28 12 10 30 -16 16 -57 15 -64 -2z"/>
 <path d="M8846 4185 c-4 -14 -3 -33 2 -41 8 -14 10 -14 21 0 15 17 11 58 -5 63 -7 2 -15 -8 -18 -22z"/>
 <path d="M8386 4193 c-3 -3 -6 -21 -6 -39 0 -30 -3 -33 -32 -36 -49 -5 -43 -32 7 -38 22 -3 50 -4 63 -1 24 4 31 31 7 31 -11 0 -15 11 -15 39 0 38 -10 57 -24 44z"/>
 <path d="M2757 4183 c-9 -14 109 -240 161 -311 26 -35 56 -79 68 -98 26 -43 42 -60 49 -52 10 10 -52 130 -95 184 -22 28 -66 102 -98 164 -54 107 -73 133 -85 113z"/>
 <path d="M8252 4178 c-21 -21 -15 -40 11 -33 19 6 18 3 -8 -19 -25 -20 -28 -28 -19 -43 6 -10 21 -19 33 -21 17 -3 22 1 19 15 -1 11 6 32 16 48 13 20 16 33 9 44 -13 20 -45 25 -61 9z"/>
 <path d="M940 4100 c-30 -28 -32 -34 -27 -76 2 -24 13 -54 22 -64 20 -22 24 -23 44 -11 12 7 10 14 -8 36 -43 55 -11 107 56 90 24 -6 25 -8 10 -16 -23 -13 -22 -49 1 -49 10 0 23 5 29 11 9 9 13 -7 18 -59 9 -83 17 -101 38 -83 8 6 18 22 21 34 3 12 14 28 25 34 20 12 20 11 15 -31 -8 -52 10 -71 35 -37 16 21 18 21 32 4 9 -10 19 -26 23 -37 5 -15 9 -16 21 -6 8 7 15 23 15 35 0 13 8 36 17 53 10 18 14 36 9 48 -7 18 -8 18 -26 -4 -10 -12 -20 -28 -23 -35 -7 -20 -49 24 -43 45 4 19 -28 58 -48 58 -5 0 -20 -9 -32 -21 -26 -24 -44 -18 -44 15 0 28 -39 72 -75 86 -44 17 -71 11 -105 -20z"/>
 <path d="M8830 4091 c0 -11 4 -21 9 -21 18 0 21 18 6 30 -13 10 -15 9 -15 -9z"/>
 <path d="M8662 4081 c4 -13 18 -16 19 -4 0 4 -5 9 -11 12 -7 2 -11 -2 -8 -8z"/>
 <path d="M3523 4058 c-58 -63 -83 -158 -59 -218 9 -22 16 -58 16 -79 0 -34 -7 -46 -50 -87 -46 -44 -63 -74 -42 -74 18 0 96 59 108 81 17 31 17 117 0 165 -7 22 -12 48 -10 58 4 30 45 105 70 129 17 16 20 25 12 34 -15 18 -21 16 -45 -9z"/>
 <path d="M9847 4063 c-13 -21 -18 -91 -7 -98 18 -11 29 6 32 54 3 40 -12 66 -25 44z"/>
 <path d="M9022 4025 c-29 -62 -1 -103 34 -50 24 36 37 31 30 -10 -5 -27 -4 -35 7 -35 18 0 27 21 27 60 0 34 -22 54 -50 45 -11 -4 -20 -2 -20 4 0 20 -17 11 -28 -14z"/>
 <path d="M9210 4035 c-10 -12 -16 -13 -27 -4 -22 19 -27 2 -13 -43 7 -24 14 -49 16 -56 6 -20 17 -8 43 43 29 59 16 102 -19 60z"/>
 <path d="M8922 4023 c-12 -23 -1 -63 20 -77 13 -8 22 -6 37 8 27 25 27 51 -1 70 -29 21 -45 20 -56 -1z m48 -33 c0 -5 -4 -10 -10 -10 -5 0 -10 5 -10 10 0 6 5 10 10 10 6 0 10 -4 10 -10z"/>
 <path d="M9270 4021 c0 -34 12 -81 21 -81 5 0 9 14 9 30 0 20 5 30 15 30 21 0 19 17 -4 30 -29 15 -41 12 -41 -9z"/>
 <path d="M8745 4009 c-6 -17 -13 -20 -36 -15 -36 7 -38 -9 -8 -72 18 -35 24 -41 34 -30 10 11 35 102 35 129 0 18 -19 9 -25 -12z"/>
 <path d="M8816 4023 c-3 -3 -6 -23 -6 -44 0 -26 -6 -41 -17 -48 -16 -9 -16 -12 -3 -20 8 -6 25 -8 37 -4 18 4 23 1 23 -15 0 -24 15 -36 31 -27 7 5 5 14 -5 30 -14 21 -13 24 5 41 13 12 19 28 17 48 -4 39 -28 47 -28 9 0 -27 -15 -53 -31 -53 -4 0 -5 17 -2 39 5 36 -6 59 -21 44z"/>
 <path d="M8593 4005 c-12 -8 -28 -12 -37 -9 -16 6 -23 -12 -28 -75 -5 -54 42 -67 97 -28 16 13 17 17 6 31 -7 9 -22 16 -32 16 -11 0 -19 3 -19 6 0 10 31 33 60 45 20 8 22 12 10 19 -21 13 -32 12 -57 -5z m-16 -102 c-4 -3 -10 -3 -14 0 -3 4 0 7 7 7 7 0 10 -3 7 -7z"/>
 <path d="M8152 3978 c-31 -31 10 -107 47 -88 9 5 24 11 34 14 25 8 21 42 -9 65 -30 24 -54 27 -72 9z m58 -38 c0 -5 -9 -10 -20 -10 -11 0 -20 5 -20 10 0 6 9 10 20 10 11 0 20 -4 20 -10z"/>
 <path d="M8299 3945 c-6 -25 -15 -45 -20 -45 -5 0 -9 -8 -9 -19 0 -37 78 -32 95 7 13 29 25 28 22 0 -2 -21 1 -23 43 -19 60 4 63 7 38 41 -17 24 -19 32 -9 44 18 21 5 36 -30 36 -28 0 -32 -4 -45 -47 -5 -19 -34 -4 -45 23 -13 36 -28 29 -40 -21z m41 -39 c0 -3 -4 -8 -10 -11 -5 -3 -10 -1 -10 4 0 6 5 11 10 11 6 0 10 -2 10 -4z"/>
 <path d="M1376 3948 c-8 -13 -18 -36 -22 -53 -4 -16 -13 -43 -21 -58 -22 -45 -5 -57 83 -57 41 0 74 4 74 9 0 12 -22 28 -45 33 -27 5 -21 37 11 61 30 23 31 42 2 61 -45 28 -66 29 -82 4z m24 -108 c0 -5 -4 -10 -10 -10 -5 0 -10 5 -10 10 0 6 5 10 10 10 6 0 10 -4 10 -10z"/>
 <path d="M1730 3944 c0 -17 22 -14 28 4 2 7 -3 12 -12 12 -9 0 -16 -7 -16 -16z"/>
 <path d="M8017 3954 c-11 -11 -8 -44 3 -44 15 0 24 30 13 41 -5 5 -12 6 -16 3z"/>
 <path d="M9670 3933 c-14 -2 -101 -19 -195 -38 -136 -28 -210 -37 -370 -45 -312 -15 -370 -19 -520 -30 -77 -6 -226 -17 -330 -25 -195 -14 -257 -27 -238 -46 8 -8 31 -8 80 0 37 5 158 15 268 21 110 6 207 13 215 15 8 3 175 14 370 25 284 16 380 25 480 45 177 37 302 56 309 49 7 -6 7 -354 -1 -1127 -2 -285 -2 -520 2 -522 3 -2 12 0 20 5 13 8 15 63 15 352 0 189 4 539 9 778 5 239 6 461 2 493 l-7 57 -42 -1 c-23 -1 -53 -4 -67 -6z"/>
 <path d="M1620 3875 c-21 -25 -18 -99 4 -124 25 -28 84 -28 114 -1 26 25 28 43 6 80 -31 52 -98 76 -124 45z m74 -56 c35 -28 34 -49 -4 -49 -30 0 -50 22 -50 54 0 22 22 20 54 -5z"/>
 <path d="M1801 3786 c-31 -32 -42 -50 -37 -62 6 -15 11 -13 39 14 18 18 36 32 39 32 4 0 8 -15 10 -32 4 -44 22 -38 26 8 4 48 -5 84 -21 84 -7 0 -32 -20 -56 -44z"/>
 <path d="M1927 3774 c-8 -16 -17 -45 -20 -66 -8 -53 15 -71 85 -64 29 3 59 5 66 6 19 0 -4 40 -23 40 -18 0 -19 33 -3 60 17 26 2 40 -50 47 -37 5 -42 3 -55 -23z"/>
 <path d="M9666 3748 c-18 -25 -21 -48 -7 -48 19 0 46 56 31 65 -5 3 -16 -5 -24 -17z"/>
 <path d="M2120 3720 c-25 -50 -25 -75 1 -112 28 -39 59 -50 82 -30 22 20 22 37 -4 79 -21 33 -21 35 -3 48 11 8 27 15 36 15 24 0 31 17 12 28 -11 6 -30 6 -48 1 -20 -6 -32 -5 -34 1 -7 20 -22 9 -42 -30z m45 -90 c3 -5 4 -10 1 -10 -3 0 -8 5 -11 10 -3 6 -4 10 -1 10 3 0 8 -4 11 -10z"/>
 <path d="M7990 3685 c0 -9 -6 -18 -13 -21 -8 -3 -56 -58 -108 -122 -100 -126 -170 -208 -289 -342 -42 -47 -89 -101 -104 -120 -15 -19 -89 -101 -163 -182 -116 -125 -138 -145 -153 -136 -24 15 -48 4 -61 -29 -8 -22 -6 -32 12 -56 30 -41 41 -152 33 -357 -6 -167 -32 -449 -58 -616 -8 -50 -19 -146 -26 -215 -6 -68 -16 -173 -22 -234 -16 -158 -16 -190 2 -190 18 0 32 89 55 350 9 99 24 241 35 315 42 290 52 426 54 669 l1 244 100 -7 c55 -3 152 -15 215 -26 63 -12 133 -23 155 -27 42 -6 68 -20 60 -33 -3 -4 19 -11 48 -14 28 -4 55 -13 59 -19 5 -9 12 -7 24 5 17 16 17 18 -1 38 -10 11 -28 20 -41 20 -34 0 -38 17 -12 48 13 16 43 69 67 118 23 49 47 97 52 106 15 29 10 127 -7 164 -9 19 -15 36 -13 38 2 1 22 13 43 26 l39 23 -7 -104 c-9 -124 -44 -438 -52 -459 -9 -23 -24 -341 -17 -353 4 -6 11 -3 20 8 9 13 13 52 13 124 0 58 7 144 15 191 21 126 55 437 55 511 0 35 3 73 6 84 9 35 231 128 403 170 149 36 151 36 151 26 0 -5 14 -23 30 -39 50 -51 39 -131 -35 -248 -75 -117 -233 -284 -269 -284 -31 0 -106 -22 -106 -31 0 -5 19 -9 43 -9 l42 -1 -59 -55 -60 -55 -20 26 c-23 27 -113 51 -130 34 -12 -11 1 -26 29 -31 13 -2 22 -13 25 -32 6 -38 30 -47 30 -12 0 19 5 26 19 26 32 0 30 -13 -5 -43 -19 -16 -34 -24 -34 -18 0 14 -77 14 -85 0 -11 -17 -1 -20 74 -24 108 -7 165 -30 215 -90 88 -104 103 -140 71 -171 -15 -16 -21 -74 -7 -74 4 0 18 12 32 27 21 21 25 35 24 78 l-2 53 62 6 c96 11 223 36 262 52 20 8 38 13 40 11 3 -2 -1 -28 -7 -57 -7 -35 -8 -55 -1 -62 19 -19 31 2 38 62 5 44 10 57 20 53 9 -3 14 3 14 18 1 18 21 38 88 85 48 34 89 60 91 59 1 -2 -8 -19 -22 -37 -13 -18 -30 -51 -37 -73 -7 -22 -17 -45 -22 -51 -5 -7 -15 -44 -24 -84 -23 -111 -2 -107 36 8 43 130 60 162 152 281 52 68 82 118 93 153 21 71 19 172 -4 244 -15 43 -17 62 -9 71 8 10 7 12 -4 8 -10 -4 -26 13 -51 54 -45 72 -120 142 -190 175 -64 30 -197 56 -286 56 -118 0 -388 -74 -540 -149 -36 -17 -66 -29 -68 -27 -2 2 1 113 5 247 5 134 7 250 5 257 -7 17 -33 15 -33 -3z m-9 -297 c-4 -125 -9 -228 -11 -230 -3 -2 -23 -15 -45 -29 -22 -14 -73 -48 -114 -75 -40 -27 -81 -53 -90 -59 -9 -5 -57 -36 -107 -67 -82 -51 -238 -130 -353 -179 l-43 -19 67 72 c36 40 110 122 163 182 53 60 136 152 183 205 73 82 295 352 338 412 8 11 15 18 16 17 1 -2 -1 -105 -4 -230z m804 -92 c126 -27 238 -100 297 -194 l20 -33 -21 -23 c-22 -23 -27 -51 -12 -60 4 -3 16 3 26 14 10 11 22 20 26 20 11 0 29 -93 29 -149 0 -60 -29 -149 -42 -130 -7 11 -11 10 -21 -6 -25 -42 -145 -152 -211 -193 l-68 -42 4 55 c1 30 1 55 -2 55 -22 -1 -34 -25 -38 -78 -4 -57 -5 -59 -46 -80 -56 -30 -187 -60 -294 -68 -97 -7 -117 2 -117 55 0 17 -6 26 -15 26 -9 0 -28 10 -44 22 -15 12 -43 27 -62 33 -31 11 -47 30 -25 30 5 0 48 36 94 80 51 48 93 80 106 80 14 0 35 -20 66 -62 25 -34 45 -67 45 -73 0 -5 9 -16 20 -22 11 -7 28 -30 39 -50 15 -30 21 -34 26 -21 4 9 -2 31 -12 50 -10 18 -18 44 -18 58 0 17 -7 26 -25 30 -13 3 -39 26 -58 53 l-34 47 64 2 c34 1 82 2 106 1 37 -1 41 1 30 14 -10 12 -33 14 -120 11 -59 -2 -108 -3 -108 -3 0 0 27 29 60 64 62 66 134 167 168 236 40 81 45 167 12 220 -11 18 -20 35 -20 39 0 11 112 6 175 -8z m-917 -293 c22 -49 15 -117 -22 -197 l-34 -74 -124 -5 c-68 -2 -163 -9 -213 -15 -142 -17 -225 -22 -225 -14 0 4 26 16 58 28 31 12 66 25 76 29 14 6 17 5 12 -3 -9 -15 13 -15 85 -2 98 18 204 29 209 21 3 -4 20 0 39 10 l34 16 -33 16 c-23 12 -37 14 -45 7 -7 -6 -64 -19 -126 -29 -63 -11 -122 -22 -131 -26 -10 -4 -18 -4 -18 -1 0 19 170 75 303 99 49 9 56 13 51 30 -4 13 6 30 36 58 23 22 39 46 37 53 -6 14 1 26 12 26 3 0 12 -12 19 -27z m-83 -43 c-9 -16 -22 -30 -29 -30 -7 0 -20 -8 -27 -19 -8 -11 -32 -21 -58 -25 l-44 -7 79 55 c43 30 82 55 87 55 4 1 1 -12 -8 -29z m-635 -240 c0 -5 -4 -10 -10 -10 -5 0 -10 5 -10 10 0 6 5 10 10 10 6 0 10 -4 10 -10z m640 -16 c0 -3 -14 -26 -32 -50 -33 -46 -52 -55 -62 -29 -4 10 1 15 14 15 26 0 26 16 0 23 -30 8 -14 35 23 40 18 2 38 5 45 5 6 1 12 -1 12 -4z m-120 -14 c0 -5 -24 -10 -52 -10 -38 0 -49 3 -38 10 20 13 90 13 90 0z m-155 -20 c-3 -5 -17 -10 -31 -10 -13 0 -24 5 -24 10 0 6 14 10 31 10 17 0 28 -4 24 -10z m140 -30 c3 -5 -3 -10 -14 -10 -11 0 -23 5 -26 10 -3 6 3 10 14 10 11 0 23 -4 26 -10z"/>
 <path d="M8760 3074 c0 -2 42 -44 93 -94 77 -75 89 -92 76 -100 -23 -14 -45 -68 -32 -81 10 -10 45 24 56 54 6 17 36 -22 37 -48 0 -11 6 -28 13 -37 12 -15 14 -15 26 3 10 18 7 28 -24 74 -52 79 -190 222 -220 227 -14 3 -25 4 -25 2z"/>
 <path d="M8680 2954 c0 -3 15 -24 33 -47 50 -64 99 -148 93 -163 -4 -9 -13 -11 -35 -4 -17 5 -33 5 -36 0 -9 -14 16 -23 61 -21 42 1 43 0 55 -39 16 -51 34 -53 25 -2 -4 20 -8 45 -9 55 -1 10 -12 26 -23 35 -12 9 -38 44 -59 77 -50 81 -105 138 -105 109z"/>
 <path d="M8566 2838 c4 -7 27 -39 50 -72 41 -56 42 -60 27 -82 -16 -25 -13 -27 24 -24 18 1 23 -6 29 -34 7 -39 19 -53 29 -35 9 14 -14 101 -31 115 -7 5 -32 39 -56 75 -24 35 -51 66 -62 67 -13 3 -16 0 -10 -10z"/>
 <path d="M8367 2512 c-17 -19 -23 -52 -9 -52 18 0 52 33 52 51 0 24 -22 25 -43 1z"/>
 <path d="M3050 3664 c0 -11 4 -24 10 -30 5 -5 18 -52 28 -104 11 -56 23 -95 31 -98 11 -4 13 5 8 39 -13 96 -35 171 -55 192 -22 21 -22 21 -22 1z"/>
 <path d="M9600 3640 c-12 -17 -19 -38 -16 -47 6 -14 8 -14 26 2 10 9 23 30 29 46 14 40 -10 39 -39 -1z"/>
 <path d="M7480 3481 c0 -10 43 -47 63 -54 8 -3 5 -10 -8 -20 -16 -13 -18 -18 -7 -41 14 -31 47 -37 37 -6 -5 15 0 21 19 26 34 8 33 29 -1 50 -16 9 -40 25 -55 35 -30 21 -48 24 -48 10z"/>
 <path d="M9445 3434 c-13 -20 -14 -29 -5 -38 9 -8 17 -4 36 17 13 15 24 32 24 38 0 19 -38 8 -55 -17z"/>
 <path d="M2435 3390 c-3 -5 -4 -14 -1 -18 3 -5 0 -25 -6 -45 l-11 -37 -58 0 c-63 0 -84 -15 -53 -37 15 -11 52 -13 171 -11 85 2 153 7 153 12 0 5 11 -1 25 -14 33 -31 43 -19 21 27 -17 36 -17 38 1 51 10 7 26 11 36 8 20 -5 23 14 5 32 -32 32 -88 -4 -88 -55 0 -26 -18 -31 -27 -8 -3 9 2 24 12 35 25 28 13 46 -35 54 -50 8 -66 -2 -74 -49 -4 -22 -14 -36 -27 -40 -28 -9 -30 -5 -18 39 11 39 7 66 -10 66 -5 0 -13 -4 -16 -10z"/>
 <path d="M7420 3380 c0 -6 12 -29 26 -51 19 -31 23 -44 14 -54 -9 -11 -7 -15 14 -21 35 -8 56 11 56 52 0 34 -22 56 -47 47 -6 -2 -17 5 -23 16 -11 22 -40 29 -40 11z m85 -70 c3 -5 1 -10 -4 -10 -6 0 -11 5 -11 10 0 6 2 10 4 10 3 0 8 -4 11 -10z"/>
 <path d="M3289 3368 c-3 -36 5 -66 25 -93 12 -16 25 -38 29 -48 6 -15 10 -16 27 -5 11 7 20 21 20 31 0 10 9 37 20 59 23 47 13 73 -17 46 -21 -19 -72 -13 -80 8 -6 17 -23 18 -24 2z m71 -68 c0 -5 -4 -10 -10 -10 -5 0 -10 5 -10 10 0 6 5 10 10 10 6 0 10 -4 10 -10z"/>
 <path d="M2759 3344 c-5 -16 -6 -43 -2 -67 10 -47 33 -63 33 -22 0 22 4 26 22 23 14 -2 24 -12 28 -27 3 -14 11 -26 17 -28 8 -3 11 19 11 71 -1 56 -4 76 -14 76 -8 0 -16 -11 -20 -25 -4 -16 -13 -25 -25 -25 -14 0 -19 7 -19 25 0 33 -18 32 -31 -1z"/>
 <path d="M2910 3351 c-13 -24 -13 -118 -1 -126 6 -3 24 15 41 40 42 61 65 58 61 -8 -3 -53 14 -64 24 -16 5 23 10 28 18 20 6 -6 14 -11 18 -11 9 0 29 57 29 81 0 29 -29 22 -36 -8 -10 -46 -11 -49 -19 -28 -24 68 -41 79 -83 49 -21 -14 -22 -14 -22 5 0 26 -16 27 -30 2z"/>
 <path d="M3127 3352 c-42 -46 13 -150 67 -129 23 9 20 26 -7 36 -13 5 -29 17 -37 26 -13 15 -12 19 5 32 19 13 39 12 79 -3 25 -10 19 12 -10 35 -33 26 -76 27 -97 3z"/>
 <path d="M3471 3357 c-16 -20 -11 -129 7 -135 8 -2 12 11 12 48 l0 53 45 -5 c49 -6 55 0 27 25 -27 25 -76 32 -91 14z"/>
 <path d="M7360 3274 c0 -9 -9 -18 -20 -21 -10 -3 -26 -16 -35 -29 -8 -13 -22 -24 -31 -24 -18 0 -11 -35 14 -62 12 -15 12 -20 2 -33 -12 -14 -15 -14 -35 5 -21 20 -45 27 -45 13 0 -4 10 -17 22 -30 16 -17 19 -26 10 -35 -8 -8 -15 -8 -26 2 -21 16 -46 6 -46 -20 0 -23 -3 -24 -30 -8 -10 7 -22 9 -26 6 -7 -8 66 -98 79 -98 5 0 7 15 4 33 -8 48 3 61 37 46 24 -11 28 -10 43 12 9 13 36 43 60 67 49 48 55 85 16 90 -27 4 -29 14 -8 32 13 10 19 10 33 -3 9 -8 26 -17 37 -19 30 -5 32 38 4 68 -26 27 -59 32 -59 8z m50 -34 c0 -5 -4 -10 -10 -10 -5 0 -10 5 -10 10 0 6 5 10 10 10 6 0 10 -4 10 -10z"/>
 <path d="M8464 3272 c-13 -9 -44 -54 -44 -64 0 -15 25 -7 55 17 26 22 28 26 15 39 -8 9 -20 12 -26 8z"/>
 <path d="M9280 3250 c-21 -21 -26 -45 -11 -55 9 -5 61 53 61 68 0 14 -31 6 -50 -13z"/>
 <path d="M2230 3227 c0 -16 -78 -67 -103 -67 -33 0 -100 23 -136 47 -39 27 -59 29 -68 8 -8 -22 23 -53 87 -84 52 -25 62 -27 195 -25 77 0 194 4 260 8 l120 8 154 -51 c90 -30 181 -54 220 -57 82 -7 232 22 346 68 72 29 90 32 180 32 182 -2 569 -22 610 -33 62 -16 182 -13 268 8 78 18 95 26 85 37 -9 8 -33 7 -155 -6 -86 -9 -124 -9 -165 0 -29 6 -150 15 -268 20 -130 5 -246 14 -295 25 -99 20 -121 17 -304 -45 -190 -64 -272 -72 -397 -40 -49 12 -111 33 -139 45 -88 41 -152 52 -245 44 -47 -4 -134 -10 -195 -14 -101 -6 -108 -5 -90 9 43 34 65 58 59 67 -8 13 -24 11 -24 -4z"/>
 <path d="M3033 3184 c-3 -8 0 -21 6 -27 10 -9 16 -8 26 7 8 10 12 23 9 27 -9 15 -34 10 -41 -7z"/>
 <path d="M8224 3159 c-99 -9 -157 -24 -175 -45 -11 -14 -9 -15 22 -10 45 8 208 26 236 26 20 0 21 -3 13 -26 -15 -38 -13 -46 10 -34 11 6 27 24 35 40 11 21 23 30 40 30 31 0 33 20 3 21 -13 0 -41 2 -63 3 -22 1 -76 -1 -121 -5z"/>
 <path d="M8261 3031 c-8 -14 -26 -19 -83 -24 -80 -7 -148 -25 -148 -40 0 -5 21 -6 48 -3 166 20 166 20 158 1 -6 -17 -5 -17 20 -1 19 13 36 16 67 10 38 -6 40 -5 28 10 -7 9 -24 16 -37 16 -21 0 -23 4 -18 25 8 31 -20 36 -35 6z"/>
 <path d="M7061 2970 l-33 -28 20 -29 c11 -15 33 -40 49 -55 l29 -28 33 34 c23 23 31 40 27 51 -5 15 -10 14 -41 -9 -33 -26 -51 -22 -20 4 19 16 20 40 1 40 -7 0 -19 -7 -26 -15 -7 -8 -17 -15 -23 -15 -6 0 4 15 21 33 30 31 33 48 8 47 -6 -1 -26 -14 -45 -30z"/>
 <path d="M1791 2969 c-105 -10 -176 -37 -194 -76 -9 -20 -7 -27 9 -42 30 -30 58 -34 84 -13 29 24 19 45 -15 32 -30 -11 -44 5 -17 19 34 18 214 32 258 19 43 -12 81 -12 98 0 6 5 81 5 166 1 361 -17 529 -20 959 -19 250 0 565 5 700 10 528 21 743 23 849 10 56 -7 104 -16 107 -20 9 -15 -88 -20 -565 -30 -267 -5 -519 -12 -560 -14 -541 -36 -1476 -31 -1740 9 -41 6 -74 -9 -51 -24 83 -53 1092 -78 1716 -42 94 6 305 13 470 16 383 7 784 25 812 36 30 11 30 44 1 63 -13 8 -54 24 -93 37 -65 21 -89 23 -360 25 -159 1 -357 -2 -440 -7 -146 -8 -1344 -13 -1416 -5 -20 2 -146 7 -280 10 -134 4 -280 8 -324 10 -44 2 -122 0 -174 -5z"/>
 <path d="M8179 2914 c-7 -8 -13 -30 -13 -49 l-1 -34 -60 6 c-51 5 -63 2 -78 -14 -17 -20 -16 -20 60 -26 43 -3 95 -13 116 -22 30 -12 37 -13 37 -2 0 16 -32 47 -48 47 -14 0 -16 12 -3 26 5 5 13 26 16 47 8 39 -3 48 -26 21z"/>
 <path d="M6777 2802 c-42 -47 -6 -104 68 -108 49 -3 65 12 65 60 0 53 -97 88 -133 48z m93 -27 c14 -17 4 -55 -15 -55 -27 0 -65 20 -65 34 0 31 59 47 80 21z"/>
 <path d="M8121 2756 c-15 -18 -11 -48 6 -53 7 -3 15 7 19 22 8 33 -8 52 -25 31z"/>
 <path d="M1248 2503 l-3 -78 -73 3 c-76 4 -106 -7 -95 -34 3 -9 17 -15 32 -14 14 1 51 2 82 1 l55 -1 12 -207 c13 -219 7 -388 -23 -640 -8 -67 -15 -200 -15 -296 l0 -175 -26 -6 c-14 -4 -42 -17 -62 -29 -20 -12 -84 -37 -142 -56 -106 -35 -130 -46 -130 -62 0 -17 49 -9 132 22 126 46 130 47 126 14 -5 -45 16 -39 58 15 21 27 42 50 47 50 12 0 2 -253 -14 -338 -13 -69 -15 -72 -31 -55 -26 25 -39 6 -25 -36 7 -19 19 -37 27 -41 70 -35 66 -35 104 3 20 20 36 41 36 46 0 21 -23 22 -44 2 -12 -12 -26 -21 -30 -21 -4 0 -5 30 -2 68 4 37 9 127 12 200 5 118 7 132 22 128 82 -26 260 -34 341 -15 77 17 145 57 202 116 180 190 203 205 314 211 83 4 117 -13 164 -80 118 -168 211 -271 269 -299 26 -12 48 -23 49 -24 2 -1 -2 -17 -7 -36 -21 -70 -39 -170 -33 -184 10 -29 -15 -15 -27 14 -21 52 -60 48 -40 -4 13 -34 62 -95 77 -95 14 0 93 98 93 116 0 26 -19 23 -43 -6 -14 -16 -28 -30 -30 -30 -8 0 3 78 19 151 l16 67 61 7 c34 3 76 13 93 21 68 32 139 179 173 358 45 233 153 351 276 304 22 -9 69 -28 105 -44 42 -18 90 -29 136 -32 98 -6 136 15 211 116 321 436 352 463 511 428 40 -9 103 -16 140 -16 81 0 100 11 196 116 85 92 196 165 435 284 131 66 190 100 188 110 -4 27 -47 12 -232 -82 -230 -116 -307 -169 -426 -290 l-97 -98 -63 0 c-35 1 -91 7 -124 15 -161 39 -216 8 -386 -218 -49 -65 -89 -120 -89 -123 0 -3 -27 -41 -60 -84 -78 -100 -124 -124 -219 -110 -35 5 -97 25 -144 47 -65 31 -92 38 -139 38 l-57 -1 -6 41 c-2 22 -6 90 -7 150 l-3 111 23 -28 c26 -31 52 -37 52 -12 0 16 -69 104 -82 104 -14 0 -109 -154 -103 -168 8 -21 27 -10 54 31 13 20 25 36 27 34 1 -1 4 -65 5 -143 l4 -140 -36 -42 c-62 -73 -91 -148 -125 -324 -16 -82 -61 -201 -93 -247 -29 -40 -79 -61 -145 -61 -109 0 -163 41 -304 230 -47 63 -99 127 -115 142 -55 50 -169 57 -251 16 -38 -20 -111 -88 -213 -201 -71 -78 -146 -113 -268 -122 -90 -7 -203 5 -256 26 -18 7 -29 21 -33 41 -14 70 -5 328 19 550 26 241 32 438 19 655 l-7 122 994 4 c634 2 1043 8 1129 16 74 6 227 18 340 26 113 9 277 24 364 35 88 11 177 20 198 20 26 0 41 5 45 16 13 34 -12 36 -163 15 -175 -25 -299 -36 -599 -56 -121 -8 -289 -19 -372 -24 -159 -11 -1921 -16 -1931 -6 -3 3 -5 27 -3 53 2 50 -12 102 -28 102 -6 0 -11 -35 -13 -77z"/>
 <path d="M4440 2441 c-5 -11 -10 -35 -10 -55 0 -32 -3 -35 -32 -38 -25 -2 -33 -8 -33 -23 0 -16 8 -21 37 -23 29 -2 37 -8 40 -24 5 -33 26 -33 30 -1 2 23 8 29 35 31 42 4 34 29 -13 38 -29 5 -34 10 -34 35 0 37 24 48 50 24 25 -23 28 -1 4 33 -19 27 -60 29 -74 3z"/>
 <path d="M6947 2363 c-16 -4 -18 -13 -15 -56 3 -39 -1 -56 -13 -67 -19 -17 -33 -76 -20 -85 12 -7 28 15 33 44 4 34 28 40 28 7 0 -36 18 -32 35 6 l13 33 7 -38 c10 -49 31 -42 28 9 -4 62 -9 67 -49 59 -32 -5 -36 -4 -30 10 3 9 6 23 6 31 0 9 12 14 36 14 40 0 77 16 69 31 -6 9 -94 11 -128 2z"/>
 <path d="M4027 2318 c-56 -47 -117 -124 -117 -145 0 -25 23 -9 70 50 25 31 60 74 78 97 43 51 30 51 -31 -2z"/>
 <path d="M46 2273 c-3 -3 -6 -14 -6 -24 0 -10 -9 -23 -20 -29 -27 -14 -25 -28 4 -39 15 -6 25 -20 30 -41 8 -44 32 -33 29 14 -2 33 0 36 23 36 32 0 27 20 -9 38 -15 7 -27 19 -27 27 0 16 -14 27 -24 18z"/>
 <path d="M2145 2233 c-25 -7 -196 -108 -295 -176 -120 -83 -210 -159 -210 -179 0 -10 4 -18 8 -18 4 0 59 42 122 93 113 91 281 204 374 248 61 30 62 47 1 32z"/>
 <path d="M2495 2190 c-3 -5 -14 -10 -24 -10 -21 0 -143 -88 -384 -277 -243 -190 -257 -202 -257 -214 0 -27 50 6 266 173 54 42 133 103 174 135 174 134 250 195 250 199 0 8 -19 4 -25 -6z"/>
 <path d="M7907 2170 c-14 -11 -82 -106 -152 -212 -71 -106 -221 -316 -334 -465 -113 -150 -221 -294 -239 -320 -49 -73 -131 -163 -148 -163 -9 0 -14 -6 -12 -12 3 -10 54 -15 184 -19 98 -4 251 -14 339 -23 463 -47 597 -56 838 -58 149 -1 200 -5 209 -15 6 -7 26 -13 44 -13 29 0 34 4 39 27 9 42 21 60 144 220 153 198 265 324 819 924 58 63 63 80 18 63 -17 -7 -383 -394 -531 -563 -55 -63 -136 -155 -180 -205 -44 -50 -90 -105 -102 -121 -14 -19 -23 -24 -23 -15 0 8 -5 60 -10 114 -8 92 -7 101 12 126 16 23 19 36 13 72 -4 23 -9 96 -11 161 -4 91 -2 130 10 165 19 55 19 52 1 52 -8 0 -21 -15 -29 -34 -14 -35 -87 -96 -113 -96 -9 0 -13 13 -13 40 0 40 -13 53 -24 24 -3 -9 -6 -29 -6 -44 0 -16 -6 -32 -12 -37 -27 -17 -110 -33 -262 -50 -112 -12 -160 -21 -163 -31 -3 -7 -2 -17 3 -22 15 -14 353 25 411 47 10 4 13 -16 13 -86 l0 -92 -27 3 c-20 2 -28 -2 -28 -12 0 -10 10 -15 28 -15 27 1 27 0 27 -66 l0 -66 -37 -16 c-35 -15 -225 -70 -331 -95 l-44 -10 -15 36 c-8 20 -22 73 -31 119 -26 134 -8 237 79 471 40 104 53 198 27 190 -7 -3 -14 -13 -15 -24 -4 -37 -20 -90 -51 -161 -49 -114 -82 -263 -83 -373 -2 -136 27 -239 106 -383 42 -76 79 -111 135 -128 23 -7 41 -20 46 -33 6 -15 9 -7 11 32 2 28 8 52 12 52 10 0 74 -100 68 -106 -10 -10 -543 16 -737 35 -394 40 -522 51 -600 51 l-80 0 60 75 c34 41 66 77 71 81 6 3 13 13 17 23 4 9 103 144 221 301 118 157 248 337 289 400 41 63 101 154 133 202 33 47 59 89 59 92 0 12 -18 6 -43 -14z m870 -571 c-4 -103 -10 -155 -19 -166 -11 -14 -14 -11 -19 28 -4 24 -2 50 3 57 7 8 6 18 -3 30 -7 9 -15 19 -16 21 -2 3 -10 -5 -19 -17 -26 -38 -34 -24 -34 61 l0 82 53 26 c28 15 54 27 56 28 2 1 1 -67 -2 -150z m-67 -120 c0 -17 4 -39 10 -49 8 -15 5 -23 -18 -40 l-27 -22 -3 57 c-4 67 1 85 23 85 10 0 15 -10 15 -31z m97 9 c-3 -8 -6 -5 -6 6 -1 11 2 17 5 13 3 -3 4 -12 1 -19z m-27 -184 c0 -28 5 -75 10 -104 13 -67 -1 -92 -34 -62 -12 11 -36 27 -53 36 -35 18 -39 33 -27 109 5 28 16 44 47 67 48 36 57 29 57 -46z m-125 -16 c-3 -13 -10 -36 -14 -53 -5 -22 -13 -31 -31 -33 -81 -10 -200 -116 -200 -178 0 -19 -4 -34 -9 -34 -31 0 -174 191 -153 203 4 3 52 14 107 26 121 27 267 69 280 82 17 16 27 9 20 -13z m-25 -137 c0 -6 -4 -13 -10 -16 -14 -9 -12 -54 4 -109 14 -45 13 -48 -9 -71 -23 -26 -75 -34 -75 -13 0 7 -16 37 -36 66 l-37 53 24 25 c25 27 104 73 127 74 6 0 12 -4 12 -9z m83 -22 c23 -12 44 -23 46 -25 2 -2 -21 -33 -50 -70 l-54 -66 -3 68 c-3 66 3 114 14 114 2 0 24 -10 47 -21z"/>
 <path d="M8530 1061 c0 -43 26 -121 41 -121 13 0 11 22 -6 69 -8 23 -14 52 -12 63 1 11 -4 23 -10 25 -9 3 -13 -8 -13 -36z"/>
 <path d="M9530 2165 c-74 -14 -460 -32 -635 -29 -664 10 -830 14 -875 20 -43 6 -52 4 -48 -7 8 -24 74 -30 403 -34 176 -3 390 -7 475 -9 208 -5 587 11 691 29 100 18 171 19 186 4 9 -9 16 -7 29 5 9 9 14 19 12 22 -13 13 -170 12 -238 -1z"/>
 <path d="M3484 2099 c-26 -33 -70 -76 -96 -96 -54 -39 -57 -59 -8 -55 23 2 31 -1 28 -10 -8 -22 10 -154 24 -179 18 -33 40 -59 48 -59 4 0 29 33 55 72 36 54 50 85 53 120 5 53 5 53 31 36 36 -22 71 16 71 76 0 31 -26 54 -42 38 -9 -9 -9 -15 0 -24 14 -14 15 -28 3 -46 -7 -12 -13 -11 -37 1 -16 8 -40 26 -53 40 l-23 25 31 16 c39 21 40 49 4 81 -16 13 -31 25 -35 25 -4 0 -28 -27 -54 -61z m-4 -127 c0 -10 -5 -23 -10 -28 -16 -16 8 -114 30 -122 17 -7 17 -9 -6 -36 -28 -32 -27 -33 -43 13 -14 42 -14 104 0 154 10 38 29 51 29 19z m70 -11 c14 -28 13 -57 -6 -93 -22 -42 -34 -21 -31 55 2 59 17 75 37 38z"/>
 <path d="M6955 2153 c-53 -8 -75 -45 -35 -58 11 -3 20 -13 20 -22 0 -10 6 -13 16 -9 8 3 38 -1 65 -10 59 -20 74 -12 35 19 -30 25 -28 54 5 59 11 2 21 8 22 13 2 11 -78 16 -128 8z m45 -43 c0 -5 -4 -10 -10 -10 -5 0 -10 5 -10 10 0 6 5 10 10 10 6 0 10 -4 10 -10z"/>
 <path d="M3369 2125 c-19 -14 -34 -31 -34 -38 0 -15 71 -54 81 -44 4 4 2 13 -4 19 -18 18 -14 30 8 23 23 -7 25 3 8 40 -14 31 -16 31 -59 0z"/>
 <path d="M0 2068 c0 -22 3 -23 65 -20 36 2 65 8 65 13 0 16 -38 29 -84 29 -41 0 -46 -2 -46 -22z"/>
 <path d="M8407 2050 c-25 -65 -40 -192 -29 -240 8 -32 9 -28 16 40 4 41 12 100 18 132 10 56 7 100 -5 68z"/>
 <path d="M6914 2023 c-13 -51 -10 -98 6 -98 9 0 16 11 18 29 4 28 4 28 53 22 57 -8 76 -1 58 20 -6 8 -30 14 -54 14 -34 0 -44 4 -48 20 -7 28 -25 25 -33 -7z"/>
 <path d="M56 1957 c-31 -53 -56 -130 -56 -176 0 -27 3 -31 14 -22 8 6 19 31 25 55 6 25 16 57 22 73 10 28 11 28 43 -42 38 -81 67 -113 84 -92 8 10 3 25 -21 61 -17 27 -39 79 -48 115 -9 36 -21 67 -27 69 -6 2 -22 -17 -36 -41z"/>
 <path d="M8596 1978 c-9 -12 -16 -29 -16 -38 0 -8 -10 -20 -22 -25 -29 -13 -35 -35 -9 -35 15 0 21 -6 21 -22 0 -24 16 -56 23 -48 6 8 28 182 24 187 -3 2 -12 -6 -21 -19z"/>
 <path d="M8711 1938 c-9 -27 -3 -118 9 -118 9 0 20 60 20 108 0 37 -17 43 -29 10z"/>
 <path d="M6923 1905 c-36 -25 -27 -35 25 -29 38 5 45 4 35 -7 -7 -7 -31 -15 -54 -18 -62 -9 -63 -31 -2 -31 42 0 54 5 78 30 24 25 27 34 19 48 -15 23 -73 27 -101 7z"/>
 <path d="M8432 1898 c-7 -7 -12 -20 -12 -31 0 -14 5 -17 23 -12 31 10 41 21 34 39 -8 19 -28 21 -45 4z"/>
 <path d="M2715 1856 c-55 -24 -275 -273 -275 -311 0 -30 20 -14 91 73 40 48 109 124 153 170 81 83 85 92 31 68z"/>
 <path d="M8280 1835 c-10 -12 -10 -19 -2 -27 15 -15 65 7 60 25 -7 18 -43 20 -58 2z"/>
 <path d="M6928 1797 c-41 -8 -48 -13 -53 -39 -10 -43 9 -57 38 -30 29 27 39 27 62 2 10 -11 21 -17 25 -15 8 5 -10 79 -20 87 -3 3 -26 0 -52 -5z"/>
 <path d="M6908 1665 c-27 -15 -39 -45 -18 -45 6 0 10 -12 10 -26 0 -37 24 -25 28 14 2 24 8 32 23 32 10 0 19 -4 19 -10 0 -5 5 -10 11 -10 6 0 9 12 7 28 -4 33 -38 40 -80 17z"/>
 <path d="M6840 1614 c-13 -33 -13 -64 0 -64 12 0 30 42 30 71 0 27 -19 24 -30 -7z"/>
 <path d="M6851 1532 c-22 -41 -5 -74 18 -34 8 14 12 15 22 5 14 -14 57 -17 83 -7 29 11 17 32 -21 37 -21 3 -50 8 -65 12 -20 5 -29 3 -37 -13z"/>
 <path d="M8434 1525 c-13 -29 -9 -145 6 -180 17 -40 24 -13 11 44 -9 41 -8 43 20 53 34 12 38 35 7 40 -16 2 -25 12 -29 33 -5 27 -7 28 -15 10z"/>
 <path d="M8314 1499 c-15 -18 -25 -127 -13 -134 5 -4 9 -19 9 -34 0 -15 7 -36 16 -47 14 -18 15 -15 9 38 -6 51 -4 57 14 63 26 8 27 22 2 30 -15 5 -21 17 -23 52 -2 36 -5 43 -14 32z"/>
 <path d="M623 1303 c-19 -44 -18 -73 4 -90 20 -16 35 -7 28 17 -6 18 13 70 24 70 4 0 15 -14 25 -31 10 -16 23 -28 29 -26 22 7 18 43 -7 66 -21 20 -28 22 -41 11 -12 -10 -15 -10 -15 4 0 30 -31 16 -47 -21z"/>
 <path d="M8224 1325 c-4 -8 -3 -23 0 -32 6 -14 8 -14 22 5 15 22 12 42 -7 42 -5 0 -12 -7 -15 -15z"/>
 <path d="M802 1318 c-7 -7 -12 -25 -12 -40 0 -21 8 -33 33 -48 36 -22 52 -21 52 3 0 8 4 19 8 23 13 13 7 40 -11 57 -22 20 -53 22 -70 5z m48 -32 c0 -3 -4 -8 -10 -11 -5 -3 -10 -1 -10 4 0 6 5 11 10 11 6 0 10 -2 10 -4z"/>
 <path d="M408 1309 c-10 -5 -18 -17 -18 -26 0 -15 -2 -15 -18 0 -26 23 -55 21 -80 -6 -30 -31 -28 -71 3 -91 31 -20 59 -20 76 0 16 20 1 48 -30 52 -32 5 -25 22 8 22 19 0 40 -10 59 -30 33 -32 72 -40 72 -15 0 9 -12 20 -26 25 -41 16 -23 35 31 34 l48 0 -27 23 c-29 24 -69 29 -98 12z"/>
 <path d="M546 1311 c-7 -11 -1 -60 9 -69 11 -12 26 17 23 44 -3 28 -21 43 -32 25z"/>
 <path d="M909 1313 c0 -1 -1 -20 -1 -40 -1 -42 15 -54 32 -23 6 11 22 25 36 30 22 9 33 29 17 31 -26 4 -83 5 -84 2z"/>
 <path d="M149 1287 c-9 -7 -19 -26 -23 -43 -6 -27 -3 -35 24 -58 17 -14 38 -26 46 -26 8 0 16 -15 20 -40 6 -35 28 -70 38 -59 2 2 1 50 -2 107 -4 82 -8 102 -18 98 -8 -3 -20 3 -26 14 -14 23 -35 25 -59 7z m49 -39 c13 -13 17 -58 5 -58 -5 1 -19 10 -32 20 -19 17 -21 23 -11 35 15 18 22 19 38 3z"/>
 <path d="M503 1204 c-7 -18 8 -49 23 -49 5 0 10 15 11 33 1 35 -22 46 -34 16z"/>
 <path d="M695 1210 c-9 -14 13 -50 30 -50 18 0 19 14 5 41 -12 21 -25 25 -35 9z"/>
 <path d="M625 1060 c-7 -22 -20 -26 -30 -10 -20 32 -71 -5 -77 -55 -2 -24 -8 -31 -30 -33 -22 -3 -28 1 -28 17 0 32 -20 35 -49 7 -25 -26 -25 -28 -7 -41 14 -10 17 -22 13 -43 -6 -32 5 -58 22 -48 6 4 11 20 11 37 0 35 27 41 32 7 2 -13 11 -24 22 -26 16 -3 18 0 13 24 -4 23 0 33 19 47 39 29 62 9 66 -56 3 -48 5 -52 28 -52 23 0 26 5 31 53 7 54 30 92 57 92 9 0 12 6 8 16 -3 9 -6 18 -6 20 0 2 -11 4 -24 4 -15 0 -32 -11 -45 -27 -24 -33 -27 -17 -6 33 14 35 13 54 -5 54 -5 0 -12 -9 -15 -20z m-35 -55 c10 -12 10 -15 -4 -15 -9 0 -16 7 -16 15 0 8 2 15 4 15 2 0 9 -7 16 -15z"/>
 <path d="M137 1013 c-10 -10 -8 -81 2 -88 13 -7 19 5 27 53 5 33 3 42 -8 42 -8 0 -18 -3 -21 -7z"/>
 <path d="M260 995 c-11 -30 -30 -33 -37 -5 -6 23 -33 27 -33 6 0 -8 -3 -21 -6 -29 -4 -11 6 -21 32 -33 36 -17 37 -17 55 5 20 25 26 81 9 81 -6 0 -15 -11 -20 -25z"/>
 <path d="M339 990 c-1 -16 -2 -36 -3 -42 -1 -7 5 -13 13 -13 16 0 33 49 24 71 -10 26 -33 15 -34 -16z"/>
 <path d="M9991 934 c0 -11 3 -14 6 -6 3 7 2 16 -1 19 -3 4 -6 -2 -5 -13z"/>
 <path d="M87 914 c-10 -11 -9 -52 3 -59 6 -3 13 1 16 10 8 19 -8 60 -19 49z"/>
 <path d="M306 913 c-12 -12 -6 -43 9 -43 8 0 15 9 15 19 0 21 -13 34 -24 24z"/>
 <path d="M8441 821 c-25 -35 -26 -39 -5 -62 15 -16 14 -23 -6 -86 -13 -37 -29 -81 -37 -96 -8 -16 -12 -36 -9 -44 10 -25 33 2 56 65 53 147 50 140 72 134 20 -5 21 -3 14 48 -9 66 -11 70 -41 70 -15 0 -31 -11 -44 -29z m39 -26 c-7 -8 -17 -15 -22 -15 -6 0 -5 7 2 15 7 8 17 15 22 15 6 0 5 -7 -2 -15z"/>
 <path d="M9152 791 c2 -34 10 -67 17 -74 9 -9 11 2 9 57 -2 48 -7 71 -17 74 -11 4 -13 -8 -9 -57z"/>
 <path d="M9240 831 c-12 -8 -11 -11 5 -16 75 -24 82 -40 37 -85 -31 -31 -101 -55 -132 -45 -21 7 -28 -9 -9 -21 19 -11 86 -6 117 10 65 34 104 115 69 145 -20 16 -70 23 -87 12z"/>
 <path d="M8926 799 c-9 -45 -7 -89 3 -89 8 0 21 56 21 98 0 33 -17 27 -24 -9z"/>
 <path d="M9012 808 c-24 -31 -24 -59 -1 -84 12 -13 31 -24 41 -24 19 0 24 15 8 25 -6 4 -8 11 -4 16 3 5 1 16 -6 24 -13 16 3 30 25 21 18 -7 19 6 3 22 -16 16 -53 15 -66 0z"/>
 <path d="M3092 776 c-6 -13 -35 -37 -64 -53 -50 -26 -53 -30 -56 -71 -6 -75 60 -133 98 -87 12 14 16 13 36 -5 26 -26 98 -38 109 -20 15 25 23 83 15 106 -6 14 -29 33 -57 46 -45 22 -48 26 -51 66 -4 47 -14 54 -30 18z m36 -101 c20 -14 42 -25 48 -25 24 0 38 -29 26 -55 -13 -27 -28 -31 -66 -14 -21 10 -24 17 -19 44 8 48 -11 50 -41 5 -29 -44 -50 -50 -66 -19 -15 28 -7 45 32 69 41 25 42 25 86 -5z"/>
 <path d="M8910 665 c0 -8 -10 -19 -21 -26 -19 -9 -21 -18 -17 -60 6 -61 29 -87 116 -136 35 -20 60 -39 55 -43 -4 -5 -28 -15 -53 -23 -49 -16 -71 -40 -54 -57 8 -8 63 -9 183 -4 158 6 171 8 171 26 0 17 -7 18 -127 12 l-128 -7 30 25 c28 25 29 26 12 51 -9 14 -38 36 -64 49 -53 26 -123 90 -123 113 0 28 46 36 154 26 57 -6 116 -7 132 -2 27 7 28 8 9 18 -11 6 -71 16 -133 23 -62 7 -115 17 -118 21 -8 14 -24 10 -24 -6z"/>
 <path d="M9700 656 c0 -16 30 -26 81 -26 42 0 53 8 38 27 -16 18 -119 18 -119 -1z"/>
 <path d="M9556 634 c-11 -28 -7 -109 4 -98 15 15 25 114 12 114 -5 0 -13 -7 -16 -16z"/>
 <path d="M9886 523 c6 -123 9 -137 25 -127 12 7 7 165 -7 212 -15 53 -23 14 -18 -85z"/>
 <path d="M9991 614 c0 -11 3 -14 6 -6 3 7 2 16 -1 19 -3 4 -6 -2 -5 -13z"/>
 <path d="M8103 598 c-51 -57 -56 -101 -14 -123 35 -18 49 -5 21 20 -23 21 -16 48 11 40 21 -7 28 19 9 30 -8 5 -7 11 1 21 22 26 -5 37 -28 12z"/>
 <path d="M9296 559 c-9 -89 -7 -167 3 -174 6 -3 12 9 15 27 8 53 14 182 9 196 -10 28 -21 9 -27 -49z"/>
 <path d="M9637 573 c-4 -21 -7 -70 -7 -109 0 -55 4 -73 15 -78 8 -3 15 -14 15 -24 0 -10 5 -23 12 -30 9 -9 7 -12 -11 -12 -16 0 -22 -5 -19 -17 2 -13 13 -18 33 -18 24 0 31 5 33 23 2 13 -2 30 -9 38 -10 13 -10 17 2 25 8 5 22 9 33 9 16 0 17 2 5 16 -9 11 -23 14 -47 11 l-33 -6 2 95 c2 100 -13 146 -24 77z"/>
 <path d="M9742 580 c-59 -36 -55 -52 36 -151 83 -89 77 -42 -6 60 l-34 41 46 21 c25 11 46 26 46 34 0 22 -49 19 -88 -5z"/>
 <path d="M9990 570 c0 -7 3 -10 7 -7 3 4 3 10 0 14 -4 3 -7 0 -7 -7z"/>
 <path d="M8155 534 c-21 -50 -8 -99 26 -99 24 0 29 14 18 55 -3 9 4 16 19 18 27 4 29 22 3 29 -11 3 -22 11 -25 19 -9 24 -25 15 -41 -22z"/>
 <path d="M9376 553 c-3 -3 -6 -28 -6 -55 0 -36 4 -48 13 -45 6 2 20 -3 30 -11 16 -14 19 -14 31 3 12 17 16 17 30 6 14 -12 19 -11 36 4 21 19 29 95 10 95 -5 0 -10 -10 -10 -22 0 -13 -5 -30 -10 -38 -9 -13 -15 -9 -40 20 l-30 34 0 -32 c0 -18 -4 -32 -9 -32 -11 0 -21 25 -21 50 0 20 -13 33 -24 23z"/>
 <path d="M8246 505 c-9 -14 -14 -30 -11 -36 4 -5 1 -16 -5 -24 -17 -20 4 -45 36 -45 24 0 32 14 14 25 -15 9 -12 25 4 19 8 -3 17 -1 20 4 3 6 -1 12 -9 16 -20 7 -19 36 0 36 20 0 19 16 -1 24 -25 10 -31 7 -48 -19z"/>
 <path d="M417 490 c-32 -37 -63 -128 -49 -142 6 -6 18 9 35 46 14 31 30 56 34 56 4 0 17 -18 27 -40 11 -22 25 -45 33 -51 25 -22 25 19 0 73 -14 29 -28 61 -31 71 -8 24 -21 21 -49 -13z"/>
 <path d="M1007 471 c-19 -17 -40 -31 -45 -31 -15 0 -35 -38 -27 -50 3 -6 16 -8 29 -4 15 3 28 -2 40 -15 23 -25 64 -27 73 -4 4 11 -3 24 -22 40 -31 27 -25 38 28 50 39 8 32 37 -10 41 -23 2 -40 -5 -66 -27z"/>
 <path d="M9994 250 c0 -140 2 -198 3 -128 2 71 2 185 0 255 -1 71 -3 13 -3 -127z"/>
 <path d="M740 475 c-16 -19 -26 -140 -12 -149 6 -4 13 14 17 46 4 29 14 61 22 70 15 17 12 48 -5 48 -5 0 -15 -7 -22 -15z"/>
 <path d="M886 468 c-15 -21 -16 -21 -36 -3 -30 27 -52 4 -48 -49 3 -47 21 -54 28 -11 4 23 7 25 16 14 6 -8 14 -22 17 -31 10 -29 26 -21 33 17 3 19 10 38 15 41 12 7 12 44 0 44 -6 0 -17 -10 -25 -22z"/>
 <path d="M8329 468 c-26 -49 4 -138 48 -138 19 0 16 11 -14 42 -18 19 -22 28 -12 28 8 0 20 -5 27 -12 22 -22 26 2 4 25 -28 30 -29 51 -2 42 22 -7 26 5 8 23 -19 19 -46 14 -59 -10z"/>
 <path d="M537 473 c-14 -13 -6 -70 11 -86 27 -24 38 -21 69 18 15 19 34 35 41 35 17 0 15 29 -3 37 -9 3 -24 -2 -34 -11 -16 -15 -19 -15 -31 -1 -13 15 -42 20 -53 8z m54 -49 c12 -14 11 -16 -5 -13 -11 2 -21 10 -24 17 -5 17 13 15 29 -4z"/>
 <path d="M9540 453 c1 -18 19 -35 29 -28 9 5 9 10 0 21 -12 15 -29 19 -29 7z"/>
 <path d="M8000 408 c-30 -48 -35 -77 -17 -95 14 -14 18 -14 48 1 40 20 39 20 39 -5 0 -13 11 -25 34 -34 18 -8 41 -26 50 -41 14 -21 23 -25 45 -21 18 4 39 -1 60 -14 17 -10 38 -19 46 -19 22 0 18 28 -5 35 -24 8 -25 24 -5 87 14 46 8 67 -15 53 -6 -4 -16 -2 -23 3 -7 5 -27 9 -46 9 -30 0 -35 -5 -52 -45 -17 -39 -21 -43 -36 -31 -15 13 -15 14 0 17 22 4 22 18 0 31 -17 9 -17 10 0 16 13 6 15 11 7 21 -7 7 -18 10 -25 8 -9 -4 -15 4 -17 23 -2 23 -8 29 -35 31 -28 3 -36 -2 -53 -30z m60 -12 c0 -18 -37 -63 -45 -54 -11 10 24 67 43 68 1 0 2 -6 2 -14z m156 -82 c-22 -21 -31 -12 -16 16 8 15 15 19 22 12 8 -8 6 -16 -6 -28z m25 -67 c-16 -16 -26 20 -10 40 13 15 14 14 17 -7 2 -12 -1 -27 -7 -33z m-51 7 c0 -8 -4 -12 -10 -9 -5 3 -10 10 -10 16 0 5 5 9 10 9 6 0 10 -7 10 -16z"/>
 </g>

</svg>