<?xml version="1.0" encoding="utf-8"?>
<!-- Generator: Adobe Illustrator 16.0.4, SVG Export Plug-In . SVG Version: 6.00 Build 0)  -->
<!DOCTYPE svg PUBLIC "-//W3C//DTD SVG 1.1//EN" "http://www.w3.org/Graphics/SVG/1.1/DTD/svg11.dtd">
<svg version="1.1" id="Layer_1" xmlns="http://www.w3.org/2000/svg" xmlns:xlink="http://www.w3.org/1999/xlink" x="0px" y="0px"
	 width="1000px" height="696px" viewBox="0 0 1000 696" enable-background="new 0 0 1000 696" xml:space="preserve">
<path d="M108.3,684c-1.7-1-5.1-4.4-7.7-7.5c-5.2-6.4-5.898-10.3-3-17.1c3.5-8.102,3.4-15-0.6-59.102c0-0.2-0.602-0.3-1.4-0.3
	c-0.7,0-1.898-0.6-2.5-1.4c-0.898-1.1-0.8-1.698,0.9-2.898c1.898-1.3,2-1.9,1-8.3c-1.5-10-5.4-22.5-10-31.802
	c-4.7-9.698-5.9-15.6-3.8-18.898c2.1-3.102,11.1-7.5,18.3-8.8c3.3-0.602,6.7-1.302,7.5-1.602c0.8-0.398,2.2-0.5,3-0.398
	c2.2,0.198,3.8-3,3.3-6.5c-0.4-2.602-1-3.2-4.6-4c-3.602-0.802-4.2-1.302-4.2-3.4c0-2.3,0.3-2.5,3.8-2.2c3.6,0.3,4.2-0.2,3.8-3.398
	c-0.2-1.602,2.602-3.7,3.9-2.9c0.5,0.3,1,1.9,1,3.6c0,2.9,0.1,2.9,5.6,2.9c5.2,0,6-0.3,11-4.6c6.102-5.2,8.602-6,24.102-6.9
	c5.398-0.3,11.198-0.8,12.8-1c11.2-1.4,39.1-2.4,70-2.5h15l-10.5-4.9c-22.9-10.5-50.5-24.3-54.602-27.3
	C184.6,458.7,179,451.4,179,448c0-3.7,3.398-6.8,5.5-5c1.1,0.9,1.2,1.6,0.398,2.6c-0.698,0.9-0.698,1.9,0,3.2
	c1.7,3.2,9.4,9.5,15.302,12.4c8.3,4.3,41.698,20.2,48.898,23.398c33.3,14.7,80.399,41.802,78,44.802
	c-1.4,1.698,2.899,7.8,9.8,13.698c3.5,3,4.7,4.7,4,5.5c-0.6,0.7-0.5,1.5,0.3,2.2C343,552.2,353,553.9,361.8,554.2
	c6.1,0.3,7.5,0,8.3-1.4c1.3-2.3,11.399-2.5,16.7-0.3c2,0.9,4.7,1.3,5.898,1c2.301-0.5,18.7-0.9,87.801-2.1
	c27.199-0.5,35.601-0.9,37.699-2c1.5-0.802,3.802-1.4,5.2-1.4c1.4,0,2.8-0.5,3.102-1.1c0.5-0.7,1.398-0.4,2.698,0.8
	c1.7,1.5,3.602,1.8,12.7,1.5c5.8-0.102,16.2-0.7,23.102-1.2c6.898-0.6,19.898-1.3,29-1.6c20.898-0.7,25.698-1.9,29.5-7.5
	c3.698-5.2,17-17.7,24.898-23.302c8.5-6.1,23.102-13.3,33.4-16.6c4.8-1.5,12.398-4.4,16.898-6.4S707,489,707.3,489
	c1.3,0,16.398-7.4,18-8.8c1.3-1.2,2-1.3,2.898-0.4c3.5,3.5-14.698,13.2-43.8,23.2c-22,7.6-36.398,16.7-51.2,32.6
	c-4.5,4.802-8.198,9-8.198,9.4c0,0.3,1.398,1.7,3.1,2.9c5.3,3.898,6.2,7.698,5.4,22.198l-0.7,12.602l14.898,0.5
	C662,583.7,662.8,583.8,669.5,587c18.198,8.7,26.3,25.1,23.5,47.2c-0.602,4.7-0.9,10.898-0.5,13.6c0.398,3.5,0.1,6.102-0.9,8.7
	l-1.6,3.8l-9.302-0.8c-12.3-0.9-53.6-0.8-55,0.2c-0.698,0.5-9.5,0.6-19.698,0.3c-10.2-0.3-21-0.2-24,0.2c-3,0.398-23.5,1.2-45.5,1.7
	c-22,0.6-41.102,1.3-42.5,1.5c-1.4,0.3-9.9,0.8-19,1.1c-9.102,0.3-23.5,1-32,1.5s-34.4,1.2-57.5,1.5c-23.102,0.3-48.302,0.8-56,1.1
	c-7.7,0.4-22.802,0.7-33.5,0.9c-10.7,0.2-21.602,0.7-24.102,1c-4.898,0.8-9.3-0.7-8.6-2.8c0.7-2.102,7.6-2.8,34.699-3.7
	c14.601-0.5,27.399-1.1,28.5-1.4c1.899-0.5,2-1.198,1.801-14.3c-0.4-23.3,2.199-33.8,10.3-41.3c2.399-2.2,4.2-4,4.1-4
	c-1.6,0-20.3,4.4-24.199,5.7c-7.301,2.398-30.399,13.398-42.699,20.5c-7.4,4.2-10.8,6.7-10.8,7.898c0,1-0.9,2.302-1.9,2.9
	c-2.398,1.2-4.6,10.1-3.898,15.6c0.5,3.302,0.1,4.2-2,6c-2.602,2.102-2.602,2.2-0.802,4.9c1,1.6,3,3.9,4.4,5.2
	c2.1,1.898,2.4,2.8,1.5,4.1c-0.6,0.9-1.8,1.602-2.6,1.4c-0.802-0.102-3,0.6-4.9,1.7c-3.5,2-15.8,3.8-26.3,3.898
	c-3.3,0-20.2,0.5-37.5,1.102c-17.3,0.6-42.3,1.3-55.602,1.5C113.3,685.9,111.1,685.7,108.3,684z M113.6,678.5
	c1.602-0.8,4-1.6,5.4-1.6c1.6-0.102,1.1-0.4-1.5-0.802c-3.4-0.6-7.5,0.2-9.5,1.7c-0.3,0.2,1.898,2.102,2.6,2.2
	C110.7,680,112.1,679.3,113.6,678.5z M140,677.4c5.898-0.5,8.398-1.2,9.6-2.5c1.7-1.802,1.4-1.9-6.2-1.802
	c-11.1,0.2-13.8,0.9-14.198,3.802c-0.302,1.8,0,2.198,1.198,1.8C131.3,678.3,135.6,677.7,140,677.4z M179.8,677.9
	c-0.2-0.5,1.4-1.602,3.5-2.4c5.5-1.9,5.6-2.5,0.6-2.5c-3.898,0-4.898,0.4-6.698,3l-2.302,3h2.602C178.9,679,179.9,678.5,179.8,677.9
	z M201.4,675.9c2-1.2,3.602-2.302,3.602-2.5c0-0.2-2.4-0.4-5.4-0.4c-4.6,0-5.6,0.3-7,2.5L191,678h3.398
	C196.3,678,199.5,677.1,201.4,675.9z M170.5,674.9c1.2-0.5-1.3-0.802-6.602-0.802c-6.5-0.1-8.8,0.302-9.198,1.302
	c-0.4,1.1,0.898,1.198,6.6,0.8C165.3,675.9,169.4,675.4,170.5,674.9z M222.1,673.1l4.4-3.898l-5.5,1c-3.602,0.6-6.5,1.898-8.7,3.898
	l-3.4,2.9h4.4C217,677,218.4,676.4,222.1,673.1z M234.1,676c2,0,3.7-1.3,6.9-5.7c3.898-5,4.1-5.5,1.898-4.898
	c-1.3,0.5-4.5,1.3-7.1,1.898c-2.9,0.7-4.8,1.602-4.8,2.5c0,0.8-1,2.8-2.2,4.5l-2.2,3l2.5-0.6C230.4,676.3,232.7,676,234.1,676z
	 M245.6,674.9c0.4-0.7,1-0.7,1.602-0.102c0.898,0.9,7.3,0.102,8.398-1.1c0.3-0.3-0.6-2.2-2.1-4.2c-1.4-2.1-2.5-4.3-2.5-4.9
	c0-0.6-1.2,0.9-2.602,3.4c-1.398,2.5-3.3,5.3-4.1,6.3c-0.9,0.9-1.1,1.7-0.5,1.7S245.2,675.5,245.6,674.9z M107.8,672.1
	c1-0.6,1-1-0.2-2c-0.8-0.698-2-2.8-2.6-4.698c-1.4-4-2.7-4.302-4-0.9C99,669.9,103.4,674.9,107.8,672.1z M122.6,665.8
	c-0.398-2.398-1.1-21.5-1.6-42.5c-0.4-21-1-38.6-1.3-39c-0.302-0.398-0.802-4.8-1.102-9.8c-0.398-4.9-1.2-14.3-1.8-20.7
	c-1-10.7-1.2-11.7-3.2-12c-1.1-0.2-2.5-1.3-3-2.398c-0.8-1.802-1.6-2.102-5-1.602c-2.3,0.2-4.3,0.602-4.5,0.8
	c-1.7,1.4,1.2,23.102,3.9,29.2c2.8,6.3,6.8,22.3,7.5,30.2c0.3,3.6,1,14.8,1.5,25l0.898,18.4l-3.3,6.3c-2.2,4.2-3,6.5-2.3,7.2
	c0.7,0.698,0.6,1.5-0.3,2.5c-1.7,2.1-0.602,5.698,2.898,9.5c2.4,2.5,3.7,3.1,7.102,3.1h4.3L122.6,665.8z M170.5,667.5
	c39.898-0.2,51.6-1.4,70.898-6.9l8-2.3l0.302-3.7c1.1-14.1,6.698-20.198,30.3-32.898c11.5-6.2,33.698-16.2,40.398-18.102
	c7.9-2.3,20.5-4.6,25.602-4.6l4.5-0.1l-4.5-2.2c-2.5-1.3-4.4-2.8-4.2-3.602c0.1-0.698-0.5-3.6-1.4-6.5
	c-1.898-5.698-3.6-30.5-2.1-32.1c0.5-0.6,1.5-0.2,2.6,1.2c1.4,1.7,1.9,4.8,2.4,14.5c0.3,6.8,1.1,14.6,1.8,17.5
	c1.2,4.6,1.7,5.2,4.899,6.2c6.899,2,14,2.3,26.101,1.1c6.8-0.7,13-1.5,13.7-1.9c0.8-0.5-0.3-1.8-3.5-4.1
	c-7.102-4.9-14.2-12-16.5-16.4c-1.9-3.6-2-6.5-0.3-10.6c0.5-1.3-1.4-1.8-12.102-2.8l-12.7-1.2l-4.6-4.2c-2.5-2.3-4.8-4.6-5-5.2
	c-0.2-0.5-1.8-2.198-3.601-3.8c-1.899-1.6-4.699-5-6.399-7.7c-1.8-2.698-5-6.1-7.101-7.5l-4-2.6v3.1c0,8.5,3.399,34.802,6.101,46.7
	c3.1,14.2,3.5,18.7,1.8,19.8c-2,1.2-3.399-1.6-4.5-8.898c-0.6-4-2.1-11.5-3.2-16.7c-2.1-9.4-3.5-21.3-4.8-38.5
	c-0.6-7.5-1-9.2-2.8-10.5c-2.4-1.7-12.7-8-13.1-8c-0.2,0-3-1.5-6.301-3.4c-3.899-2.198-6.399-3-7-2.398
	c-0.5,0.5-4.5,1.2-8.801,1.398C261.6,510.2,245.2,511.7,234,512.9c-17.7,2-21.8,2.198-57.7,2.698c-20.2,0.4-39.2,0.602-42.2,0.602
	s-6.2,0.3-7.2,0.8c-1.1,0.6-2.898,0.6-4.898-0.1c-1.7-0.602-3.4-0.802-3.8-0.4c-0.4,0.4-0.102,1,0.6,1.2c0.7,0.3,1.7,1.6,2.2,2.898
	c0.6,1.4,1.8,2.4,2.898,2.4c1,0,2.4,0.6,3,1.4c1,1.1,0.7,1.698-1,2.898c-2,1.4-2.1,1.9-1.1,5.9c1.2,4.7,0.3,6.8-3,6.8
	c-1.6,0-1.9,0.5-1.5,2.3c0.3,1.2,1.1,8.102,1.7,15.2c0.6,7.2,1.3,14.8,1.5,17c1.7,15.9,2.6,33.3,2.898,57.7
	c0.2,15.6,0.7,30.2,1.102,32.6c0.7,4.102,0.898,4.3,3.398,3.602C132.3,668,150.2,667.6,170.5,667.5z M415,661.1
	c43-1.198,74.198-2.5,96.198-4.1c8.102-0.6,20.302-0.8,27-0.4c8.4,0.4,18.602,0.102,31.802-1.1c12.6-1.1,22.6-1.4,28.198-1
	c9.4,0.8,11-0.1,5.4-2.7c-2.9-1.398-3.5-1.5-4.8-0.2c-1.2,1.302-1.7,1.102-3.4-0.8c-4.2-4.7-6.7-12.7-7.2-23.3
	c-0.5-11.7,1.2-20,5.9-28.3l2.899-5.2l-3.699,0.5c-2.102,0.2-9.2,0.9-15.801,1.5s-13.801,1.8-16,2.6c-4,1.4-14.699,1.5-16.101,0.102
	c-0.399-0.4-5.899-0.7-12.2-0.7c-11.398,0-11.398,0-10.8,2.3c1.8,6.3,2.7,13.8,3.7,29.4c1,17.7,0.5,22.1-2.6,20.898
	c-0.7-0.198-1.9,0.2-2.602,1c-0.898,1.102-2.2,1.4-4.7,0.9s-3.898-0.2-5.199,1c-1,0.9-2.301,1.4-2.899,1.1
	c-1.8-1.1-4.2-7-5.101-12.198c-0.899-5.7,1.101-33.302,3-39.4c0.5-1.9,1-3.8,1-4.1c0-0.302-9.301-0.9-20.699-1.302
	c-11.5-0.398-26.602-0.898-33.801-1.198l-13-0.5l-1.899,6.1c-2.5,7.8-3.3,17.4-2.3,28c1,11.1,3.898,22.5,5.8,22.5
	c2.1,0,2.2,2.9,0.1,5.6c-1.699,2-2.199,2.102-3.6,1c-3.3-2.8-7.601-22.398-7.8-36.198c-0.102-6.7-0.4-7.602-1.9-7.2
	c-2.1,0.6-3.2,5.3-1.6,7.1c0.8,1,0.8,1.9-0.102,3.2c-0.699,1.2-0.8,2.1-0.199,2.5c1.601,1,1.199,5.5-0.5,6.2
	c-1.399,0.5-1.399,0.8,0.101,2.398c0.899,1,1.399,2.4,1.1,3.2c-0.3,0.7,0.301,1.8,1.301,2.4c1.5,1,3.101,5.2,3.399,8.8
	c0.101,0.6,0.8,1.5,1.601,2.1c1.199,1,1.199,1.4,0.101,2.802c-1.7,2-3.4,2-7.2,0.1c-2.8-1.5-3-1.5-5.398,1.2
	c-2.4,2.8-2.4,2.8-4.302,0.8c-2.5-2.6-5.398-17.6-5.398-27.6c0.1-10,2.398-20.302,6.1-27.9l3.102-6.2l-3.7,0.7
	c-2.102,0.4-4.5,0.8-5.3,0.9c-0.802,0-1.9,0.698-2.302,1.398c-1.1,1.7-4,1.5-8.1-0.5c-3.3-1.5-4.5-1.5-19,0.2
	c-14.4,1.7-24.5,1.6-28.9-0.1c-1.3-0.5-1.6-0.2-1.1,1c0.4,1.1-0.2,2.6-1.7,4.198c-2.1,2.2-2.1,2.4-0.398,1.802
	c1.1-0.5,2.8-1.802,3.8-3.102c2.3-2.8,3.8-2.898,6.2-0.3c2.3,2.6,1.3,4.8-3,6.6c-6.302,2.602-12.302,18.602-11,29.7
	c0.898,8.5,4.3,18.602,7,21.102c2.198,2,3.198,2.198,13.198,1.898C371.6,662.2,393.8,661.6,415,661.1z M337.6,656
	c2.3,0,0.7-1.7-2.1-2.2c-2-0.398-2.5-0.1-2.5,1.4c0,1.398,0.5,1.8,1.6,1.398C335.5,656.3,336.8,656,337.6,656z M620.4,651.8
	c-0.3-1.8-1.898-8.5-3.398-14.8c-1.602-6.3-3.2-13.1-3.5-15c-1.9-10.1-2.102-10.5-6.5-10.5c-2.2,0-4,0.1-4,0.2
	c0,0.1,1.6,1.1,3.5,2.3c3.8,2.3,4.698,5.8,2,8c-1.302,1-1.302,1.5-0.102,3.2c0.8,1.1,1.2,2.7,0.9,3.5c-0.4,0.898,0.5,2.398,2.3,3.8
	c2.5,2,2.7,2.5,1.7,4.8c-1,2.2-0.9,2.7,1.1,4.102c2.5,1.6,4.3,8.3,2.7,9.898c-1.4,1.4-0.1,3.7,2,3.7
	C620.6,655,620.9,654.5,620.4,651.8z M687.5,649.9c-0.4-2.802-0.2-9.4,0.5-14.7c1.5-11.7,0.5-18.7-4.102-28
	c-4.6-9.5-15.8-16.7-27.6-17.9l-5.801-0.6l4.101,4.898c6.5,7.9,13.2,17.802,15.7,23c2,4.4,2.199,6.302,2,18.7
	c-0.102,11.4-0.4,14.2-1.801,15.7c-1.601,1.7-1.399,1.9,5.199,2.5c3.7,0.4,7.301,0.8,7.801,1C687.5,655.9,688.198,655.1,687.5,649.9
	z M657.4,653.2c9.5-0.2,10.7-0.4,9.602-1.7c-0.7-0.8-1-2.8-0.802-4.4c0.302-2,0-2.698-0.8-2.398c-0.7,0.2-1.5,0-1.898-0.602
	c-1.302-2.198-2-1-1.7,2.802c0.2,2.398-0.102,4.198-0.9,4.6c-2.6,1.7-4.7-3.5-7.7-19.4c-3.698-19.3-6.5-25.398-17-37.698l-4.1-4.802
	l-2.2,2.802c-1.898,2.398-2.3,2.6-3.6,1.3s-1.7-1.3-3.4,0.398c-1.898,1.9-2,1.9-5.898-0.3c-2.102-1.3-4.102-2-4.5-1.7
	c-0.302,0.4,0.5,5.102,1.898,10.5c7.798,30.8,11.6,46.6,11.6,48.8c0,2.3,0,2.3,10.3,2.1C641.9,653.4,651.4,653.2,657.4,653.2z
	 M108,645c0-0.5-0.7-1-1.5-1c-0.9,0-1.5,0.9-1.5,2.3c0,1.2-0.3,3.3-0.602,4.7c-0.398,1.8,0,1.5,1.5-1.2
	C107.1,647.7,108,645.6,108,645z M521.5,635.3c-0.302-6.5-0.802-14.6-1.102-18.1c-0.6-6.102-0.6-6.3-2.398-4.7
	c-1.802,1.6-1.802,1.9-0.302,4.2c1.302,2,1.4,2.898,0.5,4.398c-1,1.5-0.898,2.302,0,3.9c1,1.5,1,2.2,0.102,3.1
	c-0.9,0.9-0.8,1.7,0.398,3.5c1.4,2.2,1.4,2.7,0,5.7c-1.5,3-1.5,3.3,0.4,5.3c1,1.102,1.899,2.602,1.899,3.2c0,0.7,0.199,1.2,0.5,1.2
	C521.8,647,521.8,641.7,521.5,635.3z M606,640.5c0-0.3-2.602-1.7-5.802-3.3c-5-2.3-5.8-2.5-5.5-1c0.302,0.898,1,1.5,1.602,1.3
	c0.7-0.3,3,0.4,5.2,1.4C606.3,641.2,606,641.1,606,640.5z M109.2,631.2c-0.302-3.5-0.602-3.8-2.802-3.4c-1.698,0.3-2.3,0.9-2,1.9
	c0.302,0.8,0.602,3.6,0.602,6.1l0.1,4.7l2.2-2.7C109,635.7,109.5,634.1,109.2,631.2z M417.5,631.9c-0.4-0.602,0.3-1.302,1.398-1.602
	c2-0.5,2-0.6,0.4-1.898c-1-0.7-2.102-1.4-2.5-1.4c-1,0-1,4.4-0.102,5.3C417.698,633.4,418.198,633.1,417.5,631.9z M604.4,631.6
	c-0.3-0.8-2-1.698-3.8-2c-3.9-0.8-7.1-3.898-6.2-6.1c0.4-1.1,1.2-1.4,2.7-1c1.9,0.6,2,0.5,0.9-1.5c-1-1.8-0.802-2.6,0.8-4.3
	c2.5-2.8,2.2-6.3-0.602-8.3c-2.1-1.4-2.3-1.4-3.3,1.3c-0.7,1.5-1.2,6.898-1.3,11.8c-0.1,8.5,0,9,2,8.7c1.1-0.102,3.6,0.398,5.5,1.2
	c1.9,0.898,3.5,1.5,3.6,1.6C604.8,633,604.698,632.4,604.4,631.6z M107.2,621.3c1.8-1.6,2.3-5,1.198-8.898
	c-0.398-1.602-1.1-2-3-1.602c-2.6,0.5-3,2.8-1.8,9.102C104.3,623.5,104.7,623.6,107.2,621.3z M338.698,619.9
	c-1.1-2.7-1-3.302,1.102-4.9c2.3-1.9,2.8-3,1.2-3c-1,0-6,8.1-6,9.8c0,0.7,1.1,1.2,2.398,1.2C339.698,623,339.8,622.8,338.698,619.9z
	 M513.3,615.7c0.2-0.602-0.602-2-1.9-3C509,610.9,509,610.9,509,614c0,2.3,0.398,3,1.898,3C511.9,617,513,616.4,513.3,615.7z
	 M660.8,611.5c-1.7-2.6-2.4-3-2.7-1.8c-0.2,0.898,0.7,2.5,1.9,3.5C663.198,615.8,663.3,615.5,660.8,611.5z M431,607.1
	c0.698-2.5,0.6-3.1-0.602-3.1c-0.8,0-1.2,0.5-0.898,1c0.398,0.6,0.1,1.7-0.5,2.5c-0.602,0.8-0.9,1.9-0.5,2.5
	C429.4,611.5,429.9,610.9,431,607.1z M422.3,608c0.8-3-0.8-3.3-2.102-0.5c-0.898,2-0.898,2.5,0.2,2.5
	C421.198,610,422,609.1,422.3,608z M512.5,607c-1.602-1.8-1.7-2-0.102-2.6c1.102-0.4,2.7,0.198,4.3,1.698l2.5,2.4L518.5,605
	c-0.9-4.4-0.7-4.3-4.102-3c-4.398,1.7-6,5.4-2.6,6.3c0.898,0.3,1.898,0.5,2.1,0.602C514.1,608.9,513.5,608.1,512.5,607z M105.9,604
	c2.102-1.8,2.2-2.4,1.5-6.7l-0.898-4.6l-2.7,2.398c-2.4,2.102-2.7,2.9-2.1,6.7c0.3,2.3,0.8,4.2,1.198,4.2
	C103.2,605.9,104.6,605,105.9,604z M601.1,604c-1.2-1.1-2.8-1.7-3.3-1.4c-0.602,0.4,0.2,1.302,1.8,2
	C603.6,606.3,603.9,606.2,601.1,604z M608.198,599c-1.698-7.1-4.3-8-4.698-1.8c-0.2,3.3,0.198,4.1,2.898,5.8c1.7,1.1,3.102,2,3.2,2
	C609.6,605,609,602.3,608.198,599z M653.3,600.8c-5.102-6.898-8.7-10.7-9.4-10.2c-1.6,1-1,2.102,3.9,6.802
	C652.1,601.6,655.5,603.7,653.3,600.8z M434.4,597.4c0.8-2.2-6.7-1.9-8.7,0.398c-1.5,1.602-1.3,1.7,3.301,1.4
	C432,598.9,434.1,598.3,434.4,597.4z M408,591.9c6.5,0.198,6.8,0.1,7.398-2.4c0.602-2.3-0.8-4.1-12.6-16.6
	c-12.2-12.802-13.5-13.9-16.2-13.4c-1.601,0.3-4.601,0.5-6.8,0.5c-3.5,0-4,0.3-5.4,3.5c-2.2,5.4-1.8,7,3.9,12.7
	c6.398,6.5,20.6,17,22,16.1C400.9,592,404.3,591.8,408,591.9z M509,591.9c0-1.2-1-2.102-13-12c-4.102-3.5-10.9-9.5-15.102-13.5
	c-5.5-5.302-8.5-7.4-11.1-7.9c-3.4-0.6-20.2,1-22,2.1c-1.4,0.9-0.801,4.802,1.1,7.802c2.4,3.6,17.4,14.1,28.7,20l8.8,4.6h11.3
	C505.3,593,509,592.6,509,591.9z M535.698,591.6c-0.198-0.5-3.198-3.198-6.8-5.8c-15.398-11.6-19.8-16.7-20.7-24.3l-0.5-4.5H493.3
	h-14.5l4.398,4.8c4.602,5.2,15,14.3,23.4,20.602c2.8,2.1,5.8,5.3,6.7,7.198l1.6,3.302L525.5,592.8
	C532.5,592.7,536,592.4,535.698,591.6z M462.8,585.8C447.198,575.6,441,568,442.5,561l0.698-3l-21.398,0.1
	c-11.7,0.102-22.4,0.4-23.7,0.802c-2.3,0.6-1.7,1.5,10.3,13.898c11.4,11.7,12.8,13.5,12.3,16l-0.5,2.7H445.8h25.7L462.8,585.8z
	 M564.9,590.1c3.102-5-7.1-17.5-22.7-27.8l-8.698-5.8l-9.802,0.3c-11.8,0.4-13,1.4-9.3,8.3c2.3,4.4,3.9,5.9,21.7,19.7l9.4,7.3
	l9.3-0.3C561.3,591.6,564.3,591.1,564.9,590.1z M105.6,586.3c-0.3-0.6-0.8-2.8-1.2-4.7c-0.6-3.5-1.698-4.198-4.6-3.1
	c-1.1,0.5-1.2,1.7-0.4,6.4l0.9,5.8l2.9-1.602C104.7,588.2,105.8,587,105.6,586.3z M588.5,589c6.1-0.6,12.5-1.4,14.398-1.8
	c3.4-0.7,3.4-0.8-5.3-4.602c-11.4-5.1-16.3-8.8-18.7-13.898c-2.398-5.3-2.398-7.4,0-12c2.2-4.4,3.602-4.102-13.398-2.7
	c-6.602,0.6-14.602,1.1-17.802,1.1l-5.8,0.102l4.7,3.6c14.3,11.2,23.399,22.4,23.399,28.9c0,3.398,0,3.5,3.801,2.898
	C575.8,590.3,582.5,589.5,588.5,589z M626.9,584.5c0.5-0.5,1.2-3.7,1.602-7c0.3-3.3,0.8-8.3,1.1-11.2c0.7-7-1-13.1-3.9-13.8
	c-5.198-1.2-30.698-1-30.698,0.3c0.1,0.4,4.898,3.602,10.8,7.2c17.3,10.5,24,18.6,19.398,23.3c-1.8,1.7-2.6,1.9-4.898,1.102
	c-3.4-1.2-3.602-3.602-0.4-4.4l2.4-0.5l-2.7-3.2c-2.3-2.8-18.4-13.398-29.4-19.398l-4.3-2.4l-2,2.4c-2.398,3-2.398,6.698,0.102,10.8
	c1.5,2.6,4.698,4.6,14.198,9.2c6.802,3.3,13.2,6.6,14.2,7.398C614.6,585.9,625.3,586.1,626.9,584.5z M100.5,572
	c0.898-1.4-3.4-11.5-4.7-11.2c-2.4,0.602-2.6,1.7-1.2,5.7c0.7,2.2,1.4,4.7,1.4,5.7c0,1.1,0.6,1.5,2,1.1
	C99.1,573,100.2,572.4,100.5,572z M94.1,555.4c2-1,2.9-2,2.5-3c-0.3-0.9-0.6-2-0.6-2.5c0-0.602-0.5-0.7-1.102-0.4
	c-0.6,0.4-2.5,0.7-4.398,0.7h-3.4L88.7,553.6c0.898,1.9,1.8,3.4,2,3.4C90.9,557,92.5,556.3,94.1,555.4z M95.3,540.6
	c1-3.1,1-3.1-2.3-3.898c-3.4-0.8-9.4,2.7-8.602,4.898C84.7,542.5,85,544,85,545.1c0,1.802,0.1,1.802,4.7,0
	C93.1,543.8,94.7,542.5,95.3,540.6z M217.5,507.9c8.8-0.602,19-1.4,22.7-2c3.8-0.5,12.698-1.2,19.898-1.602l13.2-0.6l-6.7-3.4
	c-6.5-3.3-6.7-3.3-9.8-1.7c-2.7,1.4-8.5,1.802-35.8,2.5c-17.9,0.5-37.9,1.302-44.5,1.802c-6.602,0.6-17.5,1.3-24.2,1.698
	c-10.8,0.602-12.5,0.9-14.3,2.9l-2,2.1l32.7-0.3C186.8,509.1,208.7,508.5,217.5,507.9z"/>
<path d="M159.9,593.4c-0.898-1-1.3-4.4-1.198-9.7c0-9.102,2.898-18.3,8.398-26.9c3.4-5.2,13.4-15,20.2-19.6
	c9.4-6.5,32.3-12.102,44.9-10.9c6.8,0.602,16.698,4.9,22,9.602C263,543.6,269.9,558.6,272.5,575.8c1.5,9.9,1.3,11.2-1,11.2
	c-1.3,0-4.102-3.9-3.602-5c0.602-1.2-1.198-13.9-2.6-18c-3.3-9.7-3.2-9.5-4.8-7.4c-1.3,1.7-1.602,1.802-4.102,0.4
	c-3.699-2.1-3.898-3.2-0.898-6.8l2.6-3.102l-3.7-4.1c-7.3-8-20.898-12.8-32.8-11.6l-6.6,0.8l1.5,2.8c2,3.9,1.898,6.3-0.4,8.4
	c-2.5,2.3-3.8,1.398-5.1-3.5c-0.9-3.102-0.801-4.4,0.199-5.602c1.101-1.398,1-1.5-1.199-0.8c-13.4,4.1-25.4,10.8-31.801,17.7
	l-2.301,2.6l4.5,2.102c6.301,3.1,7.102,4.398,5.102,7.5c-2.2,3.398-3.102,3.3-8.4-0.9c-2.398-1.9-4.7-3.5-5.1-3.5
	c-0.4,0-2.2,3.3-4,7.3c-2.602,5.4-3.5,9-3.801,14.5l-0.399,7.3l5.3-0.6c3-0.4,9.9-1.3,15.4-2.1c5.5-0.802,13.699-2,18.199-2.602
	l8.301-1.1l-2.102-2.8c-2.398-3.4-2.199-5.9,0.602-7.4c1.1-0.6,3.398-2.4,5-4c5.398-5.3,16.6-14.5,17.699-14.5
	c0.601,0-0.601-1.8-2.601-4c-3.899-4.3-4.3-5.5-2.399-6.7c2.199-1.3,15.101-0.3,17.699,1.4c2.2,1.398,2.301,1.898,1.9,9.898
	c-0.5,9.4-1.4,11.2-4.8,9.4c-2.4-1.3-2-1.5-16.801,13c-3.399,3.4-3.5,3.5-1.301,3.8c1.301,0.2,10.9-0.6,21.301-1.8
	c17.399-2,19.199-2,20.601-0.6c2.2,2.198,0.399,3.8-4.4,4.198c-7.6,0.5-36.398,3.602-50.898,5.5c-37.2,4.9-45.102,6.102-45.9,7
	C163.1,595.4,161.4,595.2,159.9,593.4z M231.4,562.6c7.2-6.1,6.5-7.3-0.898-1.6c-9.7,7.5-13.9,11.6-13.102,12.8
	c0.5,0.8,1.9,0,4.5-2.6C223.9,569.2,228.2,565.3,231.4,562.6z M240,547.9c-5.9-1.5-6.7-1-3,2.1c1.898,1.6,3.6,3.5,3.6,4.2
	c0.4,3.3,0.7,3,1.3-1.2C242.5,548.8,242.3,548.5,240,547.9z"/>
<path d="M707.3,640.3c-1.2-0.2-2.602-1-3.102-1.6c-0.5-0.7-1.198-7.602-1.5-15.4c-0.5-11.6-0.3-14.398,0.9-15.3c1.1-1,1.7-1,2.899,0
	s1.801,1,3,0c1.301-1,1.899-1,3.5,0.5c1.801,1.6,2,2.9,1.699,14.9c-0.199,13-1.3,17.8-4,17.5C710,640.8,708.5,640.5,707.3,640.3z"/>
<path d="M717.198,636.7c-0.6-0.7-0.398-5,0.302-11.2c0.898-6.8,0.898-10.4,0.198-11.3c-0.5-0.7-1.1-2.602-1.198-4.3
	c-0.2-1.602-0.4-3.102-0.602-3.2c-0.2-0.2-2.1-1.102-4.3-2c-3.5-1.602-4-1.602-5.601-0.2c-4,3.6-5.5,1.1-6.5-11l-0.699-9l-3.9-0.1
	c-2.3-0.102-4.8-0.9-5.898-1.9c-3.602-3.3-2.5-6.4,5.5-15.7l7.5-8.6l-2.802-3c-7.6-8.102-6.6-20.3,2.302-28c4.1-3.7,5.6-3.9,9.3-1.3
	c1.5,1,3.898,2.5,5.3,3.398c3.7,2.2,6.9,9.3,6.9,15.102c0,3.8-0.5,5.198-2.602,7.1l-2.6,2.4l4.1,4.198
	c2.2,2.302,4.2,5.102,4.5,6.302c0.3,1.198,0.3-1.7,0-6.4c-0.5-10-3.3-23.5-7.1-34.3c-3.801-10.5-3.4-10.9,9.5-12.2
	c5.5-0.5,10.398-1.3,10.8-1.7c0.399-0.5,1.5-0.8,2.399-0.8c1,0,3.399-1.1,5.399-2.5c3.8-2.5,5.601-2.5,5.601,0
	c0,1.7-5.601,6.5-7.601,6.5s-4.8,6.8-3.5,8.3c1.5,1.9,1.601,12.3,0.2,14.102c-0.7,0.8-3.7,2-6.7,2.698
	c-3.1,0.7-5.399,1.802-5.399,2.5c0,1.7,1.699,2.7,2.5,1.4c1-1.6,11.101-1.2,12.5,0.5c1,1.2,1.5,1.2,3.601-0.2
	c1.3-0.8,3.3-1.3,4.399-1c2.101,0.5,2.101,0.3,0.399-11.2l-0.5-3.3L750.5,529c-3.102,2.9-5.802,2-5.302-1.7c0.2-2.2,1-2.898,3.9-3.6
	c3.6-0.8,3.6-0.9,2.899-4.8c-0.801-4.302,0.5-6.302,3.699-5.7c2.102,0.398,3.7,9.398,4.9,28l0.7,11.7l2.898,0.6
	c1.9,0.5,3.7,0.1,5.4-1c1.3-0.8,2.899-1.3,3.399-1c0.601,0.4,1-0.6,1-2.2c0-1.5,0.699-5.3,1.5-8.3s1.301-5.5,1.199-5.6
	c-0.1-0.102-1.699-0.9-3.5-1.802c-3.699-1.898-8.6-8.1-10.199-13.1c-2.101-6.4,2.5-21.8,7.601-25.1c1.2-0.9,4.1-1.5,6.399-1.602
	c3.399,0,4.801,0.602,7.5,3.2c1.899,1.8,3.699,4.6,4,6.2c0.399,1.5,1.199,2.8,1.899,2.8c2.7,0,5.9,4.9,6.3,9.7
	c0.4,4,0,5.5-2.5,9.398c-1.699,2.602-4.699,5.9-6.8,7.5c-5.7,4.2-6.2,5.102-7.3,13.9c-2.8,20.9-3.1,23.8-3.1,26.6
	c0,2.302,0.398,3,1.398,2.602c0.8-0.3,2,0.1,2.602,0.898c0.698,0.802,1.698,1.4,2.3,1.4c0.7,0,0.7-0.4-0.102-1.2
	C782.5,576.1,782,575,782,574.2s-0.7-2-1.602-2.7c-1.5-1.1-1.3-2.3,2.5-14.1c2.3-7.102,4.602-14.2,5.102-15.802
	c0.6-1.698,0.6-3.5,0-4.6c-1.5-2.8,1-5.3,4-4.2c3.5,1.4,5,7.2,5.398,22.2c0.3,6.9,0.9,14.5,1.5,17c0.5,2.5,1.3,12.3,1.7,21.8
	c0.399,9.5,1.1,17.5,1.5,17.8c0.5,0.302,0.899,5.602,0.899,11.802c0,13.698-1.199,15.898-5.601,10.1c-2-2.7-2.399-3.9-1.6-4.7
	c1.6-1.6,1.5-13.898-0.102-15.898c-1.6-2.102-6-0.802-5.1,1.5c0.3,0.8,1.2,1.198,1.899,1c1.899-0.802,3.5,2.8,3.5,7.898
	c0,4.7-1.801,7.4-4.399,6.4c-0.8-0.3-1.601,0.2-1.9,1.398c-0.398,1.302-1.198,1.9-2.5,1.7c-1-0.2-2.6,0.3-3.5,1.102
	C780.5,636.5,779,634.6,779,627.8c0-3.5,0.398-7.898,0.898-10c0.8-3.6,0.8-3.6-2.8-4.1c-2-0.2-4.2,0-4.8,0.6
	c-0.7,0.5-2,0.7-2.801,0.3c-1.801-0.6-2-7.898-0.399-14.1c0.5-2.2,1.399-11,1.899-19.5c0.601-8.5,1.301-17.6,1.601-20.2l0.7-4.7
	l-4.2,1.602c-3.3,1.3-4.101,2.1-3.9,3.7c0.2,1.5,1,2.1,2.7,2.1c3.3,0,3.7,2,0.9,3.9c-2.801,2-4.7,2-6.801,0.1
	c-1.399-1.3-2.199-1.3-4.601-0.4c-2.5,1-10.899,2.2-21.6,3.2c-1.4,0.102-3,0.5-3.4,1c-0.399,0.4-1.6,0.7-2.7,0.7
	c-1.699,0-1.898,0.5-1.3,3.3c0.4,1.7,1,6.8,1.3,11.102c0.5,6.8,0.4,8.1-1.1,9.198c-1.2,0.802-2.7,0.9-4.6,0.4l-3-0.8l0.698,7.6
	c0.302,4.2,1.102,8.4,1.802,9.2c1.5,1.7,0.398,19.5-1.4,22.8C720.8,637.3,718.4,638.2,717.198,636.7z M793.1,605.1
	c2.4-2.5,2.5-3,1.9-10.1c-0.602-7.2-0.602-7.4-1.9-4.5c-2.8,6.7-6.8,8.4-9.7,4c-0.899-1.4-2.3-2.5-3-2.5c-0.8,0-1.8-1-2.3-2.2
	c-1-2.8-1.5-1.398-3.1,8.5c-1.802,10.8-1.602,11,7.8,10.2C789.3,607.9,790.9,607.4,793.1,605.1z M715,589.5
	c-0.5-6.6-0.9-16.6-0.9-22.2c-0.1-9.5-0.2-10.1-2-9.6c-1.2,0.3-1.7,1.1-1.4,1.898c0.301,0.802-0.1,2.2-1,3.2
	c-2.3,2.602-3.898,12.3-4.1,24.102c-0.1,10.6-0.1,10.6,2.4,11c1.398,0.1,3.6,1.1,5,2.1c1.398,1,2.6,1.8,2.6,1.7
	C715.698,601.6,715.4,596.1,715,589.5z M787.8,585.9c-0.4-3.102-4.8-4.102-4.8-1c0,2.5,2.898,5.6,4.198,4.3
	C787.698,588.7,788,587.2,787.8,585.9z M695.3,578.2c-0.3-1.102,1-3.7,3.1-6.5c4.4-5.7,4.7-7.4,0.601-2.7
	c-4.699,5.5-6.5,9.1-4.801,10.1C695.9,580.2,695.9,580.3,695.3,578.2z M794,577.6c0-3.1-1.102-4.3-3.5-3.898c-2.2,0.5-4,3.5-2.7,4.7
	C789,579.7,794,579,794,577.6z M787.8,564.8c-0.2-0.7,0.7-1.7,2-2.3c1.898-0.8,2.2-1.7,2.2-6.9c0-3.3-0.2-5.698-0.4-5.5
	c-1,1.2-5.3,14.802-4.8,15.302C787.698,566.3,788,566.1,787.8,564.8z M748.4,562.7c-0.2-0.7,0.7-2.4,2.102-3.7
	c2.198-2.1,2.8-2.2,5.198-1.1c2.7,1.198,2.7,1.198,1-0.602C755.5,555.9,755,553.7,755,550c0-4.5-0.2-5.1-1.5-4
	c-0.802,0.7-1.5,1-1.5,0.6c0-0.398-1.102,0.102-2.5,1c-1.4,0.9-2.5,1.2-2.5,0.802c0-0.5-0.602,0.198-1.302,1.5
	c-1.5,3.1-3.1,3.898-8.898,4.6c-3.2,0.4-4.8,1.1-4.8,2.1c0,1.802,1.1,1.802,4.6-0.1c4.5-2.3,7.3-1.9,8.5,1.2
	c0.6,1.5,0.8,3.5,0.6,4.5c-0.398,1.3,0.102,1.8,1.4,1.8C748.198,564,748.698,563.5,748.4,562.7z M759,561.4c0-1.4-0.302-1.4-1.5-0.4
	c-0.802,0.7-1.5,1.4-1.5,1.6c0,0.2,0.698,0.4,1.5,0.4C758.3,563,759,562.3,759,561.4z M714.198,551.3c5.302-5,3.102-16.3-3.698-19.6
	c-2.802-1.3-3.302-1.3-5.7,0.7c-5.102,4-5.8,10.5-2.102,18.398c1.302,2.7,2,3.2,5.102,3.2C710.3,554,712.198,553.2,714.198,551.3z
	 M741,547.5c0-0.8-0.802-1.1-2-0.8c-1.102,0.3-2,1.1-2,1.8c0,0.8,0.8,1.1,2,0.8C740.1,549,741,548.2,741,547.5z M784,529.7
	c0.8-0.7,2.698-2.7,4.3-4.5c3-3.8,3.7-10.4,1.398-13.602c-1.3-1.698-1.398-1.6-2.6,1.2c-1.5,3.7-4.601,6.602-6,5.8
	c-0.601-0.398,0.2-2.398,2-5l2.899-4.398l-2-4.602c-4.899-11.6-13.399-6.8-14.699,8.2c-0.5,6.102-0.301,7.5,1.6,10.602
	C775.1,530.1,780.4,532.6,784,529.7z M730.5,523c0.3-0.5,1.398-1,2.5-1c1.1,0,2.198-1.1,2.898-3.1c1.102-3.102,1.102-3.102-2-2.5
	c-1.7,0.3-4.7,0.6-6.5,0.6c-3.7,0-3.898,0.5-2.398,4.4C726,524,729.3,525,730.5,523z"/>
<path d="M392,537c-4.7-4.3-8.7-7.6-8.9-7.4c-0.3,0.302,0.3,2.102,1.4,4c1.698,3.2,1.698,3.602,0.3,5.102c-0.9,0.8-2.102,1.2-2.8,0.8
	c-2-1.3-4.602-8.7-6-17.2c-1.102-6.7-1.102-8.5-0.102-9.7c1.8-2.1,2.9-1.198,4.102,3.5c1.3,4.602,1.5,4.602,11.5-0.198
	c3.3-1.5,6.398-2.4,6.8-2c1.6,1.6-1.102,4.698-6.2,7.1c-2.8,1.4-5,2.7-5,3c0,1,2.5,3.6,8.7,9c7.8,6.6,8.7,8.2,6.398,10.3
	C400.6,544.7,399.8,544.2,392,537z"/>
<path d="M555.5,542.4c-1.602-0.802-4.7-3.2-6.7-5.2c-2.602-2.4-3.8-3.102-3.8-2c0,0.8-0.7,2.1-1.5,2.8
	c-2.302,1.9-4.302-0.3-5.102-5.6C537.1,523.8,539,521.7,549,520c8.6-1.5,12,4.1,5.3,8.6l-3.3,2.2l3.698,3.2c2,1.8,5.2,3.9,7.102,4.7
	c3.3,1.398,3.3,1.5,1.6,3.398C561.3,544.4,559.5,544.5,555.5,542.4z"/>
<path d="M457.4,538.5c-0.3-0.8-0.1-2.9,0.5-4.8c0.602-1.8,1.5-6,1.9-9.2c0.898-7.2,2.8-7.9,6.398-2.5c2.5,3.7,6.5,5.1,7.9,2.8
	c0.5-0.7,0.899-2.7,0.899-4.398c0-1.7,0.699-3.7,1.5-4.4c2.399-2,4.5,0.5,4.5,5.4c0,4.6,2.101,9.3,5.101,11.398
	c2.6,1.8,0.8,4.2-3.101,4.2c-2.899,0-7-3.9-7-6.6c0-1-0.699-0.9-3,0.398c-2.801,1.602-3.199,1.602-5.899,0l-2.9-1.6l-0.699,3.6
	C462.5,538.4,458.698,541.9,457.4,538.5z"/>
<path d="M503.5,538.3c-5-2.6-8.5-6.398-8.5-9.398c0-4,6.6-9.602,12.398-10.4c6.8-1.1,7.3-0.7,12.102,9.2
	C523.4,536,512.698,543.2,503.5,538.3z M514.9,532.5c0.2-1-0.5-3.4-1.398-5.2c-2-3.6-4.9-4.2-9.9-2.3c-3.2,1.2-3.3,3.3-0.3,6.1
	C507.8,535.4,514.198,536.2,514.9,532.5z"/>
<path d="M421.8,536.3c-3.602-4-4.8-6.6-4.8-11.1c0-4.102,3.3-9.7,5.1-8.602c0.5,0.302,0.7,2.7,0.4,5.2c-0.5,3.602-0.102,5.5,1.3,8.2
	c2.6,4.7,4.7,4.9,7.2,0.8c2-3.2,2.1-4.6,0.8-14.8c-0.4-3.5,2.6-3.8,4.8-0.5c3.5,5.4,0.8,16.7-5.2,21.4
	C427.8,539.7,424.9,539.5,421.8,536.3z"/>
<path d="M573.698,536.3c-1.398-1.398-0.6-7.2,1.4-9.7c2.7-3.398,3.899-2.5,3.899,2.802C579,534.3,575.8,538.5,573.698,536.3z"/>
<path d="M572.5,520c-0.802-1.3,1.3-4,3.1-4c2,0,2.7,1.9,1.4,3.5C575.6,521.2,573.4,521.4,572.5,520z"/>
<path d="M546,507.2c-13.602-0.602-44-3.602-53.5-5.2c-10.802-1.8-48.7-6.2-63.5-7.5c-9.7-0.7-30.602-3.5-57.5-7.5
	c-15.7-2.4-43.602-6.2-63-8.6c-2.2-0.2-7.102-0.9-11-1.4c-3.8-0.5-10.602-1.2-15-1.5c-16-1.2-44.2-4.7-53-6.6
	c-18.4-4-26.5-8.5-33-18.2c-5.3-7.8-2.8-8.4,4.2-1.102c4.898,5,7,6.4,13.3,8.602c12,4.3,26.7,6.7,58.5,9.8c19.5,1.8,28.5,2.9,57,6.6
	c6.1,0.802,13,1.7,15.5,2l4.5,0.5l-2.5-1.8c-15.4-11.3-33.2-23.1-40.5-26.898l-9-4.602l-10,0.7c-5.5,0.3-14.3,1-19.5,1.5
	c-16.9,1.7-24.3,1.9-34.5,1c-6.5-0.5-12.2-0.5-16.3,0.3c-5.4,0.9-6.5,0.8-7.9-0.5c-4.1-4.2,1.4-5.1,31.7-5.398
	c24.7-0.2,42.8-1.5,40-2.7c-0.8-0.3-8.102-2.4-16.2-4.602c-8.1-2.198-17.1-5.198-20-6.698c-12.3-6.2-26.4-18.2-24.1-20.501
	c0.898-0.899,2.398-0.101,6,2.899c11.898,9.9,20.398,13.8,42.8,19.7c9.398,2.4,19.6,5.3,22.8,6.4c5.1,1.8,6,1.8,8.5,0.6
	c1.5-0.8,3.6-1.7,4.699-2c1.699-0.5,1.699-0.8-0.899-2.5c-2.8-1.8-3-1.8-6.8,0.2c-3.6,1.898-4.1,1.898-5.5,0.5
	c-1.3-1.3-1.4-1.9-0.3-3.102c0.7-0.898,2-1.6,3-1.6c2.5,0,3-1,1.7-3.1c-0.9-1.5-0.802-2.2,0.398-3.4c1.399-1.399,2.1-1,7.8,4.1
	c3.9,3.602,6,6.2,5.7,7.102c-0.5,1.1,0.2,1.398,2.7,1.1c2.398-0.2,3.199,0.102,3.1,1.2c-0.1,1.4,0.9,1.4,8.5,0.2
	c5.8-0.9,14.4-1.2,26.4-0.9c9.699,0.3,17.699,0.3,17.699,0.102c0-1.302-8.199-13.501-11.801-17.602
	C348.6,407.4,341.698,403,312,388.4c-18.9-9.301-24-12.4-24-15c0-1.9,2.5-3.5,3.6-2.4c0.602,0.6,9.3,5.1,19.4,10.1
	c10.1,4.9,21.5,10.801,25.3,13.102c7.398,4.3,9.8,4.1,7.398-0.5c-1.199-2.4-1.5-2.5-3-1S336,393.9,336,392.2c0-0.4,2.3-3,5.1-5.7
	c4.8-4.8,5.1-4.9,6.4-3.1c0.8,1.1,1.198,2.898,0.898,4.199c-0.5,2-0.2,2.199,2.7,2.101c4-0.2,5.1,2.399,2.2,5.5
	c-1.7,2-1.602,2,2.6-0.2l4.4-2.2l3.3,3.8c2.399,2.9,2.899,4.2,2.1,5.2c-0.5,0.7-1.6,1.101-2.3,0.8C361.6,401.9,357,404.2,357,405.8
	c0,1.3,4.898,0.9,9.698-0.899c3.302-1.199,4.9,1.199,3.302,5c-0.602,1.699-0.9,3.5-0.5,4c0.3,0.601-0.5,1.601-2,2.301
	c-1.4,0.6-2.4,1.6-2.302,2c0.2,0.5,0.602,0.898,0.802,0.8c3.698-0.8,5-1.5,5-2.899c0-2.199,1.898-4.101,4.198-4.101
	c2.4,0,3.5,3,1.7,4.399c-0.8,0.601-1.6,2-1.7,3.101c-0.5,2.8-3.1,5.5-4.8,4.8c-1-0.398-1.2,0-0.8,1.102c0.8,2.1,0.8,2.1,4-0.9
	c3.1-2.9,7-3,6.8-0.3c-0.1,1.398,0.2,1.6,1.8,0.7c1.302-0.7,2.4-0.7,3-0.102c1.2,1.2-4.6,6.102-8.3,6.9c-1.8,0.3-2.6,1-2.2,1.898
	c0.802,2.102,3,1.7,7.102-1.1l3.7-2.6l3.5,3.8l3.5,3.8h36.698c20.102,0,37-0.4,37.5-0.8c2.7-2.8-1-18.5-7.5-31.4
	c-3-6.1-3.398-7.399-2.198-8.8c1.1-1.4,1.5-1.4,2.898,0c1,0.8,3,4.2,4.602,7.5l2.898,6h6.102c4.698,0,6.6,0.4,7.8,1.8
	c2.2,2.4,2.1,3.9-0.2,5.101c-1,0.601-2.1,2.199-2.3,3.601c-0.5,2.5-0.5,2.5,1.3,0.899s2-1.601,3.7,0c2,1.699,4.2,7.801,4.2,11.399
	c0,2.8-1.9,3.8-3.7,2c-1.3-1.3-2-1.3-5.5-0.1c-2.3,0.8-4.7,1.2-5.5,0.898c-0.7-0.3-1.3,0-1.3,0.602c0,0.8,7.698,0.898,27.3,0.5
	c27.1-0.602,31-0.9,44.2-2.7c17-2.4,22.698-3,25.198-2.8c3.2,0.398,4.2-1.3,10.602-17.8c2.6-6.7,7.898-17.5,11.8-24
	c3.9-6.5,8-13.7,9.1-15.9c1.102-2.2,5.2-8.2,9-13.3c5-6.7,7.4-9,8.102-8.3c1.398,1.398-1.2,6.898-6.2,13
	c-2.101,2.5-6.4,9.1-9.4,14.6c-3.1,5.5-6.6,11.5-7.8,13.3c-1.7,2.601-1.8,3.101-0.398,2.601c1-0.399,3.198,0.5,5.8,2.399
	c2.3,1.601,5.1,3.101,6.1,3.3c2.8,0.602,3,5.5,0.3,7.4c-1.199,0.8-2.898,1.5-3.898,1.5c-0.9,0-2.7,1-3.801,2.2
	c-1.699,1.899-2.399,2.1-4,1c-1.101-0.7-2.899-1.2-3.899-1.2c-1.101,0-2.3-0.5-2.601-1c-1-1.6,1.399-4,4-4
	c3.199,0,4.199-4.3,1.699-7.5l-1.898-2.4l-3.102,6.7c-3,6.3-9.699,22.602-10.898,26.5c-0.4,1.4,0.1,1.7,3.199,1.7
	c4.801,0,14.199,2.5,21.199,5.5l5.5,2.5l4.4-3.9c5.2-4.6,10.1-7.1,13.8-7.1c2.9,0,2.9,0.8,0.101-11c-4.399-18.7-4.899-37-1.5-50.5
	c2.899-11.4,9-23.5,15-29.9c10.399-11,21-13.9,43.301-11.7c7.199,0.7,14,1.5,15.1,1.7c1,0.2,2.7-0.1,3.7-0.7
	c1.6-0.8,1.899-2.2,1.899-9.2c0-9.6,1.699-14,7-17.5c4.899-3.3,14.399-2.7,21.899,1.3c6.3,3.5,7.601,4.9,5.8,6.3
	c-0.898,0.8-3.199,0.2-8.699-2.3c-7.801-3.6-11.199-4.2-15.301-2.6c-3.398,1.3-4,3.2-4.699,14.5c-0.5,9.3-0.699,10-3.5,12.3
	c-2.699,2.4-3.301,2.5-11.399,1.9c-27.5-2-33.3-1.9-39.601,0.4c-7.899,3-14.399,9.7-19.5,20.4c-5,10.699-7,18.799-7.699,32.1
	c-0.602,13.6,1.898,30.6,7.3,48.1c2,6.5,4.7,15.5,5.899,19.9c3.899,13.7,5.301,16.4,10.399,19.7c2.5,1.6,8.4,4,13.101,5.398
	c4.699,1.4,9.101,2.802,9.801,3.2c1.898,1,1.1,2.7-1.301,2.7c-1.101,0-3.801,1.5-6,3.3c-4.699,3.8-11,6.102-12.601,4.5
	c-0.7-0.7-2.5-0.1-5.899,2.2c-5.601,3.7-18.899,9.5-22,9.5c-1.199,0-3,0.4-4,1c-1,0.5-4.399,1.2-7.699,1.5
	c-3.2,0.3-9.801,1-14.801,1.6C591.6,508,562,508.1,546,507.2z M599.6,501c22.3-1.8,31-4.1,44.4-11.7c7-3.898,8.5-4.5,10.1-3.398
	c1.6,0.898,2.8,0.8,6.5-0.802c4.3-1.898,5.2-4.1,1.8-4.1c-3.3,0-15.1-5.4-18.2-8.4c-4.398-4.1-6.398-8.1-9.699-19.898
	c-1.899-6.7-3.101-9.4-3.899-8.9c-1.3,1-5.601,1-7.101,0c-0.601-0.398-1.699-0.3-2.5,0.2c-1.601,1-5-1.5-5-3.7
	c0-1.6-1.601-1.7-2.601-0.1c-0.399,0.6-0.2,1.398,0.5,1.6c0.601,0.2,2.4,1.4,3.9,2.602c1.5,1.3,3.3,2.1,4,1.898
	c1.8-0.7,4.2,1.602,3.5,3.2c-0.3,0.8-2.8,3.1-5.5,5.1c-4.602,3.302-5.2,3.4-6.602,2c-1.5-1.398-1.398-1.8,1.102-4.398l2.6-2.7
	l-3.399-2.8c-1.899-1.5-3.601-2.7-3.899-2.7c-0.2,0-1.4,1.6-2.7,3.6c-2.1,3.5-2.2,3.7-0.3,4.7c1,0.602,3.6,2.7,5.8,4.7
	c5.602,5.2,4.602,7-3.8,7c-3.601,0-6.8-0.399-7.101-1c-1-1.6-2.199-1.2-2.801,1c-0.398,1.601,0.102,2.101,3.2,2.601
	c2,0.399,4.101,1.101,4.8,1.601c0.7,0.6,1.9,0.6,3.102-0.101c1.5-0.801,2.3-0.699,3.199,0.399c1,1.2,0.801,2.3-1.399,5.601
	c-2.8,4.199-4.9,4.699-5.4,1.301c-0.198-1.4-1.698-2.5-5.3-3.602l-5-1.5l-1.4,2.599c-2,3.898,0.198,6.6,4.898,5.8
	c4-0.602,7.602,1.398,7.602,4.398c0,2.302-2.7,3.602-4.2,2.102c-0.5-0.5-2.8-0.7-4.9-0.5c-2.8,0.398-4.5,0.1-5.8-1.102
	c-1-0.898-2.5-1.398-3.4-1c-1,0.302-1.898,0-2.199-0.8c-0.5-1.3,10.801-26.5,15.399-34.3c1.2-2.1,2.101-3.8,1.9-4
	c-1.7-1.1-18.7-5.6-23.5-6.1l-6.2-0.602l-2.7,5.8C568,450.4,563,470,563,476c0,2.9-0.602,5.2-1.4,5.9c-2.1,1.8-2.8,0-2.7-7.4
	c0-8.5,3.5-21.9,8.601-33.9l1.699-3.898l-8.398,0.6c-4.602,0.4-12.801,1.4-18.301,2.2s-15.601,1.8-22.5,2.1
	c-6.899,0.4-13.601,0.802-15,0.9c-1.399,0.2-6.199,0.3-10.601,0.4l-8.2,0.1l0.9,3.7c1,4.5-0.2,6.3-3.101,4.5
	c-1.301-0.8-2.101-0.8-2.601-0.102c-0.3,0.602-1.5,0.9-2.5,0.602c-2.3-0.602-3.5,0.898-1.3,1.7c0.899,0.3,3.3,0.6,5.399,0.6
	c3,0,4.199,0.5,5.101,2.101c1.899,3.699-0.601,7.399-4.7,6.801C482.5,462.8,481,465.2,481,466.8c0,0.9,1,1.102,3.398,0.7
	c4-0.8,5.5,0.8,3.2,3.4c-1.601,1.698-1.5,1.898,0.5,2.398c1.1,0.3,1.899,1.2,1.7,1.9c-0.301,0.7,0.398,2,1.5,2.898
	c2.6,2.102,1.6,5.302-1.301,4.4c-1.399-0.4-2-0.2-2,0.8c0,2.5-3.899,5.3-5.699,4.102c-2.9-1.802-3.9-4.2-2.602-6.302
	c1-1.5,0.9-2.198-0.199-3.1c-1.101-0.9-1.199-1.7-0.399-3.1c0.899-1.7,0.7-1.9-1.4-1.4c-3.3,0.9-5.6-1.9-3-3.6
	c1.302-0.802,1.802-2,1.5-3.9c-0.198-1.5,0.102-3.7,0.7-4.9c0.9-1.698,0.9-2.1-0.2-2.1c-0.698,0-2.198-0.6-3.198-1.4
	c-1.9-1.398-1.9-1.5-0.2-3.398c1.6-1.7,1.6-2.102,0.2-3.2c-0.802-0.7-1.5-2.8-1.5-4.8c0-2.8-0.302-3.3-1.2-2.4
	c-0.7,0.7-1.102,4.602-1.102,10.4c0,7.2,0.602,11,2.602,16.8c2.8,8.3,2.2,10.7-1.7,6.5c-3.8-4.1-5.101-9.6-5.101-22.5v-11.5H431.8
	c-33.602,0-33.7,0-31.9,2c3.101,3.4,4.4,6.6,3.2,7.8c-0.7,0.7-1.4,0.7-2.3-0.1c-1-0.8-2.102-0.3-4.4,1.8c-3.2,2.8-3.2,2.8-1.2,4.8
	c2,1.9,2,1.9,6-2.398c4.5-4.9,5.7-5.302,6.5-2.4c0.301,1.1,1.301,2,2.301,2s2.301,0.7,3,1.5c0.899,1.1,0.301,2.3-3.5,6.4
	c-2.5,2.698-4.199,5.198-3.699,5.5c0.5,0.3,1.8-0.802,3-2.302c1.199-1.6,3.6-3.6,5.398-4.5l3.2-1.698l3.5,3.8
	c4.2,4.5,6.101,7.8,6.101,10.6c0,1.9,0.101,2,2,0.2c1.899-1.7,2.101-1.7,5.399,1.8c3,3.2,3.5,3.4,4.9,2
	c1.3-1.398,1.898-1.398,3.199-0.3c1.399,1.2,1.399,1.5,0,3c-1.399,1.6-2.101,6-1,6c0.801,0,61.801,7.8,70.399,9
	c6,0.8,30.2,2.7,42.602,3.3C570.1,502.1,587.3,501.9,599.6,501z M436.198,486.2c0.4-2.602,0.2-2.8-1.6-1.8
	c-5.101,2.698-5.2,3-2.101,3.698c1.699,0.4,3.101,0.7,3.101,0.802C435.698,488.9,436,487.7,436.198,486.2z M426.4,485.4
	c0.3-0.802,0.2-1.302-0.3-0.9c-0.5,0.3-1.8-0.6-2.9-2c-1.198-1.5-2.3-2.1-2.698-1.5c-1.2,1.9-6,1-11.5-2.1
	c-6.602-3.7-23.4-20.7-30.5-30.7c-4.102-5.8-5.602-7.3-8.5-7.9c-4.602-0.898-34.9-1-42,0c-6.9,1-7.802,1.602-8.602,5.3
	c-0.6,2.9-0.2,3.302,8.8,9.4c5.102,3.5,14.5,10.3,20.801,15.1l11.5,8.7l25,3.5c31.899,4.602,30.199,4.4,35.601,4.602
	C424.5,487,425.9,486.6,426.4,485.4z M419.8,475.7c1.2-1.3,1.898-2.602,1.6-3c-0.898-0.8-6.398,3.398-5.8,4.5
	C416.4,478.5,417.5,478.1,419.8,475.7z M404.698,462.4c-0.3-0.302-1.398,0-2.6,0.698c-1.5,1-1.7,1.602-0.9,2.602
	c0.9,1.1,1.4,0.898,2.5-0.7C404.5,463.8,405,462.6,404.698,462.4z M604.9,457.8c1.102-0.3,1-0.6-0.2-1.7c-1.3-1.1-1.8-0.8-3.3,2.102
	c-1.6,3.2-1.6,3.3,0.2,1.7C602.698,459,604.1,458.1,604.9,457.8z M393.1,443.5l3.4-1.4l-5.2-0.1c-5.102,0-7.2,1.4-3.5,2.3
	c0.898,0.3,1.8,0.5,1.8,0.602C389.698,444.9,391.3,444.3,393.1,443.5z M624.5,436c0.3-0.5,1.5-1,2.6-1c1,0,1.9-0.4,1.9-0.9
	s-1.602-0.5-3.7,0c-2.102,0.5-4.2,0.9-4.8,0.9c-0.5,0-0.302,0.5,0.5,1C622.9,437.2,623.698,437.2,624.5,436z M480,429
	c2.398-1.5,0.698-1.9-2.5-0.5c-2.302,1-2.5,1.4-1,1.4C477.6,429.9,479.198,429.6,480,429z M476,424c0.8-0.5,1.1-1,0.5-1.1
	c-0.5,0-2-0.2-3.2-0.302c-2.3-0.3-2.9,0.4-1.602,1.7C472.6,425.3,474.198,425.1,476,424z M471.698,416.6c-1-2.6-2.5-1.8-1.898,1
	c0.3,1.7,0.8,2.2,1.5,1.5C471.8,418.6,472,417.4,471.698,416.6z"/>
<path d="M72.5,489c-12.5-0.9-15.2-1.3-25-4c-10.4-2.8-14.5-4.7-14.5-6.8c0-2.9,0.7-3.102,5.3-1.4c12.5,4.4,21.9,6.3,36.7,7.3
	c31.3,2.302,57.7-0.6,69.6-7.6c4.3-2.5,9.8-9.2,19.9-24.3c2.7-4,5.5-7.8,6.1-8.3c1.9-1.602,2.8,0.898,1.102,2.898
	c-0.802,0.9-3.102,4.9-5.2,8.7c-5.3,9.7-14.9,22.1-19.3,25c-5.102,3.3-10.9,5.3-22.5,7.6C114.3,490.1,94.9,490.5,72.5,489z"/>
<path d="M754.4,472.9c-0.3-0.602,0.8-2.5,2.5-4.302c2.8-2.898,3-3.398,1.7-4.5c-2.2-1.898-6.3-9.198-7-12.698
	c-0.5-2.302-1.6-3.602-4.4-4.802c-2-0.898-5.3-3-7.198-4.698l-3.5-2.9l4.698-4.3c2.5-2.3,8.102-8.2,12.4-13.2
	c10.5-12.2,13-12,13.3,1.3L767,428l8.3-0.5c30.2-1.9,38.3-2.7,45.1-4.1C830.5,421.3,831,421.7,831,432.2c0,7.5,0.1,7.8,1.898,6.8
	c3.4-1.8,9.602-1.2,12.7,1.2c1.6,1.2,6.6,5.7,11.1,9.898c17.2,16.4,22.5,16,40-2.898c14.102-15.2,17.2-15.9,34-7.5
	c10,5,13.302,5.5,16.5,2.7c5.602-5,9.9-22.301,9.9-39.9c-0.101-17.8-3.5-27.1-13.8-37.2c-6.9-6.8-15.5-11.5-31.102-17
	c-7-2.5-17.5-6.7-23.398-9.4c-6-2.7-15.602-7.1-21.5-9.8c-17.301-7.9-20.5-7.6-31.2,2.3c-9.601,9-14.2,11.5-22.601,12.3
	c-5.199,0.5-7.601,0.2-12.699-1.7c-7.2-2.6-18.2-8.7-31.801-17.6c-12.699-8.4-14.699-10.1-13.5-11.2c0.601-0.6,6.5,2.3,16,8
	c22.199,13.3,30.601,17.1,38.601,17.6c8.3,0.5,12.8-1.6,21.899-10.3c7.801-7.5,11.5-9.5,17.301-9.5c6.1,0,11.699,2,31.8,11.6
	c9.6,4.6,22.899,10.2,29.5,12.5c18.399,6.4,28.5,12,36.899,20.5c13.199,13.301,17.199,27.102,14.699,50.602
	c-1.398,13.2-3,18.898-7.3,26.398c-5.6,9.802-11.1,10.7-24.7,3.9c-5-2.5-10.398-4.8-12-5.1C913.6,438.5,908.3,442,899,452.1
	c-4.602,5.102-10.4,10.5-12.9,12.102c-9.2,5.8-17.3,3-32.9-11.602c-14.398-13.398-15.398-13.3-26.6,2.7c-8.4,12-12.3,12.9-27.3,5.8
	c-9-4.3-17.9-6.6-22.102-5.6c-1.8,0.3-6.198,4-11.6,9.5c-4.9,5-9.2,9-9.601,9C755.5,474,754.8,473.5,754.4,472.9z M816.4,458.9
	c1.5-1.102,4.5-4.802,6.7-8.102c4.5-6.6,4.4-7.2-1.9-8.398c-3.698-0.7-9.398-0.2-23.198,2c-5.2,0.898-14.9,1.6-21.5,1.6h-12
	l-0.102,7l-0.1,6.9l4.398-3.9c7.602-6.7,17.5-6.3,32.802,1.1C810.698,461.6,812.698,461.8,816.4,458.9z M760.198,443.3
	c0.7-0.898,4.7-1.3,14.102-1.3c8.5,0,17.3-0.7,25.398-2.1c7.2-1.2,15.5-1.9,19.5-1.7l7,0.3l-0.6-5.4c-0.4-3-0.8-5.698-1-5.898
	c-0.2-0.102-4.101,0.398-8.7,1.2c-7.8,1.3-36.398,3.698-48.898,4l-5.5,0.1L761,426l-0.5-6.5l-2.302,3c-1.3,1.7-5,5.8-8.3,9.2
	c-3.2,3.398-5.898,6.6-5.898,7.1s1.8,2.3,4,4.102c2.1,1.698,5.398,5.3,7.198,7.898l3.302,4.7l0.3-5.5
	C759,447,759.6,444,760.198,443.3z"/>
<path d="M70.2,435.8c-0.7-0.7-1.2-1.8-1.2-2.5s-0.3-1.2-0.7-1.2C64,432.8,61,427.5,61,419.4c0-3.7-0.5-6.602-1.2-7.2
	c-1-0.8-1.2-5.4-0.8-19.4l0.5-18.3l-2.7-2.3c-3.2-2.7-6.8-9.8-6.8-13.601c0-5,3.7-10.399,9.3-13.601c4.3-2.5,6.3-3,11.8-3
	c9.2,0,12.2,0.8,15.8,4C90.7,349.5,91,354.2,88,362.4C85.9,368,79.4,375.1,75.2,376.4c-1.2,0.398-1.9,1.3-1.602,2
	c0.602,1.6,7.2,4.8,8.4,4.1c0.5-0.3,1.1-0.1,1.398,0.4c0.4,0.5,2.102,0.699,4,0.398C92,382.6,95,384.4,95,387.9
	c0,1.5-0.8,3.5-1.8,4.5c-1.802,1.5-2,1.5-3.602-0.301c-1.1-1.199-1.398-2.101-0.7-2.601C89.5,389.2,90,388.4,90,387.8
	c0-0.7-0.5-0.6-1.5,0.2c-0.9,0.8-1.3,2.1-0.9,3.6C88,393,87.7,394.7,87,395.5c-1.102,1.4-1.5,1.4-3.2-0.2c-1-0.899-1.6-2.3-1.4-3
	c0.9-2.3-1.398-5.899-4.5-7C75.6,384.4,75,384.4,75,385.5c0,2.2,5,17.7,7,21.5c1,1.9,2.6,7.2,3.6,11.7c0.9,4.5,2.102,8,2.5,7.7
	c1.102-0.602,6.2,2,7.9,4.1c2,2.4,0,3.8-3.5,2.5c-2-0.7-3.102-0.8-3.9,0c-1.5,1.5-2.2,1.3-4-1.4C83.2,429.4,79.8,415.8,80.2,414.2
	c0.1-0.4-0.7-2.5-1.9-4.7c-3.7-7.1-9.3-27.4-8.4-30.9c0.102-0.398-1-0.5-2.398-0.199c-1.8,0.399-2.7,0.199-3.102-0.801
	c-0.3-0.8-1.3-1.699-2.1-2c-1.2-0.5-1.3-0.3-0.5,0.602c0.5,0.699,1.2,8.1,1.5,16.398c0.2,8.301,0.9,15.9,1.5,17
	c0.5,1,0.7,3.301,0.5,5.102c-0.6,3.8,1.5,13.3,2.8,13.3c0.602,0,2.5,1.5,4.4,3.3c2.6,2.602,3.2,3.602,2.3,4.5
	C73.3,437.3,71.7,437.3,70.2,435.8z M76.7,370.1c3.898-2.398,8-9.199,8.898-14.8l0.602-4.2l-3.802-0.3c-3-0.2-3.898-0.7-3.8-2
	c0.2-1.6-0.7-1.8-6.3-1.8c-8.4,0-15.9,3.7-17.2,8.4C52.2,366.4,66.6,376.2,76.7,370.1z"/>
<path d="M66,367.4c-0.8-0.301-2.102-0.801-2.9-1c-1.2-0.4-1.2-0.7,0.2-2.102c1.3-1.3,2.4-1.398,5.9-0.699
	c5.1,1.101,6,3.801,1.3,4.101C68.9,367.8,66.8,367.7,66,367.4z"/>
<path d="M69.1,356.6c-0.898-1-0.8-1.6,0.3-2.5c1-0.898,1.602-0.8,2.5,0.301c0.9,1,0.802,1.601-0.3,2.5
	C70.6,357.8,70,357.7,69.1,356.6z"/>
<path d="M63.2,355.8c-1.602-1.6-1.5-3.3,0.3-4.8c2.398-2,4.5-0.5,3.6,2.6C66.3,356.8,64.9,357.5,63.2,355.8z"/>
<path d="M181.5,434c-0.602-0.9,8-6.9,10.1-7c0.602,0,2.102-1.1,3.4-2.5l2.3-2.5l-1.8-6.2C191,400,191,400,192.4,396.5
	c1.5-3.4,6.802-7.5,14.802-11.5c2.6-1.3,5.898-3.6,7.398-5.1c2.3-2.4,2.602-3.4,2.2-7.301c-0.9-8-6-14.801-26.1-34.899
	c-12.4-12.3-18.7-19.3-18.302-20.2c0.302-1,1.2-1.2,2.602-0.7c2.8,1.1,30.7,27.8,33.5,32.101c1.2,2,3.7,5.101,5.5,6.899
	c4,4.2,8,12.7,8,17c0,6.7-4.5,11.8-15.5,17.7c-3.8,2-7.602,4.2-8.2,4.7c-1.9,1.5-1.6,6.7,0.7,13.3c1.1,3.2,2,8.1,2,10.8
	c0,4.5-0.4,5.4-3.8,8.602c-2.102,2-6.102,4.398-8.9,5.398C182.4,435.3,182.3,435.3,181.5,434z"/>
<path d="M588.5,427.8c-1.602-0.6-3.802-1.8-4.802-2.6c-1.6-1.4-1.6-1.7-0.3-3s2.102-1.3,6.9,0.5c5.199,1.898,5.5,1.898,6.6,0.1
	c1.5-2.399,4.8-2.3,6.102,0.102c1.5,3,1.198,4-1.5,5.3c-1.9,0.8-2.802,0.8-4-0.2c-1.2-1-1.9-1-2.7-0.2
	C593.4,429.2,592.5,429.2,588.5,427.8z"/>
<path d="M156.2,423.7c-0.5-0.602-1.7-4.8-2.7-9.101c-1.2-5.801-2.4-8.5-4.3-10.301c-2.2-2-2.4-2.699-1.5-4.3
	c1.198-1.8,0.698-25.601-0.602-29.3c-0.6-1.602-1-1.602-5.1,0.5c-3.7,1.898-5.102,3.398-7.5,8.3c-3,6-3,6-2.7,21.7
	c0.1,9.199-0.2,15.898-0.8,16.3c-3.7,2.3-6.3-21.2-3.5-31.8c0.8-3.2,2.2-6.801,3-8c1.3-2.102,1.3-2.301-0.5-2.4
	c-1.102-0.1-2.2,0.2-2.5,0.801c-1.2,1.899-4.602,0.699-11.9-4.199c-7.1-4.7-7.6-5.301-7.6-8.602c0-2,0.898-4.8,2.1-6.5
	c2.5-3.398,8.102-6.199,10.9-5.3c1.5,0.5,1.7,0.2,1.3-1.5c-0.5-1.7,0.2-2.4,3.6-3.7c3.2-1.2,4.302-2.3,4.9-4.7
	c1.3-4.8,7.4-8.5,14.3-8.6c6.7,0,13.9,2.3,16.9,5.5c1.2,1.2,2.398,4.1,2.7,6.3c0.6,4.7-1.9,13.2-4.7,15.7c-1.102,1-2,2.399-2,3.101
	c0,0.801-1.3,2-3,2.899c-2.9,1.5-3,1.8-2.9,8.3c0.102,3.7,0.4,9.5,0.8,12.9l0.602,6.1l2.7-2.1l2.698-2.2l-3-4.399
	c-2.1-3.199-2.6-4.801-1.8-5.5c0.8-0.801,1.9-0.101,4.102,2.399c5.398,6.3,6.1,7.7,4.8,9.899c-1.4,2.699-0.102,2.699,4-0.101
	c5.6-3.8,5.6-3.899-5.7-13.2c-8-6.5-9.5-8.699-7.3-10.1c2.2-1.301,21,16,21,19.199c0,3.101-4.8,8.301-9.602,10.5
	c-5.698,2.5-6.698,5.399-6.398,19C159.1,423.8,158.1,426.1,156.2,423.7z M122.6,368.9c-3.1-3.602-3.3-6.7-0.6-10.102
	c3-3.8,0.8-5.1-4.2-2.398c-5.1,2.699-6.7,4.898-5.2,7.398c0.9,1.4,10.9,8.2,12.2,8.2C125,372,124,370.6,122.6,368.9z M136.7,369
	c1.8-1.6,4.1-3,5-3c1.1,0,0.3-1.2-2.302-3.4c-2.1-1.898-4.3-3.1-4.898-2.8c-0.5,0.4-2.5,0.8-4.4,0.9c-5.898,0.399-6.398,0.8-4.7,4.2
	c1.302,2.398,6.102,6.898,7.5,7.1C133.1,372,134.8,370.7,136.7,369z M159.4,353c2.102-5.2,2-8.3-0.1-10.9
	c-1.8-2.1-10.5-5.1-15.2-5.1c-5.3,0-12.2,7-8.398,8.4c1.1,0.4,1.398,1.5,1,3.4c-0.302,1.7,0.198,3.9,1.6,6.101
	c1.9,3.199,2.1,3.301,2.8,1.301c0.7-1.9,1.2-2,4.602-1c5.6,1.5,7.5,2.8,6.898,4.398c-0.398,1.102,0.2,0.9,2.3-0.5
	C156.5,357.9,158.5,355.2,159.4,353z"/>
<path d="M154.2,347.7c-1-1.1-0.9-1.7,0.3-2.7c2.2-1.8,3.898,0,2.2,2.4C155.6,348.9,155.2,349,154.2,347.7z"/>
<path d="M142.3,344.4c-0.9-2.3,1.3-4,3.2-2.4c1.2,1,1.3,1.6,0.398,2.6C144.4,346.4,143.1,346.4,142.3,344.4z"/>
<path d="M777.3,419.9c-0.7-0.7-2.2-4.9-3.4-9.4l-2.1-8.2l-24.102,0.101c-17.698,0.101-24.1-0.199-24.398-1.101
	c-1-2.7,4-3.3,29.398-3.5c17.302-0.1,25.802,0.2,26.102,1c0.1,0.5-0.102,1.3-0.7,1.601c-1,0.601,1.4,11.399,2.9,12.899
	c0.698,0.8,19.1-14.8,18.898-16.1c0-0.4-2.3-3.4-5-6.7s-6.398-7.9-8.1-10.2c-3.5-4.8-4.801-4.3-4.801,1.8c0,3.5-2,6.602-3.301,5.2
	c-0.398-0.3-1.398,0-2.199,0.7c-1.301,1.1-7,1.2-28.301,0.6c-36.6-1.1-37.1-1.1-38.398-2.398c-2.9-2.9,0.898-3.4,20.898-3.102
	c10.9,0.2,25.7,0.4,32.801,0.4h13l0.5-7.1c0.399-5.2,1-7.801,2.399-9.301c2.4-2.601,3.5-1.801,8.5,5.899
	c3.101,5,6.3,9.2,15.101,20.101c2.601,3.301,2.699,3.801,1.5,5.601c-1.899,2.6-24.101,22.3-25.199,22.3
	C778.8,421,777.9,420.5,777.3,419.9z"/>
<path d="M472.198,406c-2.3-1.6-4.8-3-5.6-3s-1.8-0.5-2.101-1c-1.199-2,1.699-4,5.601-4c4.3,0,4.8-0.6,2.2-2.5
	c-1.4-1.1-1.5-1.6-0.5-2.8c1.1-1.3,0-1.601-9.5-2.101c-5.9-0.399-12.4-0.899-14.301-1.101c-1.899-0.3-15.601-0.7-30.5-1
	c-50.601-1.101-57.5-3.101-96.101-27.101c-10.2-6.399-21.7-12.899-25.6-14.601c-9.7-4.1-21.8-6.5-38.3-7.7
	c-16.9-1.2-22.102-2.3-30-6.2c-7.602-3.9-11.5-7.6-17.2-16.4c-9.7-15-19-21.6-41.5-29.4c-17.1-5.8-21.9-8.1-24.6-11.6
	c-2.5-3.2-4.2-10.7-4.2-18.6c0-3.3-0.602-7.4-1.4-9.2c-4.5-10.8-46.8-18.4-62-11.2c-2.6,1.3-4,1.5-4.8,0.7
	c-2.8-2.8,6.4-7.9,15.7-8.8c14.8-1.3,40.6,3.9,49.5,10.1c5.1,3.6,6.8,8.1,7.2,19.6c0.3,7,0.898,10.3,2.1,12.2
	c2.3,3.5,8.9,6.8,22.5,11.2c22.5,7.3,33.1,14.7,44,30.6c6.2,9.2,9.1,11.9,16.8,15.8c7.4,3.7,12.5,4.8,29.4,6.1
	c15.5,1.1,26,3.2,36.1,7.1c7.7,3,11.899,5.3,33.899,18.9c31.601,19.5,42.199,22.7,79.5,23.5c26.801,0.6,53.301,2.1,71.899,4.1
	c40.7,4.2,66-1,87.102-17.898c7.898-6.4,23.3-22.4,29-30.2c1.6-2.2,6.198-7.8,10.1-12.5c9.5-11.4,10.1-12.4,18.4-28.7
	c5.898-11.8,8.1-15.1,12.6-19.2c8-7.4,16.1-8.7,26.3-4.5c5.4,2.2,7.4,1.7,14.2-3.8c8.6-6.8,13.7-9,21.4-9c7.198,0,14.398,2.1,23,6.8
	c15.698,8.5,28.698,9.7,52,4.4c7.5-1.6,16-3,19-3s12.1,1.4,20.198,3.1c23.9,5.1,31.9,3.5,40.7-7.8l3.5-4.5l-3.2-2.2
	c-2.3-1.6-3.398-3.3-4.1-6.4c-1-4.7,0.3-14.8,1.899-14.5c0.601,0.1,1.301,2.9,1.601,6.2c0.8,7.8,2.6,12.1,5.1,12.1
	c1.102,0,4-1.8,6.4-3.9c7-6.2,12.1-6.3,23.6-0.5c3.4,1.7,6.4,2.4,10.802,2.4c6.398,0,7.8-0.8,12.1-7.1c1.6-2.4,3.9-1.9,3.9,0.8
	c0,2.4-3.9,7.2-7.302,9c-5.398,2.8-15.1,2.3-21.698-1c-7.602-3.9-13.5-4.4-17.802-1.7c-2.8,1.7-3.198,2.3-2.198,3.6
	c0.698,0.8,2,2.9,2.898,4.7c2.7,5.3,5.8,6.2,22.102,6.2c13.5,0,14.898-0.2,19.5-2.5c4.3-2.2,5.398-3.4,8.198-9
	c1.802-3.6,4-9.9,4.802-14c1.8-8.8,3.3-10.6,12.1-15.1c7.9-4,17-13.3,21-21.6c2.7-5.5,2.9-6.6,3-19.3c0-7.6,0.5-13.4,1-13.2
	c0.5,0.1,0.9,0.5,1,1c0,0.4,0.7,2.1,1.4,3.7c0.8,1.8,1.398,6.8,1.398,12.5c0.102,8.9-0.1,9.9-3.398,16.5
	c-4.802,9.5-14.102,19.3-23,23.9c-5.4,2.9-7.102,4.3-7.602,6.4C925,267,917.9,273.3,891.5,273.4c-7.302,0-13.602-0.5-16-1.3
	c-5.4-1.8-10.302-5.6-11.102-8.6c-0.5-2.2-1.1-1.8-8.7,6c-7.198,7.3-8.898,8.5-14.1,10c-7,2.1-14.9,1.6-28.3-1.6
	c-14.7-3.5-23.9-3.6-36.801-0.4c-12.801,3.2-30.199,4.4-38.5,2.6c-2.899-0.6-10.5-3.6-16.899-6.6c-14.101-6.6-19.101-7.8-26.2-6.5
	c-5.7,1.1-7.2,1.9-16.7,9.2c-7.198,5.4-9.1,5.8-17.5,2.8c-6.8-2.4-10.8-2.5-15.198-0.5c-5.302,2.6-8.2,6.5-16.5,22.4
	c-7.5,14.4-14,24.2-19,28.6c-1.302,1.1-5.5,6.3-9.5,11.5c-8.7,11.4-28.5,30.9-37.5,37c-12.2,8.3-26.802,13.2-44,14.9
	c-10,1-30.4,0.699-38-0.5l-4.5-0.7l3.198,3.7c4.2,4.699,5,7.898,2.9,11.1C480.4,409.8,477.198,409.7,472.198,406z"/>
<path d="M532.5,348.4c-15.802-2.9-19.4-4.7-19.802-9.8c-0.3-3.7,2-4.5,3.302-1.2c0.5,1.4,1.1,2.6,1.198,2.6c0.2,0,0.2-4.8,0-10.8
	l-0.3-10.7l3.9-6c2.1-3.3,6.199-8.1,9-10.6c7.898-7.2,9.398-16.5,3.199-19.6c-1.399-0.6-6.399-1.7-11.101-2.3c-4.8-0.7-10-2-11.7-3
	c-4.1-2.5-8.1-8.7-8.898-13.6c-0.301-2.1-1.2-4.3-2-4.7c-1.9-1.2-1.602-3.5,0.699-4.7c4.199-2.2,32.801-4.2,55.399-3.8
	c20,0.4,21.9,0.5,23.2,2.3c1.2,1.6,1.2,2.1,0,3.4c-0.8,0.9-1.7,4.1-2.1,7.1c-1,8.7-2.4,11.7-6.802,15.5
	c-3.398,2.9-4.8,3.5-7.198,3.1c-3.4-0.6-10.2,0.7-11.802,2.3c-0.898,0.9-0.8,1.7,0.102,3.1c0.6,1.1,1.2,3.2,1.2,4.7
	c0,5.1,3.198,8.7,9.898,11.2c7.102,2.6,12.2,6.6,15.602,12.5c2.898,5,6.3,16.5,6.698,22.5l0.302,4.5l-7.5,1.2
	c-4.102,0.7-11.5,2.4-16.5,3.8C550.3,350.2,544,350.5,532.5,348.4z M560.5,341.8c4.398-1.2,10.6-2.5,13.8-3.1l5.8-1.1l-0.6-4
	c-0.4-2.3-0.9-4.9-1.102-5.9c-0.7-2.4-6-4.9-9.7-4.5c-2.898,0.3-3.398-0.1-5.198-3.9c-1.102-2.4-2.602-4.3-3.4-4.3s-3.2,1.9-5.3,4.2
	c-3.4,3.7-4.102,4.1-5.8,3c-3.2-1.9-4.9-1.4-8.5,2.5c-3.302,3.6-3.5,3.7-6.802,2.5c-3.898-1.4-6.698-1.6-6.698-0.3
	c0,0.9,17.3,8.4,22.3,9.6c4.898,1.3,2.8-0.4-2.8-2.1c-6-1.9-9.5-4.8-7.9-6.4c0.7-0.7,4.6,0.2,11.5,2.6c5.7,2,10.8,3.9,11.3,4.2
	c1.8,1-2.7,3.1-5.8,2.6c-3-0.4-3-0.4-0.6,0.6c2.5,1.1,2.5,1.2,0.5,2.6c-2.7,2-6.9,1.2-18.2-3.7c-9.2-4.1-13-6.9-11.8-8.8
	c0.698-1.2-0.5-1.4-2.802-0.5c-0.898,0.3-1.3,1.3-1,2.5c0.302,1,0.9,1.6,1.4,1.3c0.5-0.3,2.2,0.4,3.899,1.6
	c2.699,1.9,10.899,5.9,15.399,7.4c1.4,0.5,1.601,0.9,0.7,2C540.5,345.5,546.8,345.2,560.5,341.8z M533.198,341.5
	c-3-1.4-6.698-3.4-8.3-4.6c-2.3-1.6-2.898-1.7-2.898-0.5c0,0.8-0.2,2.1-0.5,2.8c-0.4,1,1.3,1.8,6.698,3
	C538.5,344.4,539.198,344.3,533.198,341.5z M528.8,317.9c0.5-5.8,1-6.4,3.3-4.3c2.1,1.9,2.1,1.9,1.7-1.6c-0.2-3,0-3.5,2-3.8
	c2.3-0.4,2.898-1.6,1.2-2.7c-0.602-0.4-0.7-1.2-0.302-1.8c0.4-0.7-0.898,0-2.8,1.4c-4.398,3.4-11.5,12.6-12.3,16.1l-0.601,2.7
	l3.699-1.3C528,321.5,528.5,320.8,528.8,317.9z M572.6,315.5c-2.6-3.3-8.3-7.2-9.2-6.2c-0.3,0.3,0.3,2.3,1.3,4.6
	c1.4,3.2,2.301,4.1,4.301,4.1c1.399,0,3.199,0.4,4,1C575.5,320.6,575.4,319.2,572.6,315.5z M552.9,314.8l2.4-2.8h-3.8
	c-3,0-3.602,0.3-2.7,1.2c0.7,0.7,1.2,2.1,1.2,3.2c0,1,0.1,1.7,0.3,1.5C550.4,317.7,551.6,316.3,552.9,314.8z M552.5,302.4
	c-1.802-2.4-3.602-5.2-3.802-6.1c-2.698-10-2.8-11-1.8-13.5c0.602-1.5,1.9-3.3,3-4c1.8-1.1,1.7-1.3-1.7-2.8
	c-3.6-1.6-3.698-1.8-3.6-7.1l0.1-5.4l5.4-0.7c10.3-1.2,20.2-1.3,20.6-0.1c0.5,1.5-3.6,4.3-6.398,4.3c-1.8,0-2.3,0.6-2.3,2.4
	c0,2.3-2.2,5.1-3.2,4c-0.3-0.2-0.8,0.2-1.102,1.1c-0.8,1.8,2,2,7.602,0.4c3.1-0.8,4.2-1.8,5.8-5.2c1-2.3,1.9-6.1,1.9-8.3v-4.2
	l-3.7,0.8c-12,2.7-52.2,4.2-61.8,2.4c-4.2-0.8-4.4,0.1-1.4,6.4c2.5,5.1,5.4,6.6,14.4,7.7c4.898,0.6,5.8,0.5,4.8-0.6
	c-0.7-0.7-1.3-2.3-1.3-3.6c0-1.3-0.602-2.3-1.4-2.3c-0.7,0-1.9-0.7-2.6-1.5c-1-1.2-0.802-1.6,1.398-2.5c1.4-0.5,3.3-0.7,4.102-0.4
	c0.8,0.4,4.698,0.7,8.6,0.8c7.1,0.1,7.2,0.1,7.5,2.9c0.6,6-3.1,9.8-6.3,6.6c-0.8-0.8-1.3-0.8-1.7,0c-0.4,0.6-1.9,1.1-3.4,1.2
	c-1.898,0.1-1.199,0.5,2.2,1.2c2.8,0.7,5.101,1.9,5.4,2.7c0.2,0.8,1.1,3,1.898,4.9c1.802,4,1.2,10.4-1.3,15.4
	c-1.398,2.7-1.5,3-0.2,1.9c1.302-1,1.802-0.9,2.802,0.3s1,1.9-0.2,3.7l-1.5,2.3l8.3-0.3l8.3-0.3L552.5,302.4z M557.5,267
	c-0.302-0.6-1-1-1.602-1c-1,0-1.2,3.3-0.2,4.4C556.6,271.3,558.3,268.2,557.5,267z M544.8,255.3c-2.102-0.2-5.7-0.2-8,0
	c-2.4,0.2-0.7,0.4,3.7,0.4C544.9,255.7,546.8,255.5,544.8,255.3z"/>
<path d="M561.3,331.5c-4.7-2.1-8-5.5-6.7-6.7c0.8-0.9,15.9,6.1,15.9,7.3C570.5,334.2,566.5,334,561.3,331.5z"/>
<path d="M548.198,303.8c-1.398-1.4-1.6-3.5-0.3-4.3c1.4-0.8,3.5,3.5,2.4,4.6C549.8,304.6,548.9,304.5,548.198,303.8z"/>
<path d="M541.9,298.4c-1.1-1.4-1.1-1.8,0.4-2.9c1-0.7,1.5-1.9,1.1-2.8c-0.7-2,1.102-3,2.5-1.3c1.3,1.6,0.5,6-1.398,7.6
	C543.6,299.7,542.9,299.6,541.9,298.4z"/>
<path d="M297.2,330.9c-1.302-0.5-3.5-1.7-4.802-2.8c-1.8-1.4-3.398-1.7-7.3-1.3c-3.8,0.3-5.7,0-8.3-1.6c-1.8-1.1-5-2.5-7.1-3.2
	c-4.5-1.4-9.7-5.6-9.7-7.7c0-0.8-1.3-3.1-3-4.9c-5.9-6.8-7-10.2-7.2-23.1c-0.2-8.9,0.2-12.7,1.3-15.3c2-4.5,9.4-12,13.9-14.3
	c1.898-1,4.8-2.7,6.3-4c2.4-1.8,4-2.2,10-2.1c9.2,0.1,17,3.1,23.398,8.8l4.9,4.4l3.2-2.9c1.898-1.7,4.398-2.9,6-2.9
	c2.1,0,5.398-2.5,14.699-11.4c6.601-6.3,11.801-11.7,11.399-12c-0.3-0.3-2.2,0-4.2,0.6c-2.898,0.9-4,0.9-5-0.1
	c-2.8-2.8,4.102-6.6,13.5-7.5c4.301-0.4,5,0.3,6.801,5.9c0.699,2.2,1.699,4.6,2.301,5.3c0.699,0.9,0.699,1.6-0.102,2.4
	c-1.398,1.4-4-0.6-5.3-3.9c-0.8-2.2-1.6-1.5-13.3,9.9l-12.4,12.3l3.5,3.9c5.2,5.7,8.602,13.8,9.5,23.1c0.5,4.4,1.102,10.3,1.4,13.2
	c0.3,2.9,0.1,6-0.5,7.2c-1.601,2.9-8.2,4.5-14.601,3.3l-5.301-0.9l3.2,4.9c1.7,2.6,3.9,5,4.8,5.3c5.2,1.8,15.301-10.7,18.301-22.5
	c0.899-3.6,2.101-7.1,2.699-7.7c0.602-0.7,1.102-2.7,1.2-4.5c0.2-3.7,2-4.7,3.5-1.9c0.9,1.6,0.601,2.7-1.399,5.7
	c-1.699,2.4-2.5,5.1-2.5,7.8c0,7.3-8.199,21.7-14.601,25.6c-4.6,2.9-8.1,2.5-11.399-1l-2.801-3l-0.699,2.8
	C319.8,328.8,306.1,334.5,297.2,330.9z M312.6,325.5c5.3-3.4,6.4-6.5,4.8-14.2c-0.5-2.6-1.2-3.1-5.6-4.2c-6.9-1.6-7-1.5-6.3,1.9
	c0.898,4.3-0.302,7-3.802,8.6c-1.8,0.7-4.498,2.4-5.998,3.7c-2.5,2.1-2.602,2.5-1.2,3.7C298.198,328,308.1,328.3,312.6,325.5z
	 M291.7,318.3c0.198-0.6-0.7-1.3-2.102-1.7c-3.398-0.8-8.6-5.4-8.6-7.5c0-2.8-10.602-3.7-13.9-1.3c-1.3,1-2.398,2.2-2.398,2.7
	c-0.102,0.6,2.1,2.7,4.898,4.8c4.8,3.8,5,3.8,11.602,3.3c4-0.3,7-0.1,7.398,0.5C289.3,320.3,291.2,319.8,291.7,318.3z M299.1,309.9
	c2.7-3.8,1.6-5.2-3.1-3.9c-1.9,0.5-5.3,1.3-7.5,1.8l-4,0.8l3.5,2.2C293,313.9,296.4,313.7,299.1,309.9z M264.8,304.5
	c-2.2-2-9.8-7.3-9.8-6.9c0,1,3.3,6.9,4.8,8.7c1.4,1.6,1.6,1.6,3.4,0C264.2,305.4,264.9,304.6,264.8,304.5z M337.4,304.4
	c0.9-0.8,1.602-2.4,1.602-3.5c0-2-1.5-2.6-2.5-0.9c-0.4,0.6-2.102,0.2-4.5-1c-2.2-1.1-4.102-2-4.2-2c-0.2,0-0.3,2-0.3,4.5v4.5h4.198
	C334.1,306,336.5,305.4,337.4,304.4z M312.4,300.1c-0.3-4.7-1.3-5.5-3.5-2.7c-2.2,2.8-2.398,4.2-0.6,4.9
	C311.4,303.6,312.6,303,312.4,300.1z M324.3,301.4c0.3-0.3,0.1-1.8-0.4-3.4c-0.7-2-1.898-3-4.1-3.4c-5.8-1.1-6-1-3.8,3.4
	c1.698,3.2,2.6,4,4.898,4C322.4,302,323.9,301.7,324.3,301.4z M271,300.3c-3.102-1.2-4.102-2.5-2.9-3.9c0.602-0.8,1.5-1.2,1.9-0.9
	c0.398,0.2,2.5-0.4,4.6-1.4c4.4-2.2,6.3-1.7,3.9,0.9c-1.5,1.6-1.3,1.8,3.5,2.4c2.8,0.4,5.8,0.3,6.7-0.2
	c1.398-0.8,1.198-1.2-1.602-2.6c-1.7-0.9-3.6-1.4-4.1-1.1s-1.2-0.1-1.7-0.8c-2.2-3.6-21.601-7.3-25.2-4.8c-3.6,2.4,8.9,13.3,14.9,13
	C272.3,300.8,272.3,300.8,271,300.3z M303,296.4c0-1.1-0.5-1.4-1.602-1c-0.898,0.3-2,0.6-2.5,0.6S298,296.5,298,297
	c0,0.6,1.1,1,2.5,1C302.1,298,303,297.4,303,296.4z M336,292.6c0-3.4-2.5-5.2-5.7-4c-4,1.4-3.8,3.1,0.398,5.2
	C335,296.1,336,295.8,336,292.6z M300.9,287c-1.3-3.5-3.6-3.9-7-1c-2.1,1.7-2.198,2.1-0.898,3c0.8,0.5,3.2,1,5.198,1
	C301.9,290,301.9,290,300.9,287z M319,287.3c4.898-2.2,5.1-4.3,0.8-8.6l-3.2-3.2l-0.7,4.6c-0.399,2.6-1.2,5.6-1.8,6.8
	C312.698,289.5,313.6,289.6,319,287.3z M288.8,285.5c0.6-1.4,2.5-3.3,4.2-4.4l3.1-1.8L293,278c-4.4-1.8-9.2-0.3-10.5,3.4
	c-0.8,2.4-0.602,3.1,1.398,4.7C286.9,288.6,287.5,288.5,288.8,285.5z M281.7,275.8c3.698-3.7,8.1-3.9,14.198-0.9l4.2,2.2l3.399-2.8
	c1.801-1.5,3.601-3.4,3.899-4.2c1.601-3.5-7.5-10.9-16.8-13.6c-5-1.5-14.7-2-15.898-0.9c-0.302,0.4,0.3,1.8,1.3,3.2
	c1.1,1.3,2,3.4,2,4.6c0,2.8-2.4,6.2-4.8,6.8c-3.102,0.9-8.102-1.8-8.802-4.6c-0.8-3.4-1.698-3.3-4.8,0.5c-3.898,4.6-5.398,8-6.2,14
	c-0.698,5.1-0.6,5.3,1.102,3.9c2.1-1.8,12-1.6,18.5,0.3l4.5,1.3l0.6-3.4C278.4,280.4,280.1,277.5,281.7,275.8z M307.198,280.7
	c-0.3-3.1-0.698-3.5-1.8-2.6c-1.8,1.5-1.8,2.8,0.3,5.1C307.698,285.5,307.8,285.3,307.198,280.7z M335.5,281.1
	c-0.7-3.5-4.4-11.4-6.7-14.1c-3-3.6-4.5-4.2-6.7-2.8c-1.7,1-2.5,1-4.101,0.1c-1.601-1.1-2.101-0.9-3.5,0.9
	c-2.301,3.3-1.899,4.1,3.601,7.1c4,2.2,5.5,3.8,7.2,7.5c2.1,4.6,2.3,4.7,6.5,4.7h4.3L335.5,281.1z M311.698,276.8
	c-0.198-1.3-0.398-0.5-0.398,1.7c-0.102,2.2,0.1,3.2,0.398,2.3C311.9,279.8,311.9,278,311.698,276.8z M272.8,265.1
	c2-1.2,1-4.6-1.5-4.9c-1.4-0.2-2.3,0.3-2.8,1.7C267.4,265.4,269.7,267.1,272.8,265.1z"/>
<path d="M22.7,323.3c-1.602-1.5-0.5-3.4,2.8-5c3.5-1.7,5.5-5.6,5.5-11c0-1.2,1-4.8,2.1-8c2.9-7.9,11.3-16.2,19.5-19.3
	c11.5-4.4,28.2-3.3,42.5,2.8c9.4,4.1,6.3,6.7-4,3.4c-16.6-5.1-29.7-5.4-39.898-0.7c-3.102,1.4-6.802,3.6-8,4.8
	c-3.602,3.3-6.7,10.4-8.102,18.2c-1.398,8-3.898,12.6-7.6,14.3C24.5,324.2,23.6,324.3,22.7,323.3z"/>
<path d="M367.698,273.9l-3.6-3l-1.7,2.6c-2.3,3.5-4.898,3.1-7.898-1.2c-2.9-4.3-3.102-6.1-1.102-8.9c1.4-1.9,1.5-1.9,4.5,0.4
	c3.5,2.6,4.102,2.7,4.102,0.9c0-0.8,1.1-2.4,2.5-3.7c2.398-2.3,2.5-2.3,4.5-0.5c1.1,1,2,2.8,2,4s0.6,4.1,1.398,6.3
	C374.5,276.7,372.6,278,367.698,273.9z"/>
<path d="M166,269c-2.5-2.5-2.5-5.5,0-10.5c1.1-2.2,2-4.7,2-5.7c0-3.4-3.3-11.3-7.7-18.5c-5.3-8.8-9.3-17.1-9.3-19.6
	c0-3.5,2.898-7.3,7.398-9.5c4.602-2.3,14.5-3.9,38.9-6.1c14.6-1.3,15.7-2.1,15.7-11c0-15.3,4.398-21.4,20.898-28.7
	c11.9-5.2,16.5-8.2,18.5-12.2c0.7-1.5,1.802-7.5,2.4-13.4c1.8-19.2,7.2-26.2,24.6-32.2c1.4-0.5,1.602-0.9,0.7-2
	c-1.6-1.9-0.3-2.6,5.102-2.6c3.3,0,4.8-0.4,4.8-1.3c0-1.4-12.5-10.8-22-16.5c-3-1.9-10.5-6.7-16.602-10.8c-6.1-4.1-11.5-7.4-12-7.4
	s-1.898-0.9-3.198-1.8c-2.102-1.6-2.2-2-0.802-3.1c1.2-1,2-1,3.802,0c2.6,1.3,11.398,6.9,17.1,10.8c2.1,1.4,7.4,4.9,11.7,7.6
	c4.3,2.8,10.6,7,14,9.3c3.398,2.4,6.398,4.1,6.7,3.9c0.3-0.3-0.602-3.1-2-6.1c-1.7-3.6-2.2-5.8-1.5-6.2
	c2.6-1.6,7.198,7.4,8.398,16.5c0.5,3.9,1,4.9,1.9,4.1c0.6-0.5,1.398-0.8,1.7-0.5c0.198,0.3,1.498-1.7,2.799-4.4
	c3-6.6,2.5-9-4.999-25c-5.9-12.8-6-13.2-5.7-20.3c0.3-5.8,0.899-8.2,3-11.5c4.399-7,20.8-18.2,30.699-20.9c3-0.8,10-3.1,15.5-5
	C344,6.6,351.4,4.3,355,3.5c9.5-2.2,27-1.9,43.698,0.7C413.8,6.5,414.3,6.5,425,2.5c3.5-1.3,6.5-1.6,13.6-1.2
	c9.1,0.5,10.6,0.9,32.4,9c7.3,2.6,9.8,3.1,18,3.1c5.198,0,12.898-0.4,17-0.8c7.198-0.8,7.8-0.7,13.6,2.2c3.3,1.7,9.6,5.7,14.1,9
	C545.3,32.5,553.6,37.6,569,45.5c15.6,8.1,18.3,11,21.398,23.1c3.3,13.2,5.8,19.9,10.2,28l4.5,8.2l5.7-2.8
	c21.6-10.6,31.699-14.7,40.898-16.5c4-0.8,5.301-2.5,2-2.5c-3.199,0-5.5-2.6-3.898-4.2c0.898-0.9,2.3-0.9,6,0
	c10.3,2.7,12.699,7.8,7.199,15.7c-1.699,2.5-3.5,4.3-4.101,4c-1.5-1-1-4.8,1.101-7.5c2.899-3.8,2.5-5.4-0.699-3.1
	c-1.602,1.1-7.102,3.2-12.301,4.7c-5.199,1.4-16.101,5.8-24.199,9.7l-14.7,7l4.399,5.6c2.5,3.1,8.101,9.1,12.5,13.5
	c13.199,12.9,14.399,16.5,16.899,49.3c1.4,18.1,3.5,23.1,14.8,35.5c2.4,2.6,4.801,5.9,5.301,7.3c1.699,4.5,1.101,11.5-2.101,23.4
	c-1.7,6.4-3.8,14-4.6,16.9c-1.4,5.5-3.3,7.2-5.7,5.2c-1.3-1-1.3-1.7-0.1-5.3c0.8-2.3,3-10.3,5.1-17.8c4.9-18.1,4.6-20.2-4.1-30
	c-3.602-3.9-7.9-10-9.602-13.5c-3.3-6.6-3.1-5.7-5.7-38.5c-1.1-14.6-3.5-19.2-17.3-33.4c-17.1-17.7-27.398-35.7-31.5-54.9
	c-0.8-3.8-2.6-9.1-4.1-11.8c-2.5-4.7-3.4-5.3-16.2-11.8c-13.101-6.7-22.101-12.3-40-25c-11.3-8.1-15.8-9.4-25.4-7.4
	c-4.398,1-10.1,1.4-14.698,1.2c-7.302-0.5-9.102-1-34.9-10.2c-4-1.5-9.2-2.9-11.5-3.2c-2.2-0.3-5-0.7-6.1-0.9
	c-1.102-0.2-3.9,0.7-6.2,2c-8.5,4.7-17.3,5.3-33.602,1.9C375.4,3.6,361.4,4.6,342,11c-6.302,2.1-13.5,4.4-16,5
	c-8.5,2.2-25.4,13-29,18.6c-4.5,6.8-3.3,17,4,32.4s7.3,21.3,0.198,29.2c-3.3,3.7-3.698,4.7-3.698,9.7c0,7-1.7,7.8-2.9,1.4
	c-0.5-2.6-1-4.9-1.1-5c-0.3-0.6-18.8,4.8-21.5,6.2c-7.4,3.8-10.5,10.4-11.9,25.6c-1.6,16.9-4.398,20-28.3,30.8
	c-10.6,4.8-11.8,6.7-12.9,19.8c-1.198,15.9-3.6,17.5-30.5,19.9c-21.6,1.9-29.3,3.3-30.8,5.6c-1.6,2.7,0.8,10.2,6.602,19.7
	c9.398,15.7,10.6,20.6,6.698,28.3c-1.5,2.9-2,5.3-1.6,8C169.9,270.8,168.8,271.8,166,269z"/>
<path d="M779.5,248.1c-0.7-1.2,0.198-1.7,5-2.6c8.898-1.6,15.398-7.7,22.1-20.6c2.4-4.6,2.8-6.8,3.1-14.9l0.301-9.4l7.899-7.3
	c10.8-9.9,14.101-16.4,14.101-27.6c0-9.2-1.399-26.3-3.5-42.2c-0.801-6-1.899-15-2.5-19.8c-1.601-13-1.699-13.2-10.199-15.8
	c-4-1.3-7.9-2.9-8.7-3.6c-2.601-2.2,1.7-2.8,8.1-1.1c3.2,0.9,5.802,1.4,5.802,1.2c0-0.3-1.102-2.7-2.5-5.4
	c-2.4-4.7-6.602-9.5-13.302-15.1c-2.9-2.4-3.2-3.2-3.2-8.6c0-20.7-13.602-36.9-30.5-36.2c-12.7,0.5-15,0.1-24.5-3.7
	c-9.4-3.8-9.602-3.9-23-3.9c-14.7,0.1-21.602,1.7-30.2,7.1c-7,4.4-25.8,8.1-25.102,4.9c0.102-0.5,4.102-2,9-3.2
	c4.802-1.3,9.9-3,11.302-3.7c10.8-5.6,13.898-6.9,20.3-8.2c12-2.6,25.898-1.5,38.898,2.9c9.9,3.4,11.4,3.7,20.5,3.5
	c8.802-0.3,10.4,0,15.5,2.4c12.102,5.6,20.102,17.6,22.2,33.1l1.2,9.2l6,6c3.8,3.8,7.2,8.6,9.399,13.1c3.101,6.3,4,7.3,8,8.9
	c2.5,1,5.101,2.2,5.699,2.8c3.102,2.4-2.8,3.8-6.898,1.6c-1.102-0.6-1.801-0.7-1.5-0.1c0.398,0.5,1.3,6.4,2.199,13.1
	c0.801,6.7,2.101,16.1,2.899,20.9c2,11.8,4,41.3,3.2,46.3c-1.1,7-5.5,14-13.7,22.1L815,201.9v7c0,8.8-2.302,15.3-9.302,25.7
	c-6.5,9.7-13.3,14.4-20.8,14.4C782.198,249,779.9,248.6,779.5,248.1z"/>
<path d="M520.1,241.5c-4.4-4.7-6.1-6-6.1-4.7c0,1.1-0.602,2.5-1.4,3.1c-2.101,1.8-3.9-2-3-6.4c0.899-5.1,2.2-5.5,8.3-2.8
	c4.5,2,5.2,2.7,4.7,4.5c-0.4,1.7,0.4,3,3,5.5c3.4,3.1,4.2,6.2,1.8,7C526.8,247.9,523.5,245.1,520.1,241.5z"/>
<path d="M440.698,230.1c-7.398-1.2-4.3-2.6,7.302-3.2c6.3-0.4,13.8-0.8,16.5-1c6.3-0.5,7,1.1,1.398,3.3
	C461.4,230.9,448.698,231.4,440.698,230.1z"/>
<path d="M529.698,228.3c-1.6-0.8-2.5-1.9-2-2.3c1.102-1.1,18.302-1.8,18.9-0.9c0.8,1.3-7.3,4.9-10.8,4.8
	C534,229.8,531.198,229.1,529.698,228.3z"/>
<path d="M581.9,228.1c-2.1-1.7-2.2-2-0.7-2.6c0.9-0.4,3.102-0.5,5-0.3c2.5,0.2,3.302,0.8,3.302,2.3
	C589.5,230.3,585,230.7,581.9,228.1z"/>
<path d="M594.698,229.4c-0.898-0.9-0.898-5.8,0-6.7c0.802-0.9,3.302,1.2,3.302,2.7C598,227.2,595.5,230.2,594.698,229.4z"/>
<path d="M335,225.5c-0.7-0.8-1-2.1-0.7-2.9c0.5-1.1,2.3-1.3,8.898-0.9c4.602,0.2,8.9,0.7,9.7,0.9c2.602,0.9-0.3,2.3-6.898,3.3
	C337.5,227.3,336.5,227.3,335,225.5z"/>
<path d="M300.3,220.4c-0.9-2.3,1.1-3.8,2.6-2c1.3,1.6,0.7,3.6-1,3.6C301.4,222,300.698,221.3,300.3,220.4z"/>
<path d="M304.9,216.8c0-0.1-0.2-2.3-0.5-4.8c-0.398-5.4-1.2-11.4-1.5-11.7c-0.1-0.2-0.2-0.6-0.3-1c-0.1-0.5-0.5-1.4-1-2.1
	c-0.4-0.7-0.5-1.6-0.2-1.9c0.3-0.3,0.2-1.1-0.3-1.7c-1.5-1.8-5.5-23.2-4.7-25.2c0.4-1,1-1.3,1.5-0.8c1,1.1,5,20.3,5.602,26.5
	c0.198,2.4,0.5,4.5,0.6,4.7c0.1,0.1,0.2,0.5,0.4,1c0.1,0.4,0.8,2.1,1.5,3.7c1.698,4,1.898,12.7,0.3,13.2
	C305.6,217,305,217,304.9,216.8z"/>
<path d="M595.5,214.8c-0.302-0.8-0.5-5-0.302-9.4c0.2-6.2,0.602-7.9,1.802-7.9c2.198,0,2.698,15.7,0.5,17.5
	C596.3,216,595.9,216,595.5,214.8z"/>
<path d="M95.5,211.3c-11-2.5-34.9-14.1-41.602-20.1c-6.1-5.5-10.1-12.8-9.3-17c0.3-1.6,2.2-4.6,4.102-6.7c2.6-2.8,3.3-4.2,2.6-5.6
	c-0.4-0.9-7.2-8.6-15-17.1c-16.7-18-19.9-22.1-25.3-32.1c-3.8-7.2-5-12-3.2-13.1c0.5-0.3,2.8,3.2,5.2,7.7
	c5.5,10.5,13.5,20.8,29.898,38c7.2,7.6,13.4,14.9,13.7,16.4c0.602,2.2,0,3.2-4.2,6.8l-4.8,4.2l1.2,3.9c1.7,5.9,6.6,11.1,16.4,17.5
	c12.198,8,23,12,33.8,12.6c9.398,0.6,15.3-0.6,19.398-3.8c3-2.4,5.9-8.5,5.302-11.1c-0.302-0.9,0.1-2.5,0.8-3.4
	c1.1-1.6,1.3-1.6,2.398,0.5c2.102,3.9-1,12.2-6.398,16.9C114.4,211.1,104.4,213.3,95.5,211.3z"/>
<path d="M463.698,209.3c-2.1-1.5-4-3.7-4.3-4.9c-0.3-1.2-1.2-2.5-2-2.8c-0.8-0.3-1.398-1.9-1.398-3.8c-0.102-8.7-4-6.5-4.4,2.4
	c-0.3,7.2-2.8,11.7-5.3,9.6c-1.602-1.3-1.8-18.3-0.3-19.3c0.6-0.3,1-4.1,1-8.3c-0.102-5.7-0.302-7.2-1.102-5.9
	c-0.5,0.9-1.6,1.7-2.3,1.7c-2,0-10.6-7.9-10.6-9.8c-0.102-2.8-2.4-5.2-4.102-4.1c-0.8,0.5-3.5,0.9-6.1,0.9c-7.4,0-7.5,0.1-6.602,7.7
	c0.4,3.7,1.301,7,2,7.5c0.7,0.4,5.2,0.8,10,0.8c4.801,0,8.9,0.3,9.102,0.8c0.3,0.4,0.6,5.6,0.8,11.7l0.399,10.9l-9.5,2.4
	c-8.399,2.2-12.399,2.5-34.699,2.9c-22.801,0.4-25.4,0.3-27.801-1.3c-2.399-1.6-2.5-1.9-1.101-2.9c1.601-1.2,2.3-7.1,0.7-6.1
	c-1.3,0.9-36.8-2.2-38.9-3.3c-2.398-1.3-3.5-7.4-2.6-15.2c0.6-5.2,0.399-5.9-1-5.9c-1,0-3.101-1.3-4.7-3c-2.8-2.8-3-3.4-2.7-9.6
	c0.102-3.6,0.801-6.9,1.4-7.4c0.6-0.6,2.399-0.6,4.399,0c1.801,0.5,3.801,0.6,4.399,0.3c0.601-0.4,2-0.7,3.101-0.8
	c1.601,0,2.101-0.8,2.301-3.7c0.199-2,0.898-4.1,1.6-4.7c1.9-1.6,6.601,0.3,6.601,2.7c0,1,1.399,3.1,3.101,4.8
	c3.6,3.4,4.899,5.7,6,10.2c0.6,2.8,0.399,3.5-1.601,4.8c-1.199,0.8-2.899,1.2-3.801,0.8c-2.1-0.8-3.3,5.4-2,9.9
	c0.7,2.7,1.602,3.4,5.301,4.4c2.5,0.6,8,1.2,12.199,1.2c7,0.1,7.9-0.1,10.301-2.5c2.699-2.6,2.801-2.7,14.101-2.2l11.5,0.5l-0.7-3.1
	c-0.399-1.7-0.7-5.3-0.6-7.9c0.1-4.7,0-4.8-2.602-4.3c-1.5,0.3-5.6,0.6-9.199,0.8l-6.5,0.3l-1.601-8.8c-0.899-4.8-1.899-9-2.2-9.3
	c-0.199-0.2-1,0.9-1.699,2.5c-1.399,3.4-4.601,6.6-5.301,5.4c-0.8-1.4-1.699-6.6-2.699-16.1c-0.5-5.4-1.601-10.4-2.5-11.8
	c-1.601-2.5-1.301-4.4,0.699-4.4c0.5,0,3.2,1.8,5.9,4.1l4.899,4.1v-4.9c0-2.6-0.699-6.9-1.399-9.5c-1.9-6.2-0.7-7.3,7.2-6.4
	c7.699,0.9,45,0.8,46.398,0c0.602-0.4,2.801-0.7,4.7-0.7c3.5,0,3.601,0.1,3.7,3.9c0.1,6.4,1.5,14.4,2.5,14.4c0.5,0,2-1.8,3.399-4.1
	c2.399-3.7,5.699-5,4.5-1.8c-0.301,0.8-0.5,8-0.601,16.2c0,17.2-0.8,19.2-5.5,13.9L433,150v2.5c0,1.7,1.8,4.3,5.698,8.2
	c3.2,3.2,5.4,5.2,5,4.6c-1.3-2.1,1.102-8.7,4-11.5c2.102-1.9,3.9-2.6,7-2.6c2.302-0.1,4.602,0.5,5.2,1.1c1.3,1.6,0,7.5-2.6,11.9
	l-1.9,3.3l5.8,4.8c3.2,2.7,5.802,5.3,5.802,5.8s0.698,0.9,1.698,0.9c1.4,0,1.5-0.2,0.102-1.7c-0.8-1-1.8-3.7-2.2-6.1
	c-0.6-4.2-0.5-4.4,2.4-5.5c2.5-1,3-1.6,2.5-3.4c-0.4-1.7,0.398-3.3,2.8-5.9l3.398-3.7l14.4,0.2c7.899,0.1,15.899,0.4,17.7,0.8
	c4.898,0.8,11.1-2,16.699-7.7c2.699-2.8,4.5-5,4.101-5c-0.5,0-0.3-0.7,0.399-1.5c1.801-2.2,6.5-1.8,9.601,0.8
	c2.7,2.4,2.7,2.4,0.8,4.3c-6,6-6.899,10.2-2.7,13.2c2.5,1.8,2.602,2.2,1.5,4.7c-1.199,2.5-1.1,2.6,1.5,2.5c4.4-0.3,5-0.1,8,2.4
	c2.7,2.2,3,2.3,4.9,0.7c2.8-2.2,3.5-4.7,2.3-7.5c-1.5-3.3,1.3-8.9,5.8-11.7c2.9-1.8,4.102-2,7.5-1.3c5.801,1.3,6.7,3.3,4.102,8.7
	l-2.102,4.4l5.4,5.4c3,3,6.899,7.7,8.6,10.4c1.7,2.8,3.9,6.2,4.9,7.7c2.399,3.4,2.3,4.7-0.101,7.8c-1.601,2-2.199,2.3-3.699,1.4
	c-1-0.6-1.801-2-1.801-3c0-1.1-0.399-2.5-0.801-3.1c-0.5-0.7-0.6-1.7-0.199-2.3c0.699-1.1-1.601-5-3-5c-0.5,0-1,2.1-1,4.6
	c-0.101,3.8-0.601,5.1-2.801,7c-3.398,2.9-4.1,3-6.8,0.3c-2.2-2.2-2.1-4.4,0.2-4.4c0.8,0,1.899-1.8,2.5-4.4c1.1-4,1-4.8-0.9-7.3
	c-1.199-1.6-3.199-3.5-4.5-4.4c-2.3-1.5-2.6-1.4-5.1,0.9c-3.9,3.8-7.5,4.4-9.5,1.6c-1.2-1.7-1.601-1.9-1.601-0.7
	c0,2.8-2.601,3.9-9.301,4c-6.199,0.1-6.5,0.2-7.1,2.8c-1.2,6.3-10.101,12.2-15.7,10.5c-2-0.7-8.899-10.1-8.899-12.2
	c0-1.4-1.301-1.6-4.699-0.7c-1.7,0.5-2,1-1.4,2.8c1.101,2.9-0.1,5.8-3.899,9c-2.699,2.2-4,2.6-8.699,2.5c-3.9-0.2-5.7-0.7-6.102-1.8
	c-0.398-0.9-1.398-1.6-2.199-1.6s-1.801-1.1-2.101-2.5c-1.3-5.3-2.2-6.8-4.3-7.2c-3.8-0.8-4.5,0-3.3,3.3c1,2.6,0.898,3.6-1.102,6.9
	c-2.699,4.8-2.8,7.2-0.1,8.8c1.6,1,1.899,2.1,1.7,5.5c-0.301,3.6-0.602,4.2-2.5,4.1c-1.2,0-2,0.3-1.7,0.8c0.6,0.9-1.3,3.8-2.5,3.8
	C467.8,212,465.8,210.8,463.698,209.3z M428.8,203c6.3-1.1,7.2-1.5,6.7-3.1c-0.302-1-0.602-4.9-0.602-8.7v-7l-3.1,0.8
	c-1.602,0.5-15.7,0.7-31.301,0.5l-28.301-0.4l-0.5,3.7c-0.3,2-0.898,6.6-1.3,10.1l-0.7,6.3l25.9-0.5
	C409.8,204.5,424.8,203.7,428.8,203z M466.5,202.1c0.698-1.2-1.2-2.4-2.5-1.6c-1.102,0.7-0.4,2.5,1,2.5
	C465.5,203,466.1,202.6,466.5,202.1z M463.6,191.2c0.7-2.6,1.2-4.7,1.1-4.7c-0.1,0-1.6-0.7-3.398-1.6l-3.102-1.7l-0.5,3.1
	c-0.198,1.7,0.2,4.2,0.9,5.6c0.8,1.4,1.4,3.5,1.4,4.6C460,199.8,462.3,196.5,463.6,191.2z M368,192.3v-2.8l-9.302-0.1
	c-10-0.2-16.8-1.6-18.698-3.9c-1.602-1.9-2.4-12.2-1.302-16.5c0.802-2.8,1.4-3.5,3.7-3.7c4.102-0.3,4.2-0.8,1.102-5.4
	c-2.5-3.6-3-3.8-3.602-2.2c-0.398,1.1-2.1,3.2-3.898,4.6c-3.602,3.1-10.2,3.7-13.602,1.2c-2.3-1.6-3.398-1.1-3.398,1.5
	c0,2.4,2.5,4.2,6.8,4.9c3.5,0.6,3.7,0.9,4,4.5c0.2,2.1-0.102,4.3-0.7,4.9c-0.6,0.6-1.1,3.6-1.1,6.8v5.6l4.8,0.7
	c2.6,0.3,9.2,0.9,14.7,1.3c5.5,0.3,10.198,0.7,10.398,0.9c0.2,0.2,2.602,0.4,5.3,0.4C367.8,195,368,194.9,368,192.3z M454,180.8
	c0-8.1-0.802-12.1-2.102-11.2c-1,0.6-1.2,16.7-0.2,17.7C453.4,189.1,454,187.4,454,180.8z M461.5,177.5
	c-3.802-3.1-4.9-2.1-1.102,1.1c1.5,1.4,3.102,2.2,3.5,1.9C464.198,180.1,463.198,178.8,461.5,177.5z M413.3,177.6
	c-0.5-2.2-0.8-2.3-3.3-1.4c-1.9,0.6-4.102,0.6-6.7-0.1c-5.102-1.4-5.3-1.4-5.3,0.8c0,2.2,1.8,2.8,10.1,3
	C413.5,180,413.698,179.9,413.3,177.6z M578.198,172.3c-3.198-4.4-9.1-9.7-9.898-8.9c-0.7,0.7,9.8,11.6,11.2,11.6
	C579.8,175,579.198,173.8,578.198,172.3z M481,172c0-0.5-2-1-4.5-1s-4.5,0.5-4.5,1c0,0.6,2,1,4.5,1S481,172.6,481,172z M509.3,171.3
	c-1.8-0.2-4.8-0.2-6.5,0c-1.8,0.2-0.4,0.4,3.2,0.4C509.6,171.7,511,171.5,509.3,171.3z M407.5,170c-0.302-0.6,0.6-1.5,2.198-2.2
	l2.802-1.1l-4-0.8c-2.2-0.4-5.602-0.8-7.602-0.8c-3.3-0.1-3.6,0.1-3.2,2.3c0.4,1.9,1.301,2.6,3.7,2.9C407.3,171,408.1,171,407.5,170
	z M563,165.9c0-0.5-0.7-0.9-1.5-0.9c-0.9,0-1.5,0.9-1.5,2.1c0,1.8,0.198,1.9,1.5,0.9C562.3,167.3,563,166.4,563,165.9z
	 M452.698,164.2c0.7-0.4,1.9-2.4,2.7-4.4c1.4-3.2,1.4-3.7,0-4.2c-3.6-1.4-10.3,6.6-7.2,8.6C449.8,165.2,451.198,165.2,452.698,164.2
	z M490.4,162.4c4.5,0.3,9.8,0.9,11.8,1.2c5.301,0.8,14.602-1.3,15.801-3.6c0.801-1.6,1.5-1.7,4.199-0.9c5.102,1.4,5.301,1.2,5.5-4.2
	l0.2-5.2l-3.2,3.1c-5.8,5.6-8.199,6.1-27.699,5.3c-16.801-0.7-17.601-0.7-19.801,1.3c-2.1,1.9-2.199,2.1-0.6,3.3
	c1.2,0.9,2.2,0.9,3.7,0.1C481.6,162.1,485.3,162,490.4,162.4z M420.5,161h8l-0.102-17.3c0-9.4-0.398-19.7-0.8-22.7l-0.7-5.5h-26.8
	h-26.8l0.8,3c0.5,1.6,0.899,6.2,0.899,10c0,12.2,2.899,31,5.101,32.5c0.399,0.3,7.8,0.4,16.6,0.3C405.4,161.2,416.1,161,420.5,161z
	 M569.5,158.5c2.898-2.8,3.198-5,0.898-5.9c-2.898-1.1-5.1-0.6-7.7,1.8c-3.698,3.4-2.5,6,3.102,6.5
	C566.5,160.9,568.198,159.9,569.5,158.5z M371.4,145.7c0.4,0.4,0.4-1.3,0-3.7c-0.398-2.8-1.5-5.1-2.8-6.2c-1.1-0.9-2.2-1.5-2.4-1.4
	c-0.1,0.2,0,3.3,0.4,7c0.6,6.2,0.8,6.5,2.4,5.1C369.9,145.7,371,145.3,371.4,145.7z M437,143.9c0-1.4-0.302-4.7-0.602-7.3
	c-0.6-3.7-0.898-4.4-2-3.5c-0.898,0.7-1.398,3.3-1.398,7.3c0,5.5,0.198,6.2,2,6.2C436.5,146.6,437,145.9,437,143.9z"/>
<path d="M381,156.6c-1.102-3.1-0.602-4.6,1.6-4.6c1.6,0,1.9-2.1,0.4-3.6c-2.302-2.3,2-3.2,18-3.8c9.1-0.4,17.3-0.8,18.3-0.9
	c1.5-0.2,1.8,0.7,2.1,6.1c0.2,4.2-0.2,6.6-1.1,7.3c-0.7,0.7-8.8,1.3-19.7,1.6l-18.5,0.6L381,156.6z M415.8,153.3c-1-0.2-2.8-0.2-4,0
	c-1.3,0.2-0.5,0.4,1.7,0.4C415.698,153.8,416.698,153.6,415.8,153.3z M402.5,149.9c2.8-0.6,1.3-0.7-5-0.4
	c-4.9,0.3-9.102,0.5-9.2,0.5c-0.2,0-0.3,0.4-0.3,1C388,151.9,395.198,151.4,402.5,149.9z M416.9,148.4c0.2-0.2-1.7-0.4-4.3-0.4
	s-4.5,0.4-4.2,0.9C408.9,149.7,416,149.3,416.9,148.4z"/>
<path d="M391.5,137.9c-2.2-0.5-5.302-1.1-7-1.2c-2.9-0.2-3-0.5-3.802-6.1c-0.698-5.2-0.6-6.2,1.102-7.9c2.3-2.3,10.6-2.6,14.898-0.5
	c2.5,1.2,2.802,2,3.102,6.6c0.3,5.1-1.602,10.4-3.602,10.1C395.8,138.8,393.698,138.4,391.5,137.9z M390.5,132
	c-0.302-0.5-1.802-1-3.302-0.9c-2.398,0-2.5,0.1-0.698,0.9C389.3,133.2,391.198,133.2,390.5,132z M396,132c0-1.3-1.102-1.3-3,0
	c-1.2,0.8-1.102,1,0.8,1C395,133,396,132.6,396,132z M389.5,126c0.398-0.6-0.7-1-2.4-1s-3.1,0.5-3.1,1c0,0.6,1.1,1,2.398,1
	C387.8,127,389.198,126.6,389.5,126z M396,126c0-0.5-0.602-1-1.4-1s-1.8,0.5-2.1,1c-0.302,0.6,0.3,1,1.398,1
	C395.1,127,396,126.6,396,126z"/>
<path d="M405.198,136.8c-1.898-1.9-1.5-10.9,0.602-13.6c1.398-1.8,3.1-2.4,7.898-2.8c8-0.7,9.9,0.4,10.7,5.9c0.8,5-0.6,9.4-3.1,10.4
	c-0.9,0.4-4.102,0.1-7.102-0.5c-4.699-1-5.699-0.9-6.6,0.4C406.698,137.8,406.198,137.8,405.198,136.8z M421,130.7
	c0-0.8-2.102-1.3-6.5-1.5c-4.7-0.1-6.5,0.1-6.5,1c0,0.9,2.1,1.4,6.5,1.5C419.1,131.9,421,131.6,421,130.7z"/>
<path d="M873.5,192.1c-0.802-1.6-4.2-4.6-7.5-6.6c-6.5-3.9-8.102-6.8-6.102-11.1c0.602-1.3,2.2-2.9,3.602-3.4l2.5-0.9l-2.102-3.6
	c-2.6-4.3-3.5-13.6-1.898-19.3c1.3-5,8.8-13.2,12-13.2c1.898,0,1.898-0.2-0.7-5.4c-1.8-3.7-3.4-5.7-5-6.1c-3.102-0.7-4-3.1-1.9-5.4
	c1.5-1.6,1.4-1.9-0.7-3.8c-1.199-1.2-3.1-2.3-4.1-2.5c-2.4-0.4-4-5.5-2.7-8.3c1.5-3.2,2.9-18.3,2.5-26.7c-0.399-6.9-0.2-8,1.7-9.9
	c2-2,4.8-2.1,10.9-0.3c1.3,0.3,1.5-0.3,1.3-2.8c-0.3-2.1,0.398-4.5,1.7-6.7c1.898-3,2.5-3.3,5.698-2.8c4,0.7,9.9,4.8,10.802,7.5
	c0.5,1.7,0.898,1.5,4-1.4c5.198-4.8,14.5-6,16.898-2.1c0.9,1.5,0.4,2.4-3,5.7l-4.2,3.9l7.7,7.3c4.2,4,8.3,7.8,9.2,8.3
	c1.399,0.9,1.5,2.6,0.899,13.8c-1.199,19.9,0.301,28.6,4.699,28.7c2.7,0,2.301,2.4-0.699,5.1c-3.101,2.8-3.101,3.1-1.399,4.3
	c1.7,1.3,1.6,1.5-1.4,3.3l-3.198,2l3.1,2.9c6.5,6.2,9.6,14.4,5.4,14.4c-0.802,0-1.5,0.6-1.5,1.3c0,1.5-6.5,8-9.5,9.4
	c-5.102,2.5-8.7,2.4-14-0.6l-5.102-2.9l-2.8,3.5c-1.601,1.9-4.601,4.3-6.8,5.3c-3.301,1.5-3.602,1.9-2.301,3
	c3.199,2.7,1,9.7-4.601,14.4c-1.899,1.6-3.8,2.4-4.899,2.1c-1.101-0.3-2,0-2.399,1C876.698,195.8,875.198,195.3,873.5,192.1z
	 M879.4,188.3c0.4-0.5,1.2-0.9,1.7-0.9c0.5-0.1,1.3-0.2,1.9-0.3c1.398-0.2,4.198-6,3.5-7.1c-0.802-1.3-7.2-1.3-8,0
	c-1.102,1.9-4,1-6.802-2c-3.3-3.4-7.698-4.1-7.698-1.2c0,1.1,1.898,3.1,4.8,5c2.6,1.7,5.6,4,6.6,5.1
	C877.5,189.2,878.198,189.4,879.4,188.3z M894.3,166c2-2.3,2.7-4.1,2.7-7c0-2.2-0.4-4-0.9-4c-0.4,0-4.4-3.1-8.8-6.9
	c-7.2-6.3-8.2-6.8-9.602-5.4c-2,2-3.6,0.9-3-2c0.302-1.8,0.2-1.7-1.198,0.6c-1,1.7-2.2,2.6-3.102,2.3c-2.5-1-4.7,5-4,11.2
	c1,8.2,2.8,11.8,6.8,13c5.4,1.7,8,2,13.302,1.6C890.5,169,892.1,168.3,894.3,166z M920.698,162.3c2.2-1,4.102-2.9,4.9-4.9
	c1.8-4.2,1.7-4.5-0.101-3.7c-0.899,0.3-2.399-0.2-3.5-1.2c-1.601-1.4-2.301-1.5-3.399-0.6c-0.8,0.7-2,1-2.601,0.6
	c-1.5-0.9-1.199-3.3,0.399-4.2c1.2-0.7,1-1.3-0.8-3.5l-2.2-2.8l-5.2,4.8c-4.699,4.4-5.199,5.1-4.6,8c0.4,1.7,1.3,3.7,2.2,4.4
	c1.3,1.1,1.398,1,0.398-0.8c-0.6-1.2-0.8-2.4-0.5-2.8c0.4-0.4,0.7-1.8,0.802-3.3c0-3.2,2.898-5.3,4.698-3.5c1.102,1.1,1,1.6-0.5,2.6
	c-4,3,2,7,7,4.7c1.802-0.8,2.9-0.9,3.602-0.2c1.398,1.4-0.7,3.7-5.2,6.1c-3.2,1.7-3.3,1.9-1.3,2
	C916.1,164,918.8,163.2,920.698,162.3z M904.698,140.2c1.5-0.5,3.602-1.3,4.7-1.6c1.8-0.6,1.8-0.7,0.102-2.6
	c-1.4-1.5-2.2-1.7-3.7-0.9c-1.102,0.6-3.102,0.9-4.602,0.8s-3.5,0.1-4.398,0.5c-1,0.5-2.7,0.1-4.3-1c-1.4-0.9-2.9-1.3-3.302-0.9
	c-0.398,0.4,0,1,0.802,1.3c0.8,0.3,3.3,2.4,5.5,4.6c3.5,3.6,4.1,3.9,5.198,2.5C901.4,142,903.198,140.8,904.698,140.2z M919,135.3
	c0-1.6,0.6-4,1.398-5.5c0.9-1.8,1-2.5,0.3-2.2c-1.898,0.8-5.6,9.3-4.3,9.8C918.6,138.3,919,138,919,135.3z M887.1,133.7
	c-0.8-1-0.6-2.3,0.9-5.2c2.398-4.6,2.3-4.5,0.8-4.5c-1.102,0-2.9,3.1-5.602,9.1c-0.198,0.4,0.5,0.9,1.5,1.2
	C887.9,135.1,888.3,135,887.1,133.7z M915,129.8c0-0.5-0.4-0.8-1-0.8c-0.5,0-1,1-1,2.3c0,1.8,0.198,1.9,1,0.7
	C914.5,131.2,915,130.2,915,129.8z M908,130c0-1.6-0.7-2-3-2c-3.9,0-4.102,2.7-0.2,3.3c1.5,0.2,2.8,0.5,3,0.6
	C907.9,131.9,908,131.1,908,130z M883,123.8c0-0.5-1.5-0.8-3.4-0.8h-3.4l1.602,4.1l1.6,4.1l1.7-3.4C882.1,126,882.9,124.2,883,123.8
	z M898,128.5c0-0.8-0.4-1.7-1-2c-0.602-0.4-1,0.5-1,2s0.398,2.4,1,2C897.6,130.2,898,129.3,898,128.5z M920.6,104.6V86.2l-9.7-0.1
	l-9.6-0.1l-0.602,7.3c-0.198,3.9-0.3,7.5-0.1,7.9c0.2,0.3,3.5,0.9,7.2,1.3c9.199,0.9,9.8,1.1,8.1,3.1c-1.1,1.4-2.6,1.5-8.8,1
	l-7.4-0.6l0.602,7.7c0.3,4.6,1.1,7.9,1.898,8.4c0.7,0.5,5.102,0.9,9.802,0.9h8.5L920.6,104.6z M895.8,105.5
	c-0.2-0.1-4.7-0.5-10.102-0.9l-9.8-0.6l0.2,7l0.2,7h4.6c2.5,0,6.9,0.6,9.602,1.3l5,1.3l0.3-7.4C896,109.1,896,105.6,895.8,105.5z
	 M870.6,103.2c-0.3-0.3-1.5,0.3-2.6,1.3c-1.9,1.7-2,1.7-2.9-0.6c-0.8-2-1-2.1-1-0.4c-0.1,1,1.4,3.4,3.2,5.3l3.2,3.3l0.3-4.1
	C871,105.7,870.9,103.5,870.6,103.2z M896.1,97.3c0.1-2.1,0.2-5.7,0.3-8c0-2.2-0.3-3.9-0.7-3.6c-0.5,0.3-4,0.5-7.8,0.5
	c-8.6-0.1-10.899,1.5-11.6,8l-0.5,4.6l5.3,0.6c3,0.3,6.8,0.8,8.4,0.9C896.198,101.1,896,101.2,896.1,97.3z M872.3,91
	c0.6-5.1,0.5-6.6-0.8-7.9c-1.302-1.4-1.5-1.1-1.602,2.9c-0.1,2.5-0.3,6.2-0.398,8.3C869.1,100.6,871.4,97.9,872.3,91z M888.198,79.6
	c0.4-0.6,0.602-1.1,0.5-1.2c-0.1-0.1-3.698-0.5-8-0.9c-6.898-0.6-7.6-0.5-7.1,1c0.399,0.9,1.6,2.1,2.8,2.5
	C879,82.1,887.198,81.1,888.198,79.6z M873.5,70.9c-5.102-0.8-6.102-0.7-5.2,0.8c0.3,0.5,2.7,0.6,5.398,0.4l4.802-0.5L873.5,70.9z
	 M904.698,63.3l5.802-4.6l-4,0.7c-3.802,0.7-9.5,5.2-9.5,7.6C897,68.9,899.1,67.9,904.698,63.3z M891,65.9c0-1.9-6.7-7.9-8.9-7.9
	c-1.6,0-2.1,0.6-2.1,2.6c0,4.5,1.5,6,6.398,6.3C889.3,67,891,66.7,891,65.9z"/>
<path d="M871.5,162.5c-2.302-2.9-2.602-4.1-2.2-8.6c0.6-6,1.898-7.8,4.2-5.9c2,1.7,1.898,2.9-0.4,3.8c-1.8,0.7-1.7,0.9,0.6,4.5
	c3.2,5,4.9,5.5,9.602,2.8c2.8-1.6,4.199-2,5-1.2c2.3,2.3-5.7,8.1-11.2,8.1C874.9,166,873.4,165.1,871.5,162.5z"/>
<path d="M877.5,151c-0.4-0.6-0.102-1.7,0.5-2.6c1-1.1,1.6-1.2,2.6-0.3c1.1,0.9,1.1,1.5,0.3,2.5C879.5,152.3,878.4,152.4,877.5,151z"
	/>
<path d="M910.3,188c-8.9-6.8-9.7-9.8-4.102-14.5c3.302-2.8,7.5-3.2,10.4-1c1,0.8,3.899,1.5,6.5,1.5c8.899,0,9.2,4.1,0.7,12.1
	c-3.5,3.2-6.7,5.8-7.301,5.8C916,191.9,913.198,190.1,910.3,188z M921.1,183.3c4.2-3,4.5-4.6,1-5.1c-1.3-0.2-2.9,0.5-4,1.9
	c-2,2.5-4.5,1.8-3.6-1.2c0.5-1.4,0-2-2-2.5c-1.602-0.4-3.102-0.2-3.802,0.5c-0.898,0.9-0.198,2.1,3,5.2c2.302,2.1,4.5,3.9,4.9,3.9
	C916.9,186,918.9,184.8,921.1,183.3z"/>
<path d="M596.698,184.4C596.3,184,596,178.7,596,172.6c0-6-0.5-16-1.102-22c-1.2-11.3-0.398-21.7,1.602-21.6
	c0.6,0,1.1,4.4,1.198,10.7c0.102,6,0.602,14.2,1.2,18.3c0.5,4.1,0.8,11.5,0.602,16.4C599.198,182.7,598.3,185.9,596.698,184.4z"/>
<path d="M722.198,179.2c-2.698-2.5-4.198-4.8-4.198-6.3c0-1.3-0.7-3.7-1.5-5.3c-1.5-2.8-1.4-3,2.198-6.7c4.102-4.2,8.4-6.4,10.7-5.6
	c1.4,0.6,2.602-3,2.602-7.9c0-1.8-0.602-2.3-3.2-2.6c-1.8-0.2-5.3,0-7.8,0.3c-2.5,0.4-4.9,0.5-5.302,0.2c-0.5-0.3-0.6-4.6-0.198-9.5
	l0.698-8.9L704,127.1c-7.7,0.1-12.602-0.3-13.302-1c-0.8-0.8-0.698-3.8,0.102-11.3c1.2-9.8,1.1-10.2-0.9-12.4
	c-1.1-1.2-2.3-4-2.6-6.1c-0.4-3.2-0.102-4.5,2-6.8l2.5-2.9l3,3.2c1.6,1.7,3.5,3.2,4.1,3.2c0.601,0,2.2-1.8,3.601-4.1
	c1.5-2.2,3.101-3.9,3.801-3.6c1.898,0.6,3.3,15.2,1.699,17.2c-0.699,0.9-1.899,1.4-2.699,1.1c-1-0.4-1.301,0.9-1.301,5.4v6h3.801
	c4.1,0,5.199-0.6,6.8-3.4c0.899-1.7,2.2-1.9,10-2c5-0.1,9.1,0.3,9.399,0.9c0.699,1.6-4.601,3.6-9.801,3.8l-4.8,0.2l0.101,12.7V140
	l13.5,0.2c7.399,0,18,0.2,23.5,0.2c9.301,0.1,10,0.3,10,2.1c0,1.5-1,2.2-4.199,2.9c-3.9,0.9-4.301,1.3-4.301,4
	c0,1.7-0.301,4.2-0.601,5.6c-0.6,2.1-0.399,2.3,0.7,1.3c2.4-2.3,7.8-1.5,12.5,1.8c3.1,2.1,4.2,3.4,3.6,4.2
	c-0.898,1.1-2.398,6.6-2.6,9.2c-0.1,0.6-1.7,2.7-3.7,4.8c-4.5,4.8-8,4.9-12.1,0.5c-3.9-4.1-7.2-5.8-11.7-5.8c-3.2,0-3.9,0.5-5.6,3.6
	c-2.4,4.5-7,8.4-9.9,8.4C727.3,183,724.5,181.3,722.198,179.2z M735.4,170.9c-0.7-1.2-4.5-1.8-3.7-0.6c1.7,3.2,2.602,3.8,3.4,2.5
	C735.5,172.2,735.698,171.3,735.4,170.9z M761.4,173.1c0.3-0.5-0.1-1.1-0.898-1.5c-0.9-0.3-1.5,0-1.5,0.9
	C759,174.1,760.6,174.5,761.4,173.1z M729.3,167.5c-0.5-1.3-2.3-2.2-2.3-1.1c0,1.5,1.398,3.5,2.1,3.1
	C729.5,169.2,729.698,168.3,729.3,167.5z M769,165c0-2-3.7-6.6-4.602-5.7c-0.8,0.8,2.4,7.7,3.5,7.7C768.5,167,769,166.1,769,165z
	 M739.6,164.3c-0.3-1-0.6-5.7-0.8-10.5c-0.2-6.2-0.7-8.8-1.5-8.8c-0.9,0-1.4,1.9-1.5,5.8c-0.4,10.3-0.102,13.4,1.3,14.3
	C739.3,166.5,740.198,166.2,739.6,164.3z M746.198,156.1c-0.3-7.9-0.6-10.1-1.898-10.5c-1.4-0.6-1.5,0.4-0.9,9
	c0.4,5.3,0.9,10.1,1.2,10.5C746.1,167.5,746.5,165.1,746.198,156.1z M753.198,151.8c0.4-5.1,0.2-5.8-1.398-5.8
	c-2,0-2.3,2.5-1.102,12c0.602,5,0.7,5.2,1.4,2.5C752.5,158.9,753,154.9,753.198,151.8z M715,119.9c0-1.7-0.302-1.9-1.4-1
	c-0.9,0.7-3.8,1.1-7.3,0.9l-5.8-0.3l-0.9-4.2c-0.5-2.4-0.5-6.6,0-10c0.7-4.6,1.3-5.8,2.7-5.7c1.2,0.1,1.7-0.6,1.7-2.4
	c0-2.4-0.102-2.4-1.802-0.9c-1,1-2.5,1.7-3.398,1.7c-1.102,0-1.3,0.8-1,3c0.2,1.7-0.102,3.7-0.8,4.4c-0.602,0.8-1.4,4.9-1.7,9
	l-0.602,7.6h10.2C714.5,122,715,121.9,715,119.9z M695.8,97.6c-0.2-0.1-1.3-1-2.602-2L691,93.7l1.1,3.2c0.9,2.6,1.4,2.9,2.5,2
	C695.4,98.2,695.9,97.7,695.8,97.6z"/>
<path d="M952.4,163.3c-6-6.5-6.398-9.6-3-29.3c0.9-5.2,1.602-11.6,1.602-14.1c0-5.1,0.698-6.4,2.698-4.8
	c1.802,1.6,1.7,13.6-0.198,23.6c-2.302,11.9-2,16.1,1.398,21.5c2.8,4.3,3,5.8,0.9,5.8C955.3,166,953.8,164.8,952.4,163.3z"/>
<path d="M801.698,155.8c-4.8-7.2-9.698-9.1-9.698-3.9c0,1.6-0.602,3.4-1.4,4c-1.2,1-1.8,0.8-3-1.1c-2.1-3.2-3.1-8.5-1.9-10
	c0.602-0.7,1.301-4.4,1.602-8.3c0.3-3.8,0.8-7.7,1.199-8.6c0.5-1.3-0.399-1.7-4.801-2.2c-2.898-0.4-6.8-1-8.5-1.3L772,123.7l0.6,9.2
	c0.6,9.8-0.4,13.3-3.2,11c-1.6-1.3-1.899-22.2-0.5-29.5l0.8-4.2l-3.6-0.6c-5.4-0.9-12.6-0.7-13.6,0.3c-0.602,0.5-3.7,1.6-7,2.5
	l-6,1.5l-2.802-3.1c-2.3-2.4-2.698-3.6-2.198-5.7c0.3-1.4,0.698-5.6,0.8-9.3c0.2-6.6,0.1-6.8-2.3-6.8c-1.4,0-4.7-0.6-7.5-1.3l-5-1.3
	V78v-8.4l-4.5-2.3c-2.4-1.2-4.5-2.1-4.602-2c-0.1,0.1-0.5,1.4-0.898,3c-0.602,2.4-0.4,2.7,1.8,2.7c3.3,0,4.398,1.7,2.398,3.7
	c-1.8,1.8-5.698,2.3-7.398,1c-1.7-1.3-1.602-5.5,0.2-10.7c2.5-7.1,3.1-7.4,8.1-3.9l4.4,3v-5.2c0-3.7-0.5-5.5-1.7-6.4
	c-0.9-0.7-1.4-1.9-1-2.8c0.5-1.4,3.6-1.6,23.5-1.7c24.7-0.1,29,0.6,27.2,3.9c-1.5,2.9-1.302,9.4,0.3,8.8c4.7-1.7,5.7-1.8,6.3-0.2
	c0.4,0.9,0.2,2.1-0.5,2.8c-0.6,0.6-1.1,3.4-1.1,6.3c0,5.7-1.602,8-5,7.1c-2.302-0.6-2.4,0-0.9,6.2c1.3,5.8-0.2,7.5-7,7.5h-5v7.3v7.3
	h4.3c8.5,0,13.8,1.2,14.4,3.2c0.3,1.2,0.8,1.5,1.6,1c0.601-0.5,4.601-0.6,9-0.1c4.4,0.4,8.9,0.4,10.2-0.1c1.5-0.6,2.6-0.5,3,0.1
	c0.7,1.2,0.6,20.2-0.2,22.3c-0.3,0.8-0.1,1.7,0.5,2.1c0.601,0.3,1.101,1.7,1.101,3c0,1.6,0.699,2.5,2.5,2.9c4,1,5.801,4.8,5.199,11
	C806,158.4,804.5,159.9,801.698,155.8z M802.698,145.5c-0.398-0.8-1.6-1.5-2.8-1.5c-2.1,0-2.1,0,0.2,1.9
	C802.698,148,803.6,147.9,802.698,145.5z M794.1,140.3c-0.9-5.5-3.1-5.5-2.9,0c0.2,3.5,0.5,4.3,1.801,4
	C794.3,143.9,794.5,143.1,794.1,140.3z M794,119.1v-4.9l-8.7-0.7c-4.9-0.4-9.5-0.9-10.4-1.1c-1.3-0.4-1.8,0.4-2.1,3l-0.4,3.5
	l7.601,1.6c6.101,1.4,12.199,2.9,13.801,3.4C793.9,124,794,121.8,794,119.1z M747.1,106.8c3.5-1,3.9-1.4,3.9-4.5
	c0-3.1-0.2-3.3-2.7-2.7c-5.9,1.4-9.3,3.3-9.3,5.2C739,108.3,740.8,108.8,747.1,106.8z M746.8,95c2.6-0.6,4.2-1.7,4.5-3
	c0.5-1.8,0-2-5.3-2c-3.302,0-6.2,0.5-6.5,1.1c-1.102,1.8,0.398,6.1,2,5.5C742.198,96.4,744.698,95.6,746.8,95z M762.5,78.3
	c-0.102-4.3,0.1-11.7,0.398-16.6L763.5,53h-5l-5,0.1l3.3,1.4c4.1,1.8,4.898,3.8,3.2,8.4c-0.7,2-1.5,4.7-1.7,6.1s-0.602,4.5-0.9,7
	c-1,7.2-1.3,7.4-13.899,6.6c-6-0.4-12.301-0.8-14-0.9c-2.899-0.2-3-0.3-3.101-5.7c0-3,0.3-6,0.7-6.5c0.5-0.6-0.1-1.6-1.2-2.3
	c-1.899-1.2-2-1-1.7,7l0.301,8.2l3.5,0.8c2.801,0.6,17.199,1.8,32.101,2.7C762.698,86,762.698,86,762.5,78.3z M769,68.9
	c0-3.1-1.4-3.9-2.4-1.3c-1.1,3-0.7,5.4,0.9,4.8C768.4,72,769,70.5,769,68.9z M744,67.5c-0.802-1-0.9-1.9-0.302-2.7
	c0.602-0.7,1.4-3.1,1.802-5.3c0.398-2.2,1.198-4.6,1.8-5.3c0.8-1.1,0.3-1.3-2.8-1l-3.9,0.3l0.3,6.3c0.101,3.8-0.2,6.9-0.899,7.8
	c-1,1.2-0.699,1.4,2,1.4C744.8,69,745.1,68.8,744,67.5z M756.198,62.5c1.4-3,1-3.4-3.6-4.2c-3-0.5-3.601-0.3-3.601,1.2
	c0,1.4,0.301,1.5,1.399,0.6c1.7-1.4,4.101,1.1,3.2,3.4C752.698,66.1,755,65.2,756.198,62.5z M727.5,55c1.8-1.9,1.698-2-0.802-1.8
	c-2.6,0.2-2.698,0.5-2.6,5.3c0.1,4.6,0.2,4.7,0.899,1.7C725.4,58.4,726.6,56,727.5,55z M737,59.3c0-0.8-1.5-1.3-4-1.3
	c-3.602,0-4.9,0.8-3.5,2.2C730.6,61.2,737,60.5,737,59.3z"/>
<path d="M150.5,152c-1.3-1.4-3.102-2-6.102-2c-5.5,0-7.5-2.7-4.898-6.6c0.898-1.4,2.3-2.8,3.1-3.1c2.4-0.9,1.602-2.1-1.8-2.8
	c-5.9-1.3-9.8-6.7-7.7-10.7c1.4-2.6,6.8-4.8,12.102-4.8l4.3-0.1l-5.4-5c-5.8-5.4-5.8-5.5-4.8-16.4c0.4-4.7,0.9-6.1,2.4-6.4
	c1-0.2,2.898-1.1,4.3-2.1c2.7-1.9,12-6.3,15.7-7.4c1.198-0.4,6.698-0.7,12.198-0.8C180.2,83.8,184,83.4,184,82.7
	c0-0.6-2.102-0.8-6-0.4c-4.9,0.6-6.7,0.3-9.9-1.3c-2.1-1.2-7.398-2.5-11.898-3c-4.4-0.5-9.5-1.5-11.4-2.3c-3.7-1.5-8.8-7-8.8-9.3
	c0-0.8-1-1.4-2.3-1.4c-3.602,0-12-3-14.2-5.1c-3.4-3.3-0.602-4.1,6.5-1.9c3.6,1.1,7.7,2,9.1,2c3.102,0,4.602,1.5,5.102,5
	c0.3,2.1,7.1,8.1,8.8,7.7c2.398-0.4,16.398,1.9,20,3.4c5.5,2.2,7,2.4,9.398,1.4c1.102-0.5,4.4-0.3,7.7,0.4
	c8.4,1.7,16.3-0.8,20.602-6.6c1.398-2,3.898-3.5,7.6-4.7c7.5-2.3,12.3-7.9,14.1-16.2C229.2,46.9,231,45,235.5,42.9
	c5.8-2.7,9.7-15.8,6.5-21.9c-1.4-2.5-8-5.7-13.602-6.5c-8.1-1.2-14.1-2.9-19.5-5.6c-3-1.5-8.198-3.5-11.5-4.4
	c-3.198-0.9-6.698-2-7.6-2.5c-2.2-1.2-12.2-1.3-14.6-0.1C169,5,147.6,7.5,139.5,6c-3.3-0.6-6.8-1.1-7.8-1.3
	c-0.9-0.1-1.7-0.6-1.7-1.2c0-1,4.2-1.2,50.3-3c18.2-0.8,22.1-0.2,31,4.2C214,6,221,8.2,227.1,9.5c12.2,2.7,13.4,3.2,16.8,6.9
	c1.9,2,2.602,4,2.9,8.6c0.7,9.6-3.8,18.9-10.9,22.6c-1.698,0.8-3.1,2.6-3.5,4.2c-1.198,4.8-4.1,9.7-8.398,13.9l-4.102,4.2l3,1.5
	c3.802,2,4.802,5.1,2.5,7.7c-2.1,2.4-6.5,2.5-9.3,0.2c-1.8-1.6-2-2.3-1.2-5.1c0.9-2.9,0.802-3.3-0.5-2.8c-0.898,0.3-2,0.6-2.398,0.6
	c-0.5,0-2.602,1.8-4.7,4.1c-4.8,5.1-9.2,7-16.6,7.1l-5.9,0.1l7.1,3.6c5.602,2.8,8,4.9,11.602,9.5c5,6.6,5.7,10.6,3,18.1
	c-0.8,2.2-1.5,4.1-1.5,4.2c0,0.1,1.3-0.4,2.898-1c4.102-1.5,15.2,1.6,19.7,5.6c4,3.5,4.4,6.8,1.4,12.8c-2.8,5.5-8.602,9.3-17.7,11.8
	c-6.9,1.8-10.2,2-28.3,1.8c-11.3-0.2-21.4-0.7-22.4-1.2c-1.6-0.7-1.8-0.5-1.3,0.7c0.7,2-2.2,4.8-5,4.8
	C153.2,154,151.5,153.1,150.5,152z M152.7,145c1.398,0,2.1-0.4,1.8-1c-0.8-1.2-4.8-1.3-6-0.1c-0.602,0.5-1.7,1.1-2.5,1.4
	c-0.8,0.2-0.2,0.3,1.398,0.1C149,145.2,151.3,145,152.7,145z M178.1,144.6c-1.7-2,0.102-2.8,3.602-1.6
	c3.898,1.4,20.3,2.8,20.898,1.8c0.3-0.4,1.3-0.8,2.4-0.8c1,0,4.898-0.9,8.6-2.1c8.2-2.5,13.4-7.1,13.4-11.7
	c0-2.6-0.602-3.3-4.602-5.2c-2.5-1.3-6.5-2.5-8.898-2.8c-4.102-0.4-4.3-0.3-3.8,1.7c0.6,2.5-1.102,4.9-4.4,6.2
	c-1.3,0.5-11,2.2-21.6,3.9c-10.5,1.7-19.602,3.5-20.102,4c-0.6,0.6-2,1-3.2,1c-1.3,0-2.5,0.4-2.8,0.8c-1.7,2.8,6.2,5.8,15.8,6.1
	C178.4,146,179.1,145.9,178.1,144.6z M158.5,134c2.2-1.1,5.3-2,7-2.1c1.6,0,3.898-0.4,5-0.8c1.6-0.7,1.398-0.9-1.5-1.5
	c-7.4-1.7-25.7-2.4-30.5-1.2c-2.4,0.6-2.602,0.9-1.4,2c1.5,1.4,8.8,3.7,16.9,5.5C154.3,135.9,156.3,135.1,158.5,134z M194.5,124.5
	c2.898-1.5,4.6-3.3,6.398-6.8c3.5-7,3.802-12.5,1.102-16c-1.2-1.5-2.4-2.6-2.7-2.4c-0.4,0.5-4.9-0.4-8.9-1.7
	c-1.8-0.6-2.1-0.3-1.698,1.7c0.3,1.4-0.2,2.9-1.2,3.7c-1.4,1.1-1.9,1.1-3.3-0.4c-1.602-1.6-1.602-1.8,0.698-3.7
	c1.602-1.3,1.9-2,1-2.3c-0.8-0.3-4.198-1.5-7.698-2.7c-5.602-2-6.4-2-8-0.7c-0.9,0.9-5.302,2.8-9.7,4.4
	c-10.2,3.5-16.9,7.4-17.3,10.1c-0.2,1.3,1.5,3.7,5.3,7.4c4.5,4.3,7.3,6,14.3,8.7c7.9,2.9,9.5,3.2,18.2,2.9
	C188,126.5,191.6,125.9,194.5,124.5z M205.5,125c2,0,2.5-2.5,0.6-3.7c-1.398-0.9-2-0.5-3.398,1.9c-1.5,2.7-1.602,3-0.102,2.4
	C203.4,125.3,204.8,125,205.5,125z"/>
<path d="M174.5,120.4c-4.7-1.7-8.9-5.4-7.602-6.7c0.5-0.5,1.602-0.5,2.7,0.1c1.102,0.5,4.8,1.5,8.3,2.1c6,1.2,6.4,1.1,8.602-0.9
	c1.3-1.2,2.8-1.9,3.398-1.5c1.802,1.1,1.2,4-1.198,6.3C186,122.4,180.6,122.6,174.5,120.4z"/>
<path d="M170.4,103.5c-0.698-1.7,0.2-4.5,1.4-4.5c0.4,0,1.7,0.7,2.8,1.5c1.9,1.5,1.9,1.5,0,3c-1.1,0.8-2.398,1.5-2.8,1.5
	C171.3,105,170.7,104.3,170.4,103.5z"/>
<path d="M295.5,152.1c-0.9-1.6-1.9-22.6-1.102-24.7c0.5-1.4,0.9-1.5,1.9-0.5c1.5,1.5,2.398,23.8,0.899,25.3
	C296.6,152.8,296,152.8,295.5,152.1z"/>
<path d="M596.5,119.7c-0.9-2.2-0.2-6.2,1-6c0.6,0.1,1.1,1.4,1.3,2.9C599.198,119.8,597.4,122.2,596.5,119.7z"/>
<path d="M580,106.5c-1.302-1.4-2.2-2.5-1.9-2.6c1.9-0.5,12.1-0.4,12.4,0.1c0.198,0.4-0.302,1.6-1.102,2.8
	C587.3,109.8,583,109.7,580,106.5z"/>
<path d="M538.4,107c-2.6-0.8-6.6-3.9-5.3-4c6.3-0.6,28-0.6,28.4,0c0.3,0.4-0.7,1.6-2.2,2.6C556.1,107.7,543.3,108.5,538.4,107z"/>
<path d="M482.3,102.7c-6.3-2.3-4.102-3.2,8.898-3.4c7-0.1,13,0.2,13.301,0.7C506.5,103.2,489.1,105.3,482.3,102.7z"/>
<path d="M425.4,101.6c-6.2-2.2-3.5-3.1,9.602-3.2c7.198-0.1,13.3,0.2,13.5,0.7C450.3,101.9,431.698,103.9,425.4,101.6z"/>
<path d="M217.7,99.2c-2.2-2.5-2.102-3.4,0.6-6c3.9-3.7,8.7-2.4,8.7,2.3S220.8,102.6,217.7,99.2z"/>
<path d="M840.198,100.2c-2.5-0.4-4.8-3.7-3.198-4.7c0.6-0.3,1.898-0.3,3,0c2.8,0.9,2.5-0.4-1.102-4.8c-2.6-3.1-2.898-4-1.8-5.3
	c1.1-1.3,1.6-1.1,4.1,1.3c4.2,4,6.102,7.9,4.9,10.1C844.6,99.6,842.8,100.6,840.198,100.2z"/>
<path d="M361.5,98.8c-1.602-0.6-3.602-1.2-4.302-1.4c-0.698-0.2-1.1-0.8-0.698-1.3c0.5-0.9,27.398-0.5,30.398,0.5
	c1,0.3,1.102,0.8,0.4,1.5C385.8,99.6,365.1,100.2,361.5,98.8z"/>
<path d="M318.3,98.1c-3.4-0.3-6.7-1.1-7.4-1.8c-1.2-1.2-0.3-3.7,1.102-2.8c0.5,0.3,9.3,0.7,19.6,1c16.8,0.5,23.6,1.5,19.3,2.9
	C348.3,98.2,324.6,98.8,318.3,98.1z"/>
<path d="M939.9,95.5c-3.898-2.6-4.6-4.3-7.898-20c-4.4-20.4-11.5-36.9-18.4-42.8c-3.7-3.1-9.4-5.7-12.6-5.7
	c-4.4,0-9.802,3.1-14.802,8.4c-2.3,2.5-4.898,4.6-5.6,4.6c-2.5,0-14.1-3.2-15.3-4.2c-3.4-2.7,2.3-3.1,11.3-0.8
	c2.9,0.7,3.6,0.4,7.5-3.7c8-8.2,16-10.7,23.4-7.4c13.6,6,23.198,23.6,30.5,56.3c1.6,7,2.898,10.3,4.6,11.9
	C947.198,96.5,945.1,99.1,939.9,95.5z"/>
<path d="M225,88.5l-2.4-2.6l3.2-3.2l3.2-3.2l2.7,2.8c2.698,2.6,2.698,2.9,1.3,5.5C230.9,91.4,228,91.7,225,88.5z"/>
<path d="M243.5,86c-0.4-0.6-0.3-1.6,0.3-2.2c0.6-0.6,1.2-0.6,1.7,0.2c0.398,0.6,0.3,1.6-0.3,2.2C244.6,86.8,244,86.8,243.5,86z"/>
<path d="M427.9,81.5c-1.398-2.4-2.5-3.3-3.3-2.7c-0.6,0.5-2.3,1.2-3.8,1.6c-2.4,0.5-3.102,0.1-5.9-4.1c-2.898-4.1-3.1-4.9-2.1-7.6
	c1-2.6,0.8-3.2-1-4.6c-2.5-2.1-2-4.1,2.1-9.1c2.2-2.6,3.2-3.2,4.2-2.4c0.8,0.6,2.3,1.4,3.3,1.8c1.7,0.6,1.8,0.2,1.3-4.3
	c-0.8-6.5,0.2-7.2,8.9-6.4c6.8,0.6,9.9,1.7,8.9,3.4c-0.302,0.4-0.302,1.9,0.1,3.3c0.4,1.9,1.4,2.6,4.4,3.1
	c2.198,0.4,4.3,1.2,4.8,1.8c0.6,0.7,1.3,4.2,1.7,7.9c0.698,6.5,0.6,6.8-1.602,7.8c-7.2,3.3-7.898,4-7.898,8c0,4.6-1.802,6-8,6
	C430.4,85,429.698,84.6,427.9,81.5z M438.198,75.8c0.302-4,0.602-4.4,5.102-6.6c4.8-2.3,4.898-2.4,4.2-6c-0.9-5-1.102-5.2-5-5.2
	c-3.7,0-5.5-2-5.5-6.2v-2.3l-1.9,2.4c-1.9,2.5-3.6,1.6-2.5-1.3c0.5-1.3-0.1-1.6-2.5-1.6c-3.2,0-3.7,1-3.3,6.2c0.1,1-0.9,2.5-2.3,3.4
	c-2.302,1.5-2.7,1.5-5,0c-2.2-1.5-2.5-1.5-3.302,0.1c-0.698,1.2-0.398,2.1,1.102,3.3c2,1.6,2,1.9,0.5,5c-1.5,3-1.5,3.6-0.102,5.7
	c1.7,2.5,4.2,3,6,1.2c1.5-1.5,5.9,1.1,6.802,4.1c0.5,1.5,1.5,2,4,2C437.8,80,437.9,79.8,438.198,75.8z"/>
<path d="M427.198,70.4c-3.3-2.3-2.898-6.6,0.9-9.8c3.6-3.1,6-3.3,8.2-0.8c2.398,2.6,2.1,5.6-0.9,9.1
	C432.5,72.4,430.5,72.7,427.198,70.4z M433.5,65.1c0.3-0.5,0.1-1.2-0.4-1.5c-1.2-0.8-4.1,0.3-4.1,1.5
	C429,66.3,432.698,66.3,433.5,65.1z"/>
<path d="M5.7,78.3c-0.4-0.6,0-1.8,0.698-2.8C7.2,74.4,8,74.1,8.3,74.7c0.4,0.6,0,1.8-0.7,2.8C6.8,78.6,6,78.9,5.7,78.3z"/>
<path d="M9.5,74c-0.602-1,3.8-4.7,6.7-5.6c1.198-0.3,4.3-1.9,6.898-3.5c4.8-2.8,7.4-2.6,4.102,0.4C24.4,67.8,10,74.8,9.5,74z"/>
<path d="M172.7,73c-2.302-1.8-3.802-5.5-4.302-10c-0.3-3.5-1.8-5.7-5.5-8.3C157.6,51,155,46.5,155,40.9c0-7.2,1.7-10.6,6.398-13.4
	c7.802-4.5,21.302-2.3,26.4,4.2c2.3,3.2,2.7,4.6,2.7,10.4c0,6.3-0.2,7-3.3,10.2c-2.5,2.6-3.5,4.6-3.802,7.7
	c-0.198,2.4-0.8,4.8-1.198,5.4c-0.4,0.6-0.7,2.2-0.602,3.6c0.2,2.9-2.2,6-4.6,6C176,75,174.1,74.1,172.7,73z M178.5,63
	c0.3-0.5,0.8-2.5,1-4.5c0.3-1.9,2.1-5.5,4-8.1c4.3-5.6,4.8-9,1.898-14.5c-1.6-3.3-8.6-5.9-15.5-5.9c-5.6,0-9.398,2.7-10.8,7.6
	c-1,3.6,0.9,10.3,3.5,11.7c4.4,2.5,7.7,6.4,7.8,9.5c0.102,2.7,0.602,3.4,3.102,4.1C177.6,64.1,177.8,64.1,178.5,63z"/>
<path d="M173.6,59.5c-1.398-1.3-2.6-3.2-2.6-4.3c0-1-0.4-2.2-0.9-2.7c-0.5-0.6-1.398-2.7-2.1-4.8c-1.5-4.7-0.102-7,2.3-3.7
	c1.2,1.8,1.9,2,3.5,1.1c3-1.6,7.7-1.3,9.2,0.4c1.1,1.3,0.898,2-1.4,4.4c-1.7,1.8-3,4.4-3.3,7c-0.3,2.3-0.9,4.4-1.3,4.6
	C176.6,61.8,175.1,60.9,173.6,59.5z M176.2,50.3c0.8-0.9,0.6-1.3-0.5-1.3c-2.2,0-2.7,1.2-1.9,4.1c0.6,2.2,0.7,2.2,1,0.4
	C175,52.4,175.7,50.9,176.2,50.3z"/>
<path d="M457.4,62.9c-0.398-0.7,0.102-1.9,1.5-3L461,58.2l-2.7-2c-1.602-1-3.602-2.2-4.602-2.5c-0.898-0.4-2.199-1.8-2.898-3.1
	c-2.2-5,4.6-11.1,9.8-8.7c3.899,1.7,2.8,4.5-1.9,4.9c-6.3,0.5-3.898,2.7,2.9,2.7c4.5,0,5.899,0.3,5.899,1.5c0,0.8-1,1.9-2.199,2.6
	c-2,0.9-2.102,1.3-0.9,2.9c1.2,1.7,1.7,1.8,4,0.7c2.2-1,2.8-0.9,3.3,0.4c0.9,2.5-2.8,5.2-8.3,5.9C459.698,64,458,63.8,457.4,62.9z"
	/>
<path d="M28.6,61.3c-0.3-0.3-0.6-1.7-0.6-3c0-1.3-1.4-5.1-3.102-8.4c-5.1-10.2-3.8-17.5,3.9-20.6c4.8-2,4.9,0.2,0.1,3.3
	c-4,2.5-4.1,2.7-3.6,6.8c0.3,2.3,1.7,6.7,3.1,9.7C29.8,52,31,55.9,31,57.7C31,60.8,29.9,62.6,28.6,61.3z"/>
<path d="M836.198,59.7c-3.5-4.1,3.302-16.5,11.5-20.9c6.302-3.5,7.7-2.2,2.302,2.1c-5.4,4.3-7.2,7.3-8.5,14
	C840.3,60.6,838.4,62.4,836.198,59.7z"/>
<path d="M109.3,51.5c-6.4-7.7-9.3-14-9.3-20.4c0-7.6,1.5-12.5,5.2-16.7C109.6,9.4,123.9,3.3,125.4,5.8c0.802,1.3-1.1,2.7-5.898,4.2
	c-6.5,2.1-11.9,5.6-13.4,8.6c-0.8,1.5-1.6,5.8-1.898,9.4c-0.5,7.5,1,11.5,8,20.8c3.5,4.8,4.198,7.2,1.8,7.2
	C113.5,56,111.4,54,109.3,51.5z"/>
<path d="M397,49.3c-2.602-3.3-2.102-7.5,1.198-11c2-2.1,2.4-2.2,3.7-0.8c1.3,1.3,1.3,1.7-0.7,3.5c-2.898,2.7-2.8,4.8,0.302,6
	c2.8,1.1,6.398,0.1,8.398-2.4c0.7-0.9,1.8-1.3,2.3-1c0.5,0.4,0.2-0.8-0.699-2.6c-2.101-4.1-1.601-6.8,1.699-9.3
	c2.301-1.7,3.102-1.9,5.301-0.9c2.899,1.3,3.199,2.8,0.899,5.3c-1.5,1.7-1.399,1.9,2.101,3.3c3.301,1.4,3.601,1.8,2.399,3.2
	c-0.8,1-2.2,1.4-4,1c-1.7-0.3-3.2,0-3.899,0.9c-0.699,0.8-1.601,1.2-2.101,1c-0.399-0.3-1.5,0.7-2.3,2.3c-1.8,3.4-3.3,4.2-8.601,4.2
	C400,52,398.698,51.4,397,49.3z"/>
<path d="M143,49c-3-3-1.4-4.1,4-3.2c3.6,0.6,4.5,1.2,4.5,2.7C151.5,51.5,145.8,51.8,143,49z"/>
<path d="M194,49.5c-1.602-1.9-0.602-3.2,3.8-4.4c3.8-1.1,5.9,0.6,3.9,3.2C199.8,50.7,195.6,51.4,194,49.5z"/>
<path d="M445.4,43.5c-0.398-0.8-1-1.3-1.398-1c-1.9,1.2-1.9-1.6,0.1-4.9c2.2-3.8,4.2-4.6,5.6-2.2c0.4,0.7,1.9,1.3,3.302,1.2
	c3.6-0.2,3.1,1.8-1.4,5.3C447.198,45.4,446.198,45.7,445.4,43.5z"/>
<path d="M430.698,41.3c-1.3-1.2-0.698-7,0.802-8.3c1.898-1.6,3.398-0.5,2.8,2c-0.8,3,0.5,2.4,4.3-1.7c2.899-3.1,3.399-3.4,4-1.9
	C443.8,34.6,432.9,43.6,430.698,41.3z"/>
<path d="M194.5,40c-1.5-2.5,8.2-8.9,10.3-6.8c1.5,1.5-0.2,4.6-3.1,5.7C196.6,40.8,195.1,41,194.5,40z"/>
<path d="M141.2,33c-3.7-2.3-5-4.6-3.4-6.2c1.6-1.6,9.7,3.2,9.7,5.7C147.5,35.2,145.1,35.4,141.2,33z"/>
<path d="M192.5,28.9c-0.9-1.3,3-5.5,6.7-7.4c2.5-1.2,3-1.2,3.5,0.1c0.698,1.8-2,4.9-6,6.9C193.1,30.3,193.3,30.3,192.5,28.9z"/>
<path d="M152,21.3c-2.102-2.7-2.5-8.9-0.5-8.7c1.898,0.2,6.3,8.8,5.2,10.2C155.3,24.6,154.4,24.3,152,21.3z"/>
<path d="M180.5,19c-0.3-0.5,0.898-2.8,2.7-4.9c2.398-2.9,3.6-3.7,4.5-2.9c1.898,1.6,1.6,2.6-1.602,5.9C183,20.1,181.5,20.7,180.5,19
	z"/>
<text transform="matrix(1 0 0 1 71.2888 461)" font-family="'Chalkduster'" font-size="17">People</text>
<text transform="matrix(1 0 0 1 49.9998 321)" font-family="'Chalkduster'" font-size="17">Culture</text>
<text transform="matrix(1 0 0 1 321.2893 341.373)" font-family="'Chalkduster'" font-size="17">Antipatterns</text>
<text transform="matrix(1 0 0 1 224.7893 402.9463)" font-family="'Chalkduster'" font-size="17">Data</text>
<text transform="matrix(1 0 0 1 687.4407 372.5029)" font-family="'Chalkduster'" font-size="17">Patterns</text>
<text transform="matrix(1 0 0 1 665.8723 442.4736)" font-family="'Chalkduster'" font-size="17">Change</text>
<text transform="matrix(1 0 0 1 816.9006 415.5469)" font-family="'Chalkduster'" font-size="17">Process</text>
<text transform="matrix(1 0 0 1 692.136 40.5928)" font-family="'Chalkduster'" font-size="17">Service</text>
<text transform="matrix(1 0 0 1 702.4436 205.3604)" font-family="'Chalkduster'" font-size="17">Capability</text>
<text transform="matrix(1 0 0 1 408.4363 222.4834)" font-family="'Chalkduster'" font-size="17">Tech Project</text>
<text transform="matrix(1 0 0 1 137.1277 166)" font-family="'Chalkduster'" font-size="17">Problem</text>
<text transform="matrix(0.6626 0.749 -0.749 0.6626 61.3494 29.9043)" font-family="'Chalkduster'" font-size="17">Objective</text>
<text transform="matrix(1 0 0 1 877.3176 215.7266)" font-family="'Chalkduster'" font-size="17">Value</text>
</svg>
