<?xml version="1.0" encoding="UTF-8"?>
<!DOCTYPE svg PUBLIC "-//W3C//DTD SVG 1.1//EN" "http://www.w3.org/Graphics/SVG/1.1/DTD/svg11.dtd">
<svg version="1.1" xmlns="http://www.w3.org/2000/svg" xmlns:xlink="http://www.w3.org/1999/xlink" x="0" y="0" width="400" height="400" viewBox="0, 0, 400, 400">
  <defs>
    <linearGradient id="Gradient_1" gradientUnits="userSpaceOnUse" x1="150.104" y1="444.798" x2="150.104" y2="214.122">
      <stop offset="0" stop-color="#046193"/>
      <stop offset="1" stop-color="#51C4CA"/>
    </linearGradient>
    <linearGradient id="Gradient_2" gradientUnits="userSpaceOnUse" x1="100.477" y1="156.876" x2="100.477" y2="375.446">
      <stop offset="0" stop-color="#046193"/>
      <stop offset="1" stop-color="#51C4CA"/>
    </linearGradient>
    <linearGradient id="Gradient_3" gradientUnits="userSpaceOnUse" x1="-74.794" y1="224.058" x2="90.972" y2="344.315">
      <stop offset="0" stop-color="#046193"/>
      <stop offset="1" stop-color="#51C4CA"/>
    </linearGradient>
    <linearGradient id="Gradient_4" gradientUnits="userSpaceOnUse" x1="250.62" y1="267.883" x2="250.62" y2="54.805">
      <stop offset="0" stop-color="#EE2E2B"/>
      <stop offset="1" stop-color="#FFD80D"/>
    </linearGradient>
    <linearGradient id="Gradient_5" gradientUnits="userSpaceOnUse" x1="200.994" y1="-42.011" x2="200.994" y2="239.374">
      <stop offset="0" stop-color="#EE2E2B"/>
      <stop offset="1" stop-color="#FFD80D"/>
    </linearGradient>
    <linearGradient id="Gradient_6" gradientUnits="userSpaceOnUse" x1="-16.142" y1="43.953" x2="225.505" y2="188.489">
      <stop offset="0" stop-color="#EE2E2B"/>
      <stop offset="1" stop-color="#FFD80D"/>
    </linearGradient>
    <linearGradient id="Gradient_7" gradientUnits="userSpaceOnUse" x1="349.645" y1="462.143" x2="349.645" y2="200.732">
      <stop offset="0.081" stop-color="#4EB748"/>
      <stop offset="1" stop-color="#FAED26"/>
    </linearGradient>
    <linearGradient id="Gradient_8" gradientUnits="userSpaceOnUse" x1="300.021" y1="146.47" x2="300.021" y2="396.236">
      <stop offset="0.081" stop-color="#4EB748"/>
      <stop offset="1" stop-color="#FAED26"/>
    </linearGradient>
    <linearGradient id="Gradient_9" gradientUnits="userSpaceOnUse" x1="98.724" y1="221.32" x2="307.691" y2="349.673">
      <stop offset="0.081" stop-color="#4EB748"/>
      <stop offset="1" stop-color="#FAED26"/>
    </linearGradient>
    <linearGradient id="Gradient_10" gradientUnits="userSpaceOnUse" x1="161.066" y1="397.489" x2="161.066" y2="217.405">
      <stop offset="0" stop-color="#046193"/>
      <stop offset="1" stop-color="#51C4CA"/>
    </linearGradient>
    <linearGradient id="Gradient_11" gradientUnits="userSpaceOnUse" x1="122.325" y1="172.713" x2="122.325" y2="343.35">
      <stop offset="0" stop-color="#046193"/>
      <stop offset="1" stop-color="#51C4CA"/>
    </linearGradient>
    <linearGradient id="Gradient_12" gradientUnits="userSpaceOnUse" x1="-14.509" y1="225.161" x2="114.902" y2="319.044">
      <stop offset="0" stop-color="#046193"/>
      <stop offset="1" stop-color="#51C4CA"/>
    </linearGradient>
    <linearGradient id="Gradient_13" gradientUnits="userSpaceOnUse" x1="239.538" y1="259.376" x2="239.538" y2="93.027">
      <stop offset="0" stop-color="#EE2E2B"/>
      <stop offset="1" stop-color="#FFD80D"/>
    </linearGradient>
    <linearGradient id="Gradient_14" gradientUnits="userSpaceOnUse" x1="200.796" y1="17.447" x2="200.796" y2="237.116">
      <stop offset="0" stop-color="#EE2E2B"/>
      <stop offset="1" stop-color="#FFD80D"/>
    </linearGradient>
    <linearGradient id="Gradient_15" gradientUnits="userSpaceOnUse" x1="31.282" y1="84.556" x2="219.933" y2="197.393">
      <stop offset="0" stop-color="#EE2E2B"/>
      <stop offset="1" stop-color="#FFD80D"/>
    </linearGradient>
    <linearGradient id="Gradient_16" gradientUnits="userSpaceOnUse" x1="316.845" y1="411.034" x2="316.845" y2="206.951">
      <stop offset="0.081" stop-color="#4EB748"/>
      <stop offset="1" stop-color="#FAED26"/>
    </linearGradient>
    <linearGradient id="Gradient_17" gradientUnits="userSpaceOnUse" x1="278.104" y1="164.589" x2="278.104" y2="359.581">
      <stop offset="0.081" stop-color="#4EB748"/>
      <stop offset="1" stop-color="#FAED26"/>
    </linearGradient>
    <linearGradient id="Gradient_18" gradientUnits="userSpaceOnUse" x1="120.956" y1="223.026" x2="284.091" y2="323.228">
      <stop offset="0.081" stop-color="#4EB748"/>
      <stop offset="1" stop-color="#FAED26"/>
    </linearGradient>
  </defs>
  <g id="Layer_1">
    <g>
      <g>
        <g>
          <path d="M100.167,286.568 L200.361,228.894 L200.04,342.207 L99.845,399.881 z" fill="url(#Gradient_1)"/>
          <path d="M0.595,229.625 L100.789,171.948 L200.361,228.894 L100.167,286.568 z" fill="url(#Gradient_2)"/>
          <path d="M100.167,286.568 L99.845,399.881 L0.277,342.934 L0.595,229.625 z" fill="url(#Gradient_3)"/>
        </g>
        <g>
          <path d="M200.68,115.585 L300.877,57.907 L300.557,171.223 L200.361,228.894 z" fill="url(#Gradient_4)"/>
          <path d="M101.111,58.638 L201.306,0.964 L300.877,57.907 L200.68,115.585 z" fill="url(#Gradient_5)"/>
          <path d="M200.68,115.585 L200.361,228.894 L100.789,171.948 L101.111,58.638 z" fill="url(#Gradient_6)"/>
        </g>
        <g>
          <path d="M299.708,285.908 L399.902,228.236 L399.584,341.546 L299.389,399.221 z" fill="url(#Gradient_7)"/>
          <path d="M200.138,228.961 L300.334,171.291 L399.902,228.236 L299.708,285.908 z" fill="url(#Gradient_8)"/>
          <path d="M299.708,285.908 L299.389,399.221 L199.82,342.278 L200.138,228.961 z" fill="url(#Gradient_9)"/>
        </g>
      </g>
      <g>
        <g>
          <path d="M122.083,273.963 L200.303,228.938 L200.05,317.4 L121.829,362.424 z" fill="url(#Gradient_10)"/>
          <path d="M44.348,229.507 L122.569,184.479 L200.303,228.938 L122.083,273.963 z" fill="url(#Gradient_11)"/>
          <path d="M122.083,273.963 L121.829,362.424 L44.098,317.968 L44.348,229.507 z" fill="url(#Gradient_12)"/>
        </g>
        <g>
          <path d="M200.55,140.477 L278.772,95.449 L278.52,183.913 L200.303,228.938 z" fill="url(#Gradient_13)"/>
          <path d="M122.818,96.021 L201.038,50.997 L278.772,95.449 L200.55,140.477 z" fill="url(#Gradient_14)"/>
          <path d="M200.55,140.477 L200.303,228.938 L122.569,184.479 L122.818,96.021 z" fill="url(#Gradient_15)"/>
        </g>
        <g>
          <path d="M277.861,273.448 L356.08,228.423 L355.831,316.884 L277.61,361.91 z" fill="url(#Gradient_16)"/>
          <path d="M200.129,228.99 L278.349,183.967 L356.08,228.423 L277.861,273.448 z" fill="url(#Gradient_17)"/>
          <path d="M277.861,273.448 L277.61,361.91 L199.879,317.454 L200.129,228.989 z" fill="url(#Gradient_18)"/>
        </g>
      </g>
    </g>
  </g>
</svg>
