<!DOCTYPE svg PUBLIC "-//W3C//DTD SVG 20010904//EN" "http://www.w3.org/TR/2001/REC-SVG-20010904/DTD/svg10.dtd">
<svg version="1.0" xmlns="http://www.w3.org/2000/svg" width="1000px" height="696px" viewBox="0 0 10000 6960" preserveAspectRatio="xMidYMid meet">
<g id="layer101" fill="#393939" stroke="none">
 <path d="M1083 6840 c-17 -10 -51 -44 -77 -75 -51 -64 -59 -103 -31 -170 36 -84 35 -147 -5 -592 0 -2 -6 -3 -14 -3 -7 0 -19 -6 -25 -14 -9 -11 -8 -17 9 -29 19 -13 20 -19 10 -83 -15 -100 -54 -225 -100 -318 -47 -97 -59 -156 -38 -189 21 -31 111 -75 183 -88 33 -6 67 -13 75 -16 8 -4 22 -5 30 -4 22 2 38 -30 33 -65 -4 -26 -10 -32 -46 -40 -36 -8 -42 -13 -42 -34 0 -23 3 -25 38 -22 36 3 42 -2 38 -34 -2 -16 26 -37 39 -29 5 3 10 19 10 36 0 29 1 29 56 29 52 0 60 -3 110 -46 61 -52 86 -60 241 -69 54 -3 112 -8 128 -10 112 -14 391 -24 700 -25 l150 0 -105 -49 c-229 -105 -505 -243 -546 -273 -58 -41 -114 -114 -114 -148 0 -37 34 -68 55 -50 11 9 12 16 4 26 -7 9 -7 19 0 32 17 32 94 95 153 124 95 48 411 199 498 238 328 145 795 415 771 444 -14 17 29 78 98 137 35 30 47 47 40 55 -6 7 -5 15 3 22 18 14 118 31 206 34 61 3 75 0 83 -14 12 -22 113 -25 162 -5 25 11 65 12 187 5 85 -4 202 -8 260 -7 58 0 271 -2 475 -6 288 -5 376 -10 397 -21 15 -8 38 -14 52 -14 14 0 28 -5 31 -11 5 -7 14 -4 27 8 17 15 36 18 127 15 58 -1 162 -7 231 -12 69 -6 199 -13 290 -16 209 -7 257 -19 295 -75 37 -52 170 -177 249 -233 85 -61 231 -133 334 -166 48 -15 124 -44 169 -64 45 -20 83 -36 86 -36 13 0 164 -74 180 -88 13 -12 20 -13 29 -4 15 15 -11 45 -67 77 -56 33 -290 131 -393 164 -188 61 -346 163 -490 317 -45 48 -82 90 -82 94 0 3 14 17 31 29 53 39 62 77 54 222 l-7 126 149 5 c143 5 151 6 218 38 182 87 264 250 235 469 -6 49 -9 112 -5 139 4 35 1 61 -9 87 l-16 38 -91 -8 c-123 -9 -538 -8 -553 2 -6 5 -94 6 -196 3 -102 -3 -210 -2 -240 2 -30 4 -221 11 -425 17 -203 5 -453 14 -555 20 -430 24 -616 31 -990 36 -217 3 -467 8 -555 12 -88 3 -243 7 -345 9 -102 1 -206 6 -231 9 -49 8 -93 -7 -86 -28 7 -21 76 -28 347 -37 146 -5 274 -11 285 -14 19 -5 20 -12 17 -143 -4 -231 23 -338 104 -413 24 -22 42 -40 41 -40 -16 0 -203 44 -242 57 -73 24 -304 134 -427 205 -74 42 -108 67 -108 79 0 10 -9 23 -19 29 -24 12 -46 101 -39 156 5 33 1 42 -20 60 -26 21 -26 22 -8 49 10 16 30 39 44 52 21 19 24 28 15 41 -6 9 -18 16 -26 14 -8 -1 -30 6 -49 17 -35 20 -158 38 -263 39 -33 0 -202 5 -375 11 -173 6 -423 13 -556 15 -221 5 -243 3 -271 -14z m53 -55 c16 -8 40 -16 54 -16 16 -1 11 -4 -15 -8 -34 -6 -75 2 -95 17 -3 2 19 21 26 22 1 0 15 -7 30 -15z m264 -11 c59 -5 84 -12 96 -25 17 -18 14 -19 -62 -18 -111 2 -138 9 -142 38 -3 18 0 22 12 18 9 -4 52 -10 96 -13z m398 5 c-2 -5 14 -16 35 -24 55 -19 56 -25 6 -25 -39 0 -49 4 -67 30 l-23 30 26 0 c14 0 24 -5 23 -11z m216 -20 c20 -12 36 -23 36 -25 0 -2 -24 -4 -54 -4 -46 0 -56 3 -70 25 l-16 25 34 0 c19 0 51 -9 70 -21z m-309 -10 c12 -5 -13 -8 -66 -8 -65 -1 -88 3 -92 13 -4 11 9 12 66 8 40 -3 81 -8 92 -13z m516 -18 l44 -39 -55 10 c-36 6 -65 19 -87 39 l-34 29 44 0 c37 0 51 -6 88 -39z m120 29 c20 0 37 -13 69 -57 39 -50 41 -55 19 -49 -13 5 -45 13 -71 19 -29 7 -48 16 -48 25 0 8 -10 28 -22 45 l-22 30 25 -6 c13 -4 36 -7 50 -7z m115 -11 c4 -7 10 -7 16 -1 9 9 73 0 85 -12 4 -3 -1 -14 -9 -23 -9 -10 -23 -31 -31 -48 -9 -16 -16 -24 -17 -16 0 7 -16 36 -35 62 -19 27 -31 49 -26 49 6 0 13 -5 17 -11z m-1378 -28 c10 -6 10 -10 -2 -20 -8 -7 -20 -28 -26 -47 -14 -40 -23 -43 -38 -9 -24 52 22 105 66 76z m148 -63 c-4 -24 -11 -215 -16 -425 -4 -210 -10 -386 -13 -390 -3 -4 -8 -48 -11 -98 -4 -49 -12 -143 -18 -207 -10 -107 -12 -117 -32 -120 -11 -2 -25 -13 -30 -24 -8 -18 -16 -21 -50 -16 -23 2 -43 6 -45 8 -18 16 13 229 44 304 55 130 80 312 87 625 3 119 3 120 -29 171 -22 37 -28 55 -21 62 8 8 7 16 -2 26 -17 21 -6 57 29 95 24 25 37 31 71 31 l43 0 -7 -42z m479 17 c398 -2 499 -12 704 -68 l84 -24 4 -37 c11 -141 67 -202 303 -329 115 -62 337 -162 404 -181 79 -23 205 -46 256 -46 l45 -1 -45 -22 c-25 -13 -44 -28 -42 -36 1 -7 -5 -36 -14 -65 -19 -57 -36 -305 -21 -321 5 -6 15 -2 26 12 14 17 19 48 24 145 3 68 11 146 18 175 12 46 17 52 49 62 69 20 140 23 262 11 67 -7 129 -16 136 -19 8 -5 -3 -18 -35 -41 -71 -49 -142 -120 -165 -164 -19 -36 -20 -65 -3 -106 5 -13 -14 -18 -121 -28 l-127 -12 -46 -42 c-25 -23 -48 -46 -50 -52 -2 -5 -18 -22 -36 -38 -19 -16 -47 -50 -64 -77 -18 -27 -50 -61 -71 -75 l-40 -26 0 31 c0 85 34 348 61 467 31 141 35 187 19 197 -18 11 -40 -16 -40 -49 0 -17 -11 -78 -25 -136 -25 -106 -48 -276 -61 -450 -6 -81 -10 -97 -28 -110 -25 -17 -127 -80 -131 -80 -2 0 -30 -15 -63 -34 -39 -22 -64 -30 -70 -24 -5 5 -45 12 -88 14 -98 6 -262 21 -374 33 -177 20 -218 22 -577 27 -202 4 -392 6 -422 6 -30 0 -62 3 -72 8 -11 6 -29 6 -49 -1 -17 -6 -34 -8 -38 -4 -4 4 -1 10 6 12 7 3 17 16 22 29 6 14 18 24 29 24 10 0 24 6 30 14 10 11 7 17 -10 29 -20 14 -21 19 -11 59 12 47 3 68 -30 68 -16 0 -19 5 -15 23 3 12 11 81 17 152 6 72 13 148 15 170 18 161 27 337 30 579 1 155 6 300 10 324 7 41 9 43 34 36 14 -4 193 -8 396 -9z m2435 -64 c430 -12 752 -25 974 -41 82 -6 199 -8 260 -5 72 5 183 1 316 -10 128 -10 238 -14 293 -10 93 8 109 -1 53 -28 -30 -14 -36 -14 -46 -2 -20 24 -44 1 -74 -72 -24 -56 -30 -87 -34 -174 -5 -120 9 -188 59 -277 l29 -52 -37 5 c-21 2 -92 9 -158 15 -66 6 -138 18 -160 26 -40 14 -147 15 -161 1 -4 -4 -59 -7 -122 -7 -114 0 -114 0 -108 23 18 63 27 138 37 294 10 177 5 221 -26 209 -7 -2 -19 2 -26 10 -9 11 -22 14 -47 9 -25 -5 -39 -2 -52 10 -10 9 -23 14 -29 11 -18 -11 -42 -70 -51 -122 -9 -57 11 -333 30 -394 5 -19 10 -38 10 -41 0 -3 -96 -9 -212 -13 -117 -4 -269 -9 -338 -12 l-125 -5 -19 61 c-25 78 -33 174 -23 280 10 113 39 225 58 225 21 0 22 29 1 56 -17 20 -22 21 -36 10 -33 -28 -76 -224 -78 -362 -1 -67 -4 -76 -19 -72 -21 6 -31 51 -16 75 9 13 9 20 0 29 -8 8 -7 18 3 37 13 24 12 29 -6 43 -17 15 -18 18 -4 30 8 7 13 20 11 29 -2 9 3 22 13 28 15 9 31 51 34 87 1 6 8 15 16 21 12 10 12 14 1 28 -17 20 -34 20 -72 1 -28 -15 -30 -15 -54 12 -24 28 -24 28 -43 8 -25 -26 -54 -176 -54 -276 1 -100 24 -203 61 -279 l31 -62 -37 7 c-21 3 -51 13 -67 21 -37 18 -48 18 -90 -3 -33 -15 -45 -15 -190 2 -144 17 -245 16 -289 -1 -13 -5 -16 -2 -11 10 4 11 -2 27 -17 43 -21 22 -21 24 -4 15 11 -5 29 -20 39 -31 24 -26 38 -26 61 -1 23 26 13 48 -30 66 -63 26 -123 186 -110 297 9 85 43 186 70 211 22 20 33 22 127 19 57 -1 276 -7 488 -12z m-764 -51 c23 0 7 -17 -21 -22 -20 -4 -25 -1 -25 14 0 14 5 18 16 14 9 -3 22 -6 30 -6z m2828 -42 c-3 -18 -19 -85 -34 -148 -16 -63 -34 -142 -41 -175 -14 -77 -18 -82 -54 -75 l-30 6 28 18 c30 20 36 56 12 76 -13 10 -13 15 -1 32 8 11 12 27 9 35 -4 9 5 24 23 38 25 20 27 25 17 48 -10 22 -9 27 11 41 25 16 43 83 27 99 -14 14 -1 37 20 37 15 0 18 -5 13 -32z m671 -23 c-4 -32 -2 -96 5 -148 15 -112 5 -182 -41 -275 -46 -95 -158 -167 -276 -179 l-58 -6 41 49 c65 79 132 178 157 230 20 44 22 63 21 187 -1 114 -5 141 -19 157 -16 18 -14 18 52 25 37 3 75 8 83 9 41 9 42 8 35 -49z m-301 37 c86 -2 107 -5 98 -14 -7 -7 -12 -23 -12 -36 0 -21 -23 -51 -40 -52 -3 0 -4 17 -2 39 2 24 -1 42 -9 46 -26 16 -47 -34 -73 -177 -38 -201 -70 -273 -173 -393 l-42 -49 -22 28 c-19 24 -23 26 -36 13 -13 -13 -17 -13 -34 4 -19 19 -20 19 -59 -3 -21 -13 -41 -20 -45 -17 -3 4 5 51 19 105 78 308 116 466 116 488 0 23 0 23 103 21 56 -1 151 -3 211 -3z m-5494 -82 c0 -5 -7 -10 -15 -10 -9 0 -15 9 -15 23 0 12 -3 33 -6 47 -4 18 0 15 15 -12 12 -21 21 -42 21 -48z m4135 -97 c-3 -65 -8 -146 -11 -180 -5 -58 -6 -61 -23 -45 -16 15 -16 19 -2 40 12 19 12 28 3 43 -10 15 -9 23 0 39 10 15 10 22 1 31 -9 9 -8 17 4 35 14 22 14 27 0 57 -15 30 -15 33 4 53 10 11 19 26 19 32 0 7 2 12 5 12 3 0 3 -53 0 -117z m845 52 c0 -3 -26 -17 -58 -33 -50 -23 -58 -25 -55 -10 3 9 10 15 16 13 7 -3 30 4 52 14 48 23 45 22 45 16z m-4968 -93 c-3 -35 -6 -38 -28 -34 -17 3 -23 9 -20 19 3 8 6 36 6 61 l1 47 22 -27 c17 -21 22 -37 19 -66z m3083 7 c-4 -6 3 -13 14 -16 20 -5 20 -6 4 -19 -10 -7 -21 -14 -25 -14 -10 0 -10 44 -1 53 10 11 15 8 8 -4z m1869 -3 c-3 -8 -20 -17 -38 -20 -39 -8 -71 -39 -62 -61 4 -11 12 -14 27 -10 19 6 20 5 9 -15 -10 -18 -8 -26 8 -43 33 -36 17 -81 -30 -86 -12 -2 -29 106 -26 166 3 52 5 58 24 55 11 -1 36 4 55 12 19 9 35 15 36 16 1 0 0 -6 -3 -14z m-4972 -103 c18 -16 23 -50 12 -89 -4 -16 -11 -20 -30 -16 -26 5 -30 28 -18 91 7 36 11 37 36 14z m2315 -14 c-11 -27 -10 -33 11 -49 23 -19 28 -30 12 -30 -10 0 -60 81 -60 98 0 7 11 12 24 12 23 0 24 -2 13 -31z m1746 -43 c3 -8 -5 -18 -19 -25 -22 -10 -24 -8 -24 14 0 18 5 25 19 25 10 0 21 -6 24 -14z m1475 -41 c-17 -26 -24 -30 -27 -18 -2 9 7 25 19 35 32 26 33 23 8 -17z m-2298 -44 c7 -25 6 -31 -6 -31 -8 0 -12 5 -9 10 4 6 1 17 -5 25 -6 8 -9 19 -5 25 9 15 14 9 25 -29z m-87 9 c8 -30 -8 -33 -21 -5 -9 20 -9 25 2 25 8 0 16 -9 19 -20z m902 -10 c-16 -18 -17 -20 -1 -26 11 -4 27 2 43 17 l25 24 -7 -35 c-9 -44 -7 -43 -41 -30 -44 17 -60 54 -26 63 9 3 19 5 21 6 2 0 -4 -8 -14 -19z m-4066 -30 c21 -18 22 -24 15 -67 l-9 -46 -27 24 c-24 21 -27 29 -21 67 3 23 8 42 12 42 3 -1 17 -10 30 -20z m4952 0 c-12 -11 -28 -17 -33 -14 -6 4 2 13 18 20 40 17 43 16 15 -6z m71 -50 c-17 -71 -43 -80 -47 -18 -2 33 2 41 29 58 17 11 31 20 32 20 0 0 -6 -27 -14 -60z m451 18 c-61 -81 -87 -108 -97 -98 -7 7 5 25 39 60 27 28 53 50 58 50 6 0 5 -5 0 -12z m-2189 -34 c8 -22 -67 -19 -87 4 -15 16 -13 17 33 14 30 -3 51 -9 54 -18z m-264 -55 c65 2 68 1 74 -24 6 -23 -8 -41 -126 -166 -122 -128 -135 -139 -162 -134 -16 3 -46 5 -68 5 -35 0 -40 3 -54 35 -22 54 -18 70 39 127 64 65 206 170 220 161 6 -3 40 -5 77 -4z m1010 0 c0 -12 -10 -21 -130 -120 -41 -35 -109 -95 -151 -135 -55 -53 -85 -74 -111 -79 -34 -6 -202 10 -220 21 -14 9 -9 48 10 77 24 36 177 143 288 201 l88 46 113 0 c76 0 113 -4 113 -11z m267 -3 c-2 -6 -32 -32 -68 -58 -154 -116 -198 -167 -207 -243 l-5 -45 -145 0 -145 0 44 48 c49 52 173 161 238 207 23 17 51 47 61 67 l20 37 105 -1 c67 -1 104 -6 102 -12z m-725 -55 c-161 -106 -222 -181 -207 -252 l7 -30 -214 2 c-117 1 -224 5 -237 8 -23 6 -16 15 103 139 108 111 128 136 124 157 l-5 25 221 2 c122 2 239 4 260 6 39 3 38 2 -52 -57z m995 53 c32 -9 34 -26 8 -81 -29 -65 -103 -137 -212 -210 l-88 -58 -98 3 c-118 4 -130 14 -93 83 23 44 42 62 217 196 l94 73 75 0 c41 0 85 -3 97 -6z m-4571 -51 c-3 -6 -8 -28 -12 -48 -6 -31 -10 -36 -28 -31 -11 3 -23 6 -27 6 -3 0 -1 26 5 59 l9 58 29 -16 c15 -9 26 -21 24 -28z m4824 27 c63 -6 130 -14 149 -18 34 -7 34 -8 -53 -46 -114 -51 -163 -88 -187 -139 -24 -53 -24 -74 0 -120 22 -44 36 -41 -134 -27 -66 6 -146 11 -178 11 l-58 1 47 36 c144 112 234 224 234 290 0 33 1 34 33 29 17 -4 84 -11 147 -17z m389 -45 c5 -5 14 -61 20 -123 14 -132 4 -189 -32 -197 -52 -12 -307 -10 -307 3 1 4 49 36 108 72 173 105 240 186 194 233 -18 17 -26 19 -49 11 -34 -12 -36 -36 -4 -44 l24 -5 -27 -32 c-23 -28 -184 -134 -294 -194 l-43 -24 -20 24 c-24 30 -24 67 1 108 15 26 47 46 142 92 68 33 132 66 142 74 22 16 129 18 145 2z m-5264 -125 c9 -14 -34 -115 -47 -112 -24 6 -26 17 -12 57 7 22 14 47 14 57 0 11 6 15 20 11 11 -3 22 -9 25 -13z m-64 -166 c20 -10 29 -20 25 -30 -3 -9 -6 -20 -6 -25 0 -6 -5 -7 -11 -4 -6 4 -25 7 -44 7 l-34 0 16 34 c9 19 18 34 20 34 2 0 18 -7 34 -16z m-28 -109 c23 -9 37 -23 41 -41 8 -30 9 -29 -24 -37 -34 -8 -94 27 -86 49 3 9 6 22 6 30 0 18 19 18 63 -1z m912 -356 c270 -2 428 -10 561 -28 38 -6 132 -13 209 -17 l138 -7 -67 -34 c-65 -33 -67 -33 -98 -17 -27 14 -85 18 -348 25 -173 5 -342 10 -375 13 -33 3 -147 10 -252 17 -184 12 -194 13 -215 37 l-23 25 100 -7 c55 -3 222 -7 370 -7z"/>
 <path d="M1599 5934 c-8 -10 -13 -44 -12 -97 0 -139 61 -266 178 -376 92 -86 140 -116 241 -149 118 -40 182 -51 284 -49 72 2 95 7 150 33 36 17 82 45 102 63 88 77 157 227 183 399 15 99 13 112 -10 112 -24 0 -30 -19 -41 -125 -6 -54 -18 -102 -46 -174 -8 -23 -9 -23 -23 -5 -13 17 -16 18 -41 4 -37 -21 -39 -32 -9 -68 l26 -31 -37 -41 c-73 -80 -209 -128 -328 -116 l-66 8 15 28 c20 39 19 63 -4 84 -25 23 -38 14 -51 -35 -9 -31 -8 -44 2 -56 11 -14 10 -15 -12 -8 -134 41 -254 108 -318 177 l-23 26 45 21 c63 31 71 44 51 75 -22 34 -31 33 -84 -9 -24 -19 -47 -35 -51 -35 -4 0 -22 33 -40 73 -26 54 -35 90 -38 145 l-4 73 53 -6 c30 -4 99 -13 154 -21 55 -8 137 -20 182 -26 l83 -11 -21 -28 c-26 -36 -21 -60 14 -77 15 -7 27 -17 27 -21 0 -8 134 -123 176 -152 l24 -16 -26 -24 c-37 -34 -48 -58 -35 -73 15 -18 147 -9 180 11 22 14 23 19 19 99 -5 93 -14 112 -47 95 -21 -12 -44 5 -169 129 -34 34 -35 35 -13 38 13 2 109 -6 213 -18 174 -20 192 -20 206 -6 23 23 3 38 -55 42 -26 2 -86 8 -133 14 -47 5 -132 14 -190 20 -58 6 -199 24 -315 40 -115 16 -234 32 -262 35 -29 4 -55 11 -59 16 -8 14 -30 11 -45 -7z m720 -313 c68 -57 57 -66 -14 -11 -94 72 -139 116 -132 127 4 6 24 -6 51 -31 24 -22 67 -61 95 -85z m99 -136 c-2 -2 -21 -6 -43 -10 l-40 -6 35 30 c19 16 36 36 36 43 4 33 8 29 11 -11 3 -23 3 -44 1 -46z"/>
 <path d="M7073 6403 c-12 -2 -26 -10 -31 -16 -5 -7 -12 -76 -15 -154 -5 -116 -3 -144 9 -153 11 -10 17 -10 29 0 12 10 18 10 30 0 13 -10 19 -10 35 5 18 16 20 29 17 149 -2 130 -13 178 -40 175 -7 -1 -22 -4 -34 -6z"/>
 <path d="M7172 6367 c-6 -7 -4 -50 3 -112 9 -68 9 -104 2 -113 -5 -7 -11 -26 -12 -43 -2 -16 -4 -31 -6 -32 -2 -2 -21 -11 -43 -20 -35 -16 -40 -16 -56 -2 -40 36 -55 11 -65 -110 l-7 -90 -40 -2 c-21 0 -48 -9 -59 -19 -35 -32 -24 -63 56 -156 l75 -86 -28 -30 c-50 -53 -66 -146 -36 -205 38 -74 118 -131 139 -97 4 6 24 19 45 30 84 43 122 182 64 235 l-26 24 41 42 c22 23 42 51 45 63 3 12 3 -17 0 -64 -5 -100 -33 -235 -71 -343 -38 -105 -34 -109 95 -122 55 -5 104 -13 108 -17 4 -5 15 -8 24 -8 10 0 34 -11 54 -25 38 -25 56 -25 56 0 0 17 -56 65 -76 65 -20 0 -48 68 -35 83 15 19 16 123 2 141 -7 8 -37 20 -67 27 -31 7 -54 18 -54 25 0 17 17 27 25 14 10 -16 111 -12 125 5 10 12 15 12 36 -2 13 -8 33 -13 44 -10 21 5 21 3 4 -112 l-5 -33 -24 22 c-31 29 -58 20 -53 -17 2 -21 10 -29 36 -35 32 -9 33 -11 30 -50 -3 -44 15 -67 44 -56 17 7 34 116 44 285 l7 112 29 6 c19 5 37 1 54 -10 13 -8 29 -13 34 -10 6 4 10 -6 10 -22 0 -15 7 -53 15 -83 8 -30 13 -55 12 -56 -1 -1 -17 -9 -35 -18 -37 -19 -86 -81 -102 -131 -21 -64 25 -218 76 -251 61 -40 154 -4 176 68 6 21 16 38 23 38 26 0 58 50 62 97 4 40 0 55 -25 94 -17 26 -47 59 -68 75 -57 42 -62 51 -73 139 -28 209 -31 238 -31 266 0 23 4 30 14 26 8 -3 20 1 26 9 7 8 17 14 23 14 7 0 7 -4 -1 -12 -7 -7 -12 -18 -12 -26 0 -8 -7 -20 -16 -27 -17 -12 -16 -19 76 -299 6 -18 6 -35 0 -46 -6 -11 -5 -23 3 -34 10 -14 18 -15 40 -7 23 9 33 22 25 34 -1 1 4 12 10 23 6 12 14 82 16 155 2 74 9 154 14 179 10 41 29 350 24 377 -2 6 2 14 8 18 6 4 10 53 10 119 0 137 -12 159 -56 101 -20 -27 -24 -39 -16 -47 16 -16 15 -139 -1 -159 -16 -21 -60 -8 -51 15 3 8 12 12 19 10 19 -8 35 28 35 79 0 47 -18 74 -44 64 -8 -3 -16 2 -19 14 -4 13 -12 19 -25 17 -10 -2 -26 3 -35 11 -32 26 -47 7 -47 -61 0 -35 4 -79 9 -100 8 -36 8 -36 -28 -41 -20 -2 -42 0 -48 6 -7 5 -20 7 -28 3 -18 -6 -20 -79 -4 -141 5 -22 14 -110 19 -195 6 -85 13 -176 16 -202 l7 -47 -42 16 c-33 13 -41 21 -39 37 2 15 9 20 25 18 32 -4 40 18 13 40 -27 22 -48 23 -70 3 -14 -13 -22 -13 -46 -4 -25 10 -109 22 -216 32 -14 1 -30 5 -34 10 -4 4 -16 7 -27 7 -16 0 -18 5 -13 28 3 15 9 65 12 111 6 73 5 86 -10 97 -12 8 -27 9 -47 4 l-29 -9 6 67 c9 92 9 88 21 103 13 16 0 197 -16 227 -13 25 -37 34 -49 19z m759 -316 c24 -25 25 -30 19 -101 -6 -72 -6 -74 -19 -45 -28 67 -68 84 -97 40 -9 -14 -23 -25 -30 -25 -8 0 -17 -7 -20 -15 -11 -28 -22 -5 -34 75 -17 112 -17 113 78 105 65 -6 81 -11 103 -34z m-782 -156 c-4 -66 -8 -166 -8 -222 -1 -95 -2 -101 -20 -96 -12 3 -17 11 -14 19 3 8 -1 22 -10 32 -22 26 -39 123 -41 241 l-1 105 34 7 c18 4 40 14 49 23 9 8 17 15 17 13 1 -1 -2 -56 -6 -122z m729 -36 c-2 -16 -11 -25 -27 -27 -21 -3 -23 -1 -17 25 13 50 51 52 44 2z m-925 -77 c-3 -11 10 -37 31 -65 44 -57 47 -74 6 -27 -47 55 -65 91 -48 101 17 11 17 12 11 -9z m987 -6 c0 -31 -11 -43 -35 -39 -22 5 -40 35 -27 47 12 13 62 6 62 -8z m-62 -128 c-2 -7 7 -17 20 -23 19 -9 22 -17 21 -70 l0 -60 -28 75 c-25 68 -28 90 -15 90 2 0 3 -5 2 -12z m-394 -21 c-2 -7 7 -24 21 -37 22 -21 28 -22 52 -11 27 12 27 12 10 -6 -12 -14 -17 -36 -17 -73 0 -45 -2 -51 -15 -40 -8 7 -15 10 -15 6 0 -4 -11 1 -25 10 -14 9 -25 12 -25 8 0 -5 -6 2 -13 15 -15 31 -31 39 -89 46 -32 4 -48 11 -48 21 0 18 11 18 46 -1 59 -30 102 -6 91 51 -3 18 0 24 14 24 11 0 16 -5 13 -13z m106 -13 c0 -14 -3 -14 -15 -4 -8 7 -15 14 -15 16 0 2 7 4 15 4 8 0 15 -7 15 -16z m-448 -101 c53 -50 31 -163 -37 -196 -28 -13 -33 -13 -57 7 -51 40 -58 105 -21 184 13 27 20 32 51 32 25 0 44 -8 64 -27z m268 -38 c0 -8 -8 -11 -20 -8 -11 3 -20 11 -20 18 0 8 8 11 20 8 11 -3 20 -11 20 -18z m459 -210 c35 -38 41 -51 41 -88 0 -24 -6 -51 -13 -61 -13 -17 -14 -16 -26 12 -16 37 -46 66 -60 57 -7 -4 0 -22 19 -50 l30 -44 -20 -45 c-49 -116 -134 -68 -147 82 -5 61 -3 75 16 106 28 45 67 76 96 76 14 0 38 -17 64 -45z m-542 -42 c13 -3 26 -18 32 -35 11 -30 11 -30 -20 -24 -17 3 -47 6 -65 6 -37 0 -39 5 -24 45 8 22 15 26 33 20 12 -3 32 -9 44 -12z"/>
 <path d="M3920 5370 c-47 -43 -87 -76 -90 -74 -2 3 4 20 14 39 16 29 17 37 6 50 -33 40 -67 -21 -90 -163 -11 -66 -11 -84 -1 -96 18 -21 29 -12 41 35 13 46 15 46 115 -2 33 -15 64 -24 68 -20 16 16 -11 47 -62 71 -28 14 -50 27 -50 30 0 10 25 36 87 90 78 66 87 82 64 103 -16 14 -24 9 -102 -63z"/>
 <path d="M5555 5424 c-16 -8 -47 -32 -67 -52 -26 -24 -38 -31 -38 -20 0 8 -7 21 -15 28 -23 19 -43 -3 -51 -56 -13 -86 6 -107 106 -124 86 -15 120 41 53 86 l-33 22 37 32 c20 18 52 39 71 47 33 14 33 15 16 34 -21 23 -39 24 -79 3z"/>
 <path d="M4575 5390 c-3 -6 1 -41 10 -79 10 -38 15 -75 12 -83 -6 -18 11 -48 27 -48 7 0 24 17 37 38 25 39 65 54 80 30 5 -7 9 -27 9 -44 0 -17 7 -37 15 -44 24 -20 45 5 45 54 0 46 21 93 51 114 26 18 8 42 -31 42 -29 0 -70 -39 -70 -66 0 -10 -7 -9 -30 4 -28 16 -32 16 -59 0 l-29 -16 -7 36 c-10 53 -44 88 -60 62z"/>
 <path d="M5035 5383 c-50 -26 -85 -64 -85 -94 0 -40 66 -96 124 -104 56 -9 70 -4 90 32 52 94 52 107 8 156 -30 32 -88 36 -137 10z m114 -58 c2 -10 -5 -34 -14 -52 -20 -36 -49 -42 -99 -23 -32 12 -33 33 -3 61 45 43 109 51 116 14z"/>
 <path d="M4218 5363 c-36 -40 -48 -66 -48 -111 0 -41 33 -97 51 -86 5 3 7 27 4 52 -5 36 -1 55 13 82 26 47 47 49 72 8 20 -32 21 -46 8 -148 -4 -35 26 -38 48 -4 36 54 8 166 -52 213 -36 28 -65 26 -96 -6z"/>
 <path d="M5737 5363 c-14 -14 -6 -72 14 -97 27 -34 39 -25 39 28 0 49 -32 91 -53 69z"/>
 <path d="M5725 5200 c-8 -13 13 -40 31 -40 20 0 27 19 14 35 -14 17 -36 19 -45 5z"/>
 <path d="M5460 5072 c-136 -6 -440 -36 -535 -52 -108 -18 -487 -62 -635 -75 -97 -7 -306 -35 -575 -75 -157 -24 -436 -62 -630 -86 -22 -2 -71 -9 -110 -14 -38 -5 -106 -12 -150 -15 -159 -12 -442 -47 -530 -66 -182 -39 -264 -84 -330 -182 -53 -78 -28 -84 42 -11 49 50 70 64 133 86 123 44 286 70 635 103 94 8 220 22 280 30 61 8 166 21 235 30 69 9 143 18 165 21 l40 5 -25 -18 c-181 -131 -332 -231 -404 -268 l-90 -46 -90 6 c-50 3 -140 10 -201 15 -199 17 -249 19 -350 10 -66 -5 -122 -5 -163 3 -54 9 -65 8 -79 -5 -41 -42 14 -51 317 -54 247 -2 428 -15 400 -27 -8 -3 -81 -24 -162 -46 -81 -22 -171 -52 -200 -67 -123 -62 -264 -182 -241 -205 9 -9 24 -1 60 29 119 99 204 138 428 197 94 24 196 53 228 64 51 18 60 18 85 6 15 -8 36 -17 47 -20 17 -5 17 -8 -9 -25 -28 -18 -30 -18 -68 2 -36 19 -41 19 -55 5 -13 -13 -14 -19 -3 -31 7 -9 20 -16 30 -16 25 0 30 -10 17 -31 -9 -15 -8 -22 4 -34 14 -14 21 -10 78 41 39 36 60 62 57 71 -5 11 2 14 27 11 24 -2 32 1 31 12 -1 14 9 14 85 2 58 -9 144 -12 264 -9 97 3 177 3 177 1 0 -13 -82 -135 -118 -176 -86 -94 -155 -138 -452 -284 -189 -93 -240 -124 -240 -150 0 -19 25 -35 36 -24 6 6 96 52 200 104 104 51 218 110 253 130 68 39 91 37 68 -7 -12 -24 -15 -25 -30 -10 -15 15 -47 12 -47 -5 0 -4 23 -30 51 -57 48 -48 51 -49 64 -31 8 11 12 29 9 42 -5 20 -2 22 27 21 40 -2 51 24 22 55 -17 20 -16 20 26 -2 l44 -22 33 38 c24 29 29 42 21 52 -5 7 -16 11 -23 8 -18 -7 -64 16 -64 32 0 13 49 9 97 -9 32 -12 49 12 34 49 -7 16 -11 34 -9 41 2 11 -9 21 -41 38 -1 1 0 6 3 11 9 15 56 -10 56 -28 0 -37 55 -55 67 -24 3 10 0 22 -8 28 -8 6 -16 20 -17 31 -5 28 -31 55 -48 48 -10 -4 -12 0 -8 11 8 21 8 21 40 -9 31 -29 70 -30 68 -3 -1 14 2 16 18 7 13 -7 24 -7 30 -1 12 12 -46 61 -83 69 -18 3 -26 10 -22 19 8 21 30 17 71 -11 l37 -26 35 38 35 38 367 0 c201 0 370 -4 375 -8 27 -28 -10 -185 -75 -314 -30 -61 -34 -74 -22 -88 11 -14 15 -14 29 0 10 8 30 42 46 75 l29 60 61 0 c47 0 66 4 78 18 22 24 21 39 -2 51 -10 6 -21 22 -23 36 -5 25 -5 25 14 8 19 -17 21 -17 43 9 45 52 43 170 -1 126 -15 -14 -20 -14 -52 -1 -19 8 -43 12 -54 10 -10 -3 -18 0 -18 5 0 7 87 9 273 5 271 -6 310 -9 442 -27 170 -24 227 -30 252 -28 32 4 42 -13 106 -178 26 -67 79 -175 118 -240 39 -65 80 -137 91 -159 11 -22 52 -82 90 -133 50 -67 74 -90 81 -83 14 14 -12 69 -62 130 -21 25 -63 91 -94 146 -31 55 -66 115 -78 133 -17 26 -18 31 -4 26 10 -4 32 5 58 24 23 16 51 31 61 33 28 6 30 55 3 74 -12 8 -29 15 -39 15 -9 0 -27 10 -38 22 -17 19 -24 21 -40 10 -11 -7 -29 -12 -39 -12 -11 0 -23 -5 -26 -10 -10 -16 14 -40 40 -40 32 0 42 -43 17 -75 l-19 -24 -31 67 c-29 61 -96 225 -108 263 -5 13 5 17 53 22 79 8 91 11 174 46 l72 30 44 -38 c51 -46 101 -71 137 -71 29 0 29 8 1 -110 -44 -187 -49 -370 -15 -505 29 -116 90 -235 152 -301 119 -126 231 -146 572 -99 57 7 66 -7 66 -98 0 -96 17 -140 69 -174 63 -42 172 -26 263 38 26 19 28 24 16 36 -13 12 -25 9 -89 -22 -75 -36 -110 -42 -152 -26 -34 13 -40 32 -47 143 -5 85 -9 100 -30 123 -24 26 -27 27 -115 21 -297 -20 -337 -19 -400 4 -79 30 -144 97 -195 204 -50 107 -70 188 -77 321 -6 136 19 306 73 481 20 65 47 155 59 199 39 137 53 164 104 197 25 16 84 40 131 54 47 14 91 28 98 32 19 10 11 27 -14 27 -11 0 -36 13 -55 29 -44 38 -96 59 -125 52 -16 -4 -39 4 -76 27 -59 37 -167 82 -215 90 -18 3 -36 8 -41 11 -5 3 -36 8 -68 11 -33 3 -99 10 -149 16 -79 9 -375 10 -535 1z m530 -62 c227 -17 314 -40 450 -117 70 -39 85 -45 101 -34 16 9 28 8 65 -8 43 -19 52 -41 18 -41 -33 0 -151 -54 -182 -84 -44 -41 -64 -81 -97 -198 -18 -65 -31 -95 -39 -90 -17 10 -66 11 -72 0 -3 -5 -12 -4 -20 3 -11 9 -19 8 -34 -6 -11 -10 -20 -24 -20 -32 0 -16 -16 -17 -26 -1 -4 6 -2 14 5 16 6 2 24 14 39 26 15 13 33 21 40 19 18 -7 42 16 35 32 -3 8 -28 31 -55 51 -46 33 -52 34 -66 20 -15 -14 -14 -18 11 -44 l26 -27 -34 -28 c-19 -15 -36 -27 -39 -27 -2 0 -14 16 -27 36 -21 35 -22 37 -3 47 10 6 36 27 58 47 56 52 46 70 -38 70 -36 0 -68 -4 -71 -10 -10 -16 -22 -12 -28 10 -4 16 1 21 32 26 20 4 41 11 48 16 7 6 19 6 31 -1 15 -8 23 -7 32 4 10 12 8 23 -14 56 -28 42 -49 47 -54 13 -2 -14 -17 -25 -53 -36 l-50 -15 -14 26 c-20 39 2 66 49 58 57 -9 101 40 62 72 -10 8 -16 8 -25 -3 -8 -10 -24 -12 -52 -9 -28 4 -45 1 -58 -11 -10 -9 -25 -14 -34 -10 -10 3 -19 0 -22 -8 -5 -13 108 -265 154 -343 12 -21 21 -38 19 -40 -17 -11 -187 -56 -235 -61 l-62 -6 -26 58 c-36 80 -85 274 -85 333 0 30 -6 53 -14 60 -56 47 -24 -217 48 -386 l24 -58 -33 -3 c-18 -2 -102 6 -187 18 -84 11 -255 26 -379 32 l-226 12 8 35 c10 43 -3 61 -31 43 -13 -8 -21 -8 -26 -1 -3 6 -15 9 -25 6 -23 -6 -35 9 -13 17 9 3 33 6 54 6 30 0 42 5 51 21 19 37 -6 74 -47 68 -9 -1 -24 23 -24 39 0 9 10 11 34 7 40 -8 55 8 32 34 -16 17 -15 19 5 24 11 3 19 12 17 19 -3 7 4 20 15 29 26 21 16 53 -13 44 -14 -4 -20 -2 -20 8 0 25 -39 53 -57 41 -29 -18 -39 -42 -26 -63 10 -15 9 -22 -2 -31 -11 -9 -12 -17 -4 -31 9 -17 7 -19 -14 -14 -33 9 -56 -19 -30 -36 13 -8 18 -20 15 -39 -2 -15 1 -37 7 -49 9 -17 9 -21 -2 -21 -7 0 -22 -6 -32 -14 -19 -14 -19 -15 -2 -34 16 -17 16 -21 2 -32 -8 -7 -15 -28 -15 -48 0 -28 -3 -33 -12 -24 -7 7 -11 46 -11 104 1 72 6 110 26 168 28 83 22 107 -17 65 -38 -41 -51 -96 -51 -225 l0 -115 -337 0 c-336 0 -337 0 -319 20 31 34 44 66 32 78 -7 7 -14 7 -23 -1 -10 -8 -21 -3 -44 18 -32 28 -32 28 -12 48 20 19 20 19 60 -24 45 -49 57 -53 65 -24 3 11 13 20 23 20 10 0 23 7 30 15 9 11 3 23 -35 64 -25 27 -42 52 -37 55 5 3 18 -8 30 -23 12 -16 36 -36 54 -45 l32 -17 35 38 c42 45 61 78 61 106 0 19 1 20 20 2 19 -17 21 -17 54 18 30 32 35 34 49 20 13 -14 19 -14 32 -3 14 12 14 15 0 30 -14 16 -21 60 -10 60 8 0 618 78 704 90 60 8 303 27 426 33 154 8 317 6 445 -3z m-1628 -153 c4 -23 4 -23 -23 -10 -41 20 -45 33 -11 33 23 0 31 -5 34 -23z m-98 -3 c3 -8 2 -13 -3 -9 -5 3 -18 -6 -29 -20 -12 -15 -23 -21 -27 -15 -12 19 -60 10 -115 -21 -66 -37 -234 -207 -305 -307 -41 -58 -56 -72 -85 -78 -46 -10 -350 -10 -420 -1 -69 10 -78 16 -86 53 -6 29 -2 33 88 94 51 35 145 103 208 151 l115 87 250 35 c319 46 302 44 356 46 34 1 48 -3 53 -15z m-66 -97 c12 -13 19 -26 16 -30 -9 -8 -64 34 -58 45 8 13 19 9 42 -15z m-151 -133 c-3 -3 -14 0 -26 7 -15 10 -17 16 -9 26 9 11 14 9 25 -7 8 -12 13 -24 10 -26z m2002 -46 c11 -3 10 -6 -2 -17 -13 -11 -18 -8 -33 21 -16 32 -16 33 2 17 11 -9 25 -18 33 -21z m-2118 -143 l34 -14 -55 0 c-50 0 -53 1 -36 14 24 18 17 18 57 0z m2314 -75 c3 -5 15 -10 26 -10 10 0 19 -4 19 -9 0 -5 -16 -5 -37 0 -21 5 -42 9 -48 9 -5 0 -3 5 5 10 19 12 27 12 35 0z m-1445 -70 c24 -15 7 -18 -25 -4 -23 10 -25 13 -10 13 11 1 27 -3 35 -9z m-40 -50 c8 -5 11 -10 5 -11 -5 0 -20 -2 -32 -3 -23 -3 -29 4 -16 17 9 10 25 8 43 -3z m-43 -74 c-10 -26 -25 -18 -19 10 3 17 8 22 15 15 5 -5 7 -17 4 -25z"/>
 <path d="M725 4890 c-125 -9 -152 -13 -250 -40 -115 -31 -147 -47 -143 -73 4 -25 -1 -26 127 14 144 45 214 52 486 53 241 1 254 0 353 -26 167 -44 192 -65 347 -296 27 -40 55 -78 61 -83 19 -16 28 9 11 29 -8 9 -31 49 -52 87 -53 97 -149 221 -193 250 -51 33 -109 53 -225 76 -104 20 -298 24 -522 9z"/>
 <path d="M7544 4729 c-3 -6 8 -25 25 -43 30 -31 31 -33 14 -49 -18 -15 -51 -75 -72 -129 -5 -15 -27 -36 -48 -47 -21 -11 -51 -31 -68 -45 l-30 -26 47 -43 c25 -23 81 -82 124 -132 105 -122 130 -120 133 13 l1 52 88 -5 c278 -18 384 -28 449 -41 98 -21 103 -16 103 88 0 75 1 78 19 68 34 -18 96 -12 127 12 16 12 66 57 111 99 172 164 225 160 400 -29 141 -152 172 -159 340 -75 100 50 133 55 165 27 56 -50 99 -223 99 -399 -1 -178 -35 -271 -138 -372 -69 -68 -155 -115 -311 -170 -70 -25 -175 -67 -234 -94 -60 -27 -156 -71 -215 -98 -173 -79 -205 -76 -312 23 -97 91 -143 116 -229 123 -105 8 -201 -34 -459 -204 -117 -77 -131 -89 -117 -103 5 -5 83 36 174 91 350 209 429 218 590 64 139 -133 182 -130 520 34 80 38 199 89 265 112 255 88 400 193 472 340 80 162 65 480 -31 642 -52 90 -111 98 -244 32 -50 -25 -104 -48 -120 -51 -46 -9 -99 26 -192 127 -46 51 -104 105 -129 121 -93 58 -174 30 -329 -115 -144 -135 -154 -134 -266 26 -84 120 -123 129 -273 58 -90 -43 -179 -66 -221 -56 -18 3 -62 40 -116 95 -49 50 -92 90 -96 90 -5 0 -12 -5 -16 -11z m620 -140 c15 -11 45 -48 67 -81 45 -66 44 -72 -19 -84 -38 -7 -102 -2 -227 20 -50 9 -146 16 -215 17 l-125 0 -1 69 -1 69 44 -39 c76 -67 175 -63 328 11 92 45 112 47 149 18z m-562 -156 c7 -9 47 -13 141 -13 85 0 173 -7 254 -21 72 -12 155 -19 195 -17 l70 3 -6 -54 c-4 -30 -8 -57 -10 -59 -2 -1 -41 4 -87 12 -78 13 -364 37 -489 40 l-55 1 -5 -65 -5 -65 -23 30 c-13 17 -50 58 -83 92 -32 34 -59 66 -59 71 0 4 20 25 45 46 25 21 58 56 73 79 l27 42 3 -55 c2 -30 8 -60 14 -67z"/>
 <path d="M469 4688 c-7 -13 -13 -34 -14 -48 -3 -44 -17 -130 -22 -130 -11 0 -49 25 -60 39 -9 13 -14 13 -24 4 -19 -18 3 -58 43 -79 67 -35 158 -12 158 40 0 23 -27 56 -47 56 -6 0 -6 18 0 54 14 78 -6 116 -34 64z"/>
 <path d="M1144 4639 c-12 -14 -21 -16 -35 -9 -26 14 -75 12 -88 -4 -15 -18 19 -131 39 -131 11 0 15 11 13 43 -2 39 0 42 23 42 14 0 23 -4 20 -9 -3 -5 1 -23 10 -40 13 -27 21 -31 54 -31 38 0 71 22 50 35 -6 3 -8 10 -6 14 3 4 1 13 -4 21 -6 9 -3 18 8 27 16 12 15 14 -8 32 -36 29 -57 31 -76 10z"/>
 <path d="M574 4629 c-9 -10 -13 -22 -10 -27 3 -6 -1 -12 -9 -16 -20 -7 -19 -35 3 -44 9 -4 17 -16 17 -27 0 -17 6 -20 37 -19 20 1 44 4 55 8 17 7 16 9 -6 27 -13 10 -20 19 -16 19 5 0 0 10 -11 23 -10 12 -15 19 -10 15 16 -14 37 12 26 32 -14 26 -56 31 -76 9z"/>
 <path d="M887 4643 c-4 -3 -7 -31 -7 -60 0 -30 -4 -52 -9 -49 -5 3 -14 0 -20 -8 -9 -11 -6 -18 14 -35 53 -41 107 -39 127 5 10 21 8 28 -8 45 -12 11 -31 21 -43 22 -19 1 -22 6 -17 31 8 37 -17 70 -37 49z"/>
 <path d="M728 4609 c-11 -6 -18 -22 -18 -38 0 -31 23 -56 60 -66 36 -9 75 33 66 70 -10 38 -69 57 -108 34z"/>
 <path d="M6885 4488 c-15 -21 -17 -22 -26 -5 -11 19 -34 23 -44 6 -12 -18 16 -96 41 -120 24 -23 25 -23 44 -3 20 19 45 118 34 135 -9 16 -32 10 -49 -13z"/>
 <path d="M6964 4496 c-3 -7 -4 -39 -2 -71 2 -43 8 -61 21 -69 15 -9 22 -7 32 9 43 62 46 63 39 14 -4 -35 -2 -48 11 -59 9 -8 19 -9 25 -4 15 15 29 116 19 141 -11 31 -49 45 -69 27 -13 -11 -18 -10 -28 6 -14 23 -40 26 -48 6z"/>
 <path d="M7260 4484 c-29 -25 -32 -25 -49 -10 -44 40 -87 4 -78 -66 10 -75 68 -122 105 -84 15 14 13 17 -16 27 -23 8 -32 17 -32 32 0 18 7 22 32 24 25 2 38 -4 58 -29 26 -31 58 -32 46 -2 -3 8 0 11 8 8 20 -8 30 14 16 31 -7 8 -9 15 -5 15 4 0 2 7 -5 15 -6 8 -9 19 -5 25 8 13 -12 40 -30 40 -8 0 -27 -12 -45 -26z"/>
 <path d="M6684 4487 c-3 -10 -20 -12 -58 -9 -48 4 -55 2 -74 -23 -12 -15 -22 -38 -22 -51 0 -27 46 -66 74 -62 30 5 31 27 2 38 -14 5 -26 13 -26 18 0 17 26 40 58 50 l32 11 0 -43 c0 -48 16 -72 37 -54 10 8 18 6 33 -7 11 -10 23 -15 28 -11 4 4 12 38 18 74 13 75 6 94 -27 73 -15 -9 -24 -10 -32 -2 -15 15 -37 14 -43 -2z"/>
 <path d="M702 4358 c-7 -7 -12 -18 -12 -25 0 -7 -3 -12 -7 -12 -43 7 -73 -46 -73 -127 0 -37 -5 -66 -12 -72 -10 -8 -12 -54 -8 -194 l5 -183 -27 -23 c-32 -27 -68 -98 -68 -136 0 -43 35 -100 82 -131 76 -51 228 -48 286 5 26 23 32 37 32 69 0 88 -58 188 -131 226 -23 12 -35 24 -31 31 10 17 71 46 82 39 5 -3 11 -1 14 4 4 5 21 7 40 4 49 -8 76 10 76 52 0 44 -29 64 -54 36 -11 -13 -14 -21 -7 -26 6 -3 11 -11 11 -17 0 -7 -5 -6 -15 2 -9 8 -13 21 -9 36 4 14 1 31 -6 39 -11 14 -15 14 -32 -2 -10 -9 -16 -23 -14 -30 9 -23 -14 -59 -45 -70 -23 -9 -29 -9 -29 2 0 22 50 177 70 215 10 19 26 72 36 117 9 45 21 80 25 77 11 -6 62 20 79 41 20 24 0 38 -35 25 -20 -8 -31 -7 -41 1 -30 25 -52 -18 -75 -141 -7 -36 -20 -81 -29 -100 -36 -72 -90 -273 -82 -304 2 -4 -9 -5 -23 -2 -18 5 -27 2 -31 -9 -7 -18 -25 -21 -19 -2 2 6 6 78 8 158 3 80 9 154 15 165 5 10 7 33 5 51 -6 38 15 133 28 133 6 0 25 15 44 33 26 26 32 36 23 45 -15 15 -31 15 -46 0z m68 -660 c38 -26 78 -95 86 -150 6 -36 6 -37 -32 -40 -30 -2 -39 -7 -38 -20 2 -16 -7 -18 -63 -18 -84 0 -159 37 -172 84 -30 113 120 211 219 144z"/>
 <path d="M660 3674 c-8 -3 -21 -8 -29 -10 -12 -4 -12 -7 2 -21 13 -13 24 -14 59 -7 51 11 60 38 13 41 -16 1 -37 0 -45 -3z"/>
 <path d="M691 3566 c-9 -10 -8 -16 3 -25 10 -9 16 -8 25 3 9 10 8 16 -3 25 -10 9 -16 8 -25 -3z"/>
 <path d="M632 3558 c-16 -16 -15 -33 3 -48 24 -20 45 -5 36 26 -8 32 -22 39 -39 22z"/>
 <path d="M1815 4340 c-6 -9 80 -69 101 -70 6 0 21 -11 34 -25 l23 -25 -18 -62 c-45 -158 -45 -158 -31 -193 14 -33 65 -73 146 -114 25 -13 57 -34 73 -49 76 -72 0 -202 -271 -461 -113 -108 -153 -153 -149 -164 4 -12 12 -14 27 -9 28 11 307 278 335 321 12 20 37 51 55 69 40 42 80 127 80 170 0 69 -41 115 -163 182 -74 41 -82 49 -85 78 -2 19 6 61 17 95 12 33 21 82 21 109 0 64 -38 107 -118 137 -68 24 -69 24 -77 11z"/>
 <path d="M2835 4280 c-4 -6 -4 -19 0 -29 7 -24 -18 -45 -58 -45 -24 -1 -32 -5 -31 -18 1 -10 -2 -18 -8 -18 -5 0 -35 -18 -67 -39 -45 -31 -61 -37 -75 -29 -33 18 -43 -8 -15 -38 31 -34 118 -84 145 -84 39 0 88 82 82 136 -3 29 -1 33 14 28 32 -10 118 -13 123 -3 3 5 -5 25 -19 46 -17 25 -22 40 -16 49 11 13 1 23 -42 42 -17 7 -29 8 -33 2z m-90 -230 l-16 -31 -29 18 c-17 9 -30 20 -30 23 0 3 19 17 43 32 39 26 42 26 45 8 2 -10 -4 -33 -13 -50z"/>
 <path d="M5885 4278 c-16 -6 -38 -18 -48 -26 -16 -14 -16 -17 -3 -30 13 -13 21 -13 69 5 52 19 55 19 66 1 15 -24 48 -23 61 1 15 30 12 40 -15 53 -19 8 -28 8 -40 -2 -12 -10 -19 -10 -27 -2 -14 14 -23 14 -63 0z"/>
 <path d="M1562 4237 c-5 -6 -17 -48 -27 -91 -12 -58 -24 -85 -43 -103 -22 -20 -24 -26 -14 -46 9 -16 10 -59 3 -160 -4 -76 -10 -140 -13 -142 -2 -3 -24 5 -49 18 -35 18 -50 34 -74 82 -30 60 -30 60 -27 217 1 92 -2 159 -8 163 -37 23 -63 -212 -35 -318 8 -32 22 -68 30 -80 13 -21 13 -23 -5 -24 -11 -1 -22 2 -25 8 -12 19 -46 7 -119 -42 -71 -47 -76 -53 -76 -86 0 -20 9 -48 21 -65 25 -35 81 -62 110 -53 14 5 17 3 13 -9 -8 -22 11 -42 46 -49 23 -5 31 -14 38 -39 13 -51 73 -87 143 -88 67 0 139 23 169 55 12 12 24 41 27 63 6 47 -19 132 -47 157 -11 10 -20 24 -20 31 0 8 -13 20 -30 29 -29 15 -30 18 -29 83 1 37 4 95 8 129 l6 61 26 -22 27 -23 -29 -43 c-21 -32 -26 -47 -18 -54 8 -8 19 -1 41 24 54 63 61 77 48 99 -14 27 -1 27 40 -1 56 -38 56 -39 -57 -132 -80 -65 -95 -87 -73 -101 22 -13 210 160 210 192 0 31 -48 83 -96 105 -57 25 -67 54 -64 190 1 66 -9 89 -28 65z m-336 -548 c-31 -36 -33 -67 -6 -101 30 -38 8 -51 -42 -24 -51 27 -67 49 -52 74 9 14 109 82 122 82 2 0 -8 -14 -22 -31z m141 1 c18 -16 41 -30 50 -30 11 0 3 -12 -23 -34 -21 -19 -43 -31 -49 -28 -5 4 -25 8 -44 9 -59 4 -64 8 -47 42 13 24 61 69 75 71 2 0 19 -13 38 -30z m224 -153 c23 -53 24 -89 2 -116 -18 -21 -105 -51 -152 -51 -53 0 -122 70 -84 84 11 4 14 15 10 34 -3 16 2 38 11 54 18 31 27 35 35 13 5 -12 12 -13 54 0 26 8 52 21 57 29 15 22 45 1 67 -47z"/>
 <path d="M1542 3477 c-10 -11 -9 -17 3 -27 22 -18 39 0 22 24 -11 15 -15 16 -25 3z"/>
 <path d="M1423 3444 c-9 -23 13 -40 32 -24 12 10 13 16 4 26 -15 18 -28 18 -36 -2z"/>
 <path d="M7773 4199 c-7 -7 -22 -49 -34 -94 l-21 -82 -241 1 c-177 1 -241 -2 -244 -11 -10 -28 40 -34 294 -35 172 -1 258 3 261 10 1 5 -1 13 -7 16 -10 6 14 114 29 129 7 8 191 -148 189 -161 0 -4 -23 -34 -50 -67 -27 -33 -64 -79 -81 -102 -35 -48 -48 -43 -48 18 0 35 -20 66 -33 52 -4 -3 -14 0 -22 7 -13 11 -70 12 -283 6 -366 -11 -371 -11 -384 -24 -30 -30 8 -35 209 -31 109 2 257 4 328 4 l130 0 5 -71 c4 -52 10 -78 24 -93 24 -26 35 -18 85 59 31 50 63 92 151 201 26 33 27 38 15 56 -19 26 -241 223 -252 223 -5 0 -14 -5 -20 -11z"/>
 <path d="M9292 4188 c-16 -16 -16 -110 0 -126 15 -15 40 -16 54 -2 17 17 1 111 -22 126 -15 11 -23 11 -32 2z"/>
 <path d="M9076 4169 c-11 -17 -13 -26 -4 -36 7 -9 7 -21 -2 -43 -17 -41 -32 -38 -24 5 10 58 -43 100 -76 60 -10 -13 -10 -19 4 -33 9 -10 16 -30 16 -43 0 -40 22 -63 55 -57 15 3 40 2 56 -2 35 -10 58 10 34 30 -8 7 -12 17 -9 22 3 5 13 0 21 -12 10 -14 22 -20 34 -17 11 3 22 1 25 -4 8 -14 50 -11 64 6 16 19 4 35 -26 35 -16 0 -23 4 -18 12 4 6 -1 17 -11 24 -15 11 -16 16 -5 28 10 13 8 17 -13 27 -17 8 -30 8 -43 1 -13 -7 -24 -6 -40 5 -20 13 -23 12 -38 -8z"/>
 <path d="M8775 4149 c-21 -19 -36 -26 -40 -19 -14 23 -57 31 -75 15 -9 -8 -28 -15 -41 -15 -14 0 -30 -5 -36 -11 -8 -8 -17 -8 -31 0 -26 14 -38 -1 -33 -41 l3 -28 -31 18 c-19 10 -31 25 -31 38 0 11 -8 28 -18 37 -29 26 -42 3 -42 -73 0 -52 4 -71 18 -83 25 -23 64 -21 94 2 16 13 29 17 39 10 25 -16 55 -10 80 17 l24 26 -23 18 c-12 10 -19 21 -14 24 4 2 20 -11 35 -30 33 -40 75 -47 84 -14 5 19 7 19 22 6 26 -24 66 -29 81 -11 16 19 5 32 -29 37 l-24 3 24 29 25 29 13 -31 c7 -17 29 -43 48 -57 32 -25 35 -26 59 -10 25 16 24 35 -2 35 -8 0 -14 6 -14 14 0 8 -10 22 -22 30 l-22 16 21 0 c12 0 24 4 27 9 11 16 -20 30 -78 35 -52 4 -60 2 -91 -25z"/>
 <path d="M4722 4060 c-23 -16 -48 -30 -56 -30 -8 0 -18 -5 -21 -10 -12 -20 17 -40 56 -40 43 0 48 -6 22 -25 -15 -11 -15 -15 -4 -29 12 -14 10 -16 -10 -16 -13 0 -125 -7 -249 -15 -124 -8 -301 -15 -394 -15 -185 0 -343 -19 -446 -52 -96 -31 -198 -85 -406 -214 -102 -64 -217 -129 -256 -146 -97 -41 -218 -65 -383 -77 -169 -12 -221 -23 -300 -62 -76 -39 -115 -76 -172 -164 -97 -150 -190 -216 -415 -294 -161 -55 -201 -73 -236 -104 -30 -28 -52 -106 -52 -189 0 -38 -6 -83 -14 -101 -45 -108 -468 -184 -620 -112 -26 13 -40 15 -48 7 -14 -14 -4 -28 45 -57 60 -34 152 -41 303 -21 145 19 234 45 295 86 61 40 77 80 81 201 3 70 9 103 21 122 23 35 89 68 225 112 226 73 338 152 444 311 57 86 87 114 164 153 74 37 125 48 294 61 155 11 260 32 361 71 77 30 119 53 339 189 316 195 422 226 795 235 268 6 534 21 719 41 407 42 661 -10 871 -179 79 -64 233 -225 290 -302 16 -22 62 -78 101 -125 87 -103 108 -137 191 -301 52 -104 75 -138 119 -178 80 -74 161 -87 263 -45 54 22 74 17 142 -38 86 -68 137 -90 214 -90 72 0 144 21 230 68 157 85 287 97 520 44 75 -16 160 -30 190 -30 30 0 121 14 202 31 239 51 319 35 407 -78 l35 -45 -32 -22 c-23 -16 -34 -33 -41 -64 -10 -47 3 -148 19 -145 6 1 13 30 17 65 14 124 45 148 108 83 63 -65 128 -67 242 -9 34 17 64 24 108 24 64 0 78 -8 121 -71 16 -24 39 -19 39 8 0 24 -39 72 -73 90 -54 28 -151 23 -217 -10 -76 -39 -135 -44 -178 -17 -28 17 -32 23 -22 36 7 8 20 29 29 47 27 53 58 62 221 62 135 0 149 -2 195 -25 43 -22 54 -34 82 -90 18 -36 40 -99 48 -140 18 -88 33 -106 121 -151 79 -40 170 -133 210 -216 27 -55 29 -65 29 -190 1 -77 5 -133 10 -133 6 0 10 3 11 8 0 4 7 21 14 37 8 18 14 68 14 125 1 89 -1 99 -34 165 -48 97 -145 197 -232 241 -53 27 -69 40 -74 62 -65 294 -134 355 -399 356 -73 0 -136 -5 -160 -13 -54 -18 -103 -56 -111 -86 -5 -22 -11 -18 -87 60 -72 73 -89 85 -141 100 -71 21 -149 16 -281 -15 -148 -36 -241 -37 -370 -5 -128 32 -302 44 -385 26 -29 -6 -105 -36 -169 -66 -141 -66 -191 -78 -262 -65 -57 11 -72 19 -167 92 -72 55 -88 57 -178 27 -83 -28 -137 -21 -191 26 -30 25 -61 75 -119 186 -83 160 -117 213 -194 294 -26 28 -74 86 -107 130 -79 104 -279 299 -368 358 -93 62 -223 113 -337 133 -103 18 -354 24 -457 11 l-64 -8 31 36 c41 46 49 78 28 110 -22 33 -54 32 -104 -5z"/>
 <path d="M7101 3611 c-6 -11 -11 -35 -11 -55 0 -19 -5 -38 -11 -42 -14 -8 -4 -59 16 -91 22 -33 69 -31 106 6 17 17 29 40 29 55 0 27 -41 66 -71 66 -13 0 -19 9 -21 37 -3 42 -22 54 -37 24z m82 -117 c9 -10 -10 -41 -29 -48 -25 -10 -36 15 -17 36 16 18 35 23 46 12z"/>
 <path d="M7966 3618 c-1 -7 -10 -36 -19 -64 -23 -69 -21 -82 8 -96 30 -14 63 6 44 28 -7 9 -7 18 0 33 15 26 14 84 -1 99 -15 15 -28 15 -32 0z"/>
 <path d="M7360 3612 c-8 -2 -25 -14 -37 -25 l-23 -20 -23 22 c-20 18 -26 19 -35 8 -15 -18 -1 -66 33 -111 31 -40 51 -38 71 8 l13 31 1 -31 c0 -17 7 -37 15 -44 14 -11 13 -14 -1 -24 -14 -10 -14 -14 -1 -24 11 -9 26 -8 67 4 30 9 67 13 85 10 39 -8 113 20 97 36 -6 6 -8 17 -5 25 4 9 -5 18 -26 26 -35 13 -41 27 -12 27 26 0 44 23 29 38 -19 19 -60 14 -85 -10 -18 -17 -23 -18 -23 -6 0 25 -35 62 -52 56 -13 -5 -13 -16 -3 -82 7 -42 9 -76 4 -76 -4 0 -15 -3 -23 -6 -12 -4 -16 -1 -14 12 0 11 0 47 0 81 -2 65 -17 87 -52 75z m149 -151 c-15 -5 -22 6 -14 19 6 9 10 9 16 -1 5 -8 4 -15 -2 -18z"/>
 <path d="M7832 3588 c-7 -7 -22 -13 -35 -13 -30 0 -46 -59 -26 -101 20 -41 45 -42 63 -2 14 33 14 33 15 6 1 -26 31 -54 45 -41 3 3 6 30 6 58 0 38 -6 60 -21 79 -23 29 -30 31 -47 14z"/>
 <path d="M7646 3583 c-3 -3 -6 -31 -6 -61 0 -65 18 -92 55 -84 37 7 48 25 34 56 -11 23 -9 29 10 50 22 23 22 25 4 34 -12 7 -25 7 -36 1 -11 -6 -23 -6 -36 0 -10 6 -21 7 -25 4z"/>
 <path d="M5325 3484 c-158 -29 -194 -47 -198 -98 -3 -37 20 -45 33 -12 5 14 11 26 12 26 2 0 2 -48 0 -108 l-3 -107 39 -60 c21 -33 62 -81 90 -106 79 -72 94 -165 32 -196 -14 -6 -64 -17 -111 -23 -48 -7 -100 -20 -117 -30 -41 -25 -81 -87 -89 -136 -3 -21 -12 -43 -20 -47 -19 -12 -16 -35 7 -47 42 -22 328 -42 554 -38 200 4 219 5 232 23 12 16 12 21 0 34 -8 9 -17 41 -21 71 -10 87 -24 117 -68 155 -34 29 -48 35 -72 31 -34 -6 -102 7 -118 23 -9 9 -8 17 1 31 6 11 12 32 12 47 0 52 32 87 100 112 34 13 80 39 101 58 62 56 114 183 121 297 l3 40 -75 12 c-41 7 -115 24 -165 38 -102 28 -165 31 -280 10z m240 -56 c28 -5 79 -19 114 -29 35 -10 77 -19 93 -19 29 0 30 -1 23 -42 -3 -24 -9 -51 -11 -61 -7 -24 -60 -49 -97 -45 -29 3 -34 -1 -52 -39 -11 -24 -26 -43 -34 -43 -8 0 -32 19 -53 42 -34 37 -41 41 -58 30 -32 -19 -49 -14 -85 25 -33 36 -35 37 -68 25 -39 -14 -67 -16 -67 -3 0 9 173 84 223 96 49 13 28 -4 -28 -21 -60 -19 -95 -48 -79 -64 7 -7 46 2 115 26 57 20 108 39 113 42 18 10 -27 31 -58 26 -28 -4 -29 -4 -7 6 20 9 21 13 10 26 -19 23 -74 12 -186 -37 -92 -41 -130 -69 -118 -88 7 -12 -5 -14 -28 -5 -9 3 -13 13 -10 25 3 10 9 16 14 13 5 -3 22 4 39 16 27 19 109 59 154 74 14 5 16 9 7 20 -22 26 22 27 134 4z m-233 -13 c-30 -14 -67 -34 -83 -46 -23 -16 -29 -17 -29 -5 0 8 -2 21 -5 28 -4 10 13 18 67 30 103 22 110 21 50 -7z m-44 -236 c5 -58 10 -64 33 -43 21 19 21 19 17 -16 -2 -30 0 -35 20 -38 23 -4 29 -16 12 -27 -6 -4 -7 -12 -3 -18 4 -7 -9 0 -28 14 -44 34 -115 126 -123 161 l-6 27 37 -13 c33 -11 38 -18 41 -47z m438 -24 c-26 -33 -83 -72 -92 -62 -3 3 3 23 13 46 14 32 23 41 43 41 14 0 32 4 40 10 25 16 24 2 -4 -35z m-197 -7 l24 -28 -38 0 c-30 0 -36 3 -27 12 7 7 12 21 12 32 0 10 1 17 3 15 1 -2 13 -16 26 -31z m13 -100 c-11 -13 -32 -43 -46 -68 l-25 -44 -10 26 c-13 35 -26 41 -42 22 -11 -14 -10 -18 5 -29 10 -8 15 -18 11 -24 -13 -22 7 -33 27 -14 20 18 20 18 12 -7 -15 -42 -9 -89 14 -113 l22 -23 -32 -16 c-31 -15 -33 -18 -32 -69 l1 -54 54 -7 c103 -12 202 -13 206 -1 5 15 -36 43 -64 43 -18 0 -23 6 -23 24 0 23 -22 51 -32 40 -3 -2 -8 3 -12 12 -5 14 -1 15 41 9 27 -4 55 -11 64 -16 23 -12 49 -81 49 -128 l0 -39 -40 9 c-115 26 -520 41 -615 23 -42 -8 -44 1 -14 64 25 51 54 66 144 77 49 6 58 5 48 -6 -7 -7 -13 -23 -13 -36 0 -13 -6 -23 -14 -23 -7 0 -19 -7 -26 -15 -10 -12 -8 -16 14 -25 14 -5 33 -7 41 -4 8 4 47 7 86 8 71 1 72 1 75 29 4 41 -12 77 -35 77 -11 0 -23 -5 -27 -11 -4 -8 -9 -8 -17 0 -6 6 -20 11 -31 12 -12 1 -2 5 22 11 25 5 45 16 49 26 3 9 12 32 20 51 18 40 12 104 -13 154 -14 27 -15 30 -2 19 23 -18 44 9 28 37 -10 20 -8 21 71 21 l82 0 -21 -22z m33 -378 c-3 -6 -10 -10 -16 -10 -10 0 -12 33 -2 44 9 9 26 -22 18 -34z m-127 -117 c-21 -2 -57 -2 -80 0 -24 2 -7 4 37 4 44 0 63 -2 43 -4z"/>
 <path d="M5613 3315 c-47 -21 -80 -55 -67 -67 8 -9 159 61 159 73 0 21 -40 19 -92 -6z"/>
 <path d="M5482 3038 c-14 -14 -16 -35 -3 -43 14 -8 35 35 24 46 -5 5 -14 4 -21 -3z"/>
 <path d="M3306 3425 c-21 -32 -61 -34 -70 -3 -5 22 -6 22 -23 6 -16 -17 -16 -20 4 -70 11 -29 24 -61 27 -71 8 -24 28 -17 41 13 6 13 22 48 36 77 20 41 23 55 14 63 -9 7 -17 3 -29 -15z"/>
 <path d="M245 3426 c-26 -19 -13 -48 18 -41 13 4 42 0 65 -8 23 -8 45 -11 48 -6 10 16 -27 57 -58 63 -43 9 -52 8 -73 -8z"/>
 <path d="M3353 3418 c-4 -7 -13 -28 -19 -46 -16 -43 0 -51 35 -18 15 14 32 26 38 26 18 0 22 -27 7 -48 -12 -17 -12 -21 0 -32 8 -6 20 -10 28 -9 25 3 39 -1 34 -10 -3 -5 1 -14 8 -20 23 -19 38 17 19 46 -12 18 -13 29 -3 59 8 24 9 39 2 46 -13 13 -32 2 -32 -19 0 -13 -5 -12 -24 6 -13 12 -32 21 -42 20 -11 -2 -24 0 -31 4 -6 4 -15 2 -20 -5z"/>
 <path d="M3596 3408 c-3 -7 -4 -29 -3 -48 0 -20 -3 -42 -8 -49 -5 -10 -1 -20 15 -33 27 -22 39 -23 67 -3 15 11 22 12 25 3 5 -14 23 -17 178 -28 130 -9 172 0 113 22 -18 7 -34 20 -36 30 -4 15 -2 16 14 7 15 -7 21 -6 25 6 8 19 -11 43 -39 48 -12 2 -5 3 15 1 41 -4 58 11 37 31 -26 26 -63 28 -92 5 -30 -24 -33 -43 -13 -82 14 -27 14 -28 -10 -28 -25 0 -25 1 -19 54 4 33 3 56 -3 60 -14 8 -23 -8 -39 -69 l-13 -50 5 52 c8 80 -25 80 -40 1 -4 -22 -13 -38 -21 -38 -16 0 -17 10 -5 63 10 43 -1 57 -28 33 -17 -16 -19 -16 -25 -1 -9 24 -41 14 -41 -12 0 -34 -19 -32 -25 1 -5 31 -27 47 -34 24z"/>
 <path d="M3530 3385 c-20 -52 -7 -102 19 -71 16 19 19 88 4 93 -7 3 -17 -7 -23 -22z"/>
 <path d="M399 3379 c-14 -14 -19 -30 -17 -52 4 -40 32 -44 36 -4 2 18 9 27 21 27 27 0 43 -24 36 -53 -8 -30 8 -43 25 -22 22 26 14 78 -15 103 -32 27 -59 28 -86 1z"/>
 <path d="M4025 3365 c-64 -63 10 -169 77 -109 14 14 20 14 33 4 12 -10 16 -9 22 5 6 16 7 16 15 -4 12 -34 32 -20 40 29 8 49 -5 78 -28 60 -9 -9 -13 -6 -16 12 -6 46 -24 27 -44 -50 -3 -10 -10 -9 -29 5 -29 22 -33 37 -6 28 24 -7 37 11 21 30 -19 23 -58 18 -85 -10z"/>
 <path d="M699 3352 c-10 -29 -11 -30 -40 -15 -17 8 -48 17 -69 20 -49 7 -59 -11 -38 -65 15 -41 41 -49 46 -14 3 20 8 23 47 21 37 -2 42 -5 32 -19 -5 -10 -7 -25 -4 -35 6 -15 17 -16 95 -10 96 8 113 16 104 47 -3 15 -1 19 9 16 8 -3 16 -17 19 -33 6 -37 27 -43 40 -13 16 33 -2 73 -40 93 -39 20 -70 6 -70 -33 0 -26 -2 -27 -44 -24 -45 4 -45 4 -48 45 -4 49 -25 60 -39 19z"/>
 <path d="M971 3352 c-21 -39 -13 -89 16 -112 29 -23 41 -22 57 3 8 12 8 22 -1 36 -11 17 -9 18 28 8 33 -8 38 -13 33 -29 -4 -13 3 -28 23 -48 24 -26 36 -29 84 -30 64 0 96 20 60 39 -11 6 -28 11 -39 11 -28 0 -36 27 -9 34 20 5 20 6 3 25 -28 31 -75 47 -97 33 -15 -10 -25 -8 -51 8 -18 11 -42 20 -53 20 -12 0 -26 5 -32 11 -8 8 -14 6 -22 -9z"/>
 <path d="M4256 3357 c-13 -10 -16 -16 -7 -21 8 -5 7 -13 -4 -29 -17 -25 -20 -63 -5 -72 16 -10 40 14 33 31 -3 8 5 26 18 40 18 19 21 29 13 41 -14 23 -27 26 -48 10z"/>
 <path d="M236 3353 c-13 -13 -5 -43 15 -53 22 -12 49 -7 49 9 0 13 -56 52 -64 44z"/>
 <path d="M2972 3309 c-13 -5 -35 -17 -48 -28 -18 -14 -34 -17 -73 -13 -38 3 -57 0 -83 -16 -18 -11 -50 -25 -71 -32 -45 -14 -97 -56 -97 -77 0 -8 -13 -31 -30 -49 -59 -68 -70 -102 -72 -231 -2 -89 2 -127 13 -153 20 -45 100 -127 142 -146 17 -8 45 -24 60 -37 24 -18 40 -22 100 -21 92 1 170 31 234 88 l49 44 32 -29 c19 -17 44 -29 60 -29 21 0 54 -25 147 -114 66 -63 118 -117 114 -120 -3 -3 -22 0 -42 6 -44 13 -69 -1 -51 -28 11 -19 116 -54 150 -50 31 3 39 12 54 61 7 22 17 46 23 53 7 9 7 16 -1 24 -14 14 -40 -6 -53 -39 -8 -22 -16 -15 -133 99 l-124 123 35 39 c52 57 86 138 95 231 5 44 11 103 14 132 3 29 1 60 -5 72 -16 29 -82 45 -146 33 l-53 -9 32 49 c17 26 39 50 48 53 52 18 153 -107 183 -225 9 -35 23 -76 30 -90 7 -14 13 -34 12 -44 -3 -27 20 -31 32 -7 9 16 6 27 -14 57 -17 24 -25 51 -25 78 0 73 -82 217 -146 256 -46 29 -81 25 -114 -10 l-28 -30 -7 28 c-17 80 -154 137 -243 101z m154 -54 c53 -34 64 -65 48 -143 -5 -27 -11 -31 -58 -40 -60 -12 -68 -9 -60 23 9 37 -5 66 -39 81 -18 7 -45 24 -60 37 l-28 24 24 15 c44 30 129 31 173 3z m-209 -72 c2 -6 -7 -13 -21 -17 -34 -8 -86 -54 -86 -75 0 -28 -106 -37 -139 -13 -13 10 -24 22 -24 27 -1 6 21 27 49 48 48 38 50 38 116 33 40 -3 70 -1 74 5 7 12 26 7 31 -8z m74 -84 c27 -38 16 -52 -31 -39 -19 5 -53 13 -75 18 l-40 8 35 22 c50 31 84 29 111 -9z m-343 -54 c-22 -20 -98 -73 -98 -69 0 10 33 69 48 87 14 16 16 16 34 0 10 -9 17 -17 16 -18z m726 -1 c9 -8 16 -24 16 -35 0 -20 -15 -26 -25 -9 -4 6 -21 2 -45 -10 -22 -11 -41 -20 -42 -20 -2 0 -3 20 -3 45 l0 45 42 0 c24 0 48 -6 57 -16z m-250 -43 c-3 -47 -13 -55 -35 -27 -22 28 -24 42 -6 49 31 13 43 7 41 -22z m119 13 c3 -3 1 -18 -4 -34 -7 -20 -19 -30 -41 -34 -57 -11 -59 -9 -37 34 17 32 27 40 48 40 15 0 30 -3 34 -6z m-533 -11 c-31 -12 -41 -25 -29 -39 6 -8 15 -12 19 -9 4 2 25 -4 46 -14 44 -22 63 -17 39 9 -15 16 -13 18 35 24 28 4 58 3 67 -2 14 -8 12 -12 -16 -26 -17 -9 -36 -14 -41 -11 -5 3 -12 0 -17 -8 -22 -35 -217 -73 -252 -48 -36 24 89 133 149 130 13 -1 13 -1 0 -6z m320 -39 c0 -11 -5 -14 -16 -10 -9 3 -20 6 -25 6 -5 0 -9 5 -9 10 0 6 11 10 25 10 16 0 25 -6 25 -16z m330 -38 c0 -34 -25 -52 -57 -40 -40 14 -38 31 4 52 43 23 53 20 53 -12z m-351 -56 c-13 -35 -36 -39 -70 -10 -21 17 -22 21 -9 30 8 5 32 10 52 10 37 0 37 0 27 -30z m181 3 c49 -22 51 -43 8 -86 l-32 -32 -7 46 c-4 26 -12 56 -18 68 -14 26 -5 27 49 4z m-302 -18 c6 -14 25 -33 42 -44 l31 -18 -31 -13 c-44 -18 -92 -3 -105 34 -8 24 -6 31 14 47 30 25 36 24 49 -6z m-71 -97 c37 -37 81 -39 142 -9 l42 22 34 -28 c43 -37 49 -51 30 -80 -47 -72 -233 -136 -309 -107 -14 5 -13 9 4 31 11 14 20 35 20 47 0 28 -24 62 -48 68 -31 9 -81 -18 -88 -46 -8 -34 -17 -33 -48 5 -39 46 -54 80 -62 140 -7 51 -6 53 11 39 21 -18 120 -16 185 3 l45 13 6 -34 c3 -18 20 -47 36 -64z m255 49 c-3 -31 -7 -35 -18 -26 -18 15 -18 28 3 51 20 23 21 21 15 -25z m283 4 c-9 -47 -47 -120 -80 -154 -32 -31 -33 -31 -59 -12 -17 13 -22 13 -37 -1 -15 -14 -18 -13 -33 8 -24 34 -20 40 35 71 40 22 55 38 72 75 21 46 23 47 65 47 l43 0 -6 -34z m-238 -43 c-2 -13 -4 -5 -4 17 -1 22 1 32 4 23 2 -10 2 -28 0 -40z m-389 -117 c20 -12 10 -46 -15 -49 -14 -2 -23 3 -28 17 -11 35 12 52 43 32z"/>
 <path d="M227 3233 c-16 -15 -5 -34 28 -50 35 -17 55 -56 55 -110 0 -12 10 -48 21 -80 29 -79 113 -162 195 -193 115 -44 282 -33 425 28 94 41 63 67 -40 34 -97 -30 -206 -45 -279 -39 -68 7 -162 44 -200 80 -36 33 -67 104 -81 182 -14 80 -39 126 -76 143 -30 14 -39 15 -48 5z"/>
 <path d="M3677 2739 l-36 -30 -17 26 c-23 35 -49 31 -79 -12 -29 -43 -31 -61 -11 -89 14 -19 15 -19 45 4 35 26 41 27 41 9 0 -8 11 -24 25 -37 24 -23 25 -23 45 -5 11 10 20 28 20 40 0 12 6 41 14 63 21 59 2 72 -47 31z"/>
 <path d="M1660 2690 c-25 -25 -25 -55 0 -105 11 -22 20 -47 20 -57 0 -34 -33 -113 -77 -185 -53 -88 -93 -171 -93 -196 0 -35 29 -73 74 -95 46 -23 145 -39 389 -61 146 -13 157 -21 157 -110 0 -153 44 -214 209 -287 119 -52 165 -82 185 -122 7 -15 18 -75 24 -134 18 -192 72 -262 246 -322 14 -5 16 -9 7 -20 -16 -19 -3 -26 51 -26 33 0 48 -4 48 -13 0 -14 -125 -108 -220 -165 -30 -19 -105 -67 -166 -108 -61 -41 -115 -74 -120 -74 -5 0 -19 -9 -32 -18 -21 -16 -22 -20 -8 -31 13 -11 25 -7 71 21 102 60 122 73 156 98 19 14 63 43 99 65 36 21 95 61 133 88 37 28 70 47 73 44 3 -3 -5 -31 -19 -61 -17 -36 -22 -58 -15 -62 26 -16 72 74 84 165 5 39 10 49 19 41 6 -5 14 -8 17 -5 2 3 15 -17 28 -44 29 -64 25 -92 -38 -223 -71 -150 -73 -156 -69 -233 3 -55 10 -79 30 -112 44 -70 208 -182 307 -209 30 -8 100 -31 155 -50 55 -18 129 -41 165 -49 84 -19 292 -19 390 -1 153 30 211 30 271 5 46 -20 70 -24 159 -23 111 1 96 -3 340 87 73 26 98 31 180 31 52 0 129 -4 170 -8 67 -8 80 -6 124 15 27 12 83 47 125 78 144 105 227 156 371 231 167 86 193 114 224 236 33 132 58 199 102 280 l44 82 93 -44 c50 -24 112 -55 137 -68 46 -24 179 -69 237 -81 40 -8 53 -25 20 -25 -32 0 -55 -26 -39 -42 9 -9 23 -9 60 0 103 27 127 78 72 157 -17 25 -35 43 -41 40 -15 -10 -10 -48 11 -75 29 -38 25 -54 -7 -31 -16 11 -71 32 -123 47 -52 15 -161 58 -242 97 l-147 70 44 56 c25 31 80 91 124 133 132 129 145 166 170 494 14 180 36 233 148 356 24 26 48 59 53 73 17 45 11 115 -21 234 -17 64 -38 140 -46 169 -14 55 -33 72 -57 52 -13 -10 -13 -17 -1 -53 8 -23 21 -69 29 -102 8 -33 24 -94 37 -136 32 -114 24 -149 -56 -240 -36 -39 -79 -100 -96 -135 -33 -66 -31 -57 -57 -385 -11 -146 -35 -192 -173 -334 -161 -168 -266 -346 -312 -535 -23 -90 -41 -135 -69 -171 -7 -9 -71 -46 -143 -82 -126 -64 -217 -122 -394 -247 -113 -81 -158 -94 -254 -74 -44 10 -101 14 -147 12 -73 -5 -91 -10 -349 -102 -40 -15 -92 -29 -115 -32 -22 -3 -50 -7 -61 -9 -11 -2 -39 7 -62 20 -85 47 -173 53 -336 19 -183 -38 -323 -28 -517 36 -63 21 -135 44 -160 50 -88 23 -256 131 -290 187 -45 74 -33 167 39 323 27 58 52 119 56 137 9 47 -12 109 -53 155 -33 37 -37 46 -37 97 0 70 -17 78 -29 14 -5 -26 -10 -49 -11 -50 -4 -7 -193 50 -224 68 -68 38 -96 103 -110 250 -16 169 -44 200 -283 308 -106 48 -118 67 -129 198 -12 159 -36 175 -305 199 -216 19 -293 33 -308 56 -16 27 8 102 66 197 94 157 106 206 67 283 -15 29 -20 53 -16 80 6 46 -5 56 -33 28z"/>
 <path d="M7795 2481 c-7 -12 2 -17 50 -26 89 -16 154 -77 221 -206 24 -46 28 -68 31 -149 l3 -94 79 -73 c108 -99 141 -164 141 -276 0 -92 -14 -263 -35 -422 -8 -60 -19 -150 -25 -198 -16 -130 -17 -132 -102 -158 -40 -13 -79 -29 -87 -36 -23 -20 14 -28 66 -15 74 20 76 18 48 -37 -24 -48 -66 -96 -133 -152 -29 -24 -32 -32 -32 -86 0 -207 -136 -369 -305 -362 -127 5 -150 1 -245 -37 -94 -38 -96 -39 -230 -39 -147 1 -216 17 -302 71 -70 44 -258 81 -251 49 1 -5 41 -20 90 -32 48 -13 99 -30 113 -37 108 -56 139 -69 203 -82 48 -11 107 -14 177 -12 89 4 121 10 212 41 99 35 114 37 205 35 93 -3 102 -1 165 30 118 58 191 170 212 325 l12 92 60 60 c38 38 72 86 94 131 29 60 41 74 70 84 49 17 82 39 75 50 -8 13 -51 13 -73 1 -19 -10 -20 -22 28 304 11 72 25 209 31 306 11 160 11 180 -5 230 -22 66 -77 141 -151 205 l-55 48 0 73 c0 90 -22 152 -92 259 -65 97 -133 144 -209 144 -27 0 -50 -4 -54 -9z"/>
 <path d="M5201 2415 c-44 -47 -61 -60 -61 -47 0 11 -6 25 -14 31 -21 17 -40 -21 -32 -64 10 -51 24 -55 85 -28 45 20 52 27 47 45 -4 17 4 30 30 55 34 31 42 62 18 70 -6 2 -39 -26 -73 -62z"/>
 <path d="M3961 2293 c-32 -26 -20 -43 27 -36 30 5 35 3 25 -8 -7 -7 -13 -23 -13 -36 0 -18 -6 -23 -24 -23 -21 0 -25 6 -28 33 -2 20 -8 32 -18 32 -10 0 -16 -12 -18 -32 -3 -27 -8 -33 -26 -33 -28 0 -54 -26 -40 -40 13 -13 241 -23 248 -11 3 5 -1 14 -9 21 -10 8 -12 17 -6 24 10 13 9 46 -3 64 -5 9 5 12 40 12 46 0 47 0 29 -20 -11 -12 -15 -28 -12 -42 4 -12 1 -28 -5 -35 -8 -9 -6 -14 8 -19 11 -3 30 -10 43 -15 18 -7 28 -6 42 7 18 16 20 16 34 -2 14 -18 16 -18 29 -1 16 20 46 23 46 3 0 -7 7 -19 15 -26 12 -10 16 -8 25 14 8 23 15 26 54 26 25 0 48 5 52 12 10 16 -25 38 -63 38 -30 0 -33 3 -33 29 0 17 -4 32 -8 35 -14 8 -54 -25 -48 -40 9 -24 -28 -16 -39 9 -6 12 -14 22 -20 22 -5 1 -30 12 -55 25 -64 34 -214 42 -249 13z"/>
 <path d="M4407 2301 c-74 -12 -43 -26 73 -32 63 -4 138 -8 165 -10 63 -5 70 11 14 33 -45 17 -172 22 -252 9z"/>
 <path d="M5297 2283 c-16 -8 -25 -19 -20 -23 11 -11 183 -18 189 -9 8 13 -73 49 -108 48 -18 -1 -46 -8 -61 -16z"/>
 <path d="M5822 2290 c-37 -16 -21 -35 29 -35 37 0 44 3 44 20 0 23 -35 30 -73 15z"/>
 <path d="M5945 2288 c-10 -26 -2 -63 15 -63 20 0 24 36 6 60 -13 18 -15 18 -21 3z"/>
 <path d="M4957 2272 c-24 -26 -13 -32 59 -32 53 0 62 -3 60 -17 -1 -13 5 -17 22 -15 20 3 22 0 17 -25 -4 -15 -8 -33 -10 -40 -2 -7 1 -15 7 -19 19 -12 38 28 38 78 0 48 0 49 -46 68 -59 26 -125 26 -147 2z"/>
 <path d="M3350 2255 c-7 -8 -10 -21 -7 -29 5 -11 23 -13 89 -9 46 2 89 7 97 9 26 9 -3 23 -69 33 -85 14 -95 14 -110 -4z"/>
 <path d="M4857 2222 c-9 -23 -16 -29 -27 -22 -8 5 -17 7 -21 4 -4 -2 -9 6 -12 17 -8 32 -27 13 -27 -28 0 -31 -2 -34 -15 -23 -22 19 -44 -3 -29 -28 13 -20 91 -29 107 -13 8 8 16 6 28 -5 37 -33 96 6 71 46 -9 14 -8 20 5 24 12 5 13 9 3 21 -7 8 -20 15 -29 15 -9 0 -22 5 -29 12 -9 9 -15 4 -25 -20z"/>
 <path d="M4989 2217 c-35 -18 -35 -48 0 -81 24 -23 32 -26 50 -17 25 14 44 48 37 66 -3 8 -18 21 -34 29 -23 12 -33 12 -53 3z"/>
 <path d="M5293 2206 c-32 -28 -27 -44 21 -80 22 -17 42 -21 107 -21 86 0 103 11 52 35 -27 12 -33 21 -33 47 0 36 -18 53 -34 32 -9 -13 -15 -13 -36 -2 -35 18 -45 16 -77 -11z m94 -54 c-11 -2 -31 2 -45 10 l-25 13 39 5 c29 4 41 1 45 -10 4 -10 -1 -16 -14 -18z"/>
 <path d="M3003 2204 c-9 -23 11 -38 26 -20 13 16 7 36 -10 36 -5 0 -12 -7 -16 -16z"/>
 <path d="M5184 2210 c-15 -6 -23 -20 -26 -47 -3 -21 -3 -41 -1 -45 6 -11 65 -10 83 2 19 12 14 71 -8 88 -18 14 -19 14 -48 2z"/>
 <path d="M3049 2168 c0 -1 -2 -23 -5 -48 -4 -54 -12 -114 -15 -117 -1 -2 -3 -7 -4 -13 -1 -5 -4 -13 -5 -17 -2 -5 -4 -12 -5 -18 -1 -5 -5 -17 -8 -25 -28 -71 -51 -246 -33 -252 10 -3 52 178 60 257 2 28 5 51 7 53 1 1 2 5 4 10 1 4 8 21 15 37 17 40 19 127 3 132 -7 3 -13 3 -14 1z"/>
 <path d="M5957 2153 c-14 -13 -8 -170 6 -182 22 -18 27 -2 27 84 0 57 -4 86 -13 94 -8 6 -17 8 -20 4z"/>
 <path d="M925 2105 c-111 -30 -322 -135 -385 -192 -62 -55 -102 -129 -94 -171 3 -16 22 -46 41 -67 29 -32 33 -41 24 -59 -5 -12 -71 -86 -146 -166 -162 -172 -200 -220 -254 -322 -39 -73 -51 -121 -33 -132 5 -3 28 32 52 77 55 105 135 208 299 380 72 76 134 149 137 164 6 22 0 32 -42 68 l-48 42 12 39 c17 59 66 111 164 175 122 80 230 120 338 126 94 6 153 -6 194 -38 32 -26 57 -81 53 -122 -2 -36 17 -47 33 -17 9 16 8 33 -4 75 -37 124 -180 184 -341 140z"/>
 <path d="M4637 2093 c-21 -15 -40 -37 -43 -49 -3 -12 -12 -25 -20 -28 -8 -3 -14 -18 -15 -33 -2 -89 -39 -72 -43 19 -3 72 -28 117 -53 96 -16 -13 -18 -183 -3 -193 6 -3 10 -41 10 -83 -1 -57 -3 -72 -11 -59 -5 9 -16 17 -23 17 -20 0 -106 -79 -106 -98 -1 -24 -25 -53 -36 -42 -5 4 -34 10 -64 11 -30 1 -60 4 -66 6 -14 5 2 134 18 145 7 4 52 8 100 8 48 0 89 3 91 8 3 4 6 56 8 117 l4 109 -95 24 c-84 22 -124 25 -347 29 -228 4 -254 3 -278 -13 -24 -16 -25 -19 -11 -29 16 -12 23 -71 7 -61 -13 9 -368 -22 -389 -33 -24 -13 -36 -79 -27 -156 6 -47 5 -55 -10 -55 -9 0 -30 -13 -46 -30 -28 -28 -30 -34 -27 -96 1 -36 8 -69 14 -74 6 -6 24 -6 44 0 18 5 38 6 44 3 6 -4 20 -7 31 -8 16 0 21 -8 23 -37 2 -20 9 -41 16 -47 19 -16 66 3 66 27 0 10 14 31 31 48 36 34 49 57 60 102 6 28 4 35 -16 48 -12 8 -29 12 -38 8 -21 -8 -33 54 -20 99 7 27 16 34 53 44 25 6 80 12 122 12 70 1 79 -1 103 -25 27 -26 28 -27 141 -22 l115 5 -7 -31 c-4 -17 -7 -53 -6 -79 1 -47 0 -48 -26 -43 -15 3 -56 6 -92 8 l-65 3 -16 -88 c-9 -48 -19 -90 -22 -93 -2 -2 -10 9 -17 25 -14 34 -46 66 -53 54 -8 -14 -17 -66 -27 -161 -5 -54 -16 -104 -25 -118 -16 -25 -13 -44 7 -44 5 0 32 18 59 41 l49 41 0 -49 c0 -26 -7 -69 -14 -95 -19 -62 -7 -73 72 -64 77 9 450 8 464 0 6 -4 28 -7 47 -7 35 0 36 1 37 39 1 64 15 144 25 144 5 0 20 -18 34 -41 24 -37 57 -50 45 -18 -3 8 -5 80 -6 162 0 172 -8 192 -55 139 l-29 -32 0 25 c0 17 18 43 57 82 32 32 54 52 50 46 -13 -21 11 -87 40 -115 21 -19 39 -26 70 -26 23 -1 46 5 52 11 13 17 -4 92 -28 126 l-18 25 58 49 c33 27 59 53 59 58 0 5 7 9 17 9 14 0 15 -2 1 -17 -8 -10 -18 -37 -22 -61 -6 -42 -5 -44 24 -55 25 -10 30 -16 25 -34 -4 -17 4 -33 29 -60 l33 -37 139 2 c77 2 158 5 180 8 56 8 116 -20 174 -80 24 -25 40 -46 36 -46 -5 0 -3 -7 4 -15 18 -22 65 -18 96 8 27 24 27 24 8 43 -60 60 -69 102 -27 132 25 18 26 22 15 47 -12 25 -11 26 15 25 44 -3 50 -1 80 24 27 22 30 23 49 7 28 -22 35 -47 23 -75 -15 -33 13 -89 58 -117 29 -18 41 -20 75 -13 58 13 67 33 41 87 l-21 44 54 54 c30 30 69 77 86 104 17 28 39 62 49 77 24 34 23 47 -1 78 -16 20 -22 23 -37 14 -10 -6 -18 -20 -18 -30 0 -11 -4 -25 -8 -31 -5 -7 -6 -17 -2 -23 7 -11 -16 -50 -30 -50 -5 0 -10 21 -10 46 -1 38 -6 51 -28 70 -34 29 -41 30 -68 3 -22 -22 -21 -44 2 -44 8 0 19 -18 25 -44 11 -40 10 -48 -9 -73 -12 -16 -32 -35 -45 -44 -22 -14 -25 -13 -58 15 -41 37 -67 39 -88 9 -12 -17 -16 -18 -16 -6 0 28 -26 39 -93 40 -62 1 -65 2 -71 28 -12 63 -101 122 -157 105 -20 -7 -89 -101 -89 -122 0 -14 -28 -17 -47 -5 -6 4 -11 23 -11 41 1 27 -6 41 -36 68 -33 30 -41 33 -92 32 -40 -2 -58 -7 -62 -18 -4 -9 -14 -16 -22 -16 -8 0 -18 -11 -21 -25 -13 -53 -22 -68 -43 -72 -38 -8 -45 0 -33 33 10 26 9 36 -11 69 -27 48 -28 72 -1 88 16 10 19 21 17 55 -3 36 -6 42 -25 41 -12 0 -20 3 -17 8 6 9 -13 38 -25 38 -3 0 -23 -12 -44 -27z m-349 -63 c63 -11 72 -15 67 -31 -3 -10 -6 -49 -6 -87 l0 -70 -31 8 c-16 5 -157 7 -313 5 l-283 -4 -5 37 c-3 20 -9 66 -13 101 l-7 63 259 -5 c142 -2 292 -10 332 -17z m377 -9 c7 -12 -12 -24 -25 -16 -11 7 -4 25 10 25 5 0 11 -4 15 -9z m-29 -109 c7 -26 12 -47 11 -47 -1 0 -16 -8 -34 -17 l-32 -16 -3 26 c-4 37 24 123 37 111 5 -5 15 -30 21 -57z m-956 11 l0 -28 -93 -1 c-99 -1 -167 -15 -187 -39 -16 -19 -24 -122 -13 -165 8 -28 14 -35 37 -37 41 -3 42 -8 11 -54 -25 -36 -30 -38 -36 -22 -4 11 -21 32 -39 46 -36 31 -102 37 -136 12 -23 -16 -34 -11 -34 15 0 24 25 42 68 49 35 6 37 9 40 45 2 21 -1 43 -7 49 -6 6 -11 36 -11 68 l0 56 48 7 c26 3 92 9 147 13 55 3 102 7 104 9 2 2 26 4 53 4 46 0 48 -1 48 -27z m860 -117 c0 -77 -6 -106 -21 -106 -10 0 -12 163 -2 173 17 18 23 1 23 -67z m75 -31 c-16 -13 -32 -22 -35 -19 -3 3 8 16 25 29 16 13 32 22 35 19 3 -3 -8 -16 -25 -29z m-482 1 c-5 -22 -8 -23 -33 -14 -19 6 -41 6 -67 -1 -51 -14 -53 -14 -53 8 0 22 18 28 101 30 54 1 56 0 52 -23z m1649 -53 c-32 -44 -91 -97 -99 -89 -7 7 98 116 112 116 3 0 -3 -12 -13 -27z m-972 -3 c0 -5 -20 -10 -45 -10 -25 0 -45 5 -45 10 0 6 20 10 45 10 25 0 45 -4 45 -10z m283 -7 c-18 -2 -48 -2 -65 0 -18 2 -4 4 32 4 36 0 50 -2 33 -4z m-1018 -13 c-3 -6 6 -15 22 -22 l28 -11 -40 -8 c-22 -4 -56 -8 -76 -8 -33 -1 -36 1 -32 23 4 19 13 26 37 29 59 7 67 7 61 -3z m1555 -41 c0 -5 -7 -9 -15 -9 -9 0 -15 9 -15 21 0 18 2 19 15 9 8 -7 15 -16 15 -21z m-1103 -17 c7 -4 19 -24 27 -44 14 -32 14 -37 0 -42 -35 -13 -102 66 -72 85 16 11 30 11 45 1z m337 -22 c24 0 79 5 121 11 91 12 172 -1 195 -32 14 -17 20 -18 44 -10 46 18 51 14 53 -40 l2 -52 -32 31 c-58 56 -82 61 -277 53 -168 -7 -176 -7 -198 13 -21 19 -22 21 -6 33 11 8 22 9 35 3 10 -6 38 -10 63 -10z m-659 -10 l80 0 -1 -173 c0 -94 -4 -197 -8 -227 l-7 -55 -268 0 -268 0 8 30 c5 16 9 62 9 100 0 122 29 310 51 325 4 3 78 4 166 3 87 -1 194 -3 238 -3z m1490 -25 c29 -28 32 -50 9 -59 -29 -11 -51 -6 -77 18 -37 34 -25 60 31 65 7 0 24 -10 37 -24z m-1981 -128 c4 4 4 -13 0 -37 -4 -28 -15 -51 -28 -62 -11 -9 -22 -15 -24 -14 -1 2 0 33 4 70 6 62 8 65 24 51 9 -8 20 -12 24 -8z m656 -18 c0 -14 -3 -47 -6 -73 -6 -37 -9 -44 -20 -35 -9 7 -14 33 -14 73 0 55 2 62 20 62 15 0 20 -7 20 -27z"/>
 <path d="M3810 1566 c-11 -31 -6 -46 16 -46 16 0 19 -21 4 -36 -23 -23 20 -32 180 -38 91 -4 173 -8 183 -9 15 -2 18 7 21 61 2 42 -2 66 -11 73 -7 7 -88 13 -197 16 l-185 6 -11 -27z m348 -33 c-10 -2 -28 -2 -40 0 -13 2 -5 4 17 4 22 1 32 -1 23 -4z m-133 -34 c28 -6 13 -7 -50 -4 -49 3 -91 5 -92 5 -2 0 -3 4 -3 10 0 9 72 4 145 -11z m144 -15 c2 -2 -17 -4 -43 -4 -26 0 -45 4 -42 9 5 8 76 4 85 -5z"/>
 <path d="M3915 1379 c-22 -5 -53 -11 -70 -12 -29 -2 -30 -5 -38 -61 -7 -52 -6 -62 11 -79 23 -23 106 -26 149 -5 25 12 28 20 31 66 3 51 -16 104 -36 101 -4 -1 -25 -5 -47 -10z m-10 -59 c-3 -5 -18 -10 -33 -9 -24 0 -25 1 -7 9 28 12 47 12 40 0z m55 0 c0 -13 -11 -13 -30 0 -12 8 -11 10 8 10 12 0 22 -4 22 -10z m-65 -60 c4 -6 -7 -10 -25 -10 -18 0 -29 4 -25 10 3 6 15 10 25 10 10 0 22 -4 25 -10z m65 0 c0 -5 -6 -10 -14 -10 -8 0 -18 5 -21 10 -3 6 3 10 14 10 12 0 21 -4 21 -10z"/>
 <path d="M4052 1368 c-19 -19 -15 -109 6 -136 14 -18 31 -24 79 -28 80 -7 99 4 107 59 8 50 -6 94 -31 104 -9 4 -41 1 -71 -5 -47 -10 -57 -9 -66 4 -9 12 -14 12 -24 2z m158 -61 c0 -8 -21 -13 -65 -15 -47 -1 -65 1 -65 10 0 9 21 14 65 15 46 2 65 -1 65 -10z"/>
 <path d="M5094 2096 c-8 -21 3 -49 16 -41 5 3 10 15 10 25 0 25 -18 36 -26 16z"/>
 <path d="M7865 2029 c-4 -6 -4 -30 -1 -53 7 -46 -3 -64 -37 -63 -15 0 -18 6 -13 32 9 45 -16 65 -38 33 -20 -28 -21 -92 -1 -108 16 -13 133 -6 149 10 7 7 6 22 -2 43 -7 18 -12 44 -12 56 0 44 -29 76 -45 50z"/>
 <path d="M7454 2005 c-5 -12 -10 -13 -20 -4 -22 18 -34 1 -34 -50 0 -37 5 -52 23 -69 28 -27 61 -28 85 -4 9 9 24 17 32 17 22 0 35 75 16 94 -12 11 -18 12 -29 2 -12 -9 -16 -7 -20 9 -6 24 -45 27 -53 5z"/>
 <path d="M7063 1991 c-4 -14 -9 -18 -17 -12 -6 5 -26 12 -44 16 -27 6 -38 3 -58 -16 -31 -29 -30 -64 2 -106 29 -39 69 -43 69 -8 0 16 7 20 35 20 19 1 45 -5 57 -13 21 -13 24 -12 44 22 24 41 29 45 22 16 -11 -42 54 -75 88 -44 26 23 24 49 -6 72 -14 11 -25 29 -25 40 0 27 -20 39 -34 21 -6 -8 -18 -13 -27 -11 -9 1 -22 -4 -29 -13 -16 -19 -40 -20 -40 -1 0 7 -7 19 -16 26 -13 11 -16 10 -21 -9z m6 -75 c1 -4 -10 -1 -23 7 -21 14 -25 14 -45 -6 -18 -19 -23 -20 -31 -7 -13 21 6 38 48 42 35 3 49 -7 51 -36z"/>
 <path d="M7275 1991 c-3 -6 0 -31 6 -56 9 -35 18 -49 37 -56 31 -12 45 -1 62 51 17 52 4 71 -36 50 -23 -13 -27 -12 -35 3 -11 19 -25 22 -34 8z"/>
 <path d="M7593 1984 c-9 -23 11 -79 27 -79 8 0 16 10 18 21 5 33 47 37 61 6 9 -18 9 -28 -1 -39 -10 -12 -9 -18 7 -29 25 -19 44 -1 28 25 -9 15 -9 20 1 24 17 7 9 62 -11 79 -12 10 -18 9 -28 -5 -11 -15 -14 -16 -25 -2 -16 20 -69 20 -77 -1z"/>
 <path d="M8735 1921 c-8 -16 -42 -46 -75 -66 -65 -39 -81 -68 -61 -111 6 -13 22 -29 36 -34 l25 -9 -21 -36 c-26 -43 -35 -136 -19 -193 13 -50 88 -132 120 -132 19 0 19 -2 -7 -54 -18 -37 -34 -57 -50 -61 -31 -7 -40 -31 -19 -54 15 -16 14 -19 -7 -38 -12 -12 -31 -23 -41 -25 -24 -4 -40 -55 -27 -83 15 -32 29 -183 25 -267 -4 -69 -2 -80 17 -99 20 -20 48 -21 109 -3 13 3 15 -3 13 -28 -5 -42 29 -98 58 -98 33 0 89 30 111 61 l21 28 39 -32 c34 -27 48 -32 95 -32 43 0 58 4 67 18 9 15 5 24 -30 57 l-41 38 71 70 c39 38 81 75 94 82 18 9 22 17 17 38 -8 39 -9 312 -1 349 5 23 15 34 37 42 37 13 36 20 -2 54 -30 26 -31 28 -13 41 17 13 16 15 -14 33 l-32 20 31 29 c65 62 96 144 54 144 -8 0 -15 6 -15 13 0 15 -65 80 -95 94 -51 25 -87 24 -140 -6 l-51 -29 -28 35 c-16 19 -46 43 -68 53 -33 15 -36 19 -23 30 32 27 10 97 -46 144 -19 16 -38 24 -49 21 -11 -3 -20 0 -24 10 -9 23 -24 18 -41 -14z m59 -38 c4 -5 12 -9 17 -9 5 -1 13 -2 19 -3 13 -1 38 -53 33 -68 -6 -15 -69 -17 -78 -3 -11 19 -41 10 -70 -20 -33 -34 -75 -41 -75 -12 0 11 19 31 48 50 26 17 56 40 66 51 21 23 28 25 40 14z m149 -223 c20 -23 27 -41 27 -70 0 -22 -4 -40 -9 -40 -4 0 -44 -31 -88 -69 -72 -63 -82 -68 -96 -54 -20 20 -36 9 -30 -20 3 -18 2 -17 -12 6 -10 17 -22 26 -31 23 -25 -10 -47 50 -40 112 10 82 28 118 68 130 54 17 80 20 133 16 40 -4 56 -11 78 -34z m264 -37 c22 -10 41 -29 49 -49 18 -42 17 -45 -1 -37 -9 3 -24 -2 -35 -12 -16 -14 -23 -15 -34 -6 -8 7 -20 10 -26 6 -15 -9 -12 -33 4 -42 12 -7 10 -13 -9 -35 l-22 -26 -52 47 c-46 43 -51 50 -45 79 4 17 13 37 22 44 13 11 14 10 4 -8 -6 -12 -8 -24 -5 -28 4 -4 7 -18 8 -33 0 -32 29 -53 46 -36 10 10 9 17 -5 32 -16 17 -16 20 -1 35 19 19 48 21 77 5 14 -8 23 -8 31 0 14 14 -6 37 -52 61 -32 17 -33 19 -13 20 13 0 40 -8 59 -17z m-160 -221 c15 -5 36 -13 47 -16 18 -6 18 -7 1 -26 -14 -15 -22 -17 -37 -9 -11 6 -31 9 -46 8 -15 -1 -35 1 -44 5 -10 5 -27 1 -43 -10 -14 -9 -29 -13 -33 -9 -4 4 0 10 8 13 8 3 33 24 55 46 35 36 41 39 52 25 7 -9 25 -21 40 -27z m143 -49 c0 -16 6 -40 14 -55 9 -18 10 -25 3 -22 -19 8 -56 93 -43 98 22 9 26 6 26 -21z m-319 -16 c-8 -10 -6 -23 9 -52 24 -46 23 -45 8 -45 -7 0 -22 19 -32 43 -11 23 -21 45 -23 49 -2 3 4 8 14 11 32 8 36 7 24 -6z m279 -39 c0 -5 -4 -8 -10 -8 -5 0 -10 10 -10 23 0 18 2 19 10 7 5 -8 10 -18 10 -22z m-70 2 c0 -16 -7 -20 -30 -20 -39 0 -41 27 -2 33 15 2 28 5 30 6 1 0 2 -8 2 -19z m-250 -62 c0 -5 -15 -8 -34 -8 l-34 0 16 41 16 41 17 -34 c10 -18 18 -36 19 -40z m150 47 c0 -8 -4 -17 -10 -20 -6 -4 -10 5 -10 20 0 15 4 24 10 20 6 -3 10 -12 10 -20z m226 -239 l1 -184 -97 -1 -97 -1 -6 73 c-2 39 -3 75 -1 79 2 3 35 9 72 13 92 9 98 11 81 31 -11 14 -26 15 -88 10 l-74 -6 6 77 c3 46 11 79 19 84 7 5 51 9 98 9 l85 0 1 -184z m-248 9 c-2 -1 -47 -5 -101 -9 l-98 -6 2 70 2 70 46 0 c25 0 69 6 96 13 l50 13 3 -74 c2 -41 2 -76 0 -77z m-252 -23 c-3 -3 -15 3 -26 13 -19 17 -20 17 -29 -6 -8 -20 -10 -21 -10 -4 -1 10 14 34 32 53 l32 33 3 -41 c2 -23 1 -45 -2 -48z m255 -59 c1 -21 2 -57 3 -80 0 -22 -3 -39 -7 -36 -5 3 -40 5 -78 5 -86 -1 -109 15 -116 80 l-5 46 53 6 c30 3 68 8 84 9 67 8 65 9 66 -30z m-238 -63 c6 -51 5 -66 -8 -79 -13 -14 -15 -11 -16 29 -1 25 -3 62 -4 83 -4 63 19 36 28 -33z m159 -114 c4 -6 6 -11 5 -12 -1 -1 -37 -5 -80 -9 -69 -6 -76 -5 -71 10 4 9 16 20 28 25 26 10 109 1 118 -14z m-147 -87 c-51 -8 -61 -7 -52 8 3 5 27 6 54 4 l48 -5 -50 -7z m312 -76 l58 -46 -40 7 c-38 7 -95 52 -95 76 0 19 21 9 77 -37z m-137 30 c0 -19 -57 -73 -82 -79 -25 -6 -28 -3 -28 21 0 46 15 61 64 64 25 1 46 -2 46 -6z"/>
 <path d="M8715 1625 c-23 -29 -26 -41 -22 -86 6 -60 19 -78 42 -59 20 17 19 29 -4 38 -18 7 -17 9 6 45 32 50 49 55 96 28 28 -16 42 -20 50 -12 23 23 -57 81 -112 81 -22 0 -37 -9 -56 -35z"/>
 <path d="M8775 1510 c-4 -6 -1 -17 5 -26 10 -11 16 -12 26 -3 11 9 11 15 3 25 -14 17 -25 18 -34 4z"/>
 <path d="M9103 1880 c-89 -68 -97 -98 -41 -145 33 -28 75 -32 104 -10 10 8 39 15 65 15 89 0 92 41 7 121 -35 32 -67 58 -73 58 -5 0 -33 -18 -62 -39z m109 -50 c41 -27 44 -43 9 -48 -13 -2 -29 5 -40 19 -20 25 -45 18 -36 -12 5 -14 0 -20 -20 -25 -16 -4 -31 -2 -38 5 -9 9 -2 21 31 52 23 22 46 39 50 37 4 -2 24 -14 44 -28z"/>
 <path d="M7524 1869 c-3 -6 1 -18 9 -27 13 -13 19 -13 32 -2 12 10 13 16 4 26 -14 17 -35 18 -45 3z"/>
 <path d="M5967 1844 c-4 -4 -7 -57 -7 -118 0 -60 -5 -160 -11 -220 -12 -113 -4 -217 16 -216 6 0 11 44 12 107 1 60 6 142 12 183 5 41 8 115 6 164 -3 83 -12 115 -28 100z"/>
 <path d="M7222 1792 c-27 -25 -42 -48 -42 -63 0 -13 -7 -37 -15 -53 -15 -28 -14 -30 22 -67 41 -42 84 -64 107 -56 14 6 26 -30 26 -79 0 -18 -6 -23 -32 -26 -18 -2 -53 0 -78 3 -25 4 -49 5 -53 2 -5 -3 -6 -46 -2 -95 l7 -89 -122 2 c-77 1 -126 -3 -133 -10 -8 -8 -7 -38 1 -113 12 -98 11 -102 -9 -124 -11 -12 -23 -40 -26 -61 -4 -32 -1 -45 20 -68 l25 -29 30 32 c16 17 35 32 41 32 6 0 22 -18 36 -41 15 -22 31 -39 38 -36 19 6 33 152 17 172 -7 9 -19 14 -27 11 -10 -4 -13 9 -13 54 l0 60 38 0 c41 0 52 -6 68 -34 9 -17 23 -20 95 -22 46 -2 89 -4 94 -5 10 -2 12 -17 17 -131 3 -67 2 -68 -22 -68 -14 0 -47 -6 -75 -13 l-50 -13 0 -84 0 -84 -45 -23 c-24 -12 -45 -21 -46 -20 -1 1 -5 14 -9 30 -6 24 -4 27 18 27 51 0 40 45 -13 55 -50 10 -63 -35 -35 -115 25 -71 31 -74 81 -39 l44 30 0 -52 c0 -37 -5 -55 -17 -64 -9 -7 -14 -19 -10 -28 5 -14 36 -16 235 -17 247 -1 290 6 272 39 -15 29 -13 94 3 88 47 -17 57 -18 63 -2 4 9 2 21 -5 28 -6 6 -11 34 -11 63 0 57 -16 80 -50 71 -23 -6 -24 0 -9 62 13 58 -2 75 -70 75 l-50 0 0 73 0 73 43 0 c85 0 138 12 144 32 3 12 8 15 16 10 6 -5 46 -6 90 -1 44 4 89 4 102 -1 15 -6 26 -5 30 1 7 12 6 202 -2 223 -3 8 -1 17 5 21 6 3 11 17 11 30 0 16 7 25 25 29 41 10 58 48 52 112 -8 81 -19 86 -68 31 -48 -55 -79 -62 -79 -18 0 16 -6 34 -14 40 -12 10 -18 8 -30 -11 -21 -32 -31 -85 -19 -100 6 -7 13 -44 16 -83 3 -38 8 -77 12 -86 5 -14 -5 -17 -57 -23 -35 -4 -73 -10 -86 -13 -22 -5 -22 -5 -16 86 6 98 -4 133 -32 110 -16 -13 -19 -222 -5 -295 l8 -42 -36 -6 c-54 -9 -126 -7 -136 3 -6 5 -37 16 -70 25 -57 15 -60 14 -81 -5 -18 -17 -23 -18 -33 -5 -14 16 -114 41 -135 33 -9 -4 -12 26 -11 124 l0 129 135 2 c74 0 180 2 235 2 93 1 100 3 100 21 0 15 -10 22 -42 29 -39 9 -43 13 -43 40 0 17 -3 42 -6 56 -6 21 -4 23 7 13 24 -24 82 -15 127 18 30 22 40 35 33 43 -6 7 -13 32 -17 56 -5 31 -18 54 -44 82 -48 48 -81 50 -122 6 -39 -41 -72 -58 -117 -58 -32 0 -39 5 -56 36 -24 45 -70 84 -99 84 -13 0 -41 -17 -64 -38z m132 -83 c-7 -12 -45 -18 -37 -6 17 32 26 38 34 25 4 -6 6 -15 3 -19z m260 22 c3 -5 -1 -11 -9 -15 -9 -3 -15 0 -15 9 0 16 16 20 24 6z m-321 -56 c-5 -13 -23 -22 -23 -11 0 15 14 35 21 31 4 -3 6 -12 2 -20z m397 -25 c0 -20 -37 -66 -46 -57 -8 8 24 77 35 77 6 0 11 -9 11 -20z m-295 -17 c-2 -16 -7 -63 -11 -105 -10 -135 -30 -81 -28 75 1 35 15 56 36 57 4 0 6 -12 3 -27z m67 -72 c-3 -79 -6 -101 -19 -105 -14 -6 -15 4 -9 90 4 53 9 101 12 105 15 24 19 0 16 -90z m70 -43 c4 -51 2 -58 -14 -58 -20 0 -23 25 -11 120 6 50 7 52 14 25 4 -16 9 -56 11 -87z m495 -63 c-4 -8 -16 -15 -28 -15 -21 0 -21 0 2 19 26 21 35 20 26 -4z m-86 -52 c-9 -54 -30 -54 -28 0 2 35 5 43 18 40 12 -3 14 -13 10 -40z m-1 -212 l0 -49 -87 -6 c-49 -4 -95 -9 -104 -12 -13 -4 -18 4 -21 30 l-4 35 76 16 c61 14 122 29 138 34 1 1 2 -21 2 -48z m-790 7 c0 -17 -3 -19 -12 -10 -16 16 -125 16 -134 0 -11 -18 -14 -131 -5 -165 5 -17 14 -27 24 -27 12 1 17 -6 17 -24 0 -24 -1 -24 -18 -9 -10 10 -25 17 -34 17 -11 0 -13 8 -10 30 2 17 -1 37 -8 44 -6 8 -14 49 -17 90 l-6 76 102 0 c97 0 101 -1 101 -22z m321 -130 c35 -10 39 -14 39 -45 0 -31 -2 -33 -27 -27 -59 14 -93 33 -93 52 0 35 18 40 81 20z m-513 -92 c-2 -1 -13 -10 -26 -20 l-22 -19 11 32 c9 26 14 29 25 20 8 -7 13 -12 12 -13z m510 -26 c26 -6 42 -17 45 -30 5 -18 0 -20 -53 -20 -33 0 -62 5 -65 11 -11 18 4 61 20 55 7 -2 32 -10 53 -16z m157 -142 c-4 -29 -2 -104 2 -165 l8 -113 -50 0 -50 1 33 14 c41 18 49 38 32 84 -7 20 -15 47 -17 61 -2 14 -6 45 -9 70 -10 72 -13 74 -139 66 -60 -4 -123 -8 -140 -9 -29 -2 -30 -3 -31 -57 0 -30 3 -60 7 -65 5 -6 -1 -16 -12 -23 -19 -12 -20 -10 -17 70 l3 82 35 8 c29 6 188 20 323 27 27 1 27 1 22 -51z m65 -119 c0 -31 -14 -39 -24 -13 -11 30 -7 54 9 48 9 -4 15 -19 15 -35z m-252 -18 c-8 -14 -9 -23 -1 -33 6 -7 14 -29 18 -48 4 -19 12 -41 18 -48 9 -11 3 -13 -28 -10 l-39 3 3 63 c1 38 -2 69 -9 78 -10 12 -7 14 19 14 28 0 30 -2 19 -19z m124 -46 c14 -30 10 -34 -36 -42 -30 -5 -36 -3 -36 12 0 14 3 15 14 6 17 -14 41 11 32 34 -9 26 14 17 26 -10z m-287 -75 c18 -19 17 -20 -8 -18 -26 2 -27 5 -26 53 1 46 2 47 9 17 4 -18 16 -42 25 -52z m95 43 c0 -8 -15 -13 -40 -13 -36 0 -49 8 -35 22 11 10 75 3 75 -9z"/>
 <path d="M1750 1705 c-6 -8 -22 -13 -33 -12 -18 2 -22 -5 -27 -38 -9 -66 1 -89 43 -99 44 -11 62 2 71 49 3 17 8 40 11 52 5 14 0 28 -14 42 -25 25 -34 26 -51 6z m12 -46 c-26 -10 -29 -34 -4 -48 15 -9 15 -10 -5 -11 -20 0 -23 5 -23 39 0 36 1 38 27 33 26 -5 26 -5 5 -13z"/>
 <path d="M1307 1694 c-4 -4 -7 -18 -7 -30 0 -13 -5 -26 -10 -29 -7 -4 -7 -13 0 -26 12 -21 1 -26 -18 -7 -9 9 -15 9 -24 0 -42 -42 80 -72 133 -33 24 18 29 18 39 6 24 -29 100 -11 100 23 0 10 -5 23 -12 30 -9 9 -8 12 8 12 11 0 26 -13 36 -30 28 -48 98 -35 98 19 0 47 -59 84 -90 56 -14 -13 -22 -14 -44 -4 -19 9 -32 9 -51 1 -16 -7 -26 -8 -31 -1 -7 12 -34 -8 -34 -25 0 -23 -59 -6 -62 17 -3 21 -19 32 -31 21z"/>
 <path d="M1841 1686 c-15 -18 -10 -101 7 -118 19 -19 34 2 27 38 -5 31 -4 34 18 34 28 0 44 -35 20 -44 -24 -9 -10 -39 21 -47 33 -9 60 6 52 28 -3 7 -2 13 3 13 5 0 11 -9 14 -20 7 -25 33 -26 49 -1 11 18 12 18 28 -2 18 -22 40 -16 40 11 0 10 7 27 15 39 13 18 13 22 0 33 -17 14 -35 5 -35 -17 0 -13 -3 -13 -15 -3 -8 7 -22 10 -31 6 -12 -4 -14 -1 -9 13 8 26 -10 35 -70 38 -27 1 -66 5 -85 8 -27 5 -39 3 -49 -9z"/>
 <path d="M2161 1626 c-28 -44 -25 -91 4 -91 13 0 20 7 20 20 1 11 7 33 15 48 12 24 12 30 -2 43 -14 14 -18 12 -37 -20z"/>
 <path d="M9524 1633 c-60 -65 -64 -96 -30 -293 9 -52 16 -116 16 -141 0 -51 7 -64 27 -48 18 16 17 136 -2 236 -23 119 -20 161 14 215 28 43 30 58 9 58 -5 0 -20 -12 -34 -27z"/>
 <path d="M1505 1520 c-13 -14 -31 -20 -61 -20 -55 0 -75 -27 -49 -66 9 -14 23 -28 31 -31 24 -9 16 -21 -18 -28 -59 -13 -98 -67 -77 -107 14 -26 68 -48 121 -48 l43 -1 -54 -50 c-58 -54 -58 -55 -48 -164 4 -47 9 -61 24 -64 10 -2 29 -11 43 -21 14 -10 56 -32 94 -49 62 -29 77 -32 177 -32 67 -1 109 -5 109 -12 0 -6 -21 -8 -60 -4 -49 6 -67 3 -99 -13 -21 -12 -74 -25 -119 -30 -44 -5 -95 -15 -114 -23 -37 -15 -88 -70 -88 -93 0 -8 -10 -14 -23 -14 -36 0 -120 -30 -142 -51 -34 -33 -6 -41 65 -19 36 11 77 20 91 20 31 0 46 15 51 50 3 24 69 78 92 76 37 -2 158 19 196 35 55 22 70 24 94 14 10 -5 45 -3 80 4 56 11 67 10 118 -9 36 -13 65 -32 81 -53 16 -21 41 -38 69 -47 83 -26 134 -82 152 -166 8 -35 26 -54 71 -75 58 -27 97 -158 65 -219 -14 -25 -80 -57 -136 -65 -81 -12 -141 -29 -195 -56 -30 -15 -82 -35 -115 -44 -32 -9 -67 -20 -76 -25 -22 -12 -122 -13 -146 -1 -28 14 -105 30 -204 42 -73 9 -110 8 -173 -3 -44 -7 -79 -17 -78 -23 2 -6 73 -13 170 -17 568 -23 538 -24 648 30 27 13 92 33 145 44 127 25 178 51 197 97 40 96 -10 241 -99 287 -16 8 -31 26 -34 42 -12 48 -41 97 -84 139 l-41 42 30 15 c38 20 48 51 25 77 -21 24 -65 25 -93 2 -18 -16 -20 -23 -12 -51 9 -29 8 -33 -5 -28 -9 3 -20 6 -24 6 -5 0 -26 18 -47 41 -48 51 -92 70 -166 71 l-59 1 71 36 c56 28 80 49 116 95 37 50 45 67 45 103 0 24 -7 60 -15 80 -8 19 -15 37 -15 38 0 2 13 -2 29 -8 41 -15 152 16 197 56 40 35 44 68 14 128 -28 55 -86 93 -177 118 -69 18 -102 20 -283 18 -113 -2 -214 -7 -224 -12 -16 -7 -18 -5 -13 7 7 20 -22 48 -50 48 -11 0 -28 -9 -38 -20z m22 -70 c14 0 21 -4 18 -10 -8 -12 -48 -13 -60 -1 -6 5 -17 11 -25 14 -8 2 -2 3 14 1 16 -2 39 -4 53 -4z m254 -4 c-17 -20 1 -28 36 -16 39 14 203 28 209 18 3 -4 13 -8 24 -8 10 0 49 -10 86 -21 80 -25 134 -72 134 -119 0 -24 -7 -32 -46 -50 -25 -13 -65 -25 -89 -28 -41 -4 -43 -3 -38 17 6 25 -11 49 -44 62 -13 5 -110 22 -216 39 -105 17 -196 35 -201 40 -6 6 -20 10 -32 10 -13 0 -25 4 -28 8 -17 28 62 58 158 61 50 1 57 0 47 -13z m-196 -106 c22 -11 53 -20 70 -21 16 0 39 -4 50 -8 16 -7 14 -9 -15 -15 -74 -17 -257 -24 -305 -12 -24 6 -26 9 -14 20 15 14 88 37 169 55 3 0 23 -8 45 -19z m360 -95 c29 -15 46 -33 64 -68 51 -104 33 -180 -44 -185 -21 -2 -46 -7 -56 -12 -25 -14 -27 -13 -22 13 3 14 -2 29 -12 37 -14 11 -19 11 -33 -4 -16 -16 -16 -18 7 -37 16 -13 19 -20 10 -23 -8 -3 -42 -15 -77 -27 -56 -20 -64 -20 -80 -7 -9 9 -53 28 -97 44 -102 35 -169 74 -173 101 -2 13 15 37 53 74 45 43 73 60 143 87 79 29 95 32 182 29 70 -2 106 -8 135 -22z m110 5 c20 0 25 -25 6 -37 -14 -9 -20 -5 -34 19 -15 27 -16 30 -1 24 8 -3 22 -6 29 -6z"/>
 <path d="M1745 1204 c-47 -17 -89 -54 -76 -67 5 -5 16 -5 27 1 11 5 48 15 83 21 60 12 64 11 86 -9 13 -12 28 -19 34 -15 18 11 12 40 -12 63 -27 26 -81 28 -142 6z"/>
 <path d="M1704 1035 c-7 -17 2 -45 14 -45 4 0 17 7 28 15 19 15 19 15 0 30 -11 8 -24 15 -28 15 -5 0 -11 -7 -14 -15z"/>
 <path d="M2955 1521 c-9 -16 -19 -226 -11 -247 5 -14 9 -15 19 -5 15 15 24 238 9 253 -6 6 -12 6 -17 -1z"/>
 <path d="M5965 1197 c-9 -22 -2 -62 10 -60 6 1 11 14 13 29 4 32 -14 56 -23 31z"/>
 <path d="M5800 1065 c-13 -14 -22 -25 -19 -26 19 -5 121 -4 124 1 2 4 -3 16 -11 28 -21 30 -64 29 -94 -3z"/>
 <path d="M5384 1070 c-26 -8 -66 -39 -53 -40 63 -6 280 -6 284 0 3 4 -7 16 -22 26 -32 21 -160 29 -209 14z"/>
 <path d="M4823 1027 c-63 -23 -41 -32 89 -34 70 -1 130 2 133 7 20 32 -154 53 -222 27z"/>
 <path d="M4254 1016 c-61 -22 -36 -31 96 -33 128 -2 161 5 119 28 -30 15 -176 19 -215 5z"/>
 <path d="M2177 992 c-22 -25 -21 -34 6 -60 39 -37 87 -24 87 23 0 47 -62 71 -93 37z"/>
 <path d="M8394 1000 c-42 -17 -37 -59 6 -45 28 9 25 -4 -11 -48 -26 -31 -29 -40 -18 -53 11 -13 16 -11 41 13 17 15 37 41 45 57 14 26 13 31 -4 54 -23 30 -31 33 -59 22z"/>
 <path d="M1282 987 c-27 -32 -9 -114 21 -104 16 5 18 94 3 106 -10 8 -16 8 -24 -2z"/>
 <path d="M3615 988 c-16 -6 -36 -12 -43 -14 -7 -2 -11 -8 -7 -14 3 -5 61 -7 148 -4 156 6 176 9 160 25 -15 15 -222 21 -258 7z"/>
 <path d="M3183 981 c-34 -3 -67 -11 -74 -18 -12 -12 -3 -37 11 -28 5 3 93 7 196 10 168 5 236 15 193 29 -26 8 -263 14 -326 7z"/>
 <path d="M1154 953 c-14 -16 -32 -35 -40 -44 -19 -22 -18 -46 7 -85 20 -33 39 -37 39 -9 0 8 6 12 14 9 8 -3 31 7 50 22 27 22 32 31 24 42 -6 7 -17 11 -25 8 -7 -3 -13 -1 -13 3 0 5 7 11 15 15 20 7 19 22 -5 46 -26 26 -36 25 -66 -7z"/>
 <path d="M9398 955 c-37 -25 -51 -60 -78 -199 -38 -188 -116 -372 -184 -429 -37 -31 -94 -57 -126 -57 -44 0 -98 31 -148 84 -23 25 -49 46 -56 46 -26 0 -141 -32 -154 -43 -25 -20 4 -26 76 -15 l74 11 46 -46 c117 -112 209 -111 326 6 85 84 148 231 201 467 22 94 32 121 56 146 24 25 27 33 16 42 -10 9 -22 6 -49 -13z"/>
 <path d="M2252 887 c-26 -28 -22 -48 15 -72 25 -16 26 -16 52 9 25 25 25 28 11 54 -20 35 -50 39 -78 9z"/>
 <path d="M2435 860 c-4 -6 -3 -16 3 -22 6 -6 12 -6 17 2 4 6 3 16 -3 22 -6 6 -12 6 -17 -2z"/>
 <path d="M1037 854 c-14 -14 -6 -32 29 -68 43 -44 26 -58 -30 -25 -29 17 -40 19 -49 10 -9 -10 -6 -18 16 -35 22 -18 27 -28 22 -48 -9 -36 8 -42 35 -13 21 23 24 23 36 7 10 -14 15 -15 25 -4 10 9 10 15 1 24 -9 9 -7 17 8 33 l20 21 -53 52 c-29 29 -56 49 -60 46z"/>
 <path d="M4279 815 c-14 -24 -25 -33 -33 -27 -6 5 -23 12 -38 16 -24 5 -31 1 -59 -41 -29 -41 -31 -49 -21 -76 10 -26 8 -32 -10 -46 -25 -21 -20 -41 21 -91 22 -26 32 -32 42 -24 8 6 23 14 33 18 17 6 18 2 13 -43 -8 -65 2 -72 89 -64 68 6 99 17 89 34 -3 4 -3 19 1 33 4 19 14 26 44 31 22 4 43 12 48 18 6 7 13 42 17 79 7 65 6 68 -16 78 -72 33 -79 40 -79 80 0 46 -18 60 -80 60 -36 0 -43 -4 -61 -35z m103 -57 c3 -40 6 -44 51 -66 48 -23 49 -24 42 -60 -9 -50 -11 -52 -50 -52 -37 0 -55 -20 -55 -62 l0 -23 -19 24 c-19 25 -36 16 -25 -13 5 -13 -1 -16 -25 -16 -32 0 -37 10 -33 62 1 10 -9 25 -23 34 -23 15 -27 15 -50 0 -22 -15 -25 -15 -33 1 -7 12 -4 21 11 33 20 16 20 19 5 50 -15 30 -15 36 -1 57 17 25 42 30 60 12 15 -15 59 11 68 41 5 15 15 20 40 20 33 0 34 -2 37 -42z"/>
 <path d="M4272 704 c-33 -23 -29 -66 9 -98 36 -31 60 -33 82 -8 24 26 21 56 -9 91 -29 35 -49 38 -82 15z m63 -53 c3 -5 1 -12 -4 -15 -12 -8 -41 3 -41 15 0 12 37 12 45 0z"/>
 <path d="M55 780 c-10 -17 51 -67 129 -106 39 -20 76 -40 83 -45 7 -7 13 -6 17 0 9 13 -48 54 -116 85 -32 13 -69 37 -82 51 -15 16 -27 22 -31 15z"/>
 <path d="M1727 730 c-23 -18 -38 -55 -43 -100 -3 -35 -18 -57 -55 -83 -53 -37 -79 -82 -79 -138 0 -72 17 -106 64 -134 79 -46 213 -24 263 42 24 32 28 46 28 104 0 63 -2 70 -33 102 -25 26 -35 46 -38 77 -2 24 -8 48 -12 54 -4 6 -7 22 -6 36 2 29 -22 60 -46 60 -10 0 -29 -9 -43 -20z m68 -143 c3 -21 20 -56 40 -83 43 -56 48 -90 19 -145 -16 -32 -86 -59 -154 -59 -57 0 -96 26 -108 73 -13 50 3 88 59 138 41 36 52 52 53 78 1 25 6 33 26 37 14 3 30 7 35 9 16 4 25 -9 30 -48z"/>
 <path d="M1736 595 c-14 -13 -26 -30 -26 -38 0 -7 -9 -32 -20 -55 -11 -22 -20 -48 -20 -56 0 -25 18 -28 33 -5 12 17 19 19 35 10 30 -16 77 -13 92 4 11 13 9 20 -14 44 -17 18 -30 44 -33 70 -3 23 -9 44 -13 46 -4 3 -19 -6 -34 -20z m26 -92 c8 -9 6 -13 -5 -13 -22 0 -27 12 -19 41 6 22 7 22 10 4 2 -11 9 -26 14 -32z"/>
 <path d="M922 698 c-7 -7 -12 -19 -12 -28 0 -9 -6 -17 -13 -17 -22 0 -67 -35 -67 -52 0 -9 18 -34 41 -55 l40 -39 35 34 c31 30 33 35 18 46 -14 10 -11 12 18 15 45 4 45 32 1 36 -38 4 -44 25 -13 42 11 6 18 15 15 21 -9 13 -49 11 -63 -3z"/>
 <path d="M4574 629 c-4 -7 1 -19 15 -30 l21 -17 -27 -20 c-16 -10 -36 -22 -46 -25 -9 -4 -22 -18 -29 -31 -22 -50 46 -111 98 -87 39 17 28 45 -19 49 -63 5 -39 27 29 27 45 0 59 3 59 15 0 8 -10 19 -22 26 -20 9 -21 13 -9 29 12 17 17 18 40 7 22 -10 28 -9 33 4 9 25 -28 52 -83 59 -37 5 -54 3 -60 -6z"/>
 <path d="M286 613 c-3 -3 -6 -17 -6 -30 0 -13 -14 -51 -31 -84 -51 -102 -38 -175 39 -206 48 -20 49 2 1 33 -40 25 -41 27 -36 68 3 23 17 67 31 97 14 29 26 68 26 86 0 31 -11 49 -24 36z"/>
 <path d="M8361 596 c-34 -41 34 -163 116 -208 63 -35 77 -22 23 21 -54 43 -72 73 -85 140 -12 58 -31 75 -54 47z"/>
 <path d="M735 581 c-27 -12 -58 -48 -51 -59 3 -6 20 -5 42 3 50 17 71 9 101 -37 17 -25 30 -35 36 -29 15 15 -10 66 -50 101 -35 31 -45 34 -78 21z"/>
 <path d="M1091 513 c-85 -98 -109 -190 -80 -298 19 -71 106 -137 207 -160 55 -12 48 24 -8 40 -14 4 -49 18 -78 32 -64 31 -83 63 -90 153 -5 75 10 115 80 208 35 47 42 72 18 72 -5 0 -27 -21 -49 -47z"/>
 <path d="M3970 493 c-26 -33 -21 -75 12 -110 20 -21 24 -22 37 -8 13 13 13 17 -7 35 -29 27 -28 48 3 60 28 11 64 1 84 -24 7 -9 18 -13 23 -10 5 4 2 -8 -7 -26 -21 -41 -16 -68 17 -93 23 -17 31 -19 53 -9 29 13 32 28 9 53 -15 17 -14 19 21 33 33 14 36 18 24 32 -8 10 -22 14 -40 10 -17 -3 -32 0 -39 9 -7 8 -16 12 -21 10 -4 -3 -15 7 -23 23 -18 34 -33 42 -86 42 -30 0 -43 -6 -60 -27z"/>
 <path d="M1430 490 c-31 -31 -14 -44 41 -33 34 7 44 13 44 28 0 30 -57 33 -85 5z"/>
 <path d="M1940 495 c-16 -19 -6 -32 38 -44 38 -11 59 6 39 32 -19 24 -61 31 -77 12z"/>
 <path d="M737 459 c-33 -18 -37 -23 -34 -53 2 -18 7 -38 11 -44 5 -8 -2 -12 -19 -12 -14 0 -36 -11 -49 -23 -54 -54 14 -130 89 -101 8 4 23 20 31 36 14 27 14 32 0 54 -16 24 -16 24 10 12 23 -11 29 -10 45 11 21 26 23 43 10 69 -5 9 -14 29 -20 45 -13 32 -23 33 -74 6z m-7 -157 c0 -13 -49 -36 -57 -28 -5 4 1 14 11 22 22 15 46 19 46 6z"/>
 <path d="M4454 435 c-4 -8 -10 -13 -14 -10 -19 12 -19 -16 1 -49 22 -38 42 -46 56 -22 4 7 19 13 33 12 36 -2 31 18 -14 53 -44 35 -54 38 -62 16z"/>
 <path d="M881 426 c-8 -10 -8 -16 3 -25 10 -9 16 -8 26 3 12 15 6 36 -9 36 -5 0 -14 -6 -20 -14z"/>
 <path d="M4307 413 c-13 -12 -7 -70 8 -83 19 -16 34 -5 28 20 -8 30 5 24 43 -17 29 -31 34 -34 40 -19 12 32 -97 122 -119 99z"/>
 <path d="M6995 410 c-29 -11 -48 -37 -41 -55 3 -9 0 -25 -7 -35 -19 -31 2 -55 48 -55 44 0 58 21 23 34 -22 9 -22 9 -3 16 11 5 28 17 38 29 l18 21 -6 -23 c-5 -17 2 -31 29 -58 l35 -35 37 19 c33 17 40 18 66 4 27 -13 31 -13 53 8 20 18 27 21 39 11 11 -10 17 -8 29 8 14 21 14 21 26 -6 11 -24 14 -26 24 -12 7 9 18 14 25 12 6 -3 16 5 20 17 8 21 8 21 32 -5 25 -27 45 -32 56 -14 4 7 -4 20 -17 30 l-24 19 37 0 c29 0 36 -3 32 -15 -4 -8 1 -17 10 -21 9 -3 16 -14 16 -23 0 -37 48 -53 91 -31 26 14 24 28 -6 42 -13 6 -22 15 -19 20 3 5 0 16 -8 25 -8 10 -8 14 -1 10 20 -13 26 13 7 34 -13 15 -25 19 -44 14 -14 -4 -48 -6 -77 -5 -42 1 -55 -3 -65 -19 -9 -14 -16 -17 -25 -10 -17 14 -33 3 -33 -24 -1 -18 -3 -17 -14 9 -8 18 -19 35 -26 39 -15 9 -47 -20 -55 -53 -5 -20 -8 -23 -15 -12 -5 9 -5 19 1 26 13 16 -31 47 -54 39 -8 -4 -18 -1 -22 4 -12 20 -25 1 -25 -37 0 -32 -3 -37 -24 -37 -13 0 -29 8 -35 17 -9 14 -7 20 10 28 16 9 18 14 8 26 -13 16 -70 19 -85 4 -7 -7 -16 -4 -29 10 -20 22 -21 22 -50 10z"/>
 <path d="M1945 400 c-15 -25 82 -89 103 -68 15 15 -2 46 -31 57 -51 19 -66 21 -72 11z"/>
 <path d="M1412 330 c-37 -23 -50 -46 -34 -62 16 -16 97 32 97 57 0 27 -24 29 -63 5z"/>
 <path d="M1925 289 c-9 -13 30 -55 67 -74 25 -12 30 -12 35 1 7 18 -20 49 -60 69 -36 18 -34 18 -42 4z"/>
 <path d="M7422 267 c-9 -11 -8 -18 8 -32 18 -17 20 -17 26 -1 4 10 0 24 -8 32 -13 13 -16 13 -26 1z"/>
 <path d="M1520 213 c-21 -27 -25 -89 -5 -87 19 2 63 88 52 102 -14 18 -23 15 -47 -15z"/>
 <path d="M1807 193 c-12 -11 -8 -18 26 -57 29 -32 35 -35 46 -22 15 18 2 47 -31 70 -25 18 -32 19 -41 9z"/>
 </g>

</svg>