<!DOCTYPE svg PUBLIC "-//W3C//DTD SVG 20010904//EN" "http://www.w3.org/TR/2001/REC-SVG-20010904/DTD/svg10.dtd">
<svg version="1.0" xmlns="http://www.w3.org/2000/svg" width="1200px" height="1600px" viewBox="0 0 12000 16000" preserveAspectRatio="xMidYMid meet">
<g id="layer101" fill="#333333" stroke="none">
 <path d="M8195 12520 c-27 -4 -87 -21 -132 -38 -46 -17 -102 -33 -125 -37 -39 -6 -134 -35 -183 -55 -11 -5 -43 -12 -72 -15 -99 -13 -140 -29 -197 -78 -31 -27 -56 -53 -56 -58 0 -5 10 -13 23 -18 16 -6 29 -3 51 13 50 37 87 56 97 50 5 -3 15 -1 22 4 7 5 37 12 67 15 55 5 109 27 142 54 9 8 21 12 27 9 5 -4 12 -3 15 2 3 5 29 9 57 10 37 1 61 7 82 22 16 12 37 20 48 17 10 -3 30 4 43 14 32 25 116 31 179 12 26 -7 47 -18 47 -22 0 -14 -85 -88 -110 -96 -13 -4 -47 -22 -74 -39 -51 -31 -74 -44 -151 -85 -83 -44 -337 -245 -355 -281 -10 -19 -28 -54 -39 -77 -23 -45 -13 -67 18 -39 10 9 22 16 28 16 6 0 22 17 34 37 27 43 116 133 132 133 10 0 113 73 132 94 15 16 42 32 111 65 33 16 67 37 75 47 8 9 46 32 85 50 39 18 74 40 77 48 4 9 15 16 26 16 11 0 35 19 55 43 30 37 34 47 27 77 -5 27 -17 41 -51 62 -53 32 -87 39 -155 28z"/>
 <path d="M5826 12413 c-51 -6 -155 -104 -152 -143 3 -34 33 -38 46 -6 5 14 28 39 52 56 l42 31 128 -4 c131 -3 164 -13 143 -41 -6 -7 -27 -35 -47 -62 -34 -46 -101 -99 -166 -133 -15 -7 -54 -30 -87 -51 -33 -20 -81 -49 -106 -63 -52 -30 -66 -58 -39 -82 16 -15 21 -14 56 6 22 12 51 30 67 41 15 11 27 17 27 14 0 -7 161 101 175 117 6 7 19 17 30 23 11 6 24 20 30 32 5 12 15 22 21 22 7 0 34 25 62 54 77 85 76 146 -4 177 -39 14 -196 21 -278 12z"/>
 <path d="M3429 12341 c-48 -14 -145 -64 -214 -111 -12 -8 -55 -37 -96 -64 -41 -27 -94 -63 -119 -79 -86 -58 -119 -96 -145 -172 -13 -39 -18 -244 -6 -259 8 -10 9 -16 2 -21 -9 -5 -9 -43 0 -70 2 -5 -2 -19 -8 -30 -6 -11 -11 -61 -12 -111 0 -79 2 -94 19 -109 11 -10 20 -16 21 -14 5 37 9 120 13 284 3 110 8 222 11 250 13 104 60 171 150 214 11 5 45 27 75 48 30 21 62 42 70 47 8 4 38 20 65 36 28 16 75 41 105 56 30 15 63 31 72 35 30 15 30 10 -2 -21 -17 -16 -35 -30 -40 -30 -16 0 -70 -52 -86 -82 -22 -42 -3 -60 29 -30 13 12 28 22 33 22 6 0 21 11 34 25 12 13 27 22 32 19 5 -3 33 19 63 50 41 41 55 63 55 84 0 54 -25 61 -121 33z"/>
 <path d="M4818 12215 c-9 -9 -258 -82 -348 -102 -14 -3 -29 -9 -35 -13 -5 -5 -27 -11 -48 -15 -20 -4 -54 -19 -75 -34 -20 -15 -45 -30 -55 -34 -9 -3 -22 -18 -29 -32 -9 -21 -9 -29 4 -41 14 -14 19 -13 52 16 20 18 36 29 36 24 0 -4 8 0 18 8 9 9 33 19 52 23 19 4 40 11 46 16 6 5 33 12 60 15 27 4 58 12 70 19 12 8 39 17 60 20 21 4 68 18 104 31 75 27 158 45 165 34 12 -19 -21 -83 -70 -137 -30 -34 -55 -64 -55 -68 0 -3 -16 -22 -35 -42 -19 -20 -35 -43 -35 -52 0 -9 -9 -22 -19 -28 -17 -11 -47 -53 -104 -145 -21 -34 -22 -108 -2 -134 15 -19 15 -19 30 1 9 11 14 28 11 38 -4 16 4 38 35 97 5 8 20 39 35 68 15 29 35 57 45 63 11 5 19 15 19 22 0 8 14 26 30 42 17 16 30 33 30 38 0 4 15 23 33 41 85 87 138 187 117 225 -14 26 -124 54 -142 36z"/>
 <path d="M2236 12191 c-3 -4 -45 -13 -93 -20 -105 -16 -164 -39 -259 -103 -49 -33 -81 -64 -103 -99 -17 -28 -31 -55 -31 -60 0 -5 -4 -17 -9 -27 -5 -9 -19 -55 -31 -102 -12 -47 -29 -94 -39 -105 -11 -11 -28 -39 -39 -61 -20 -40 -23 -42 -79 -47 -32 -3 -81 -6 -109 -5 -29 0 -57 -3 -64 -7 -10 -6 -11 -3 -6 11 62 161 83 282 67 384 -11 72 -48 119 -80 104 -9 -4 -32 -7 -51 -6 -101 7 -161 4 -176 -9 -9 -7 -25 -18 -37 -24 -11 -5 -24 -17 -28 -25 -5 -8 -29 -49 -54 -90 -25 -41 -45 -81 -45 -90 0 -8 -7 -33 -14 -56 -27 -77 -49 -205 -37 -217 8 -8 7 -15 -4 -27 -51 -56 -78 -442 -46 -645 19 -121 31 -181 56 -295 9 -41 21 -93 25 -115 34 -158 110 -419 128 -437 7 -7 12 -19 12 -27 0 -9 10 -40 21 -71 12 -30 28 -73 36 -95 8 -22 28 -68 44 -102 16 -34 29 -66 29 -71 0 -9 46 -111 70 -154 13 -24 23 -43 52 -103 13 -27 34 -69 46 -92 61 -117 88 -186 84 -209 -1 -6 7 -19 18 -29 11 -10 20 -25 20 -34 1 -50 104 -273 164 -355 35 -47 76 -123 76 -139 0 -8 7 -20 15 -27 8 -7 15 -20 15 -29 0 -10 11 -41 25 -69 14 -29 25 -60 25 -69 0 -10 13 -41 28 -70 92 -174 112 -214 112 -222 0 -5 16 -37 35 -70 19 -34 37 -78 41 -99 3 -20 14 -49 24 -63 18 -25 35 -73 84 -234 30 -98 41 -129 77 -225 15 -41 46 -136 68 -210 44 -149 103 -316 131 -370 9 -19 28 -71 40 -115 13 -44 31 -104 41 -133 11 -29 19 -63 19 -75 1 -12 7 -33 14 -46 12 -22 11 -27 -8 -42 -17 -14 -19 -20 -8 -31 16 -16 47 1 47 26 0 10 7 22 16 27 11 6 16 19 14 41 -2 18 -4 33 -5 33 -1 0 -3 14 -5 30 -2 17 -15 59 -28 95 -14 36 -32 92 -42 125 -9 33 -22 71 -27 85 -55 132 -117 314 -118 342 0 15 -4 29 -9 33 -5 3 -19 36 -32 73 -12 37 -25 72 -29 77 -4 6 -11 28 -14 49 -4 21 -13 48 -21 60 -7 12 -16 37 -20 56 -4 19 -12 44 -18 55 -6 11 -12 22 -12 25 -1 3 -7 31 -15 63 -10 44 -11 60 -1 70 7 7 54 12 131 13 111 1 122 3 145 24 29 27 32 55 9 68 -10 6 -18 27 -21 58 -11 118 -73 229 -149 268 -40 20 -106 30 -138 22 -21 -5 -58 -52 -61 -76 0 -9 -46 -80 -51 -80 -3 0 -18 30 -34 68 -17 37 -34 75 -40 84 -14 25 -12 38 5 32 8 -4 36 5 62 19 87 44 175 64 200 45 36 -28 102 73 110 168 3 39 0 64 -6 69 -6 3 -9 10 -6 15 8 14 -21 66 -47 84 -28 20 -97 21 -125 1 -12 -8 -31 -31 -43 -51 l-22 -35 -18 29 c-33 54 -72 73 -142 71 -70 -2 -121 -19 -135 -43 -8 -15 -11 -13 -23 8 -12 23 -11 27 9 43 18 15 23 32 28 101 5 70 10 88 35 122 29 39 72 61 87 44 13 -15 31 -75 31 -105 0 -17 11 -41 28 -60 23 -26 34 -31 55 -25 48 12 59 61 35 156 -15 58 -47 126 -81 171 -41 56 -144 72 -205 33 -22 -14 -23 -13 -42 31 -11 26 -20 50 -20 54 0 4 -13 35 -30 69 -16 34 -30 65 -30 68 0 3 -6 20 -14 37 -7 18 -23 59 -35 92 -30 80 -51 133 -67 170 -39 92 -141 355 -142 365 0 3 -7 22 -16 44 -20 48 -20 44 7 48 45 6 29 113 -27 173 -26 27 -41 35 -68 35 -46 0 -78 -34 -78 -83 0 -63 75 -344 115 -432 13 -28 27 -63 30 -78 4 -15 11 -30 16 -33 5 -3 9 -14 9 -26 0 -11 13 -48 28 -82 28 -59 64 -151 68 -171 5 -28 108 -252 120 -261 8 -6 14 -19 14 -28 0 -10 5 -26 11 -37 5 -11 9 -30 7 -42 -2 -17 -11 -7 -41 46 -21 38 -48 73 -60 79 -22 10 -107 169 -107 200 0 8 -6 21 -14 27 -8 7 -17 23 -21 38 -3 14 -17 42 -31 62 -13 19 -24 40 -24 46 0 6 -16 35 -35 65 -19 30 -35 61 -35 69 0 11 -71 169 -99 221 -5 9 -12 30 -15 48 -4 17 -12 34 -17 37 -5 4 -9 13 -9 21 0 8 -10 36 -22 62 -12 26 -23 55 -25 65 -2 9 -12 44 -23 77 -11 33 -20 66 -20 74 0 9 -9 34 -21 56 -12 22 -22 52 -24 67 -8 67 -18 119 -25 128 -4 6 -11 35 -15 65 -4 30 -10 60 -14 65 -7 11 -7 17 -20 135 -5 47 -16 121 -26 165 -13 59 -17 128 -17 267 0 102 2 190 4 195 3 4 8 25 12 46 11 62 24 81 67 99 33 14 40 22 37 40 -2 14 -12 24 -28 28 -23 5 -25 10 -24 55 3 105 21 158 103 299 26 45 60 65 130 77 47 9 73 9 102 0 35 -11 39 -15 40 -46 2 -122 0 -148 -10 -158 -6 -6 -11 -28 -11 -48 0 -21 -5 -41 -11 -44 -6 -4 -8 -13 -5 -20 2 -7 1 -16 -4 -21 -4 -5 -15 -32 -24 -61 -10 -28 -24 -57 -32 -64 -13 -10 -12 -15 8 -36 18 -19 28 -22 53 -17 16 4 59 8 95 9 151 6 182 14 225 59 37 39 115 177 115 204 0 6 7 31 15 55 8 24 16 53 18 65 2 12 6 25 10 28 4 4 7 14 7 21 0 15 53 73 67 73 4 0 18 10 29 23 33 34 178 102 195 91 6 -3 15 -1 22 4 7 6 40 12 75 14 l62 3 0 -44 c0 -24 -8 -69 -19 -100 -37 -112 -42 -131 -36 -141 3 -5 2 -10 -3 -10 -5 0 -15 20 -22 44 -15 56 -46 106 -63 106 -8 0 -26 -11 -42 -26 -25 -23 -27 -29 -20 -72 3 -26 22 -85 41 -131 20 -50 30 -89 25 -95 -10 -13 -20 -56 -27 -110 -2 -22 -8 -44 -13 -50 -11 -13 1 -47 23 -65 9 -7 16 -20 16 -27 0 -7 13 -20 30 -29 61 -31 106 -93 148 -198 22 -56 50 -136 62 -177 12 -41 28 -84 35 -95 7 -11 16 -41 20 -65 4 -25 16 -60 26 -79 10 -19 16 -38 13 -42 -3 -5 6 -32 20 -61 13 -29 24 -64 25 -78 0 -14 2 -32 4 -40 15 -58 22 -82 38 -135 11 -33 21 -70 23 -82 7 -33 33 -108 56 -155 11 -24 21 -56 22 -73 2 -50 47 -235 65 -268 27 -54 55 -171 107 -457 10 -52 24 -118 32 -147 14 -53 49 -239 65 -353 18 -133 42 -391 32 -355 -3 11 -27 86 -54 167 -27 81 -49 153 -49 160 0 7 -9 30 -20 51 -11 20 -20 44 -20 52 0 8 -4 23 -9 33 -8 16 -28 73 -35 97 -2 6 -8 24 -15 40 -7 17 -28 77 -47 135 -18 58 -38 114 -43 125 -5 11 -19 47 -31 80 -12 33 -26 69 -31 80 -11 26 -45 132 -54 170 -3 16 -18 54 -33 85 -15 30 -27 57 -27 60 -1 5 -39 133 -56 184 -5 16 -9 41 -9 55 1 24 2 23 21 -12 11 -21 25 -37 32 -34 6 2 21 -10 32 -27 21 -31 42 -33 38 -3 -2 10 -30 74 -62 142 -45 95 -66 127 -88 138 -34 18 -62 9 -93 -30 -20 -25 -22 -35 -16 -98 3 -38 18 -108 32 -155 14 -47 29 -98 33 -115 5 -16 20 -63 34 -102 15 -40 24 -78 22 -85 -3 -7 2 -42 9 -78 8 -36 12 -68 10 -72 -4 -6 27 -187 46 -263 5 -22 28 -116 51 -210 23 -93 42 -177 43 -185 2 -8 5 -22 8 -30 3 -8 14 -44 23 -80 10 -36 23 -83 30 -105 7 -22 20 -69 30 -105 20 -77 55 -171 67 -185 4 -5 8 -22 8 -39 0 -29 44 -178 155 -531 88 -277 103 -328 110 -368 4 -20 11 -40 16 -43 5 -3 9 -13 9 -22 0 -19 45 -172 68 -227 23 -59 39 -73 84 -77 33 -3 43 0 55 19 13 20 12 32 -20 130 -97 296 -102 314 -83 346 9 16 16 41 16 57 0 42 -61 370 -104 562 -13 53 -12 58 7 77 25 25 27 98 9 326 -24 295 -23 282 -12 255 6 -14 9 -32 7 -41 -2 -9 0 -23 4 -32 5 -8 16 -53 25 -99 8 -46 24 -114 35 -153 11 -38 22 -85 24 -103 3 -18 9 -41 13 -50 5 -9 17 -48 27 -87 10 -38 23 -77 30 -85 7 -8 10 -21 8 -28 -5 -12 28 -136 47 -177 5 -11 14 -36 19 -55 19 -67 69 -206 95 -262 14 -31 26 -66 26 -76 0 -11 14 -46 30 -77 17 -31 30 -67 30 -80 0 -12 7 -28 15 -35 8 -7 15 -23 15 -35 0 -13 6 -36 14 -52 8 -15 21 -44 29 -63 39 -92 59 -129 73 -134 25 -9 27 21 5 64 -11 22 -18 40 -15 40 4 0 1 6 -5 13 -6 8 -8 17 -4 20 3 4 -1 15 -10 24 -8 10 -23 38 -32 63 -9 25 -21 53 -25 62 -16 29 -68 198 -73 233 -2 11 -10 35 -20 54 -9 19 -17 42 -17 52 0 10 -11 38 -24 63 -14 25 -27 61 -31 78 -13 73 -30 125 -52 167 -13 24 -23 51 -23 60 0 28 -50 215 -60 225 -6 6 -10 23 -10 38 0 26 -16 105 -28 138 -3 8 -6 20 -7 25 -1 6 -4 20 -8 31 -4 12 -10 38 -12 59 -3 20 -8 42 -12 48 -4 6 -8 25 -10 42 -1 16 -6 41 -10 55 -11 39 -11 60 -1 54 5 -3 15 -1 22 5 16 13 39 -25 66 -110 l20 -62 -22 -24 c-21 -22 -21 -26 -7 -51 8 -15 24 -28 36 -30 23 -3 38 -35 78 -157 12 -39 27 -79 33 -90 5 -11 16 -39 23 -63 7 -23 18 -47 26 -53 7 -6 13 -20 13 -29 0 -31 55 -159 156 -362 52 -106 100 -202 106 -213 7 -11 29 -54 51 -95 21 -41 44 -82 51 -90 6 -8 22 -35 34 -60 13 -25 27 -52 32 -60 5 -8 33 -55 62 -103 29 -48 61 -100 70 -115 10 -15 22 -37 28 -50 5 -13 24 -43 40 -67 16 -24 35 -54 40 -67 6 -13 26 -48 45 -78 19 -30 34 -58 35 -61 0 -6 -24 -11 -110 -24 -19 -3 -51 -10 -70 -15 -19 -5 -53 -12 -75 -15 -55 -8 -68 -10 -85 -18 -8 -3 -55 -15 -105 -27 -49 -12 -124 -30 -165 -40 l-75 -19 -35 40 c-65 73 -145 82 -201 23 -19 -20 -24 -36 -24 -79 0 -52 -1 -54 -35 -64 -40 -11 -104 -22 -277 -47 -129 -18 -183 -39 -183 -73 0 -36 24 -44 82 -26 29 8 76 18 103 21 28 4 53 8 56 10 3 2 33 6 65 10 32 3 77 12 99 20 22 8 48 17 58 19 9 2 21 6 26 9 5 3 14 -9 20 -27 24 -63 49 -102 67 -102 16 0 20 11 25 79 9 106 35 121 112 67 69 -49 112 -56 319 -54 195 1 354 9 368 18 14 9 172 36 177 31 3 -2 -19 -12 -49 -21 -47 -14 -90 -23 -263 -55 -27 -5 -93 -12 -145 -15 -52 -3 -120 -11 -150 -17 -30 -6 -59 -11 -65 -12 -40 -8 -133 -40 -145 -51 -8 -7 -32 -20 -53 -29 -53 -22 -58 -43 -18 -77 19 -15 39 -25 45 -23 7 3 20 -4 29 -14 17 -18 13 -19 -135 -31 -84 -6 -198 -16 -253 -21 -55 -6 -109 -7 -121 -4 -21 5 -36 -7 -47 -38 -5 -13 2 -23 26 -35 27 -15 58 -18 187 -18 85 0 186 4 224 9 88 11 81 -2 -19 -39 -114 -41 -143 -72 -115 -124 17 -34 64 -44 153 -36 45 4 98 9 117 10 19 1 82 5 140 9 70 5 122 3 155 -4 74 -18 229 -16 307 4 64 16 149 31 248 43 25 3 50 9 55 13 6 4 27 10 47 14 l36 7 12 -58 c6 -32 15 -78 20 -103 5 -25 12 -74 15 -110 3 -36 10 -90 14 -120 5 -30 9 -68 9 -85 0 -16 6 -64 14 -106 10 -53 12 -82 4 -98 -7 -16 -6 -28 2 -42 11 -16 9 -25 -6 -47 -58 -85 -79 -216 -48 -299 8 -21 17 -51 20 -66 4 -15 22 -59 40 -98 18 -38 31 -68 27 -67 -67 35 -240 73 -320 71 l-63 -2 6 27 c3 15 9 70 12 122 5 83 3 107 -20 193 -15 55 -33 115 -41 134 -8 20 -15 42 -15 50 0 23 -52 73 -76 73 -25 0 -50 -26 -59 -61 -4 -15 6 -69 26 -139 26 -95 31 -133 32 -220 0 -117 -3 -137 -30 -197 l-19 -42 -2 72 c-2 106 -5 122 -22 122 -13 0 -15 -24 -15 -155 0 -139 -3 -160 -23 -204 -12 -27 -22 -56 -22 -65 0 -9 -7 -24 -15 -34 -13 -18 -14 -18 -26 5 -6 13 -32 44 -58 69 -114 115 -141 170 -120 243 6 17 12 77 16 133 6 100 6 101 -21 128 -22 22 -26 32 -20 63 3 20 13 53 22 72 13 27 17 69 18 190 1 169 -6 198 -39 158 l-19 -23 7 25 c27 103 11 168 -55 220 -48 38 -67 42 -98 22 -32 -21 -27 -66 8 -70 14 -2 38 -16 53 -30 27 -25 28 -31 23 -80 -11 -94 -31 -119 -141 -177 -38 -20 -78 -44 -88 -53 -23 -20 -47 -76 -47 -107 0 -41 39 -151 68 -191 l29 -39 86 1 c74 2 91 -1 113 -19 26 -20 26 -23 21 -96 -8 -110 -10 -114 -53 -89 -52 31 -107 34 -147 9 -52 -32 -60 -60 -65 -213 -3 -115 -1 -142 14 -175 20 -42 159 -183 180 -183 8 0 19 9 26 20 7 11 20 20 28 20 27 0 79 39 96 72 10 20 17 56 17 90 l0 56 23 -15 c13 -8 37 -37 55 -65 28 -44 31 -54 22 -79 -8 -21 -8 -32 3 -46 20 -27 17 -50 -17 -113 -30 -57 -179 -214 -179 -188 0 7 7 22 15 32 20 26 19 80 -1 97 -8 7 -40 14 -69 17 -45 4 -72 -2 -154 -32 -128 -47 -190 -50 -254 -12 -46 26 -88 76 -54 63 9 -3 43 -9 76 -13 53 -6 62 -4 67 11 5 12 1 22 -10 31 -25 18 -115 95 -140 119 -18 18 -19 20 -4 23 25 5 58 -16 58 -37 0 -22 31 -51 55 -51 28 0 93 75 106 123 18 59 18 147 3 254 -20 135 -40 189 -79 213 -54 33 -73 24 -118 -58 -109 -200 -117 -222 -105 -272 9 -39 17 -110 12 -110 -2 0 -15 20 -29 43 -27 47 -32 113 -16 192 28 132 55 259 67 318 8 38 16 73 19 77 11 17 6 181 -6 218 -16 50 -34 69 -74 76 -54 10 -103 -22 -148 -99 l-18 -30 5 65 c9 123 27 244 37 256 18 21 7 59 -18 62 -44 6 -71 -81 -88 -278 -11 -133 -34 -258 -60 -330 -9 -25 -23 -72 -30 -105 -8 -33 -32 -111 -55 -174 -48 -136 -51 -187 -15 -318 33 -124 65 -200 108 -257 21 -26 40 -60 44 -74 8 -35 77 -136 109 -161 28 -22 107 -47 175 -56 42 -5 46 -8 42 -28 -3 -12 -10 -27 -15 -34 -18 -22 -19 -233 -2 -283 41 -120 88 -188 169 -244 114 -79 153 -91 301 -91 112 0 135 3 151 17 11 10 26 18 34 18 8 0 38 24 68 54 61 62 76 114 46 159 -16 25 -16 26 16 42 17 9 41 27 53 40 l22 23 55 -34 c92 -57 224 -80 319 -55 19 6 55 12 80 14 25 3 56 10 70 16 14 6 58 15 98 19 l72 8 10 -35 c13 -47 12 -62 -5 -85 -10 -14 -13 -36 -8 -85 8 -93 -13 -69 -29 33 -11 68 -17 82 -46 107 -18 16 -43 29 -56 29 -43 0 -49 -19 -41 -152 10 -161 10 -175 -5 -193 -13 -16 -31 -20 -28 -7 1 4 -3 32 -10 62 -12 58 -24 155 -26 204 -2 45 -27 54 -77 29 -31 -16 -46 -31 -53 -55 -13 -39 -37 -47 -63 -20 -46 49 -87 50 -123 5 -29 -37 -27 -73 11 -225 18 -71 132 -196 230 -252 39 -22 73 -50 87 -72 26 -40 89 -73 141 -74 54 0 116 38 167 102 26 32 53 58 60 58 16 0 125 134 147 182 30 63 23 166 -19 283 -20 55 -45 129 -56 165 -11 36 -25 70 -30 77 -10 13 -3 33 13 33 5 0 9 -10 9 -22 0 -27 26 -71 67 -115 34 -36 131 -69 228 -77 230 -19 230 -19 286 -1 64 21 165 70 174 85 9 14 25 12 25 -3 0 -23 52 -120 88 -164 56 -70 193 -179 248 -198 27 -9 85 -19 129 -22 97 -7 171 10 289 66 122 58 186 136 220 274 34 131 40 183 28 242 -7 31 -10 60 -7 64 2 4 23 14 45 21 45 15 120 90 120 121 0 10 5 21 10 24 6 3 10 16 10 27 0 12 6 29 13 37 31 38 89 144 102 188 21 67 19 106 -6 129 -23 21 -46 12 -65 -24 -13 -27 -24 -18 -24 19 0 16 -8 45 -19 66 -21 42 -19 131 3 115 24 -19 250 -134 289 -148 113 -41 260 -53 404 -34 75 10 94 20 219 115 69 53 184 187 184 215 0 6 4 18 10 28 20 34 50 123 50 147 0 13 -4 27 -10 30 -5 3 -10 15 -10 27 0 11 -14 36 -30 55 -28 31 -29 36 -16 55 9 12 12 33 9 54 -4 26 0 41 24 71 17 21 29 47 29 58 -3 30 -24 63 -45 70 -13 4 -20 18 -24 51 -3 28 -13 54 -27 70 -22 22 -22 25 -7 42 40 44 49 89 43 226 -5 121 -14 163 -30 137 -4 -5 -13 -8 -20 -5 -25 10 -53 -61 -71 -183 -4 -24 -10 -43 -14 -43 -4 0 -18 11 -31 25 -22 23 -22 26 -7 43 23 25 21 41 -8 84 -14 20 -25 42 -25 48 0 5 -43 55 -96 109 l-96 100 -50 -4 c-27 -2 -52 -6 -55 -9 -4 -3 -16 -6 -27 -6 -12 0 -30 -7 -40 -15 -11 -8 -32 -15 -47 -15 -14 0 -38 -9 -52 -20 -14 -11 -30 -20 -35 -20 -5 0 -27 -8 -48 -17 -22 -9 -44 -16 -50 -15 -12 2 -94 -84 -94 -99 0 -5 9 -18 20 -29 l21 -21 45 43 c24 23 66 51 92 61 26 10 61 24 77 31 73 33 133 50 176 51 42 0 51 -5 105 -54 114 -103 145 -159 112 -204 -16 -21 -54 -28 -177 -33 -52 -2 -99 -8 -105 -14 -17 -13 -11 -68 9 -90 9 -10 36 -52 59 -92 37 -65 45 -73 80 -80 24 -5 43 -4 51 2 9 7 16 6 25 -5 7 -8 20 -15 30 -15 28 0 80 30 80 46 0 26 100 15 123 -13 24 -30 19 -67 -11 -71 -33 -5 -48 -39 -26 -63 9 -10 25 -19 34 -19 20 0 32 -23 24 -45 -5 -12 -16 -7 -50 25 -47 44 -76 50 -96 22 -7 -10 -41 -25 -78 -34 -36 -9 -71 -18 -79 -20 -7 -1 -22 14 -33 34 -26 48 -114 129 -134 121 -8 -3 -30 2 -49 12 -20 9 -43 15 -52 13 -27 -5 -26 -27 0 -37 14 -6 28 -15 32 -20 3 -6 16 -11 28 -11 17 0 19 -2 8 -9 -8 -5 -20 -7 -27 -4 -36 14 -145 -52 -174 -106 -8 -16 -31 -42 -51 -59 -133 -116 -58 -372 119 -405 38 -8 73 7 120 51 43 41 67 45 100 18 30 -25 85 -56 101 -56 10 0 74 -60 69 -65 -25 -21 -80 -36 -133 -36 -57 0 -204 32 -341 76 -53 17 -308 224 -322 262 -48 130 -51 388 -7 603 3 14 8 61 11 105 6 72 4 83 -16 108 -16 20 -30 27 -55 27 -45 0 -102 -26 -110 -50 -3 -11 -10 -20 -16 -20 -16 0 -59 -79 -70 -128 -5 -26 -14 -81 -19 -122 -5 -41 -16 -95 -25 -120 -25 -68 -30 -182 -11 -269 14 -65 36 -114 81 -176 13 -19 12 -20 -32 -22 -70 -3 -112 -21 -134 -57 -10 -17 -19 -38 -19 -46 -1 -37 -16 -43 -56 -22 -135 72 -171 71 -241 -7 l-32 -36 -1 75 c0 41 -5 127 -10 190 -6 63 -13 163 -16 222 -5 96 -3 107 13 110 10 2 29 -9 43 -24 35 -38 69 -44 102 -18 25 19 27 26 24 78 -2 31 1 62 6 69 6 7 5 14 -2 18 -5 3 -10 19 -10 36 0 22 5 29 18 29 11 0 27 9 37 20 15 17 17 31 11 112 -11 154 -35 309 -62 402 -8 27 -14 51 -14 53 0 2 50 2 112 1 104 -3 111 -4 114 -24 2 -11 11 -47 20 -80 25 -94 34 -144 39 -224 5 -78 20 -108 50 -96 14 5 16 18 11 98 -3 51 -15 125 -25 164 -11 39 -24 90 -30 113 l-9 42 66 -3 c104 -3 145 8 257 70 113 62 185 125 222 191 10 19 26 37 33 39 13 5 13 3 1 -12 -27 -32 -2 -37 145 -27 126 8 146 7 215 -11 66 -18 77 -24 86 -49 9 -23 17 -29 41 -29 46 0 77 59 61 119 -3 9 12 20 41 32 25 9 46 23 48 30 2 8 20 26 42 41 39 27 62 80 43 99 -10 10 -96 13 -163 5 -68 -8 -158 -6 -213 5 -27 5 -73 9 -101 10 -28 0 -60 4 -70 8 -18 7 -17 9 10 34 16 15 34 27 40 27 16 0 44 34 44 54 0 10 -15 23 -37 33 -21 8 -49 20 -63 26 -14 6 -27 11 -30 12 -3 0 -19 9 -37 18 -38 20 -217 41 -288 34 -43 -4 -53 -2 -63 14 -13 21 -82 59 -107 59 -9 0 -37 6 -63 14 -26 7 -76 19 -112 26 -35 6 -76 18 -91 26 -17 8 -73 16 -146 19 -116 4 -118 5 -135 32 -10 16 -18 35 -18 45 0 9 -13 46 -30 83 -16 37 -30 77 -30 90 0 27 -27 95 -38 95 -4 0 -13 19 -20 43 -7 23 -24 66 -38 94 -14 29 -24 63 -22 75 2 15 13 -3 37 -59 63 -151 143 -236 244 -264 59 -16 132 2 174 43 36 35 41 57 18 92 -9 13 -17 32 -19 42 -6 28 -64 247 -91 344 -13 47 -74 231 -135 410 l-112 325 11 61 c14 78 14 131 0 210 -9 54 -16 67 -45 89 -48 37 -110 57 -153 49 -47 -9 -135 -96 -151 -150 -9 -31 -17 -40 -33 -40 -12 0 -36 -3 -53 -7 -36 -7 -44 6 -44 78 0 22 -4 56 -10 75 -5 19 -11 67 -13 105 l-3 71 33 -15 c18 -8 33 -23 33 -32 0 -27 48 -72 68 -64 56 24 114 35 178 35 66 0 74 2 93 26 12 15 21 33 21 40 0 20 -46 46 -88 50 -65 5 -173 22 -180 28 -3 3 -6 41 -6 84 -1 70 -3 77 -21 77 -13 0 -19 6 -17 17 4 25 -15 31 -43 12 -33 -21 -44 -43 -66 -124 -13 -50 -17 -58 -18 -33 -1 17 -5 34 -10 37 -4 3 -12 43 -15 88 -9 100 -15 169 -21 223 -12 99 -15 293 -6 335 30 135 31 337 2 375 -5 5 -8 17 -8 25 0 8 -4 51 -9 95 -4 44 -8 100 -9 125 0 25 -4 51 -9 58 -4 7 -5 16 -2 19 3 3 2 11 -3 17 -5 6 -14 43 -20 81 -9 63 -52 237 -68 275 -10 25 -13 41 -18 120 -3 41 -10 90 -16 107 -6 18 -8 37 -5 42 4 5 -4 38 -17 73 -13 35 -32 88 -42 118 -10 30 -23 64 -29 75 -5 11 -11 22 -11 25 -1 3 -5 29 -9 57 -8 55 -20 73 -38 55 -9 -9 -2 -47 19 -112 3 -8 7 -32 8 -54 2 -21 8 -43 14 -49 6 -6 11 -25 11 -42 0 -17 5 -36 12 -43 6 -6 13 -22 14 -34 8 -62 22 -146 27 -163 3 -11 8 -44 11 -72 3 -29 13 -83 21 -120 9 -38 23 -99 31 -138 9 -38 22 -86 29 -106 8 -20 12 -39 10 -41 -3 -2 0 -20 6 -39 12 -41 21 -87 21 -114 0 -11 5 -49 10 -85 6 -36 10 -104 10 -153 0 -69 3 -89 16 -96 15 -9 12 -53 -15 -211 -2 -14 -6 -41 -8 -60 -2 -19 -9 -66 -14 -105 -17 -115 -14 -205 8 -241 13 -21 22 -67 30 -151 11 -114 15 -141 26 -203 2 -14 7 -52 10 -85 3 -33 8 -71 10 -85 3 -14 7 -52 10 -85 3 -33 12 -94 20 -135 7 -41 14 -82 14 -90 0 -8 7 -40 16 -70 9 -30 22 -82 29 -115 39 -168 134 -483 155 -510 5 -5 14 -32 20 -60 7 -27 20 -58 28 -68 9 -9 13 -20 10 -23 -5 -6 8 -49 33 -109 5 -11 13 -36 19 -55 5 -19 24 -80 40 -135 17 -55 31 -108 31 -117 0 -9 5 -20 10 -23 15 -9 50 -85 50 -108 0 -10 9 -30 20 -44 11 -14 20 -33 20 -42 0 -9 11 -43 25 -76 13 -33 25 -65 25 -71 0 -7 -29 -14 -71 -18 -98 -10 -175 -36 -304 -105 -93 -49 -110 -62 -110 -82 0 -14 -8 -27 -18 -31 -16 -7 -16 -10 -2 -31 14 -22 12 -37 -6 -37 -9 0 -24 87 -21 121 2 14 -8 42 -23 62 -14 21 -25 42 -25 46 0 5 -7 14 -15 21 -9 7 -14 19 -11 25 2 7 -4 31 -15 55 -10 23 -19 48 -19 56 0 7 -7 17 -14 21 -8 5 -17 24 -19 43 -5 42 -15 68 -73 187 -24 50 -44 100 -44 111 0 12 -4 23 -9 27 -6 3 -13 26 -17 50 -3 25 -10 48 -15 51 -5 3 -9 18 -9 33 0 15 -4 31 -8 36 -27 30 -65 212 -76 364 -3 35 -10 69 -16 75 -5 5 -10 22 -10 36 0 15 -3 30 -6 33 -4 3 -8 21 -10 39 -4 42 -8 60 -17 74 -19 31 -101 545 -99 624 0 8 -2 22 -5 30 -3 8 -7 56 -9 105 -2 50 -9 159 -16 243 -7 85 -10 156 -6 158 4 3 5 26 2 52 -3 26 -7 74 -9 107 -2 33 -7 94 -10 135 -6 83 -5 79 -5 170 0 80 -9 292 -14 340 -2 19 -7 84 -11 143 -3 60 -10 118 -14 130 -5 12 -14 54 -21 92 -7 39 -19 95 -27 127 -7 31 -16 71 -18 90 -2 18 -6 51 -8 73 -3 22 -11 54 -17 70 -7 17 -12 52 -12 79 1 26 -5 67 -12 90 -8 22 -14 63 -15 90 -1 27 -5 54 -9 60 -5 6 -15 27 -22 46 -8 19 -25 53 -39 75 -14 22 -30 49 -36 60 -37 67 -68 115 -75 115 -5 0 -12 10 -16 23 -25 85 -68 142 -101 135 -36 -7 -24 -43 49 -151 40 -59 78 -115 83 -125 6 -9 24 -37 40 -62 17 -25 30 -49 31 -55 1 -5 8 -26 17 -46 19 -43 43 -145 52 -218 3 -30 8 -57 9 -60 2 -3 7 -31 10 -61 10 -79 17 -113 28 -127 5 -7 7 -17 3 -22 -3 -6 1 -37 9 -68 9 -32 18 -71 20 -88 2 -16 5 -30 6 -30 1 0 3 -9 4 -20 2 -11 6 -42 11 -70 5 -27 9 -54 9 -60 1 -5 5 -32 9 -60 13 -83 16 -138 21 -415 3 -146 9 -305 12 -355 9 -120 13 -215 15 -300 0 -38 3 -74 6 -78 3 -5 5 -40 5 -77 0 -38 3 -86 8 -107 7 -35 14 -106 26 -268 5 -75 41 -318 60 -407 8 -37 14 -76 14 -87 0 -11 5 -32 12 -48 6 -15 12 -39 13 -53 6 -82 115 -576 140 -635 7 -16 19 -50 26 -75 12 -43 99 -255 119 -292 6 -10 10 -23 10 -30 0 -6 6 -19 14 -27 7 -9 18 -34 24 -56 6 -22 15 -55 21 -73 7 -24 7 -32 -2 -30 -39 7 -369 -86 -405 -115 -9 -7 -33 -6 -80 2 -37 7 -74 14 -82 15 -8 2 -22 6 -30 9 -54 23 -112 39 -155 43 -59 5 -98 10 -180 23 -33 6 -111 8 -173 5 -102 -5 -113 -4 -119 13 -11 30 -84 143 -93 143 -4 0 -11 12 -15 27 -3 15 -19 43 -34 62 -15 20 -52 79 -81 131 -29 52 -62 106 -73 120 -10 14 -25 39 -33 55 -8 17 -23 44 -33 60 -26 45 -71 134 -72 142 -1 5 -8 17 -15 28 -18 25 -18 36 0 29 8 -3 49 6 90 20 53 17 97 25 143 25 52 -1 70 3 80 17 7 9 22 22 34 28 13 6 26 24 31 41 9 35 -10 59 -82 98 -37 20 -54 41 -96 113 -71 121 -119 156 -169 120 -28 -20 -26 -41 10 -114 69 -139 87 -183 82 -189 -4 -3 -10 3 -14 13 -24 57 -201 279 -232 289 -26 8 -68 -10 -81 -35 -6 -11 -15 -18 -21 -15 -5 4 -7 10 -4 15 3 5 -6 28 -21 51 l-26 42 26 -7 c14 -3 37 -9 51 -12 41 -10 132 6 166 29 25 17 36 35 46 72 20 78 17 151 -7 175 -11 11 -20 26 -20 34 0 8 -16 28 -35 45 -40 35 -92 41 -148 18 -44 -19 -102 -93 -120 -153 l-14 -49 -25 55 c-14 30 -38 93 -52 140 -15 47 -34 99 -42 117 l-14 32 38 9 c20 5 64 15 97 22 33 7 75 17 94 22 28 9 35 8 43 -6 17 -31 46 -17 88 42 36 50 40 61 34 92 -4 19 -8 49 -9 65 -5 68 -85 188 -146 219 -29 14 -64 79 -47 85 54 16 52 61 -2 80 -31 10 -31 11 -29 78 3 61 1 69 -19 78 -43 19 -55 100 -18 115 13 5 27 18 31 30 12 38 6 152 -11 202 -37 112 -55 128 -133 118 -45 -6 -59 -12 -81 -40 -15 -19 -33 -58 -40 -88 -11 -48 -13 -52 -26 -35 -7 10 -14 27 -14 38 0 11 -7 33 -15 49 -14 26 -14 28 3 21 68 -28 61 13 -9 48 -32 16 -61 38 -67 52 -11 23 -9 25 26 34 20 5 64 15 97 21 33 6 68 16 77 21 10 5 24 9 33 9 18 0 90 37 104 54 14 16 21 135 10 157 -11 22 -84 55 -183 84 -45 13 -112 37 -148 54 -79 37 -107 39 -136 8 -28 -30 -28 -39 7 -75 17 -19 24 -35 19 -40 -15 -15 3 -63 28 -74 20 -9 24 -19 24 -53 0 -38 -4 -44 -46 -74 -25 -18 -47 -32 -49 -30 -6 8 -35 131 -35 153 0 13 -3 26 -7 29 -6 7 -9 26 -15 102 -2 22 -6 45 -10 50 -7 11 -11 48 -9 84 1 19 4 21 15 12 19 -16 303 -18 318 -3 7 7 17 8 27 3 55 -29 99 20 70 78 -13 29 -103 133 -198 230 l-45 46 49 3 c27 2 68 -1 90 -7 22 -6 58 -12 79 -13 35 -3 40 0 49 27 9 27 7 32 -28 62 -65 56 -187 59 -253 6 -40 -33 -90 -107 -91 -136 -1 -23 34 -92 70 -138 l28 -35 -42 -2 c-23 -2 -51 -5 -62 -9 -31 -9 -75 -45 -75 -62 0 -9 -3 -11 -9 -5 -7 8 -26 145 -35 249 -3 45 -19 45 -24 0 -10 -93 -2 -271 14 -296 4 -8 7 -27 5 -42 -1 -15 3 -34 9 -42 7 -8 10 -21 7 -30 -4 -8 -2 -17 3 -20 5 -3 7 -14 5 -25 -4 -21 18 -185 25 -185 1 0 4 -18 6 -39 3 -21 9 -47 14 -57 6 -10 10 -32 10 -49 0 -29 17 -96 56 -225 19 -62 22 -107 9 -112 -14 -4 -35 54 -35 95 0 17 -6 51 -14 74 -8 24 -19 66 -25 93 -23 116 -31 146 -41 164 -5 11 -7 26 -4 35 3 8 -1 30 -9 48 -26 57 -42 119 -63 233 -3 17 -12 40 -20 53 -9 13 -13 30 -10 38 3 7 -1 28 -8 46 -8 18 -17 53 -21 77 -4 24 -14 60 -23 80 -9 20 -17 43 -18 51 -1 8 -12 40 -24 70 -12 30 -26 71 -32 90 -6 19 -25 57 -43 85 -17 28 -38 69 -44 90 -7 22 -27 69 -44 105 -17 36 -34 74 -38 85 -3 11 -15 40 -25 63 -10 24 -19 51 -20 60 -1 10 -9 36 -17 60 -9 23 -14 42 -10 42 3 0 1 6 -5 13 -5 6 -20 41 -32 77 -12 36 -28 79 -35 95 -7 17 -23 59 -34 93 -20 58 -20 66 -7 93 8 17 12 37 9 45 -3 9 3 21 16 30 11 8 21 25 21 37 0 13 6 31 13 42 8 11 20 48 27 82 10 51 10 72 0 110 -7 27 -17 52 -22 58 -10 12 -76 17 -82 6z m-18 -763 c-3 -15 -6 -16 -28 -5 -20 10 -26 21 -28 56 -6 75 7 82 34 21 14 -30 24 -62 22 -72z m1022 -1312 c49 -5 72 -21 44 -30 -11 -3 -40 -10 -66 -14 -45 -9 -46 -8 -51 17 -5 25 9 45 24 35 4 -2 26 -6 49 -8z m-190 -513 c0 -19 -20 -15 -26 5 -3 9 -10 25 -15 34 -5 10 -9 28 -9 40 1 18 6 13 25 -22 13 -25 24 -51 25 -57z m298 27 c3 -51 2 -52 -20 -46 -13 3 -30 6 -37 6 -12 0 -12 3 -3 12 7 7 12 20 12 31 0 27 19 59 33 54 7 -2 13 -27 15 -57z m-352 -167 c3 -10 10 -27 15 -38 4 -11 13 -49 19 -84 7 -36 22 -94 36 -129 13 -35 24 -73 24 -83 0 -11 5 -28 12 -38 9 -15 9 -25 0 -46 -13 -29 -9 -58 19 -111 19 -38 12 -74 -13 -74 -6 0 -9 3 -6 6 4 3 0 22 -9 42 -8 19 -19 58 -24 86 -5 28 -11 65 -15 81 -3 17 -7 44 -9 60 -2 17 -5 30 -6 30 -1 0 -3 16 -4 35 -2 19 -4 37 -5 40 -1 3 -2 8 -1 13 1 4 -6 24 -15 45 -10 20 -19 57 -21 82 -2 24 -8 49 -13 54 -13 13 -13 46 0 46 6 0 13 -8 16 -17z m169 -18 c44 0 97 4 119 9 37 8 38 8 26 -13 -6 -13 -9 -28 -7 -35 3 -6 -1 -20 -8 -29 -7 -10 -11 -26 -8 -36 6 -22 -2 -28 -47 -36 -18 -3 -55 -16 -82 -29 l-48 -23 -20 71 c-12 39 -27 83 -35 97 -16 29 -9 44 14 32 9 -4 52 -8 96 -8z m-16 -259 c9 -10 21 -12 49 -5 44 10 54 -1 46 -52 -7 -45 3 -52 55 -40 39 9 41 8 47 -18 4 -14 15 -36 26 -48 20 -21 20 -21 -6 -59 -14 -21 -26 -44 -26 -51 0 -30 -30 -9 -70 50 -24 34 -61 78 -81 98 -24 21 -40 48 -44 68 -3 19 -10 42 -16 52 -11 22 3 26 20 5z m401 -345 c5 -11 10 -33 10 -49 0 -26 -4 -30 -57 -45 -32 -8 -60 -14 -62 -11 -12 12 65 122 86 123 7 1 17 -8 23 -18z m2408 -323 c6 -18 13 -45 16 -60 l6 -27 -47 14 c-27 8 -51 15 -55 15 -18 0 -6 34 21 61 38 37 47 37 59 -3z m-3942 -109 c5 -30 2 -36 -27 -53 l-32 -19 7 39 c17 96 17 97 32 82 8 -8 17 -30 20 -49z m3805 -64 c22 -8 62 -17 89 -21 45 -6 48 -8 39 -25 -5 -11 -7 -24 -4 -29 3 -5 1 -19 -6 -32 -9 -17 -9 -24 3 -32 12 -9 27 -58 42 -141 8 -44 45 -182 57 -210 6 -16 13 -37 14 -45 1 -8 14 -51 29 -95 14 -44 26 -89 26 -99 0 -10 14 -62 30 -115 34 -108 56 -166 110 -284 30 -68 20 -80 -17 -21 -56 88 -84 163 -228 612 -28 86 -122 281 -151 313 -16 18 -18 18 -42 -6 -31 -31 -38 -113 -14 -160 8 -16 21 -57 28 -90 7 -33 20 -80 29 -104 9 -24 15 -51 13 -60 -2 -9 -11 7 -21 34 -10 28 -31 84 -46 125 -16 41 -32 89 -35 105 -4 17 -11 50 -17 75 -5 25 -18 71 -29 103 -11 31 -20 70 -20 85 0 15 -4 32 -9 38 -13 12 -17 76 -7 93 10 15 72 9 137 -14z m-2167 -62 c11 -52 2 -89 -25 -103 -31 -17 -49 4 -49 56 0 59 18 96 44 92 16 -2 23 -14 30 -45z m-1340 -334 c29 -91 23 -101 -54 -77 -30 10 -39 17 -34 28 4 8 10 33 15 55 4 22 11 48 15 58 6 16 8 16 24 2 9 -8 25 -38 34 -66z m-156 -80 c2 -23 2 -23 -13 -5 -18 24 -20 39 -2 34 6 -3 13 -15 15 -29z m1499 -62 c25 -40 58 -84 72 -99 l25 -28 -31 0 c-29 0 -41 14 -68 80 -8 19 -28 54 -41 71 -15 19 -25 61 -13 53 5 -3 30 -38 56 -77z m2231 -167 c11 -32 10 -33 -3 -16 -8 11 -15 29 -15 40 0 25 4 19 18 -24z m230 -936 c22 -4 35 -16 46 -39 9 -18 16 -35 16 -38 0 -9 -76 -16 -250 -22 l-165 -5 40 23 c51 29 159 68 205 74 19 3 37 7 39 9 6 6 34 5 69 -2z m187 -3 c0 -2 27 -4 60 -6 61 -4 182 -32 201 -46 5 -5 29 -11 52 -14 80 -10 187 -71 176 -99 -7 -18 30 -56 54 -56 21 -1 42 -17 65 -50 19 -28 23 -50 5 -32 -20 20 -55 14 -72 -13 -23 -35 -20 -72 9 -101 24 -24 24 -25 6 -43 -30 -30 -37 -82 -15 -98 10 -7 23 -12 30 -9 6 2 37 7 69 11 l59 8 -21 -34 c-62 -99 -339 -231 -439 -209 -19 4 -34 5 -35 1 0 -3 -7 16 -15 43 -9 26 -14 50 -12 51 2 2 53 6 113 9 97 4 112 7 127 26 29 35 23 77 -12 95 -16 8 -40 15 -55 15 -16 0 -25 6 -25 15 0 29 -41 34 -119 14 -115 -29 -114 -6 1 30 37 11 89 29 115 40 26 10 69 25 95 31 55 15 63 22 72 72 6 32 3 39 -16 52 -21 14 -41 12 -217 -19 -184 -33 -240 -36 -190 -11 13 6 30 24 39 39 14 25 13 30 -3 59 l-18 31 58 -6 c50 -5 62 -3 84 16 35 29 41 52 21 70 -30 25 -55 30 -182 36 l-125 6 -11 35 c-11 32 -10 35 10 41 19 5 61 5 61 0z m-1820 -17 c95 -3 164 -12 238 -33 l62 -18 -155 -7 c-85 -3 -189 -12 -231 -19 l-76 -13 -21 30 c-35 53 -33 60 23 67 28 3 59 3 70 0 11 -2 52 -6 90 -7z m1045 -65 l19 -36 -42 -6 c-23 -3 -86 -21 -139 -39 l-98 -33 -16 23 c-9 13 -27 28 -41 33 -25 9 -25 21 0 25 7 2 35 8 62 14 28 6 71 15 96 20 62 11 119 36 119 52 0 16 11 1 40 -53z m-1301 6 l30 -45 -37 -9 c-20 -6 -57 -15 -82 -21 -54 -14 -460 -25 -527 -15 l-48 7 80 20 c44 10 98 24 120 30 22 7 47 13 55 15 8 1 35 7 60 13 47 11 149 29 187 33 12 1 24 4 26 7 3 3 28 6 56 7 49 2 51 0 80 -42z m926 -107 l47 -33 -29 -11 c-15 -7 -41 -14 -58 -18 -27 -6 -32 -2 -52 33 -13 22 -23 42 -23 45 0 4 27 11 57 15 7 0 33 -14 58 -31z m-320 -4 c55 -7 125 -43 125 -65 0 -32 -12 -48 -61 -84 -27 -19 -51 -35 -53 -35 -2 0 -6 10 -9 21 -6 21 -10 22 -82 15 -57 -5 -75 -4 -73 6 4 16 -41 25 -133 27 l-77 1 39 39 c22 21 39 48 39 59 0 19 7 21 63 24 68 4 160 0 222 -8z m2259 -60 c78 -21 91 -33 72 -60 -13 -18 -23 -20 -71 -16 -48 4 -62 10 -91 39 -19 18 -34 38 -34 43 0 15 57 12 124 -6z m-1562 -82 c10 -8 67 -11 191 -9 97 1 177 0 177 -4 0 -3 -21 -15 -47 -28 -44 -21 -53 -22 -177 -15 -72 4 -135 8 -141 9 -5 1 -16 -3 -24 -9 -10 -8 -18 -4 -32 14 -10 14 -25 33 -34 43 -14 16 -14 18 7 26 48 17 53 17 59 2 4 -9 13 -22 21 -29z m765 -11 c11 -18 7 -20 -45 -30 -31 -6 -77 -15 -102 -20 -25 -5 -46 -8 -48 -7 -1 2 21 19 50 39 61 43 124 51 145 18z m-1138 -27 c7 -6 -61 -74 -73 -74 -6 0 -22 -12 -35 -25 -13 -14 -27 -25 -32 -25 -11 0 -147 -67 -234 -114 -33 -19 -76 -37 -95 -41 -19 -4 -50 -16 -70 -26 -19 -10 -51 -20 -70 -21 -29 -3 -35 0 -35 17 0 15 12 23 61 35 33 9 77 26 96 38 19 12 42 22 49 22 42 0 247 127 308 190 34 36 39 38 81 33 25 -3 47 -7 49 -9z m412 -84 c9 0 22 -7 29 -15 7 -8 21 -15 31 -15 21 0 24 -11 8 -27 -14 -14 -3 -67 17 -84 23 -19 17 -26 -31 -39 -59 -17 -92 -43 -100 -80 -5 -25 -12 -29 -43 -32 -27 -2 -40 -9 -47 -25 -8 -18 -19 -23 -60 -25 -27 -2 -68 1 -89 6 -36 8 -41 7 -63 -18 -13 -15 -20 -32 -17 -38 4 -6 -1 -8 -13 -4 -46 15 -94 -103 -60 -148 12 -16 25 -19 65 -17 27 1 58 -2 69 -7 10 -6 47 -15 83 -22 36 -6 74 -17 85 -24 11 -7 32 -16 48 -20 27 -6 27 -7 10 -32 -10 -15 -16 -42 -15 -61 2 -30 0 -34 -15 -29 -9 4 -35 9 -58 12 -49 7 -100 -25 -91 -59 2 -11 -2 -30 -11 -43 -31 -49 -34 -94 -8 -147 49 -96 66 -111 154 -131 43 -10 88 -15 99 -12 20 7 136 -32 173 -57 23 -17 70 -88 86 -132 18 -49 14 -65 -19 -65 -36 0 -60 -12 -123 -64 -66 -54 -88 -75 -110 -109 l-18 -28 -26 53 c-15 30 -58 85 -99 126 l-72 73 -53 -6 c-71 -7 -99 -38 -159 -173 -22 -51 -23 -51 -30 -25 -3 16 -14 55 -23 87 -17 59 -38 157 -76 340 -22 110 -30 128 -67 169 -48 50 -137 24 -177 -53 -17 -33 -21 -171 -7 -230 5 -19 6 -65 2 -103 -9 -111 5 -222 44 -339 20 -59 45 -124 56 -144 16 -27 18 -40 10 -48 -9 -8 -18 -3 -36 19 -13 17 -24 34 -24 39 0 4 -13 24 -30 43 -16 18 -30 38 -30 43 0 4 -19 41 -43 82 -64 111 -80 151 -111 285 -13 58 -13 67 8 131 24 76 38 101 85 150 46 48 28 72 -34 46 -18 -7 -18 -6 -6 9 11 14 11 31 2 94 -6 42 -17 84 -24 92 -7 9 -11 30 -9 46 5 56 6 50 -17 220 -5 44 -15 109 -20 145 -6 36 -12 73 -13 84 -4 22 -3 22 147 82 153 60 310 143 403 211 43 32 72 48 72 39 0 -8 9 -24 19 -37 18 -22 20 -22 26 -6 4 9 13 17 20 17 7 0 18 6 24 14 10 12 31 14 96 10 79 -5 84 -4 101 18 18 24 18 24 53 6 19 -10 43 -18 52 -18z m2138 31 c20 -1 -36 -60 -69 -73 -44 -18 -94 -20 -131 -4 -32 13 -35 18 -31 45 4 28 8 30 51 34 38 3 117 2 180 -2z m-3354 -90 c-12 -11 -112 -41 -134 -41 -30 1 22 25 79 36 30 6 57 12 60 13 2 0 0 -3 -5 -8z m103 -187 c2 -17 -6 -24 -42 -38 -25 -10 -62 -19 -83 -21 -68 -7 -116 -15 -218 -35 -58 -11 -136 -19 -185 -18 -98 1 -132 9 -80 19 19 3 82 18 140 32 58 14 157 33 220 43 63 9 135 22 160 28 64 17 84 15 88 -10z m1962 -1 c0 -5 4 -24 9 -44 l8 -37 -44 3 c-24 2 -47 5 -49 8 -7 6 -158 -1 -194 -9 -30 -7 -83 -11 -249 -19 -68 -3 -145 -10 -170 -15 -25 -4 -52 -5 -60 0 -8 4 9 10 45 14 69 8 204 33 254 46 19 5 50 12 69 15 19 3 37 8 41 10 9 6 85 15 202 25 136 11 138 11 138 3z m-413 -167 c1 -1 -2 -19 -8 -39 -7 -25 -14 -34 -24 -31 -19 8 -77 -56 -72 -77 3 -9 -1 -39 -8 -65 -15 -53 -11 -218 6 -308 11 -59 25 -486 16 -486 -3 0 -17 5 -29 11 -21 9 -24 17 -23 67 0 48 -5 64 -33 104 -18 26 -37 50 -42 53 -5 3 -9 27 -8 53 0 83 -47 212 -98 267 -13 14 -24 30 -24 36 0 5 -9 22 -21 38 -15 20 -21 44 -21 85 -1 34 -7 61 -15 67 -7 6 -13 18 -13 25 0 17 -40 44 -82 54 -18 5 -64 20 -103 33 -38 14 -95 28 -125 32 -63 8 -88 19 -71 29 6 4 11 16 11 27 0 16 5 18 36 13 19 -3 56 -1 82 4 33 7 80 6 155 -2 65 -8 129 -10 165 -5 31 5 106 11 167 14 60 4 112 9 114 11 4 4 62 -5 68 -10z m-1074 -871 c5 -28 4 -34 -3 -20 -8 19 -14 73 -6 64 2 -2 6 -22 9 -44z m-1964 -81 c-13 -49 -25 -80 -30 -73 -10 17 0 76 24 133 30 70 33 40 6 -60z m4468 27 c13 -19 23 -39 23 -45 0 -6 -9 2 -20 19 -10 16 -30 38 -42 48 -21 16 -21 18 -3 15 10 -2 30 -18 42 -37z m-2473 -68 c9 -68 2 -62 -16 15 -12 49 -13 62 -4 49 8 -9 16 -38 20 -64z m2666 12 c0 -3 -9 -22 -20 -42 -22 -41 -28 -24 -7 20 10 23 27 37 27 22z m-46 -202 c-7 -37 -14 -42 -14 -11 0 21 7 38 16 38 1 0 0 -12 -2 -27z m-1975 -39 c-18 -68 -31 -97 -40 -83 -4 7 -3 21 2 30 5 10 9 25 9 34 0 16 30 68 36 62 2 -2 -1 -21 -7 -43z m-2855 -126 c-5 -79 -9 -169 -9 -201 0 -31 -1 -57 -2 -57 -5 0 -26 90 -34 145 -6 47 -4 74 11 130 10 38 22 82 25 98 13 63 16 18 9 -115z m4901 44 c-12 -12 -35 11 -35 35 l0 28 20 -30 c10 -16 17 -31 15 -33z m-3115 -41 c0 -17 -27 -37 -37 -27 -7 7 17 46 27 46 6 0 10 -9 10 -19z m755 -31 c37 0 38 0 20 -20 -10 -11 -24 -20 -31 -20 -19 0 -74 50 -74 68 0 12 4 11 23 -6 16 -15 36 -22 62 -22z m-575 -14 c0 -7 9 -21 20 -31 11 -10 20 -23 20 -30 0 -6 41 -49 90 -94 l90 -82 0 -51 c0 -35 -4 -48 -12 -45 -20 7 -68 -22 -68 -41 -1 -9 -6 -27 -14 -40 -15 -28 -20 -23 -60 58 -45 91 -57 110 -67 110 -5 0 -9 6 -9 13 0 21 -59 66 -95 73 l-33 6 39 35 c40 36 69 84 69 113 0 9 3 20 6 23 9 9 24 -2 24 -17z m3042 -76 c-115 -111 -123 -117 -208 -137 -105 -24 -186 -27 -282 -8 -186 35 -222 54 -142 74 44 11 61 10 152 -9 148 -33 256 -26 359 22 74 34 94 55 87 88 -3 11 91 59 117 59 6 0 -32 -40 -83 -89z m-3568 -4 l29 -19 -38 -13 c-20 -7 -42 -17 -48 -23 -6 -6 -17 -11 -25 -11 -11 0 -13 10 -7 46 11 73 14 78 39 56 11 -10 34 -26 50 -36z m1915 -40 c6 -27 21 -60 32 -75 l21 -26 -24 -6 c-44 -13 -53 -9 -71 31 -14 34 -21 40 -48 40 l-31 0 6 58 c3 31 5 58 5 59 1 2 12 -3 26 -9 21 -10 29 -9 43 5 19 20 17 24 41 -77z m-587 13 c16 -25 71 -55 121 -64 20 -4 37 -9 37 -12 0 -2 -11 -19 -25 -38 -25 -32 -81 -55 -134 -55 -18 0 -19 3 -10 27 13 34 4 42 -63 53 -31 5 -82 22 -114 38 l-57 29 42 7 c23 3 49 2 58 -2 18 -10 86 7 105 26 17 17 26 15 40 -9z m-486 -69 c23 -12 56 -42 73 -66 71 -101 208 -153 364 -140 140 13 224 49 291 127 40 47 41 51 24 79 -7 10 -9 23 -5 27 11 10 24 -13 32 -54 5 -28 0 -41 -36 -89 -61 -84 -75 -95 -104 -88 -18 4 -27 1 -31 -11 -5 -12 -14 -15 -30 -11 -15 4 -34 0 -49 -10 -30 -19 -132 -22 -165 -4 -11 6 -24 8 -29 6 -10 -6 -74 14 -138 44 -24 11 -46 20 -51 20 -4 0 -22 14 -40 30 -18 17 -39 30 -45 30 -23 0 -106 85 -122 124 -15 38 -15 39 2 24 10 -8 37 -25 59 -38z m1324 3 c0 -7 -4 -13 -10 -13 -5 0 -10 12 -10 28 0 21 2 24 10 12 5 -8 10 -21 10 -27z m-3062 -2 c-14 -38 -18 -42 -39 -31 -18 10 -26 40 -14 52 3 3 18 5 34 4 26 -1 28 -3 19 -25z m1207 -21 c-14 -16 -20 -17 -26 -8 -5 8 -2 16 9 20 30 12 35 8 17 -12z m152 -52 c38 -42 37 -53 -1 -24 -36 27 -41 28 -85 18 l-46 -10 24 19 c32 26 82 25 108 -3z m1546 -39 c45 -65 31 -98 -22 -53 -29 25 -42 70 -24 87 11 12 17 7 46 -34z m-2091 -41 c2 -21 0 -38 -4 -38 -4 0 -7 24 -7 53 1 54 5 49 11 -15z m2348 52 c0 -5 -10 -10 -22 -10 -13 0 -30 -4 -38 -9 -8 -6 -18 -7 -23 -4 -12 7 32 31 61 32 12 1 22 -3 22 -9z m-1413 -45 c42 -36 157 -105 175 -105 5 0 34 -12 64 -26 55 -26 130 -39 217 -38 27 1 48 -4 48 -10 1 -6 3 -20 4 -31 1 -11 12 -39 25 -63 12 -24 21 -45 18 -47 -2 -3 -21 17 -41 44 -51 67 -107 90 -211 88 -72 -1 -81 -4 -107 -29 l-28 -29 -17 26 c-9 14 -28 28 -42 32 -14 3 -37 12 -50 19 -21 11 -29 10 -46 -2 -11 -8 -23 -14 -26 -14 -4 0 -13 30 -20 68 -15 68 -20 152 -9 152 3 0 24 -16 46 -35z m828 -67 c28 -95 72 -162 147 -230 43 -39 49 -48 32 -48 -47 0 -75 -74 -40 -108 13 -14 20 -14 36 -4 11 6 26 12 34 12 21 0 66 -58 66 -86 0 -14 12 -37 26 -51 25 -25 26 -30 20 -95 -6 -67 -5 -70 23 -99 38 -38 53 -37 95 7 41 43 50 75 37 135 -5 24 -9 44 -8 45 5 5 45 -33 60 -56 24 -38 49 -120 43 -144 -3 -12 1 -32 8 -46 11 -23 9 -30 -25 -80 -24 -37 -44 -56 -57 -56 -21 0 -21 3 9 46 9 14 20 41 23 62 6 31 3 39 -20 57 -15 12 -34 21 -42 21 -19 0 -52 -29 -52 -46 0 -7 -23 -33 -51 -58 l-52 -47 -21 53 c-64 155 -146 285 -252 398 -32 35 -43 55 -47 90 -3 27 -13 51 -25 60 -10 9 -27 38 -37 65 -9 28 -26 69 -36 92 -11 24 -19 48 -19 54 0 12 87 139 95 139 2 0 16 -37 30 -82z m775 16 c0 -10 -63 -62 -81 -67 -14 -4 -11 4 14 34 27 33 67 53 67 33z m-3667 -62 c11 -17 104 -85 147 -107 22 -11 66 -20 122 -23 48 -3 88 -8 88 -12 0 -4 -9 -15 -21 -26 -17 -15 -36 -19 -93 -19 -111 0 -218 58 -248 135 -4 8 -14 33 -23 55 -16 38 -16 39 2 25 10 -8 22 -21 26 -28z m3413 -6 c9 -29 8 -33 -5 -28 -36 13 -54 62 -23 62 11 0 21 -12 28 -34z m-2513 -38 c-8 -29 -18 -66 -23 -83 -4 -16 -14 -48 -22 -69 -13 -35 -15 -37 -20 -18 -10 36 -64 30 -86 -8 -15 -26 -23 -30 -59 -30 -23 0 -69 -7 -102 -16 -34 -8 -66 -12 -71 -9 -17 10 -11 25 9 25 11 0 22 4 25 9 3 4 24 11 46 14 26 3 58 19 87 41 26 20 50 36 54 36 12 0 97 59 101 70 2 8 69 88 75 90 0 0 -5 -24 -14 -52z m348 -130 c-11 -4 -25 -16 -31 -27 -9 -18 -6 -24 27 -45 32 -20 48 -24 99 -22 68 3 86 10 78 30 -9 24 15 28 41 8 14 -11 61 -33 105 -48 44 -16 80 -32 80 -36 0 -3 -18 -22 -40 -40 -42 -36 -127 -64 -144 -47 -6 5 -20 9 -32 9 -12 0 -47 21 -77 46 -48 39 -60 45 -87 39 -16 -4 -36 -15 -44 -26 -13 -19 -14 -19 -35 14 -11 19 -21 40 -21 47 0 7 -16 30 -35 51 -34 38 -35 42 -35 117 0 43 3 82 7 86 4 3 42 -28 85 -71 68 -67 75 -78 59 -85z m1440 90 c4 -16 6 -28 5 -28 -1 0 -13 14 -25 31 -20 27 -21 30 -5 27 10 -1 21 -15 25 -30z m-2071 7 c0 -15 -75 -57 -122 -69 -54 -13 -17 40 45 65 54 22 77 23 77 4z m1173 -70 c-21 -16 -67 -20 -58 -5 3 6 12 10 19 10 7 0 21 9 32 21 17 19 19 19 22 4 2 -9 -5 -23 -15 -30z m107 -62 c-16 -129 -37 -177 -85 -198 -21 -8 -39 -15 -41 -15 -2 0 17 33 42 74 25 41 43 79 40 84 -3 5 4 29 16 53 11 24 22 57 23 74 4 39 4 40 11 32 4 -3 1 -50 -6 -104z m-938 -169 c15 -65 70 -158 114 -193 14 -11 48 -31 75 -43 26 -13 48 -27 49 -32 0 -4 -8 -5 -17 -1 -10 4 -32 13 -48 19 -50 18 -132 75 -157 109 -53 70 -69 117 -69 191 0 39 6 103 13 141 l13 70 7 -100 c3 -55 13 -127 20 -161z m1541 88 c18 -46 22 -72 9 -56 -9 9 -62 131 -62 141 0 14 38 -46 53 -85z m-141 -65 c29 -72 34 -97 19 -97 -14 0 -80 170 -81 210 0 16 38 -54 62 -113z m-1740 -48 c-37 -33 -84 -37 -90 -7 -2 13 9 18 50 26 29 5 58 10 63 11 6 0 -5 -13 -23 -30z m1382 -31 c4 -17 2 -28 -4 -28 -5 0 -10 14 -10 32 0 36 4 35 14 -4z m1516 13 c18 -35 11 -45 -15 -21 -14 13 -25 27 -25 32 0 16 29 8 40 -11z m-2257 -35 c9 3 22 -8 35 -30 17 -29 18 -35 5 -40 -34 -13 -50 -5 -71 39 -21 43 -21 45 -3 35 11 -5 26 -7 34 -4z m1568 -85 c-12 -12 -21 -27 -21 -35 0 -8 -5 -18 -12 -22 -7 -5 -8 -3 -3 6 4 7 8 29 7 48 -1 24 5 39 21 52 22 18 22 18 25 -5 2 -14 -5 -32 -17 -44z m109 -83 c0 -5 16 -32 35 -61 19 -28 35 -57 35 -62 0 -14 57 -69 88 -84 35 -18 16 -31 -36 -24 -68 9 -97 27 -119 75 -22 46 -43 133 -43 175 0 25 0 26 20 8 11 -10 20 -22 20 -27z m-621 18 c-2 -2 -14 -8 -25 -14 -17 -9 -25 -8 -34 3 -11 13 -7 15 25 15 21 0 36 -2 34 -4z m-1799 -214 c62 -16 71 -21 50 -26 -56 -15 -192 35 -227 82 l-21 29 61 -33 c34 -18 96 -41 137 -52z m1163 -334 c-8 -10 -30 -22 -48 -28 -35 -12 -77 0 -119 33 -18 13 -15 15 38 21 32 4 72 14 89 21 30 12 33 12 44 -8 9 -18 8 -25 -4 -39z"/>
 <path d="M5817 5593 c-9 -8 -9 -57 -1 -66 3 -3 8 -47 10 -99 2 -51 5 -103 6 -116 3 -26 22 -30 25 -5 1 10 4 38 7 62 3 24 1 64 -5 90 -6 25 -13 64 -15 85 -4 41 -15 61 -27 49z"/>
 <path d="M5555 12158 c-16 -12 -34 -23 -41 -24 -41 -6 -169 -137 -202 -206 -16 -33 -20 -56 -16 -100 2 -31 0 -59 -5 -62 -12 -8 -13 -165 -1 -223 5 -26 23 -77 39 -113 16 -36 33 -78 38 -95 4 -16 13 -28 18 -25 11 5 9 85 -2 110 -3 8 -7 20 -7 25 -1 6 -9 26 -18 45 -20 40 -37 148 -32 200 2 19 6 64 10 100 3 36 7 75 8 86 1 12 12 33 24 48 11 15 18 34 15 42 -3 8 1 14 10 14 8 0 22 10 30 23 35 51 114 126 123 117 11 -11 88 29 86 45 -3 20 -49 16 -77 -7z"/>
 <path d="M5526 11769 c-16 -4 -42 -21 -58 -36 l-30 -28 7 -115 c6 -121 11 -166 25 -215 5 -16 16 -66 25 -110 28 -137 95 -375 128 -455 8 -19 18 -64 22 -100 9 -84 24 -109 62 -102 80 15 120 88 109 197 -23 214 -77 473 -103 493 -11 8 -21 38 -29 90 -30 189 -64 332 -87 360 -18 23 -41 29 -71 21z"/>
 <path d="M7461 11646 c-9 -10 -7 -19 6 -35 16 -20 20 -20 38 -7 19 14 19 15 1 35 -22 25 -30 26 -45 7z"/>
 <path d="M4327 11612 c-20 -22 -23 -94 -8 -187 6 -38 13 -75 16 -82 2 -7 0 -15 -6 -18 -11 -8 -10 -67 2 -110 4 -16 11 -70 13 -120 3 -49 8 -101 11 -115 9 -46 16 -94 20 -158 3 -34 11 -78 19 -96 8 -19 12 -37 9 -40 -3 -3 -2 -13 2 -23 4 -10 8 -43 10 -73 1 -30 5 -64 8 -75 3 -12 8 -48 12 -80 4 -33 11 -75 17 -93 5 -17 11 -71 13 -120 2 -48 6 -98 9 -112 4 -14 11 -65 17 -115 6 -49 17 -114 24 -144 8 -30 12 -57 10 -61 -2 -4 0 -22 6 -41 5 -19 12 -56 15 -84 3 -27 13 -93 24 -145 36 -184 36 -169 -4 -202 l-36 -30 0 -91 c-1 -210 2 -248 20 -272 4 -5 13 -46 20 -90 6 -44 15 -84 20 -90 4 -5 13 -39 20 -75 7 -36 17 -70 21 -76 5 -6 6 -13 3 -17 -10 -10 37 -198 59 -235 12 -19 22 -42 23 -51 2 -9 5 -32 8 -51 3 -19 12 -53 20 -76 8 -23 17 -61 20 -85 3 -24 10 -60 16 -79 5 -19 10 -53 10 -75 -1 -32 -3 -37 -11 -22 -6 9 -12 26 -14 37 -7 39 -45 111 -54 105 -10 -6 -13 2 -55 165 -55 213 -87 317 -170 560 -100 293 -121 359 -144 452 -17 65 -44 109 -65 105 -5 -1 -19 36 -30 83 -10 47 -23 94 -27 105 -5 11 -14 47 -20 80 -40 199 -43 210 -59 201 -11 -7 -5 -288 7 -327 6 -19 13 -50 16 -69 2 -19 12 -73 21 -120 23 -117 34 -179 40 -218 4 -34 10 -53 39 -147 9 -27 18 -70 22 -95 3 -25 9 -54 13 -65 14 -35 42 -147 57 -223 7 -41 18 -90 23 -110 6 -20 13 -57 16 -82 6 -48 58 -288 105 -485 15 -66 35 -151 43 -190 41 -187 81 -352 88 -366 11 -22 52 -31 83 -19 40 15 59 54 58 118 0 43 1 51 8 32 4 -14 8 -42 9 -62 3 -107 64 -266 114 -296 23 -14 29 -14 53 -1 15 7 39 32 53 53 25 37 26 45 24 175 0 75 -6 174 -12 221 -7 47 -14 103 -17 125 -3 22 -16 92 -29 155 -13 63 -29 187 -35 275 -12 191 -14 208 -45 445 -29 212 -62 413 -102 600 -8 41 -17 89 -20 105 -2 17 -6 37 -10 45 -3 8 -7 33 -8 55 -3 34 -12 92 -30 190 -2 11 -16 88 -30 170 -15 83 -32 170 -37 195 -5 25 -10 59 -12 75 -13 94 -17 124 -26 165 -6 25 -21 117 -35 205 -14 88 -30 185 -35 215 -10 51 -19 102 -38 225 -4 28 -11 55 -14 60 -3 6 -9 39 -13 75 -4 36 -8 67 -10 70 -2 3 -6 27 -9 54 -3 26 -8 51 -11 56 -3 5 -8 30 -10 57 -3 26 -10 68 -15 93 -18 89 -40 226 -40 250 0 32 -26 130 -38 142 -5 5 -15 1 -25 -10z"/>
 <path d="M7565 11527 c-8 -20 12 -67 29 -67 28 0 59 -73 70 -165 2 -16 11 -68 21 -115 13 -65 18 -148 21 -350 2 -146 4 -272 5 -280 1 -8 1 -49 0 -90 0 -41 -1 -133 -1 -205 0 -199 -8 -444 -15 -454 -3 -5 -1 -13 5 -16 7 -4 8 -11 2 -18 -6 -7 -12 -77 -15 -157 -3 -80 -7 -152 -10 -160 -3 -8 -8 -58 -11 -110 -3 -52 -12 -142 -20 -200 -8 -58 -16 -148 -17 -200 -1 -52 -6 -100 -10 -105 -4 -6 -10 -51 -13 -100 -2 -50 -7 -103 -10 -120 -3 -16 -7 -46 -10 -65 -2 -19 -9 -59 -15 -88 -6 -28 -13 -77 -16 -108 -2 -31 -7 -60 -10 -64 -3 -5 -7 -28 -10 -52 -16 -154 -22 -202 -31 -230 -2 -9 0 -19 6 -23 7 -4 8 -11 2 -18 -15 -19 -21 -72 -29 -257 -12 -259 -10 -536 4 -610 7 -36 15 -81 18 -100 3 -19 11 -51 18 -70 6 -19 12 -37 12 -40 1 -3 6 -16 12 -30 6 -14 23 -54 38 -90 31 -74 41 -88 54 -75 6 6 4 25 -5 50 -7 22 -14 48 -14 58 0 11 -7 35 -16 55 -36 83 -54 144 -54 188 0 16 -7 52 -15 79 -16 51 -16 58 0 554 2 57 6 133 9 170 4 36 9 89 11 116 2 28 9 65 14 84 6 19 8 37 5 42 -2 4 0 34 6 66 20 118 52 339 55 383 1 25 8 63 13 85 6 22 14 81 17 130 4 50 10 109 14 132 5 23 9 84 10 134 1 51 4 95 5 98 2 4 7 30 10 60 4 30 9 64 11 75 3 12 7 64 10 116 3 52 10 142 15 200 5 58 9 139 9 180 -1 41 0 80 0 85 4 17 13 327 12 395 0 36 0 108 0 160 2 183 -1 506 -5 635 -4 130 -13 195 -42 292 -9 28 -14 60 -12 70 3 21 -60 103 -104 134 -23 16 -29 18 -33 6z"/>
 <path d="M1762 11004 c-23 -18 -31 -31 -26 -43 3 -9 8 -32 10 -51 3 -19 12 -51 21 -70 9 -19 20 -48 24 -65 23 -92 41 -150 56 -178 9 -18 18 -50 20 -72 3 -43 34 -191 63 -305 12 -46 20 -91 42 -213 6 -37 15 -70 20 -73 4 -3 8 -12 8 -21 0 -24 40 -73 68 -84 19 -7 29 -6 40 4 12 12 12 35 2 148 -14 156 -15 164 -23 204 -4 17 -9 46 -12 65 -3 19 -9 49 -14 65 -5 17 -14 57 -21 90 -20 102 -33 149 -47 179 -8 15 -17 40 -20 55 -6 34 -72 198 -102 251 -20 37 -36 68 -53 103 -10 20 -19 37 -21 37 -1 0 -17 -12 -35 -26z"/>
 <path d="M325 10941 c-3 -6 -5 -21 -4 -34 2 -12 0 -32 -4 -43 -4 -12 0 -61 8 -110 9 -49 18 -102 20 -119 6 -49 23 -126 39 -180 9 -27 16 -69 16 -93 0 -23 6 -58 14 -77 9 -22 11 -37 5 -41 -6 -4 -6 -10 -1 -17 6 -7 15 -45 21 -86 6 -40 17 -83 23 -95 6 -11 13 -34 15 -51 21 -194 57 -412 75 -447 11 -23 51 -33 76 -19 56 30 47 267 -18 481 -18 58 -33 112 -34 120 -5 33 -84 308 -92 322 -3 5 -14 48 -24 96 -26 122 -103 376 -120 395 -4 5 -11 4 -15 -2z"/>
 <path d="M6628 10614 c-15 -8 -30 -25 -34 -39 -11 -44 4 -338 21 -425 7 -35 21 -200 29 -340 3 -58 19 -223 31 -320 2 -19 7 -69 11 -110 3 -41 8 -84 11 -95 2 -11 6 -58 8 -105 3 -47 7 -98 10 -115 5 -31 20 -224 31 -395 3 -52 7 -108 10 -125 6 -44 13 -284 8 -255 -3 14 -23 139 -45 279 -22 140 -45 261 -50 268 -14 16 -29 7 -29 -18 0 -10 -8 -26 -18 -35 -17 -14 -18 -22 -5 -117 7 -56 18 -162 23 -235 5 -74 13 -138 16 -144 4 -6 8 -39 10 -72 3 -96 23 -251 34 -282 6 -16 20 -47 30 -69 26 -55 34 -116 21 -158 -7 -19 -12 -77 -12 -130 l-1 -94 42 -62 c49 -71 56 -77 76 -60 13 10 15 31 12 108 -3 82 0 98 14 111 12 10 18 31 20 67 2 77 16 54 17 -28 1 -86 11 -101 65 -97 60 4 67 27 82 253 7 104 15 223 19 263 7 94 7 277 0 479 -5 148 -7 184 -20 316 -3 28 -8 81 -11 117 -6 80 -9 98 -15 105 -3 2 -4 33 -2 67 3 53 -3 151 -22 328 -11 107 -25 261 -30 340 -8 117 -15 182 -21 192 -3 4 -7 73 -9 153 l-5 146 39 -41 c42 -45 57 -41 46 13 -11 53 -47 151 -63 170 -22 25 -64 21 -93 -9 -23 -25 -24 -30 -24 -192 0 -258 17 -539 49 -812 7 -63 14 -160 15 -214 1 -55 4 -102 6 -106 2 -3 7 -53 10 -110 4 -58 8 -107 10 -110 2 -3 6 -64 10 -135 3 -72 8 -137 11 -145 4 -17 16 -358 14 -425 -1 -22 -5 -44 -11 -49 -5 -6 -9 -17 -9 -25 0 -9 -7 -28 -15 -44 -16 -32 -34 -151 -36 -240 l-1 -62 -10 60 c-5 33 -7 151 -4 263 3 112 1 250 -5 310 -6 59 -12 126 -14 150 -13 146 -16 180 -20 207 -2 17 -7 57 -10 90 -3 33 -10 89 -15 125 -5 36 -11 94 -14 130 -3 36 -12 117 -21 180 -14 107 -20 155 -30 255 -2 22 -7 60 -10 85 -12 89 -15 116 -20 175 -3 33 -10 89 -15 125 -9 63 -14 133 -28 345 -8 111 -1 240 10 213 9 -23 25 -23 37 0 7 13 5 39 -6 86 -14 54 -22 70 -41 77 -30 11 -31 11 -64 -7z m214 -2763 c-4 -11 -7 -10 -13 5 -4 10 -8 28 -8 39 -1 17 1 17 12 -5 8 -14 11 -31 9 -39z"/>
 <path d="M5596 10515 c-37 -28 -46 -63 -46 -175 0 -59 5 -121 11 -139 8 -23 8 -35 0 -45 -19 -23 -1 -70 45 -116 49 -49 50 -51 29 -84 -22 -33 -29 -113 -16 -164 13 -47 59 -106 102 -127 15 -8 61 -15 104 -17 l76 -2 39 45 c22 24 39 49 40 55 0 6 11 21 24 33 28 27 40 80 19 88 -8 3 -12 12 -8 21 10 27 -17 111 -41 127 -29 19 -161 46 -189 39 -16 -4 -30 6 -62 43 l-41 49 30 -2 c17 -1 46 -5 66 -9 21 -4 46 -9 57 -10 85 -12 149 -25 160 -35 25 -21 59 -7 80 32 l20 37 -24 25 c-13 14 -36 28 -52 31 -20 5 -29 13 -29 26 0 30 -43 41 -108 29 -31 -5 -79 -10 -108 -10 -51 0 -53 1 -60 33 -4 17 -7 67 -7 109 0 55 -3 81 -14 89 -10 9 -17 9 -25 1 -9 -9 -14 -6 -22 10 -14 27 -26 31 -50 13z m279 -577 c44 -20 33 -90 -23 -150 -14 -16 -31 -28 -37 -28 -26 0 -49 41 -49 88 -1 46 0 47 27 44 36 -4 59 15 52 39 -7 22 -4 23 30 7z"/>
 <path d="M7156 10178 c-9 -12 -16 -34 -16 -49 0 -14 -2 -28 -5 -31 -3 -3 -8 -48 -10 -99 -5 -106 -12 -193 -22 -259 -3 -25 -5 -49 -4 -54 1 -4 -3 -14 -10 -22 -7 -8 -8 -25 -4 -41 4 -16 9 -86 11 -158 3 -71 6 -161 8 -200 2 -38 7 -187 11 -330 4 -143 9 -264 12 -268 5 -9 4 -770 -2 -842 -2 -27 -7 -142 -10 -255 -5 -197 -5 -209 18 -275 21 -66 25 -70 52 -70 29 0 30 1 37 65 6 55 33 354 44 485 11 144 2 996 -12 1095 -2 14 -6 84 -8 155 -11 304 -17 434 -21 505 -3 41 -7 154 -10 250 -7 236 -16 403 -21 412 -9 14 -22 9 -38 -14z"/>
 <path d="M7074 9906 c-4 -10 -2 -22 4 -28 8 -8 13 -7 18 6 4 10 2 22 -4 28 -8 8 -13 7 -18 -6z"/>
 <path d="M5704 9626 c-57 -32 -91 -92 -101 -179 -3 -29 -12 -61 -19 -72 -18 -26 -18 -55 1 -82 15 -21 49 -24 66 -6 10 11 66 153 74 187 7 35 18 27 21 -17 2 -17 8 -54 13 -82 5 -27 8 -52 6 -56 -2 -3 -6 -35 -9 -71 -6 -82 15 -122 70 -137 31 -8 45 -7 85 10 41 18 52 30 77 78 31 60 66 186 57 202 -10 16 -56 10 -85 -11 -16 -11 -36 -41 -46 -65 -9 -25 -19 -43 -22 -41 -5 6 -40 207 -47 271 -3 21 -13 48 -24 59 -23 22 -87 29 -117 12z"/>
 <path d="M2576 7505 c-12 -18 -14 -30 -7 -44 7 -12 7 -21 0 -28 -10 -10 15 -65 93 -203 l20 -35 -26 30 c-14 17 -26 35 -26 42 0 18 -41 43 -69 43 -26 0 -81 -45 -81 -65 0 -19 87 -213 118 -264 16 -25 35 -64 42 -86 7 -22 23 -60 35 -85 13 -25 31 -74 40 -110 22 -82 37 -106 69 -112 53 -10 86 77 57 154 -27 74 -22 75 49 7 39 -37 70 -73 70 -81 0 -19 32 -48 53 -48 8 0 29 11 46 25 29 25 29 27 16 63 -21 58 -139 283 -264 505 -112 199 -189 317 -207 317 -6 0 -19 -11 -28 -25z"/>
 <path d="M835 7491 c-3 -6 -4 -15 0 -20 3 -5 1 -12 -5 -16 -5 -3 -8 -22 -5 -41 3 -19 7 -51 10 -71 3 -21 10 -54 15 -73 5 -19 14 -69 19 -110 6 -41 22 -131 36 -199 18 -91 22 -127 14 -137 -8 -9 -5 -35 11 -96 12 -45 25 -87 30 -93 4 -5 11 -32 14 -60 5 -46 25 -139 38 -175 14 -40 28 -89 34 -125 9 -47 9 -46 16 -65 11 -27 38 -155 38 -176 0 -11 6 -29 14 -39 8 -11 12 -25 9 -32 -3 -7 0 -19 6 -27 6 -7 8 -15 6 -18 -3 -3 3 -39 13 -79 23 -88 52 -209 63 -264 11 -56 33 -152 64 -280 14 -60 30 -135 35 -165 6 -30 15 -71 21 -90 19 -59 41 -182 43 -237 1 -28 8 -58 14 -66 7 -8 42 -20 78 -27 58 -11 67 -11 84 5 11 10 20 24 20 31 0 13 -25 125 -70 319 -25 104 -58 259 -66 310 -4 22 -13 53 -21 68 -7 15 -11 32 -8 38 4 5 2 15 -3 22 -6 7 -16 41 -22 77 -7 36 -19 85 -26 109 -8 25 -14 55 -14 67 0 13 -4 25 -8 28 -5 3 -14 31 -21 63 -7 32 -16 65 -19 73 -5 15 -27 100 -38 150 -3 14 -9 34 -14 45 -10 23 -39 117 -70 230 -12 44 -26 91 -31 105 -4 14 -13 52 -20 85 -7 33 -16 65 -20 70 -4 6 -10 36 -14 68 -5 37 -13 61 -22 64 -9 3 -13 14 -10 25 3 10 -1 31 -8 46 -8 15 -24 72 -35 127 -12 55 -26 108 -31 117 -5 10 -9 27 -9 37 0 11 -4 22 -9 26 -6 3 -13 27 -16 53 -4 26 -13 67 -20 92 -8 25 -19 72 -26 105 -6 33 -16 71 -22 85 -6 14 -11 29 -11 34 -1 14 -23 19 -31 7z"/>
 <path d="M1635 7248 c-4 -9 -4 -21 -1 -27 4 -5 2 -12 -3 -16 -7 -4 -5 -18 3 -38 13 -29 20 -60 45 -182 4 -22 15 -56 24 -75 9 -19 32 -70 51 -112 20 -42 33 -83 31 -90 -3 -8 6 -24 20 -36 20 -18 24 -28 20 -58 -3 -27 3 -52 26 -97 16 -34 34 -67 40 -73 5 -6 7 -18 3 -27 -3 -8 2 -26 10 -39 9 -14 14 -27 11 -30 -3 -3 1 -11 10 -18 8 -7 15 -20 15 -30 0 -10 6 -23 14 -29 8 -7 17 -25 21 -39 3 -15 25 -58 50 -96 24 -38 47 -82 50 -98 10 -42 31 -81 60 -108 14 -13 25 -28 25 -33 0 -16 84 -128 149 -199 81 -88 176 -137 271 -140 36 -1 74 4 86 10 31 16 56 59 52 90 -3 25 -9 28 -66 39 -76 15 -126 51 -143 100 -8 25 -21 39 -44 49 -19 7 -49 36 -71 66 -67 92 -204 299 -204 307 0 5 -7 14 -15 21 -8 7 -23 31 -33 54 -11 22 -26 47 -35 55 -10 7 -17 18 -17 24 0 6 -9 20 -19 31 -26 28 -132 232 -253 486 -72 153 -83 177 -118 261 -17 42 -37 85 -45 95 -12 17 -14 18 -20 2z"/>
 <path d="M1340 7205 c-10 -27 -8 -148 3 -175 16 -38 39 -171 41 -230 0 -36 5 -70 9 -77 4 -7 10 -44 12 -83 3 -40 7 -76 10 -80 3 -5 12 -46 21 -92 9 -45 20 -88 25 -94 5 -6 12 -33 15 -60 4 -27 10 -53 14 -59 3 -5 7 -25 9 -44 1 -19 5 -39 10 -45 5 -6 14 -42 20 -81 12 -71 31 -160 120 -545 10 -47 27 -128 37 -180 18 -100 70 -259 99 -303 18 -28 62 -47 107 -47 29 0 78 38 78 61 0 6 -13 57 -29 113 -15 55 -38 146 -50 201 -12 55 -31 119 -41 142 -10 23 -30 93 -45 155 -14 62 -35 151 -46 198 -11 47 -27 114 -35 150 -13 56 -44 161 -61 210 -3 8 -7 26 -9 38 -1 13 -10 34 -18 47 -9 13 -13 31 -10 39 3 8 -1 30 -8 48 -12 28 -59 198 -73 263 -10 47 -35 136 -59 210 -15 44 -31 98 -38 120 -22 78 -38 127 -53 155 -8 15 -12 30 -10 32 3 3 -4 13 -15 23 -19 17 -20 17 -30 -10z"/>
 <path d="M3632 7118 c-6 -6 -12 -19 -12 -27 0 -28 31 -105 54 -136 21 -29 38 -61 40 -77 1 -5 4 -8 9 -8 4 0 10 0 14 0 4 0 2 5 -4 11 -6 6 -9 17 -7 24 3 7 -6 33 -20 58 -14 25 -23 52 -20 60 3 8 1 18 -5 22 -6 3 -11 16 -11 29 0 34 -22 60 -38 44z"/>
 <path d="M7819 6754 c-5 -6 -37 -14 -71 -18 -60 -6 -96 -22 -81 -36 4 -4 40 -3 78 2 151 19 265 18 355 -4 94 -23 247 -33 265 -18 7 6 38 12 68 13 31 2 59 5 61 8 7 7 170 2 195 -6 15 -4 23 -1 27 10 4 10 11 12 18 7 6 -5 45 -10 86 -11 41 -1 107 -8 145 -15 85 -17 238 -36 292 -36 21 0 43 -4 49 -10 5 -5 18 -11 29 -13 11 -2 30 -8 42 -15 12 -7 31 -12 43 -12 12 0 42 -9 68 -20 26 -11 58 -21 72 -22 14 -2 31 -7 39 -12 7 -5 42 -10 78 -12 36 -1 68 -5 71 -8 3 -3 24 -6 47 -6 23 0 64 -6 91 -14 96 -26 169 -40 209 -39 22 1 56 2 76 2 19 1 44 8 55 15 35 26 4 38 -105 38 -55 0 -103 4 -106 8 -3 5 -12 7 -20 3 -9 -3 -21 -1 -28 4 -18 14 -102 31 -182 38 -38 4 -83 8 -100 11 -16 2 -49 6 -71 8 -23 3 -64 16 -90 29 -27 14 -68 28 -91 32 -24 4 -45 11 -49 16 -3 5 -18 9 -33 9 -15 0 -32 5 -38 11 -11 11 -134 16 -150 6 -5 -3 -21 0 -36 8 -15 8 -35 14 -44 13 -10 0 -72 7 -138 16 -138 17 -403 28 -410 16 -3 -4 -44 -9 -91 -9 -47 -1 -90 -3 -94 -6 -5 -3 -41 -7 -82 -10 -74 -5 -147 6 -204 30 -38 16 -231 15 -245 -1z"/>
 <path d="M8485 6670 c-4 -7 1 -13 14 -17 12 -3 21 -11 21 -18 0 -22 34 -42 95 -55 71 -15 66 -15 230 -34 292 -35 486 -70 605 -109 41 -14 65 -25 53 -26 -12 -1 -24 -5 -27 -10 -3 -5 -14 -7 -24 -4 -23 6 -52 -24 -31 -31 32 -11 97 -25 146 -31 29 -4 55 -11 59 -16 3 -5 18 -9 33 -9 15 0 32 -5 38 -11 19 -19 59 14 67 54 9 46 2 60 -51 103 -72 59 -220 113 -422 154 -214 43 -790 86 -806 60z"/>
 <path d="M8289 6483 c-5 -16 -11 -33 -14 -40 -7 -22 40 -40 145 -57 58 -9 132 -23 165 -30 33 -8 103 -21 155 -30 315 -51 590 -104 605 -116 6 -4 28 -11 50 -15 45 -8 121 -40 130 -55 19 -31 75 10 75 56 0 32 -43 78 -94 102 -86 41 -590 142 -911 182 -38 5 -104 14 -145 19 -128 17 -149 15 -161 -16z"/>
 <path d="M10557 6452 c-10 -10 -17 -23 -17 -29 0 -17 105 -102 147 -119 21 -9 61 -26 88 -39 28 -13 74 -33 103 -46 l53 -22 -97 -33 c-54 -18 -100 -31 -102 -29 -3 2 -14 -2 -26 -10 -11 -8 -30 -15 -42 -15 -31 0 -111 -74 -124 -116 -12 -34 -10 -38 19 -68 31 -31 38 -34 164 -50 240 -31 271 -35 351 -41 43 -3 82 -7 85 -10 4 -2 65 -6 136 -9 164 -7 219 5 253 55 14 20 31 33 40 31 10 -2 41 -6 70 -9 28 -3 52 -9 52 -14 0 -5 -8 -24 -17 -44 -18 -37 -36 -44 -123 -48 -48 -2 -256 10 -330 18 -25 3 -192 7 -372 9 -314 4 -327 3 -344 -16 -22 -23 -8 -55 22 -50 75 10 692 -3 777 -17 37 -6 72 -9 78 -5 5 3 16 1 23 -5 13 -11 185 -8 243 5 41 8 75 53 96 123 l16 54 -28 28 c-16 16 -44 30 -67 34 -21 4 -64 14 -94 23 -68 20 -58 17 -105 26 -22 4 -47 11 -55 15 -9 5 -31 12 -50 16 -19 4 -44 13 -55 20 -11 7 -50 18 -88 25 -74 14 -101 5 -95 -33 3 -20 8 -22 83 -32 22 -3 59 -14 82 -25 24 -11 53 -20 65 -20 13 -1 34 -7 48 -15 24 -14 22 -14 -35 -14 -33 0 -94 4 -135 9 -41 4 -145 16 -230 24 -85 9 -162 18 -170 21 -8 2 -44 7 -80 10 -36 4 -67 9 -70 11 -7 8 20 22 75 40 28 9 56 21 64 27 8 7 24 10 36 9 12 -2 39 6 59 17 21 12 64 23 103 27 110 9 132 25 129 88 -2 36 -5 40 -47 57 -24 10 -56 18 -71 18 -31 1 -195 55 -356 117 -63 24 -115 44 -116 44 -2 0 -10 -8 -19 -18z"/>
 <path d="M10280 6351 c-25 -48 -4 -223 41 -326 16 -39 49 -145 49 -160 0 -27 -39 -94 -62 -106 -15 -8 -89 -10 -262 -5 -133 3 -252 6 -266 6 -23 0 -25 3 -25 50 0 41 3 49 16 45 9 -3 21 1 28 9 8 9 24 12 49 9 29 -4 41 0 57 17 19 21 19 22 2 35 -55 40 -273 63 -664 69 -245 4 -322 -1 -346 -23 -19 -18 50 -44 137 -53 50 -5 95 -13 101 -19 5 -5 53 -9 106 -9 73 0 98 -3 102 -14 4 -10 -7 -15 -40 -20 -50 -7 -487 18 -623 35 -273 34 -541 104 -632 165 -27 19 -53 32 -57 29 -13 -7 -6 -92 9 -110 8 -10 46 -33 85 -53 38 -19 92 -46 118 -59 35 -18 47 -29 43 -40 -4 -9 -1 -22 5 -30 11 -12 0 -14 -72 -12 -134 4 -238 -9 -286 -37 -51 -30 -67 -54 -50 -78 11 -15 16 -14 65 10 45 22 65 26 150 26 90 1 210 -7 257 -16 11 -2 56 -7 100 -11 44 -4 132 -13 195 -21 63 -8 131 -12 150 -9 19 2 143 7 274 10 131 3 244 9 250 13 6 5 79 10 161 11 140 3 232 4 510 2 61 -1 173 1 250 4 l140 5 32 36 c55 63 81 177 48 220 -8 10 -15 25 -15 32 0 7 -12 38 -26 68 -14 30 -27 63 -29 72 -2 9 -4 17 -5 17 -5 0 -11 60 -13 130 -1 44 -6 86 -10 93 -12 18 -35 15 -47 -7z"/>
 <path d="M2755 6220 c-62 -25 -79 -84 -55 -200 6 -30 13 -75 16 -100 3 -25 11 -67 19 -95 7 -27 16 -70 20 -95 6 -44 12 -61 43 -130 25 -54 32 -62 48 -49 17 14 18 69 2 104 -9 21 -9 31 0 46 18 28 15 48 -13 81 -14 16 -27 39 -29 51 -15 77 -39 237 -41 266 0 23 7 44 24 64 18 22 22 33 15 45 -13 20 -24 23 -49 12z"/>
 <path d="M9235 5579 c-33 -4 -89 -15 -125 -24 -36 -9 -87 -21 -115 -26 -130 -23 -209 -49 -232 -77 -28 -34 -28 -42 -3 -49 11 -3 17 -9 14 -14 -15 -25 78 -17 351 30 66 12 134 21 150 21 17 -1 73 -1 125 0 91 1 161 -7 225 -28 l30 -9 -30 -13 c-16 -6 -75 -18 -130 -26 -55 -8 -109 -18 -120 -24 -11 -5 -33 -11 -50 -12 -19 -2 -30 -9 -30 -18 0 -12 12 -15 50 -13 28 0 113 2 190 3 168 2 198 11 226 74 57 130 -90 217 -361 215 -58 -1 -132 -5 -165 -10z"/>
 <path d="M10273 5570 c-12 -5 -30 -21 -39 -36 -17 -25 -17 -27 -1 -39 9 -6 14 -15 10 -18 -3 -4 0 -8 8 -11 8 -2 41 -12 74 -21 63 -19 189 -78 199 -94 3 -5 -1 -22 -9 -37 -8 -16 -15 -41 -15 -57 0 -34 31 -48 87 -41 l38 5 -45 -25 c-51 -27 -130 -107 -130 -131 0 -27 -1 -30 -17 -47 -19 -22 -33 -23 -33 -4 0 15 -7 31 -92 201 -47 94 -58 110 -79 110 -39 0 -34 -35 15 -125 26 -45 46 -85 46 -89 1 -3 9 -24 20 -46 29 -60 26 -80 -16 -100 -30 -14 -52 -16 -118 -11 -44 4 -128 9 -186 11 -58 3 -116 9 -130 14 -24 9 -91 16 -255 25 -38 3 -113 12 -165 20 -85 14 -199 21 -240 16 -8 -2 -60 1 -115 5 -55 5 -188 9 -295 10 -107 1 -213 6 -235 12 -22 6 -66 14 -98 17 l-58 6 -18 -42 c-20 -47 -11 -78 14 -45 13 17 18 18 137 2 67 -9 173 -16 233 -15 119 2 456 -7 570 -15 39 -2 140 -14 225 -25 85 -12 171 -23 190 -25 19 -2 62 -8 95 -14 32 -6 104 -13 160 -16 55 -3 133 -8 173 -11 94 -8 153 9 200 57 34 34 37 35 64 21 22 -11 89 -14 306 -15 247 -2 280 -4 303 -20 21 -14 39 -16 90 -12 93 9 132 21 159 52 31 35 50 68 50 87 0 24 -52 54 -103 59 -25 3 -51 8 -57 12 -12 8 -161 -15 -174 -27 -25 -21 -69 -8 -105 31 l-37 40 25 11 c14 6 41 25 61 41 19 17 55 44 79 62 24 18 54 45 65 60 l21 29 -22 18 c-18 14 -36 17 -83 14 -33 -2 -68 -7 -78 -12 -9 -5 -62 -12 -117 -15 -55 -3 -115 -9 -132 -13 -31 -6 -33 -5 -33 21 0 55 -147 164 -241 179 -76 12 -125 14 -146 6z m757 -233 c0 -2 -9 -12 -20 -22 -19 -18 -20 -17 -20 3 0 15 6 22 20 22 11 0 20 -2 20 -3z m-256 -182 c3 -8 13 -15 22 -15 9 0 29 -11 46 -25 l30 -25 -133 0 c-73 0 -129 3 -126 7 12 11 131 72 143 72 7 1 14 -6 18 -14z m474 -96 c93 -30 -43 -105 -152 -85 -32 6 -36 10 -25 22 7 8 12 28 11 44 0 19 5 30 16 34 23 6 109 -3 150 -15z"/>
 <path d="M4123 5479 c-12 -4 -74 -11 -138 -15 -64 -4 -118 -10 -120 -14 -11 -18 31 -49 70 -51 39 -3 143 6 215 18 19 3 103 6 185 7 155 1 185 7 165 31 -19 23 -176 37 -283 25 -31 -3 -60 -3 -64 1 -5 4 -18 3 -30 -2z"/>
 <path d="M3929 5390 c0 -3 -2 -14 -4 -25 -4 -19 4 -50 31 -128 8 -20 14 -52 14 -70 0 -40 17 -62 37 -46 16 14 17 45 3 54 -6 4 -8 15 -5 25 7 23 -30 137 -55 170 -11 14 -20 23 -21 20z"/>
 <path d="M8539 5323 c-15 -40 -7 -66 23 -81 28 -13 136 -38 204 -47 20 -2 51 -9 68 -14 58 -18 362 -72 431 -76 22 -1 81 -7 130 -13 50 -6 117 -14 150 -16 33 -3 89 -8 125 -11 57 -6 70 -4 103 15 45 27 46 42 7 70 -33 23 -80 32 -315 60 -254 30 -508 70 -530 84 -11 7 -56 16 -100 20 -44 4 -111 14 -150 22 -107 22 -133 19 -146 -13z"/>
 <path d="M3996 5073 c-9 -10 -7 -81 3 -87 17 -11 31 21 25 53 -7 33 -17 45 -28 34z"/>
 <path d="M3999 4947 c-9 -20 -8 -34 2 -67 19 -57 35 -47 31 20 -4 65 -16 83 -33 47z"/>
 <path d="M6132 4934 c-31 -7 -55 -58 -48 -99 14 -71 112 -165 201 -192 53 -17 142 -17 152 0 4 6 17 17 28 23 30 16 48 60 41 99 -6 29 -19 42 -82 85 -42 27 -83 50 -93 50 -9 0 -27 7 -39 16 -24 16 -118 27 -160 18z m287 -147 c13 -14 22 -30 20 -36 -5 -13 -79 53 -79 69 0 15 29 -2 59 -33z"/>
 <path d="M8400 4769 c-52 -5 -104 -13 -115 -18 -11 -5 -33 -12 -48 -16 -61 -13 -95 -77 -64 -119 12 -17 17 -17 50 -5 34 12 37 11 56 -12 18 -24 162 -119 180 -119 4 0 41 -41 82 -91 41 -50 85 -104 98 -120 l24 -30 -119 6 c-112 6 -182 12 -399 34 -49 5 -145 12 -213 15 -103 5 -127 3 -148 -10 -31 -21 -31 -47 1 -72 30 -24 46 -27 270 -48 94 -9 197 -20 230 -24 55 -7 51 -7 -50 -10 -276 -6 -312 -16 -289 -79 l11 -29 -76 -11 c-42 -6 -128 -18 -191 -27 -132 -18 -336 -67 -395 -94 -51 -23 -73 -55 -47 -68 19 -11 147 -8 205 3 20 4 37 6 38 4 0 -2 4 -42 8 -89 5 -52 20 -118 39 -170 26 -76 28 -86 13 -91 -36 -14 -357 19 -435 45 -56 19 -31 27 91 29 86 2 119 -2 160 -17 l53 -20 24 23 c19 18 23 28 16 45 -6 15 -2 27 13 44 l21 22 -20 28 c-40 54 -145 86 -374 111 -175 19 -279 -30 -207 -97 17 -16 36 -22 68 -22 l44 -1 -75 -37 c-63 -32 -76 -43 -84 -70 -7 -26 -6 -36 8 -50 15 -16 13 -17 -36 -27 -44 -8 -55 -15 -67 -39 -9 -20 -11 -34 -4 -45 12 -19 17 -20 726 -57 l117 -6 0 -32 c0 -33 24 -76 42 -76 6 0 20 -7 29 -16 17 -16 21 -15 53 10 35 26 56 81 41 105 -3 6 1 21 9 33 23 32 20 53 -12 85 -20 20 -33 51 -46 108 -11 44 -23 85 -26 90 -4 6 -22 48 -40 95 -18 47 -34 90 -37 96 -3 8 20 14 64 18 37 4 80 9 94 12 40 6 235 24 340 31 96 6 298 -10 377 -29 50 -12 72 0 72 41 -1 45 -29 68 -105 85 l-70 16 140 -4 c101 -2 154 -8 188 -20 46 -17 50 -17 68 0 10 9 19 24 19 33 0 12 3 12 12 3 17 -17 42 -15 69 7 22 17 23 22 13 59 l-10 39 70 18 c39 9 94 26 123 36 29 10 63 20 75 23 13 2 64 16 113 31 166 50 233 60 385 60 83 -1 103 -4 154 -29 33 -15 73 -38 89 -52 45 -38 130 -29 97 11 -6 8 -9 18 -6 23 9 16 -88 100 -146 127 -31 14 -85 31 -120 37 -35 5 -72 14 -83 19 -11 4 -128 13 -260 18 -132 6 -301 14 -375 17 -130 6 -265 27 -284 45 -5 4 -12 25 -15 46 -8 51 -43 58 -69 14 -21 -38 -41 -34 -94 16 -28 27 -42 34 -60 30 -13 -4 -41 0 -62 7 l-39 14 94 8 c52 4 119 8 149 9 84 2 89 4 100 25 38 71 -94 108 -310 89z m535 -420 c197 -15 189 -12 105 -39 -41 -13 -77 -25 -80 -25 -3 0 -9 -3 -15 -6 -17 -10 -116 -41 -119 -38 -2 2 -18 33 -36 68 l-32 64 29 -8 c15 -3 82 -11 148 -16z"/>
 <path d="M2426 3231 c-13 -20 -23 -127 -15 -155 5 -17 9 -41 9 -54 0 -40 68 -165 129 -236 92 -109 204 -188 411 -291 74 -37 153 -80 175 -95 52 -36 122 -57 136 -43 31 31 -78 113 -296 221 -71 35 -158 84 -192 108 -157 112 -267 291 -298 486 -5 35 -48 78 -59 59z"/>
 <path d="M6399 3002 c-47 -15 -102 -39 -122 -54 -19 -16 -39 -28 -43 -28 -3 0 -29 -16 -55 -35 -47 -34 -50 -35 -74 -19 -46 30 -74 12 -205 -126 -127 -136 -232 -231 -212 -193 11 19 8 24 -17 42 -52 37 -111 29 -207 -29 -46 -27 -87 -50 -92 -50 -4 0 -30 -14 -56 -31 -27 -16 -51 -27 -54 -24 -3 3 1 27 9 53 17 54 19 104 4 109 -16 5 -115 -92 -115 -113 0 -11 -13 -42 -30 -70 -26 -47 -36 -54 -97 -78 -37 -14 -110 -35 -162 -46 -51 -11 -101 -25 -109 -32 -23 -20 -325 -14 -373 6 -81 34 -124 116 -133 253 -2 34 -8 67 -12 75 -4 7 -8 24 -8 38 -1 38 -28 31 -53 -16 -17 -31 -23 -60 -25 -125 -3 -74 0 -91 24 -140 70 -144 210 -216 441 -226 168 -8 334 22 530 94 50 19 71 23 80 14 8 -6 45 -13 83 -17 148 -14 315 55 532 221 33 24 67 56 77 71 25 38 83 95 88 86 3 -4 8 -29 11 -57 9 -71 49 -123 120 -158 52 -26 67 -29 161 -29 72 0 121 6 157 17 64 21 194 83 263 126 49 30 195 166 195 181 0 18 -42 48 -67 48 -48 -1 -136 -46 -273 -140 -22 -15 -78 -38 -165 -69 -117 -40 -157 -51 -193 -51 -38 0 -43 3 -57 36 -20 48 -19 132 1 180 22 53 52 94 67 91 7 -1 11 4 10 11 -2 6 1 12 7 12 5 0 42 21 82 48 78 50 156 92 174 92 18 0 65 41 58 51 -3 5 -9 7 -14 4 -4 -3 -13 2 -20 10 -16 20 -28 18 -131 -13z"/>
 <path d="M8064 2906 c-12 -6 -50 -40 -85 -75 -35 -35 -104 -96 -154 -137 -49 -40 -106 -86 -125 -102 -41 -35 -210 -151 -246 -170 -14 -8 -28 -20 -31 -28 -3 -8 -11 -14 -18 -14 -7 0 -25 -13 -38 -30 -14 -16 -33 -30 -42 -30 -8 0 -18 -7 -22 -16 -3 -8 -12 -13 -20 -10 -7 3 -16 -1 -19 -9 -3 -8 -30 -28 -59 -45 -76 -44 -131 -110 -110 -132 18 -18 295 110 432 198 32 20 83 53 113 72 78 50 196 140 332 254 116 98 174 158 202 213 14 27 14 31 -6 52 -24 25 -68 29 -104 9z"/>
 <path d="M2248 2693 c-33 -39 -41 -82 -35 -181 3 -53 8 -108 11 -121 4 -19 3 -22 -6 -13 -7 7 -20 12 -29 12 -21 0 -59 -46 -59 -70 0 -10 -6 -30 -14 -45 -10 -20 -12 -35 -5 -53 6 -16 6 -29 -2 -38 -14 -17 6 -117 34 -164 50 -85 178 -178 297 -216 30 -9 66 -27 80 -39 42 -38 66 -45 147 -44 100 0 165 11 197 33 l26 17 -21 28 c-28 38 -50 47 -145 61 -77 11 -208 39 -289 61 -63 18 -125 51 -150 80 -37 44 -62 183 -57 308 2 33 3 34 17 15 8 -10 15 -27 15 -37 0 -9 30 -48 68 -86 79 -81 207 -149 341 -182 87 -22 203 -20 217 3 4 6 -8 25 -27 43 -27 24 -50 34 -109 44 -161 29 -295 88 -342 152 -46 62 -93 293 -76 374 7 34 7 50 -2 60 -17 20 -64 19 -82 -2z"/>
 <path d="M7170 2596 c-45 -12 -124 -60 -149 -90 -8 -9 -17 -16 -22 -16 -5 0 -33 -16 -64 -35 -30 -20 -63 -38 -73 -42 -9 -3 -24 -11 -32 -18 -8 -7 -42 -23 -75 -36 -33 -12 -64 -27 -69 -31 -6 -4 -17 -8 -25 -8 -9 0 -29 -7 -45 -15 -15 -8 -36 -15 -45 -15 -9 0 -21 -4 -27 -9 -5 -5 -30 -12 -55 -16 -50 -7 -61 0 -63 39 -2 46 -79 24 -101 -28 -19 -45 -13 -59 43 -96 52 -34 99 -38 225 -19 100 15 320 105 427 174 146 94 185 122 236 170 l58 54 -24 26 c-26 28 -51 30 -120 11z"/>
 </g>

</svg>